<svg width="810" height="459" viewBox="0 0 810 459" fill="none" xmlns="http://www.w3.org/2000/svg">
<g clip-path="url(#clip0_616_73)">
<path d="M646.369 179.778H775.437H810L783.36 199.003V236.767C783.36 241.115 779.8 244.663 775.437 244.663H646.369C642.006 244.663 638.446 241.115 638.446 236.767V187.674C638.446 183.325 642.006 179.778 646.369 179.778Z" fill="#F5F5F5"/>
<path d="M653.259 206.441C653.259 206.556 677.947 206.67 708.377 206.67C738.806 206.67 763.494 206.556 763.494 206.441C763.494 206.327 738.806 206.212 708.377 206.212C677.947 206.212 653.259 206.327 653.259 206.441Z" fill="#E0E0E0"/>
<path d="M653.259 220.974C653.259 221.089 677.947 221.203 708.377 221.203C738.806 221.203 763.494 221.089 763.494 220.974C763.494 220.86 738.806 220.746 708.377 220.746C677.947 220.631 653.259 220.746 653.259 220.974Z" fill="#E0E0E0"/>
<path d="M397.881 40.624H390.187V66.1431H397.881V40.624Z" fill="#E0E0E0"/>
<path d="M333.921 36.9619H326.228V66.2574H333.921V36.9619Z" fill="#F8B814"/>
<path d="M349.997 30.8975H342.304V66.258H349.997V30.8975Z" fill="#E0E0E0"/>
<path d="M365.958 32.7285H358.265V66.1436H365.958V32.7285Z" fill="#E0E0E0"/>
<path d="M381.919 21.5137H374.226V66.2579H381.919V21.5137Z" fill="#F8B814"/>
<path d="M413.957 21.7422H406.263V66.2575H413.957V21.7422Z" fill="#E0E0E0"/>
<path d="M429.918 36.2754H422.224V66.143H429.918V36.2754Z" fill="#E0E0E0"/>
<path d="M445.879 23.6875H438.185V66.2574H445.879V23.6875Z" fill="#E0E0E0"/>
<path d="M461.84 14.0752H454.146V66.2577H461.84V14.0752Z" fill="#F8B814"/>
<path d="M477.916 23.459H470.222V66.2578H477.916V23.459Z" fill="#E0E0E0"/>
<path d="M679.555 63.8546L742.825 54.242C748.107 88.9159 723.879 121.644 689.2 127.023C654.407 132.287 621.566 108.141 616.169 73.5816C611.002 38.9077 635.116 6.06473 669.909 0.686268C675.421 -0.114779 681.048 -0.229215 686.674 0.342962L679.555 63.8546Z" fill="#EBEBEB"/>
<path d="M700.109 0.572266L692.416 49.5506L740.643 40.5102C740.643 40.5102 733.524 13.0457 700.109 0.572266Z" fill="#F8B814"/>
<path d="M32.956 182.524C32.7263 165.245 46.5057 150.826 63.8448 150.597C81.1839 150.368 95.4226 164.215 95.7671 181.495C95.9968 198.774 82.2174 213.193 64.8783 213.422C47.654 213.765 33.3004 199.804 32.956 182.524ZM79.4615 181.723C79.3467 173.484 72.4569 166.847 64.1893 166.961C55.9216 167.076 49.2616 173.942 49.3764 182.181C49.4913 190.421 56.381 197.058 64.6486 196.943C72.9163 196.943 79.5763 190.077 79.4615 181.723Z" fill="#F5F5F5"/>
<path d="M32.956 182.524C32.7263 165.244 46.5057 150.826 63.8448 150.597L64.0745 166.961C55.8068 167.075 49.1468 173.941 49.2616 182.181C49.3764 190.42 56.2661 197.057 64.5338 196.943L64.7634 213.307C47.654 213.765 33.3004 199.804 32.956 182.524Z" fill="#E0E0E0"/>
<path d="M61.0889 148.079C81.2987 147.736 97.4895 163.414 97.834 183.669L78.6576 184.012C78.5428 174.285 71.0789 168.22 61.4334 168.334L61.0889 148.079Z" fill="#F8B814"/>
<path d="M237.006 292.84H197.046V340.102H237.006V292.84Z" fill="#F5F5F5"/>
<path d="M198.539 289.75H18.1431V343.077H198.539V289.75Z" fill="#E0E0E0"/>
<path d="M238.155 294.327H193.601V289.864H238.155C239.418 289.864 240.451 290.894 240.451 292.153C240.451 293.297 239.418 294.327 238.155 294.327Z" fill="#E0E0E0"/>
<path d="M238.155 343.077H193.601V338.614H238.155C239.418 338.614 240.451 339.644 240.451 340.902C240.451 342.161 239.418 343.077 238.155 343.077Z" fill="#E0E0E0"/>
<path d="M184.3 289.75H162.942V343.077H184.3V289.75Z" fill="#EBEBEB"/>
<path d="M56.6105 290.322H35.2524V343.649H56.6105V290.322Z" fill="#EBEBEB"/>
<path d="M237.006 300.736C237.006 300.85 228.394 300.965 217.715 300.965C207.036 300.965 198.424 300.85 198.424 300.736C198.424 300.621 207.036 300.507 217.715 300.507C228.394 300.507 237.006 300.507 237.006 300.736Z" fill="#E0E0E0"/>
<path d="M237.006 307.831C237.006 307.945 228.394 308.06 217.715 308.06C207.036 308.06 198.424 307.945 198.424 307.831C198.424 307.716 207.036 307.602 217.715 307.602C228.394 307.488 237.006 307.602 237.006 307.831Z" fill="#E0E0E0"/>
<path d="M237.006 316.528C237.006 316.642 228.394 316.757 217.715 316.757C207.036 316.757 198.424 316.642 198.424 316.528C198.424 316.413 207.036 316.299 217.715 316.299C228.394 316.299 237.006 316.413 237.006 316.528Z" fill="#E0E0E0"/>
<path d="M237.006 325.225C237.006 325.339 228.394 325.454 217.715 325.454C207.036 325.454 198.424 325.339 198.424 325.225C198.424 325.111 207.036 324.996 217.715 324.996C228.394 324.996 237.006 325.111 237.006 325.225Z" fill="#E0E0E0"/>
<path d="M237.006 333.922C237.006 334.037 228.394 334.151 217.715 334.151C207.036 334.151 198.424 334.037 198.424 333.922C198.424 333.808 207.036 333.693 217.715 333.693C228.394 333.693 237.006 333.808 237.006 333.922Z" fill="#E0E0E0"/>
<path d="M151.574 311.722H70.3901V321.334H151.574V311.722Z" fill="#EBEBEB"/>
<path d="M236.547 344.221H196.013V373.059H236.547V344.221Z" fill="#FAFAFA"/>
<path d="M196.587 343.077H24.1143V373.974H196.587V343.077Z" fill="#F5F5F5"/>
<path d="M195.208 345.251H238.843C239.417 345.251 239.877 344.793 239.877 344.221C239.877 343.649 239.417 343.191 238.843 343.191H195.208V345.251Z" fill="#F5F5F5"/>
<path d="M195.208 373.974H239.303C239.532 373.974 239.762 373.746 239.762 373.517V372.372C239.762 372.143 239.532 371.915 239.303 371.915H195.208V373.974Z" fill="#F5F5F5"/>
<path d="M236.547 349.599C236.547 349.714 227.59 349.828 216.567 349.828C205.543 349.828 196.586 349.714 196.586 349.599C196.586 349.485 205.543 349.371 216.567 349.371C227.59 349.371 236.547 349.485 236.547 349.599Z" fill="#E0E0E0"/>
<path d="M236.547 355.092C236.547 355.207 227.59 355.321 216.567 355.321C205.543 355.321 196.586 355.207 196.586 355.092C196.586 354.978 205.543 354.863 216.567 354.863C227.59 354.863 236.547 354.978 236.547 355.092Z" fill="#E0E0E0"/>
<path d="M236.547 360.585C236.547 360.7 227.59 360.814 216.567 360.814C205.543 360.814 196.586 360.7 196.586 360.585C196.586 360.471 205.543 360.356 216.567 360.356C227.59 360.356 236.547 360.356 236.547 360.585Z" fill="#E0E0E0"/>
<path d="M236.547 365.964C236.547 366.078 227.59 366.193 216.567 366.193C205.543 366.193 196.586 366.078 196.586 365.964C196.586 365.849 205.543 365.735 216.567 365.735C227.59 365.735 236.547 365.849 236.547 365.964Z" fill="#E0E0E0"/>
<path d="M242.747 376.721H201.409V454.766H242.747V376.721Z" fill="#EBEBEB"/>
<path d="M201.409 373.975H7.23438V458.657H201.409V373.975Z" fill="#E0E0E0"/>
<path d="M245.963 458.657H196.012V453.164H245.963C247.455 453.164 248.718 454.423 248.718 455.911C248.718 457.513 247.455 458.657 245.963 458.657Z" fill="#E0E0E0"/>
<path d="M247.455 379.468H196.012V373.975H247.455C248.144 373.975 248.718 374.547 248.718 375.233V378.209C248.718 379.01 248.144 379.468 247.455 379.468Z" fill="#E0E0E0"/>
<path d="M242.747 387.249C242.747 387.364 233.446 387.478 222.078 387.478C210.71 387.478 201.409 387.364 201.409 387.249C201.409 387.135 210.71 387.021 222.078 387.021C233.446 387.021 242.747 387.135 242.747 387.249Z" fill="#E0E0E0"/>
<path d="M242.747 397.205C242.747 397.319 233.446 397.434 222.078 397.434C210.71 397.434 201.409 397.319 201.409 397.205C201.409 397.091 210.71 396.976 222.078 396.976C233.446 396.976 242.747 397.091 242.747 397.205Z" fill="#E0E0E0"/>
<path d="M242.747 407.275C242.747 407.39 233.446 407.504 222.078 407.504C210.71 407.504 201.409 407.39 201.409 407.275C201.409 407.161 210.71 407.046 222.078 407.046C233.446 407.046 242.747 407.161 242.747 407.275Z" fill="#E0E0E0"/>
<path d="M242.747 417.346C242.747 417.46 233.446 417.574 222.078 417.574C210.71 417.574 201.409 417.46 201.409 417.346C201.409 417.231 210.71 417.117 222.078 417.117C233.446 417.002 242.747 417.117 242.747 417.346Z" fill="#E0E0E0"/>
<path d="M242.747 427.302C242.747 427.416 233.446 427.53 222.078 427.53C210.71 427.53 201.409 427.416 201.409 427.302C201.409 427.187 210.71 427.073 222.078 427.073C233.446 427.073 242.747 427.187 242.747 427.302Z" fill="#E0E0E0"/>
<path d="M242.747 437.372C242.747 437.486 233.446 437.601 222.078 437.601C210.71 437.601 201.409 437.486 201.409 437.372C201.409 437.258 210.71 437.143 222.078 437.143C233.446 437.143 242.747 437.143 242.747 437.372Z" fill="#E0E0E0"/>
<path d="M242.747 447.327C242.747 447.442 233.446 447.556 222.078 447.556C210.71 447.556 201.409 447.442 201.409 447.327C201.409 447.213 210.71 447.099 222.078 447.099C233.446 447.099 242.747 447.213 242.747 447.327Z" fill="#E0E0E0"/>
<path d="M73.72 421.007V425.699C73.72 431.421 70.8493 434.625 65.3376 434.625C59.8258 434.625 56.9551 431.421 56.9551 425.699V407.275C56.9551 401.553 59.8258 398.349 65.3376 398.349C70.8493 398.349 73.72 401.553 73.72 407.275V410.708H68.4379V406.932C68.4379 404.414 67.2896 403.384 65.5672 403.384C63.8448 403.384 62.6965 404.3 62.6965 406.932V426.042C62.6965 428.56 63.8448 429.476 65.5672 429.476C67.2896 429.476 68.4379 428.56 68.4379 426.042V421.007H73.72Z" fill="#EBEBEB"/>
<path d="M76.5908 407.275C76.5908 401.553 79.5764 398.349 85.0881 398.349C90.5999 398.349 93.5854 401.553 93.5854 407.275V425.699C93.5854 431.421 90.5999 434.625 85.0881 434.625C79.5764 434.625 76.5908 431.421 76.5908 425.699V407.275ZM82.2174 426.042C82.2174 428.56 83.3657 429.59 85.0881 429.59C86.8106 429.59 87.9588 428.674 87.9588 426.042V406.932C87.9588 404.414 86.8106 403.384 85.0881 403.384C83.3657 403.384 82.2174 404.3 82.2174 406.932V426.042Z" fill="#EBEBEB"/>
<path d="M97.145 398.807H102.772V429.132H111.958V434.167H97.145V398.807Z" fill="#EBEBEB"/>
<path d="M113.91 407.275C113.91 401.553 116.896 398.349 122.407 398.349C127.919 398.349 130.905 401.553 130.905 407.275V425.699C130.905 431.421 127.919 434.625 122.407 434.625C116.896 434.625 113.91 431.421 113.91 425.699V407.275ZM119.537 426.042C119.537 428.56 120.685 429.59 122.407 429.59C124.13 429.59 125.278 428.674 125.278 426.042V406.932C125.278 404.414 124.13 403.384 122.407 403.384C120.685 403.384 119.537 404.3 119.537 406.932V426.042Z" fill="#EBEBEB"/>
<path d="M139.861 398.807V426.157C139.861 428.674 141.009 429.59 142.732 429.59C144.454 429.59 145.602 428.674 145.602 426.157V398.807H150.885V425.813C150.885 431.535 148.014 434.739 142.502 434.739C136.99 434.739 134.12 431.535 134.12 425.813V398.807H139.861Z" fill="#EBEBEB"/>
<path d="M166.502 434.167C166.157 433.252 166.042 432.68 166.042 429.819V424.211C166.042 420.893 164.894 419.748 162.368 419.748H160.416V434.167H154.789V398.692H163.172C168.913 398.692 171.439 401.324 171.439 406.817V409.564C171.439 413.226 170.291 415.629 167.765 416.773C170.521 417.918 171.439 420.664 171.439 424.326V429.819C171.439 431.535 171.439 432.794 172.013 434.167H166.502ZM160.416 403.842V414.713H162.597C164.664 414.713 165.927 413.798 165.927 410.937V407.389C165.927 404.872 165.009 403.728 163.057 403.728H160.416V403.842Z" fill="#EBEBEB"/>
<path d="M72.4571 355.321H68.3232L68.5529 354.292H77.9688L77.7392 355.321H73.7202L71.6533 365.735H70.505L72.4571 355.321Z" fill="#E0E0E0"/>
<path d="M85.7773 357.152L79.4617 366.879C78.4283 368.481 77.6245 369.054 76.3613 369.054C75.5576 369.054 74.7537 368.825 74.2944 368.253L74.8686 367.452C75.2131 367.795 75.7872 368.024 76.3613 368.024C77.0503 368.024 77.7393 367.68 78.3134 366.65L78.8876 365.735L76.7058 357.152H77.8541L79.6914 364.476L84.3993 357.152H85.7773Z" fill="#E0E0E0"/>
<path d="M95.4225 360.7C95.4225 363.676 93.3556 365.85 90.4849 365.85C88.8773 365.85 87.729 365.163 87.1549 363.904L86.1214 368.94H84.9731L87.3845 357.038H88.5328L88.3032 358.412C89.107 357.496 90.2553 356.924 91.6332 356.924C93.9298 357.038 95.4225 358.412 95.4225 360.7ZM94.2742 360.815C94.2742 359.098 93.2408 358.068 91.4035 358.068C89.2218 358.068 87.6142 359.785 87.6142 362.073C87.6142 363.79 88.6477 364.705 90.4849 364.705C92.6667 364.82 94.2742 363.103 94.2742 360.815Z" fill="#E0E0E0"/>
<path d="M96.8008 362.188C96.8008 359.212 98.8677 357.038 101.853 357.038C104.265 357.038 105.757 358.411 105.757 360.7C105.757 363.675 103.69 365.85 100.705 365.85C98.4084 365.85 96.8008 364.362 96.8008 362.188ZM104.609 360.814C104.609 359.098 103.576 358.068 101.738 358.068C99.5567 358.068 97.9491 359.785 97.9491 362.073C97.9491 363.79 98.9825 364.705 100.82 364.705C103.002 364.82 104.609 363.103 104.609 360.814Z" fill="#E0E0E0"/>
<path d="M117.01 357.152L115.518 364.705C114.944 367.795 113.336 369.054 110.465 369.054C108.858 369.054 107.48 368.596 106.561 367.795L107.25 366.879C107.939 367.566 109.087 368.024 110.465 368.024C112.647 368.024 113.795 366.994 114.255 364.934L114.484 364.018C113.68 364.934 112.532 365.506 111.039 365.506C108.743 365.506 107.25 364.133 107.25 362.073C107.25 359.327 109.317 357.152 112.188 357.152C113.795 357.152 115.058 357.839 115.518 359.098L115.862 357.152H117.01ZM115.058 360.585C115.058 358.983 114.025 358.068 112.188 358.068C110.006 358.068 108.398 359.67 108.398 361.844C108.398 363.446 109.432 364.362 111.269 364.362C113.451 364.362 115.058 362.76 115.058 360.585Z" fill="#E0E0E0"/>
<path d="M124.704 357.038L124.475 358.182C124.36 358.182 124.245 358.182 124.13 358.182C122.293 358.182 121.03 359.212 120.57 361.387L119.652 365.735H118.503L120.226 357.038H121.374L121.03 358.64C121.833 357.496 122.982 357.038 124.704 357.038Z" fill="#E0E0E0"/>
<path d="M134.579 357.152L132.857 365.849H131.709L131.938 364.476C131.134 365.392 129.986 365.964 128.608 365.964C126.426 365.964 124.819 364.591 124.819 362.302C124.819 359.327 126.886 357.152 129.756 357.152C131.364 357.152 132.512 357.839 133.087 358.983L133.431 357.152H134.579ZM132.627 360.814C132.627 359.098 131.594 358.068 129.756 358.068C127.575 358.068 125.967 359.784 125.967 362.073C125.967 363.79 127.001 364.705 128.838 364.705C131.134 364.82 132.627 363.103 132.627 360.814Z" fill="#E0E0E0"/>
<path d="M145.947 360.7C145.947 363.676 143.881 365.85 141.01 365.85C139.402 365.85 138.254 365.163 137.68 363.904L136.646 368.94H135.498L137.909 357.038H139.058L138.828 358.412C139.632 357.496 140.78 356.924 142.158 356.924C144.34 357.038 145.947 358.412 145.947 360.7ZM144.684 360.815C144.684 359.098 143.651 358.068 141.814 358.068C139.632 358.068 138.024 359.785 138.024 362.073C138.024 363.79 139.058 364.705 140.895 364.705C143.077 364.82 144.684 363.103 144.684 360.815Z" fill="#E0E0E0"/>
<path d="M156.397 359.899C156.397 360.242 156.397 360.586 156.282 360.929L155.248 365.85H154.1L155.134 360.929C155.134 360.7 155.248 360.357 155.248 360.128C155.248 358.869 154.559 358.182 152.952 358.182C151.115 358.182 149.851 359.212 149.392 361.158L148.473 365.85H147.325L149.737 353.605H150.885L149.966 358.411C150.77 357.496 151.918 357.038 153.296 357.038C155.248 357.038 156.397 358.068 156.397 359.899Z" fill="#E0E0E0"/>
<path d="M167.42 357.152L161.105 366.879C160.071 368.481 159.268 369.054 158.004 369.054C157.201 369.054 156.397 368.825 155.938 368.253L156.512 367.452C156.856 367.795 157.43 368.024 158.004 368.024C158.693 368.024 159.268 367.68 159.956 366.65L160.531 365.735L158.349 357.152H159.497L161.334 364.476L166.042 357.152H167.42Z" fill="#E0E0E0"/>
<path d="M193.486 1.4873H54.5437H17.4541L46.1612 22.0857V62.7102C46.1612 67.402 49.9506 71.1784 54.6585 71.1784H193.601C198.309 71.1784 202.098 67.402 202.098 62.7102V9.95552C202.098 5.26367 198.194 1.4873 193.486 1.4873Z" fill="#F5F5F5"/>
<path d="M186.137 30.0962C186.137 30.2107 159.612 30.4395 126.771 30.4395C94.0445 30.4395 67.4043 30.3251 67.4043 30.0962C67.4043 29.9818 93.9297 29.7529 126.771 29.7529C159.612 29.8674 186.137 29.9818 186.137 30.0962Z" fill="#E0E0E0"/>
<path d="M186.137 45.774C186.137 45.8884 159.612 46.1173 126.771 46.1173C94.0445 46.1173 67.4043 46.0028 67.4043 45.774C67.4043 45.6595 93.9297 45.4307 126.771 45.4307C159.612 45.4307 186.137 45.5451 186.137 45.774Z" fill="#E0E0E0"/>
<path d="M804.373 458.657C804.373 458.771 624.322 459 402.129 459C180.051 459 0 458.886 0 458.657C0 458.428 180.051 458.313 402.244 458.313C624.322 458.428 804.373 458.542 804.373 458.657Z" fill="#263238"/>
<path d="M728.816 400.294C728.816 400.294 698.387 365.392 686.904 330.489C675.421 295.586 680.818 299.591 680.818 299.591C680.818 299.591 696.32 333.464 708.147 349.943C719.974 366.193 740.873 390.224 740.873 390.224L728.816 400.294Z" fill="#455A64"/>
<path d="M734.902 304.97C733.869 303.254 731.342 304.169 731.572 306.114C733.409 318.359 737.428 347.197 737.313 365.85C737.084 390.11 737.313 399.494 737.313 399.494H749.945C749.945 399.494 747.648 349.371 744.777 334.037C742.825 323.28 738.577 311.493 734.902 304.97Z" fill="#455A64"/>
<path d="M741.792 395.374C741.792 395.374 749.715 378.666 752.241 357.725C753.275 348.799 751.437 336.783 748.681 320.648C747.304 312.866 747.074 306.915 747.074 302.796C747.074 299.706 751.208 298.676 752.7 301.423C754.193 304.169 758.672 313.438 759.82 319.274C762.92 335.181 766.365 343.077 763.724 358.182C761.083 373.288 751.208 396.518 751.208 396.518L741.792 395.374Z" fill="#455A64"/>
<path d="M753.275 396.404C753.275 396.404 786.69 324.882 788.986 314.239C791.283 303.597 799.206 279.108 800.125 280.481C801.043 281.854 802.421 294.785 796.45 309.547C790.479 324.309 764.758 398.578 764.758 398.578H753.275" fill="#455A64"/>
<path d="M738.117 393.2C738.117 393.2 737.773 392.971 737.199 392.513C736.625 392.055 735.706 391.483 734.558 390.568C732.376 388.851 729.161 386.219 725.601 382.672C718.252 375.691 709.181 364.934 701.372 351.66C693.449 338.385 688.167 325.454 684.837 315.956C683.115 311.15 681.966 307.259 681.162 304.627C680.703 303.253 680.473 302.224 680.244 301.537C680.014 300.85 680.014 300.393 680.014 300.393C680.014 300.393 680.129 300.736 680.359 301.422C680.588 302.224 680.933 303.253 681.392 304.512C682.311 307.144 683.574 311.035 685.296 315.727C688.741 325.111 694.138 338.042 701.946 351.316C709.755 364.476 718.711 375.233 725.946 382.328C729.505 385.876 732.606 388.622 734.787 390.339C735.821 391.254 736.739 391.941 737.314 392.399C737.888 392.971 738.117 393.2 738.117 393.2Z" fill="#263238"/>
<path d="M741.792 358.869C741.792 358.869 741.677 358.068 741.447 356.809C741.333 355.321 741.103 353.376 740.873 351.087C740.299 346.281 739.495 339.529 738.347 332.205C737.199 324.882 735.821 318.244 734.787 313.552C734.328 311.264 733.869 309.318 733.524 307.945C733.295 306.572 733.065 305.885 733.18 305.885C733.18 305.885 733.409 306.572 733.869 307.945C734.213 309.204 734.787 311.149 735.361 313.552C736.51 318.244 737.888 324.882 739.151 332.205C740.299 339.529 741.103 346.281 741.447 351.087C741.677 353.49 741.792 355.436 741.792 356.809C741.792 358.068 741.907 358.869 741.792 358.869Z" fill="#263238"/>
<path d="M749.6 300.736C749.6 300.736 749.715 301.079 749.945 301.651C750.174 302.338 750.519 303.253 750.978 304.283C751.437 305.428 751.897 306.915 752.356 308.517C752.815 310.234 753.504 312.065 753.964 314.239C754.193 315.269 754.538 316.413 754.767 317.558C754.997 318.702 755.227 319.961 755.456 321.22C756.031 323.737 756.375 326.484 756.72 329.459C757.409 335.295 757.753 341.704 757.523 348.455C757.294 355.207 756.49 361.615 755.342 367.337C754.767 370.198 754.193 372.945 753.504 375.462C753.16 376.721 752.815 377.98 752.471 379.124C752.126 380.268 751.782 381.413 751.437 382.443C750.749 384.503 750.059 386.448 749.371 388.05C748.796 389.652 748.107 391.025 747.648 392.17C747.189 393.2 746.729 394.115 746.5 394.802C746.27 395.374 746.041 395.717 746.041 395.717C746.041 395.717 746.155 395.374 746.385 394.802C746.615 394.115 746.959 393.314 747.418 392.17C747.878 391.025 748.452 389.652 749.026 387.936C749.6 386.333 750.404 384.388 750.978 382.328C751.323 381.298 751.667 380.154 752.012 379.01C752.356 377.865 752.586 376.606 752.93 375.348C753.619 372.83 754.193 370.198 754.767 367.337C755.801 361.615 756.605 355.321 756.834 348.57C757.064 341.818 756.72 335.524 756.145 329.688C755.801 326.827 755.456 324.081 754.882 321.563C754.653 320.304 754.423 319.045 754.193 317.901C753.964 316.757 753.619 315.612 753.39 314.583C752.93 312.408 752.356 310.577 751.897 308.861C751.437 307.144 750.978 305.771 750.634 304.627C750.289 303.482 749.945 302.567 749.715 301.88C749.715 301.079 749.6 300.736 749.6 300.736Z" fill="#263238"/>
<path d="M799.665 281.968C799.665 281.968 799.665 282.083 799.665 282.312C799.665 282.54 799.55 282.884 799.55 283.227C799.436 284.028 799.206 285.287 798.861 286.775C798.173 289.864 797.139 294.327 795.417 299.706C793.809 305.084 791.512 311.378 788.757 318.359C786.116 325.339 782.9 332.892 779.915 340.902C776.929 348.913 774.633 356.809 772.451 363.904C770.269 370.999 768.202 377.407 766.25 382.671C764.298 387.935 762.346 392.055 760.968 394.916C760.279 396.289 759.705 397.433 759.246 398.12C759.016 398.463 758.901 398.692 758.786 398.921C758.671 399.15 758.671 399.15 758.557 399.15C758.557 399.15 758.557 399.036 758.672 398.807C758.786 398.578 758.901 398.349 759.131 398.006C759.475 397.205 760.049 396.175 760.738 394.801C762.116 391.941 763.839 387.821 765.791 382.557C767.743 377.293 769.695 370.884 771.877 363.79C774.059 356.695 776.355 348.798 779.341 340.788C782.326 332.778 785.427 325.225 788.182 318.244C790.938 311.378 793.235 305.084 794.957 299.706C796.68 294.327 797.828 289.979 798.517 286.889C798.861 285.401 799.091 284.143 799.321 283.341C799.436 282.998 799.436 282.655 799.55 282.426C799.665 282.083 799.665 281.968 799.665 281.968Z" fill="#263238"/>
<path d="M696.664 266.176C694.597 264.116 691.038 266.291 691.956 269.152C692.875 272.012 694.138 275.674 696.205 279.909C700.798 289.636 714.348 324.538 720.663 343.763C726.979 362.989 735.936 398.692 735.936 398.692L749.37 396.518C749.37 396.518 737.084 337.698 724.912 316.528C715.152 299.477 705.391 274.873 696.664 266.176Z" fill="#455A64"/>
<path d="M724.223 355.665C724.223 355.665 724.567 356.237 724.912 357.267C725.256 358.297 725.831 359.899 726.52 361.73C727.783 365.62 729.275 370.884 730.768 376.835C732.261 382.786 733.524 388.164 734.443 392.169C734.902 394 735.132 395.602 735.476 396.861C735.706 398.006 735.821 398.578 735.706 398.578C735.706 398.578 735.476 398.006 735.132 396.861C734.787 395.602 734.443 394.115 733.868 392.284C732.835 388.279 731.457 382.9 729.964 377.064C728.472 371.113 726.979 365.735 725.831 361.844C725.256 360.013 724.797 358.525 724.453 357.267C724.338 356.237 724.108 355.665 724.223 355.665Z" fill="#263238"/>
<path d="M742.481 397.434C742.481 397.434 742.481 397.319 742.366 397.09C742.366 396.861 742.251 396.518 742.251 396.06C742.136 395.145 742.021 393.772 741.677 391.941C741.218 388.393 740.299 383.358 738.806 377.064C737.313 370.885 735.246 363.561 732.491 355.55C729.735 347.54 726.29 338.957 722.271 330.031C714.348 312.294 706.424 296.502 701.142 284.829C698.501 278.993 696.434 274.301 695.171 270.983C694.482 269.381 694.023 268.007 693.679 267.206C693.564 266.748 693.449 266.52 693.334 266.176C693.219 265.947 693.219 265.833 693.219 265.833C693.219 265.833 693.334 265.947 693.449 266.176C693.564 266.405 693.679 266.748 693.908 267.206C694.253 268.122 694.827 269.381 695.516 270.983C696.894 274.301 699.075 278.993 701.717 284.715C706.999 296.273 715.037 312.065 722.96 329.917C726.864 338.843 730.309 347.425 733.065 355.436C735.821 363.446 737.887 370.77 739.265 377.064C740.643 383.358 741.447 388.393 741.906 391.941C742.136 393.657 742.251 395.145 742.366 396.06C742.366 396.518 742.481 396.861 742.481 397.09C742.481 397.319 742.481 397.434 742.481 397.434Z" fill="#263238"/>
<path d="M749.255 396.404C749.255 396.404 749.026 395.603 748.796 394.115C748.566 392.513 748.222 390.453 747.763 387.935C746.844 382.671 745.466 375.576 743.399 367.795C741.332 360.013 739.151 353.033 737.313 347.997C736.509 345.594 735.706 343.649 735.246 342.047C734.787 340.674 734.443 339.873 734.557 339.873C734.557 339.873 734.902 340.559 735.591 341.932C736.165 343.306 736.969 345.251 737.887 347.769C739.725 352.689 742.136 359.67 744.203 367.566C746.27 375.348 747.648 382.671 748.452 387.821C748.796 390.453 749.141 392.513 749.255 394C749.255 395.603 749.255 396.404 749.255 396.404Z" fill="#263238"/>
<path d="M776.929 394.458H724.223V458.428H776.929V394.458Z" fill="#F8B814"/>
<g opacity="0.3">
<path d="M776.929 394.458H724.223V458.428H776.929V394.458Z" fill="black"/>
</g>
<path d="M760.164 394.458H713.429V458.428H760.164V394.458Z" fill="#F8B814"/>
<path d="M75.557 372.258C66.6004 366.536 54.1989 366.422 45.472 372.487C37.2043 378.209 32.9557 388.737 33.3002 398.807C33.6447 408.877 38.5823 421.236 47.7686 426.5L74.6384 426.386C83.2505 420.092 88.992 410.022 89.4513 399.379C89.7958 388.737 84.5137 377.98 75.557 372.258Z" fill="#455A64"/>
<path d="M62.3516 427.53C62.2368 427.53 62.2368 426.729 62.2368 425.242C62.2368 423.64 62.122 421.465 62.0071 418.948C61.8923 413.684 61.6626 406.36 61.3182 398.235C60.9737 390.11 60.5144 382.786 60.1699 377.522C60.055 375.005 59.9402 372.945 59.8254 371.228C59.7106 369.741 59.7106 368.939 59.8254 368.939C59.9402 368.939 60.055 369.741 60.1699 371.228C60.3995 372.716 60.6292 374.89 60.8588 377.522C61.3182 382.786 61.8923 390.11 62.2368 398.235C62.5813 406.36 62.6961 413.684 62.6961 418.948C62.6961 421.58 62.6961 423.754 62.5813 425.242C62.4664 426.615 62.3516 427.53 62.3516 427.53Z" fill="#263238"/>
<path d="M35.9411 396.518C35.9411 396.747 34.4484 396.861 32.7259 396.632C30.8887 396.518 29.5107 396.175 29.5107 395.946C29.5107 395.717 31.0035 395.602 32.7259 395.831C34.5632 396.06 36.056 396.289 35.9411 396.518Z" fill="#263238"/>
<path d="M36.5153 387.478C36.4005 387.707 35.1374 387.363 33.7595 386.677C32.2667 385.99 31.2332 385.303 31.3481 385.075C31.4629 384.846 32.726 385.189 34.1039 385.876C35.4819 386.562 36.6302 387.363 36.5153 387.478Z" fill="#263238"/>
<path d="M41.1086 380.841C40.9937 381.069 39.6158 380.383 38.123 379.124C36.6303 377.865 35.7116 376.607 35.9413 376.492C36.171 376.378 37.3192 377.293 38.6972 378.438C40.0751 379.696 41.3382 380.612 41.1086 380.841Z" fill="#263238"/>
<path d="M45.8167 374.432C45.587 374.547 44.898 373.517 44.3239 372.029C43.7498 370.656 43.4053 369.397 43.6349 369.283C43.8646 369.168 44.5536 370.198 45.1277 371.686C45.7018 373.173 46.0463 374.432 45.8167 374.432Z" fill="#263238"/>
<path d="M53.1654 369.969C52.9357 370.084 52.2468 368.939 51.7874 367.337C51.3281 365.735 51.2133 364.476 51.443 364.362C51.6726 364.362 52.1319 365.506 52.5912 366.994C53.0506 368.71 53.395 369.855 53.1654 369.969Z" fill="#263238"/>
<path d="M65.4523 364.934C65.682 365.048 65.5672 365.964 65.1078 367.108C64.7634 368.253 64.1892 369.054 63.9596 368.939C63.7299 368.825 63.8447 367.909 64.304 366.765C64.7634 365.735 65.2227 364.82 65.4523 364.934Z" fill="#263238"/>
<path d="M74.6384 368.825C74.7533 369.054 74.1791 369.855 73.3753 370.656C72.4567 371.457 71.6529 372.029 71.5381 371.8C71.4232 371.571 71.9974 370.77 72.8012 369.969C73.605 369.168 74.4088 368.711 74.6384 368.825Z" fill="#263238"/>
<path d="M82.6762 373.975C82.7911 374.203 82.1021 374.89 81.0686 375.577C80.0352 376.263 79.1166 376.607 79.0017 376.492C78.8869 376.263 79.5759 375.577 80.6093 374.89C81.528 374.203 82.4466 373.746 82.6762 373.975Z" fill="#263238"/>
<path d="M88.3033 381.641C88.4181 381.87 87.2698 382.557 85.7771 383.129C84.2843 383.701 83.0212 384.045 82.9064 383.93C82.7915 383.701 83.9398 383.015 85.4326 382.442C86.9254 381.756 88.1885 381.527 88.3033 381.641Z" fill="#263238"/>
<path d="M90.5999 390.11C90.5999 390.339 89.4516 390.682 88.0737 390.911C86.5809 391.14 85.4326 391.025 85.4326 390.796C85.4326 390.568 86.5809 390.224 87.9588 389.995C89.3368 389.766 90.4851 389.881 90.5999 390.11Z" fill="#263238"/>
<path d="M91.748 400.409C91.6331 400.638 90.4848 400.295 88.9921 399.722C87.6141 399.15 86.4659 398.464 86.5807 398.235C86.6955 398.006 87.8438 398.349 89.3366 398.921C90.7145 399.494 91.8628 400.18 91.748 400.409Z" fill="#263238"/>
<path d="M90.7144 409.335C90.5995 409.564 89.1067 409.22 87.4991 408.076C85.8916 407.046 84.9729 405.787 85.0878 405.673C85.3174 405.558 86.4657 406.474 87.9585 407.389C89.4512 408.305 90.8292 409.106 90.7144 409.335Z" fill="#263238"/>
<path d="M86.1212 417.345C86.0064 417.574 84.7432 416.773 83.595 415.514C82.4467 414.255 81.7577 412.997 81.9874 412.882C82.217 412.768 83.1356 413.798 84.2839 414.942C85.3174 416.201 86.236 417.116 86.1212 417.345Z" fill="#263238"/>
<path d="M42.142 418.261C42.2568 418.49 40.9937 419.405 39.2713 420.206C37.5488 421.122 36.0561 421.58 36.0561 421.465C35.9412 421.236 37.2044 420.321 38.9268 419.52C40.5344 418.604 42.0272 418.146 42.142 418.261Z" fill="#263238"/>
<path d="M38.1231 411.051C38.2379 411.28 37.2045 411.967 35.8265 412.539C34.4486 413.111 33.3003 413.454 33.1855 413.225C33.0706 412.997 34.1041 412.31 35.482 411.738C36.7452 411.166 38.0083 410.822 38.1231 411.051Z" fill="#263238"/>
<path d="M35.1375 404.529C35.1375 404.757 33.8744 405.101 32.2668 405.33C30.6592 405.559 29.3961 405.559 29.2812 405.33C29.2812 405.101 30.5444 404.757 32.152 404.529C33.7596 404.3 35.1375 404.3 35.1375 404.529Z" fill="#263238"/>
<path d="M44.783 400.981C44.8978 401.21 43.6347 401.782 41.9123 402.011C40.3047 402.24 38.9268 401.897 38.9268 401.668C38.9268 401.439 40.1899 401.325 41.7975 401.096C43.4051 400.981 44.783 400.752 44.783 400.981Z" fill="#263238"/>
<path d="M52.8212 392.971C52.9361 393.199 51.9026 393.657 50.5247 393.772C49.1467 393.886 48.1133 393.657 48.1133 393.428C48.1133 393.199 49.1467 393.085 50.4099 392.971C51.7878 392.856 52.8212 392.742 52.8212 392.971Z" fill="#263238"/>
<path d="M54.4289 386.562C54.3141 386.791 53.2806 386.676 52.0175 386.219C50.7544 385.761 49.8358 385.303 49.9506 385.074C50.0654 384.846 51.0989 384.96 52.362 385.418C53.5103 385.875 54.4289 386.333 54.4289 386.562Z" fill="#263238"/>
<path d="M57.2995 380.154C57.1847 380.268 56.3809 379.811 55.9216 378.895C55.3474 377.98 55.3474 377.064 55.5771 377.064C55.8067 376.95 56.1512 377.636 56.7254 378.438C57.0698 379.239 57.5292 379.925 57.2995 380.154Z" fill="#263238"/>
<path d="M53.7396 406.589C53.7396 406.817 52.821 407.275 51.6727 407.504C50.9837 407.619 50.2948 407.733 49.9503 407.733L49.8354 407.275C50.1799 407.275 50.2948 407.275 50.4096 407.275C50.4096 407.39 50.2948 407.504 50.0651 407.733L49.9503 407.275C50.2948 407.046 50.8689 406.817 51.5579 406.703C52.7062 406.474 53.7396 406.36 53.7396 406.589Z" fill="#263238"/>
<path d="M55.462 417.917C55.5768 418.146 54.3137 418.833 52.8209 419.405C51.3282 419.977 49.9502 420.321 49.8354 420.092C49.7206 419.863 50.9837 419.176 52.4764 418.604C54.084 418.032 55.3472 417.689 55.462 417.917Z" fill="#263238"/>
<path d="M46.3906 412.882C46.5054 413.111 45.7016 413.569 44.6682 413.912C43.6347 414.256 42.7161 414.37 42.6013 414.141C42.4864 413.912 43.2902 413.454 44.3237 413.111C45.3572 412.768 46.2758 412.653 46.3906 412.882Z" fill="#263238"/>
<path d="M47.0798 389.881C47.0798 390.11 45.7019 389.995 44.0943 389.423C42.4867 388.851 41.3384 388.164 41.4532 387.935C41.568 387.707 42.8312 388.164 44.3239 388.622C45.8167 389.08 47.0798 389.652 47.0798 389.881Z" fill="#263238"/>
<path d="M69.0118 387.363C69.1266 387.592 68.3228 388.279 67.2894 388.965C66.2559 389.652 65.2224 390.11 65.1076 389.881C64.9928 389.652 65.7966 388.965 66.83 388.279C67.9783 387.592 68.897 387.134 69.0118 387.363Z" fill="#263238"/>
<path d="M70.2752 398.692C70.2752 398.921 69.4714 399.264 68.4379 399.493C67.4045 399.722 66.4858 399.722 66.4858 399.493C66.4858 399.264 67.2896 398.921 68.3231 398.692C69.3565 398.463 70.1603 398.463 70.2752 398.692Z" fill="#263238"/>
<path d="M71.653 411.509C71.5381 411.738 70.3898 411.395 69.0119 410.823C67.634 410.25 66.7153 409.564 66.7153 409.335C66.8302 409.106 67.9784 409.449 69.3564 410.021C70.7343 410.594 71.7678 411.28 71.653 411.509Z" fill="#263238"/>
<path d="M68.6675 423.983C68.4379 424.097 67.7489 423.525 66.9451 422.609C66.1413 421.694 65.682 420.893 65.9117 420.664C66.1413 420.549 66.8303 421.122 67.6341 422.037C68.4379 422.953 68.8972 423.868 68.6675 423.983Z" fill="#263238"/>
<path d="M68.0933 378.895C68.2081 379.124 67.7488 379.696 66.8302 380.154C66.0264 380.612 65.2226 380.612 65.1078 380.383C64.993 380.154 65.6819 379.81 66.4857 379.353C67.2895 379.009 67.9785 378.781 68.0933 378.895Z" fill="#263238"/>
<path d="M78.8873 390.453C79.0021 390.682 77.9687 391.254 76.5907 391.368C75.2128 391.597 74.0645 391.254 74.1793 391.025C74.1793 390.796 75.2128 390.682 76.4759 390.453C77.739 390.339 78.7725 390.224 78.8873 390.453Z" fill="#263238"/>
<path d="M76.7052 380.154C76.82 380.383 75.7866 381.069 74.4086 381.527C73.0307 381.985 71.7676 381.985 71.7676 381.756C71.7676 381.527 72.801 381.184 74.179 380.726C75.5569 380.268 76.5904 379.925 76.7052 380.154Z" fill="#263238"/>
<path d="M81.1837 406.36C81.1837 406.589 79.4613 406.703 77.3944 406.36C75.3275 406.016 73.8347 405.215 73.9496 405.101C74.0644 404.872 75.672 405.215 77.6241 405.559C79.5761 405.902 81.1837 406.131 81.1837 406.36Z" fill="#263238"/>
<path d="M77.1645 421.351C77.0497 421.579 75.7866 420.778 74.5235 419.52C73.2604 418.261 72.5714 417.002 72.6862 416.888C72.9159 416.773 73.8345 417.689 75.0976 418.947C76.3607 420.206 77.3942 421.122 77.1645 421.351Z" fill="#263238"/>
<path d="M59.596 367.909C59.7108 368.138 56.1512 369.511 52.1322 373.86C47.9983 378.094 43.7497 385.532 42.7162 394.458C42.2569 398.921 42.6014 403.27 43.2904 407.046C43.9793 410.937 44.898 414.37 45.7018 417.231C46.5056 420.092 47.3094 422.38 47.7687 423.982C48.228 425.585 48.5725 426.5 48.4577 426.5C48.4577 426.5 47.9983 425.699 47.4242 424.097C46.8501 422.495 45.9314 420.321 45.1276 417.46C44.209 414.599 43.2904 411.166 42.6014 407.275C41.9124 403.384 41.4531 399.036 41.9124 394.344C42.9459 385.189 47.4242 377.522 51.6728 373.402C53.8546 371.228 55.8067 369.855 57.2994 369.054C57.9884 368.596 58.6774 368.367 59.0219 368.138C59.3664 368.024 59.596 367.909 59.596 367.909Z" fill="#263238"/>
<path d="M71.3086 427.072C71.079 426.958 73.2607 423.754 75.2128 417.917C77.1649 412.196 78.8873 403.613 77.5094 394.344C76.9352 389.766 75.5573 385.418 73.8348 381.756C72.1124 378.094 69.8158 375.119 67.6341 373.059C65.3375 370.999 63.041 369.855 61.5482 369.168C59.9406 368.481 59.022 368.367 59.022 368.252C59.022 368.252 59.2516 368.252 59.7109 368.252C60.1703 368.367 60.8592 368.481 61.663 368.825C63.2706 369.397 65.682 370.541 68.0934 372.487C70.39 374.546 72.8014 377.522 74.6386 381.298C76.3611 385.074 77.8538 389.423 78.428 394.115C79.8059 403.613 77.9687 412.31 75.9018 418.032C75.4424 419.519 74.7535 420.778 74.2942 421.923C73.72 423.067 73.2607 423.982 72.9162 424.784C71.8828 426.271 71.3086 427.072 71.3086 427.072Z" fill="#263238"/>
<path d="M38.123 425.013H85.3176L85.662 434.511H38.123V425.013Z" fill="#F8B814"/>
<path d="M42.1421 429.705L44.7831 458.542H79.3465L82.1024 430.048L42.1421 429.705Z" fill="#F8B814"/>
<path d="M85.662 434.625C85.662 434.854 74.983 435.083 61.8925 435.083C48.8021 435.083 38.123 434.854 38.123 434.625C38.123 434.396 48.8021 434.167 61.8925 434.167C74.983 434.167 85.662 434.396 85.662 434.625Z" fill="#263238"/>
<path d="M80.8392 443.322C80.8392 443.322 80.6095 444.009 79.8057 445.153C79.1168 446.297 77.8536 447.785 76.1312 449.502L75.9016 449.731L75.6719 449.502C73.3753 447.098 70.275 444.238 66.3708 441.377H66.9449C65.6818 442.521 64.3039 443.78 62.8111 444.924C61.0887 446.412 59.4811 447.785 57.9883 449.158L57.7587 449.387L57.529 449.158C54.5435 446.641 51.9024 444.466 49.6058 442.521H50.0652C48.4576 444.466 47.0796 446.183 45.9313 447.442C44.8979 448.586 44.3237 449.273 44.3237 449.158C44.3237 449.158 44.783 448.472 45.5868 447.213C46.6203 445.84 47.8834 444.123 49.491 442.063L49.7207 441.834L49.9503 442.063C52.2469 443.894 55.0028 446.069 57.9883 448.586H57.4142C58.9069 447.213 60.6294 445.84 62.237 444.352C63.6149 443.093 64.9929 441.949 66.3708 440.805L66.6005 440.576L66.8301 440.805C70.7343 443.665 73.8346 446.641 76.0164 449.158H75.5571C79.2316 445.84 80.7244 443.208 80.8392 443.322Z" fill="#263238"/>
<path d="M649.011 450.647H148.473C139.287 450.647 131.708 443.208 131.708 433.939V115.351C131.708 106.196 139.172 98.6436 148.473 98.6436H649.011C658.197 98.6436 665.776 106.082 665.776 115.351V433.939C665.776 443.208 658.312 450.647 649.011 450.647Z" fill="#455A64"/>
<path d="M672.436 458.657H134.694C123.441 458.657 114.254 449.502 114.254 438.288V427.874H692.875V438.288C692.875 449.617 683.689 458.657 672.436 458.657Z" fill="#455A64"/>
<path d="M346.093 424.555L353.327 435.999H454.262L461.037 424.555H346.093Z" fill="#263238"/>
<path d="M661.182 424.555C661.182 424.784 542.679 424.898 396.503 424.898C250.326 424.898 131.823 424.784 131.823 424.555C131.823 424.326 250.326 424.212 396.503 424.212C542.679 424.212 661.182 424.441 661.182 424.555Z" fill="#263238"/>
<path d="M644.647 415.286H150.77C148.703 415.286 146.98 413.569 146.98 411.51V122.675C146.98 120.615 148.703 118.898 150.77 118.898H644.647C646.714 118.898 648.436 120.615 648.436 122.675V411.51C648.322 413.684 646.714 415.286 644.647 415.286Z" fill="#EBEBEB"/>
<path d="M647.862 415.744H146.521L146.98 141.099H647.862V415.744Z" fill="white"/>
<path d="M188.204 130.342C188.204 132.516 186.366 134.347 184.185 134.347C182.003 134.347 180.166 132.516 180.166 130.342C180.166 128.168 182.003 126.337 184.185 126.337C186.366 126.337 188.204 128.168 188.204 130.342Z" fill="#263238"/>
<path d="M163.86 130.342C163.86 132.516 162.023 134.347 159.841 134.347C157.66 134.347 155.822 132.516 155.822 130.342C155.822 128.168 157.66 126.337 159.841 126.337C162.138 126.451 163.86 128.168 163.86 130.342Z" fill="#263238"/>
<path d="M175.573 130.342C175.573 132.516 173.735 134.347 171.554 134.347C169.372 134.347 167.535 132.516 167.535 130.342C167.535 128.168 169.372 126.337 171.554 126.337C173.735 126.451 175.573 128.168 175.573 130.342Z" fill="#263238"/>
<path d="M648.436 389.195H146.521V415.744H648.436V389.195Z" fill="#263238"/>
<path d="M165.468 405.559V406.36H161.449V405.674L163.631 403.614C164.205 403.156 164.205 402.813 164.205 402.469C164.205 402.012 163.86 401.668 163.171 401.668C162.597 401.668 162.253 401.897 161.908 402.241L161.219 401.668C161.679 401.096 162.368 400.753 163.286 400.753C164.434 400.753 165.238 401.325 165.238 402.355C165.238 402.927 165.123 403.385 164.32 404.072L162.827 405.445H165.468V405.559Z" fill="white"/>
<path d="M166.042 402.927C166.042 402.584 166.272 402.241 166.731 402.241C167.075 402.241 167.42 402.47 167.42 402.927C167.42 403.271 167.19 403.614 166.731 403.614C166.272 403.5 166.042 403.271 166.042 402.927ZM166.042 405.788C166.042 405.445 166.272 405.102 166.731 405.102C167.075 405.102 167.42 405.33 167.42 405.788C167.42 406.132 167.19 406.475 166.731 406.475C166.272 406.475 166.042 406.132 166.042 405.788Z" fill="white"/>
<path d="M169.831 400.982V406.36H168.798V401.783H167.649V400.982H169.831Z" fill="white"/>
<path d="M175.688 405.216H174.769V406.475H173.85V405.216H170.865V404.529L173.506 401.096H174.539L172.013 404.415H173.735V403.27H174.654V404.415H175.573V405.216H175.688Z" fill="white"/>
<path d="M595.845 403.042H184.529V404.872H595.845V403.042Z" fill="white"/>
<path d="M312.793 400.981H184.3V406.017H312.793V400.981Z" fill="#F8B814"/>
<path d="M316.927 403.957C316.927 407.39 314.171 410.251 310.611 410.251C307.166 410.251 304.295 407.505 304.295 403.957C304.295 400.524 307.051 397.663 310.611 397.663C314.171 397.663 316.927 400.524 316.927 403.957Z" fill="#F8B814"/>
<path d="M606.294 403.842C606.294 404.872 605.376 405.559 604.342 405.559C602.849 405.559 602.046 404.643 602.046 402.927C602.046 401.096 603.079 400.066 604.687 400.066C605.261 400.066 605.72 400.18 606.065 400.409L605.72 401.21C605.376 400.981 605.031 400.981 604.687 400.981C603.653 400.981 602.964 401.668 602.964 402.812C603.309 402.469 603.768 402.24 604.457 402.24C605.491 402.24 606.294 402.927 606.294 403.842ZM605.261 403.957C605.261 403.385 604.802 403.041 604.227 403.041C603.538 403.041 603.079 403.385 603.079 403.957C603.079 404.414 603.538 404.872 604.227 404.872C604.916 404.872 605.261 404.529 605.261 403.957Z" fill="white"/>
<path d="M606.754 402.011C606.754 401.668 606.983 401.325 607.443 401.325C607.787 401.325 608.132 401.554 608.132 402.011C608.132 402.355 607.902 402.698 607.443 402.698C607.098 402.698 606.754 402.355 606.754 402.011ZM606.754 404.987C606.754 404.643 606.983 404.3 607.443 404.3C607.787 404.3 608.132 404.529 608.132 404.987C608.132 405.33 607.902 405.673 607.443 405.673C607.098 405.559 606.754 405.33 606.754 404.987Z" fill="white"/>
<path d="M608.706 402.812C608.706 400.981 609.624 400.066 611.002 400.066C612.265 400.066 613.299 401.096 613.299 402.812C613.299 404.643 612.38 405.559 611.002 405.559C609.624 405.673 608.706 404.643 608.706 402.812ZM612.15 402.812C612.15 401.554 611.691 400.867 610.887 400.867C610.198 400.867 609.624 401.439 609.624 402.812C609.624 404.071 610.084 404.758 610.887 404.758C611.691 404.758 612.15 404.186 612.15 402.812Z" fill="white"/>
<path d="M613.873 402.812C613.873 400.981 614.792 400.066 616.17 400.066C617.433 400.066 618.466 401.096 618.466 402.812C618.466 404.643 617.548 405.559 616.17 405.559C614.907 405.673 613.873 404.643 613.873 402.812ZM617.433 402.812C617.433 401.554 616.973 400.867 616.17 400.867C615.481 400.867 614.907 401.439 614.907 402.812C614.907 404.071 615.366 404.758 616.17 404.758C616.859 404.758 617.433 404.186 617.433 402.812Z" fill="white"/>
<path d="M627.193 402.469H625.356V397.091H630.753V399.036H627.193V402.469Z" fill="white"/>
<path d="M630.753 409.564H625.356V404.186H627.193V407.734H630.753V409.564Z" fill="white"/>
<path d="M639.365 409.564H633.968V407.734H637.413V404.186H639.365V409.564Z" fill="white"/>
<path d="M639.365 402.469H637.413V399.036H633.968V397.091H639.365V402.469Z" fill="white"/>
<path d="M215.303 157.463H185.678L170.979 182.982L185.678 208.387H215.303L230.001 182.982L215.303 157.463Z" fill="#EBEBEB"/>
<path d="M188.089 187.903C186.826 186.416 185.448 184.928 184.529 183.211C183.61 181.495 183.036 179.549 183.266 177.604C183.496 176.46 183.955 175.43 183.955 174.285C184.07 172.683 183.381 171.081 183.955 169.594C184.874 167.305 187.974 166.962 189.811 165.36C191.304 164.101 191.993 162.155 193.601 161.011C194.978 160.095 196.816 160.095 198.538 160.324C200.261 160.553 201.868 161.011 203.591 160.782C204.739 160.668 205.887 160.095 207.035 159.867C208.184 159.523 209.447 159.523 210.595 160.095C211.629 160.668 212.203 162.155 211.514 163.185C213.466 162.27 215.877 163.757 216.451 165.817C217.026 167.877 215.877 170.051 214.27 171.425C212.662 172.798 210.48 173.37 208.413 173.828C202.442 174.972 196.012 174.285 190.959 171.081" fill="#263238"/>
<path d="M215.533 194.197C215.303 190.535 214.27 183.097 213.351 176.345C212.318 169.021 205.772 163.872 198.423 164.33H197.734C189.926 165.359 186.366 172.569 187.515 180.35L189.811 208.387H208.988L208.528 203.466C208.413 203.466 215.877 201.75 215.533 194.197Z" fill="#FFBE9D"/>
<path d="M208.414 203.352C208.414 203.352 203.706 204.039 198.309 201.178C198.309 201.178 201.064 206.442 208.528 205.297L208.414 203.352Z" fill="#EB996E"/>
<path d="M210.825 182.754C210.94 183.326 210.48 183.784 209.906 183.898C209.332 184.013 208.758 183.555 208.758 182.983C208.643 182.411 209.102 181.953 209.677 181.838C210.251 181.838 210.825 182.182 210.825 182.754Z" fill="#263238"/>
<path d="M211.858 180.122C211.744 180.236 210.825 179.664 209.677 179.778C208.528 179.893 207.725 180.465 207.61 180.351C207.495 180.236 207.61 180.007 208.069 179.778C208.414 179.435 208.988 179.206 209.792 179.092C210.48 179.092 211.169 179.321 211.514 179.55C211.858 179.778 211.973 180.007 211.858 180.122Z" fill="#263238"/>
<path d="M199.801 183.555C199.916 184.127 199.457 184.585 198.883 184.699C198.309 184.813 197.735 184.356 197.735 183.784C197.62 183.211 198.079 182.754 198.653 182.639C199.227 182.639 199.801 182.982 199.801 183.555Z" fill="#263238"/>
<path d="M200.49 181.152C200.375 181.266 199.457 180.808 198.309 180.808C197.16 180.923 196.356 181.495 196.242 181.38C196.127 181.266 196.242 181.037 196.701 180.808C197.045 180.465 197.62 180.236 198.423 180.122C199.112 180.122 199.801 180.35 200.146 180.579C200.375 180.808 200.49 181.037 200.49 181.152Z" fill="#263238"/>
<path d="M205.313 189.391C205.313 189.276 206.002 189.162 207.15 188.933C207.495 188.933 207.724 188.819 207.724 188.59C207.724 188.361 207.609 188.018 207.495 187.674C207.15 186.988 206.806 186.187 206.461 185.5C204.968 182.41 203.935 179.778 204.05 179.778C204.165 179.778 205.428 182.181 206.92 185.386C207.265 186.187 207.609 186.873 207.954 187.56C208.069 187.903 208.298 188.247 208.184 188.704C208.069 188.933 207.954 189.162 207.724 189.162C207.495 189.276 207.38 189.276 207.265 189.276C206.002 189.391 205.313 189.505 205.313 189.391Z" fill="#263238"/>
<path d="M200.49 176.574C200.375 176.918 199.227 176.803 197.849 177.032C196.471 177.261 195.438 177.719 195.208 177.49C195.093 177.375 195.323 177.032 195.667 176.689C196.127 176.345 196.816 176.002 197.619 175.888C198.423 175.773 199.227 175.773 199.686 176.002C200.261 176.117 200.49 176.345 200.49 176.574Z" fill="#263238"/>
<path d="M211.284 176.803C211.054 177.032 210.251 176.803 209.332 176.917C208.413 176.917 207.61 177.261 207.38 176.917C207.265 176.803 207.38 176.46 207.724 176.231C208.069 176.002 208.643 175.773 209.332 175.659C210.021 175.659 210.595 175.888 210.94 176.116C211.169 176.345 211.284 176.689 211.284 176.803Z" fill="#263238"/>
<path d="M188.433 185.844C188.318 185.844 183.151 184.699 183.61 189.849C184.07 194.999 189.696 193.282 189.696 193.168C189.696 193.053 188.433 185.844 188.433 185.844Z" fill="#FFBE9D"/>
<path d="M187.4 191.451C187.4 191.451 187.285 191.566 187.17 191.566C187.055 191.68 186.826 191.68 186.481 191.68C185.907 191.566 185.333 190.765 185.218 189.735C185.103 189.277 185.218 188.819 185.333 188.476C185.448 188.133 185.678 187.789 185.907 187.675C186.137 187.56 186.366 187.675 186.481 187.904C186.596 188.018 186.596 188.133 186.596 188.133C186.596 188.133 186.711 188.018 186.596 187.789C186.596 187.675 186.481 187.56 186.367 187.446C186.252 187.332 186.022 187.332 185.907 187.332C185.563 187.446 185.218 187.789 184.989 188.247C184.874 188.705 184.759 189.163 184.874 189.735C184.989 190.765 185.678 191.68 186.367 191.795C186.711 191.909 187.055 191.68 187.17 191.566C187.4 191.566 187.4 191.451 187.4 191.451Z" fill="#EB996E"/>
<path d="M212.892 169.25C212.547 171.31 208.413 173.141 204.854 173.027C201.638 172.912 200.031 171.31 197.734 170.28C196.241 169.594 196.241 169.594 194.289 169.937C192.682 170.166 191.878 172.111 190.959 173.485C192.682 177.261 191.993 181.609 191.304 185.615C191.189 186.072 191.074 186.53 190.73 186.873C190.156 187.331 189.237 187.102 188.663 186.53C187.744 185.729 187.285 184.47 187.055 183.212C186.366 180.465 186.137 177.604 186.596 174.858C187.055 172.111 188.203 169.365 190.041 167.305C192.452 164.673 195.897 163.185 199.457 163.071C203.016 162.842 206.576 163.986 209.447 165.932C210.825 166.733 212.088 167.877 212.892 169.25Z" fill="#263238"/>
<path d="M206.002 192.023C205.083 191.565 204.28 191.222 203.361 190.764C203.246 190.65 203.016 190.65 202.902 190.65C202.672 190.65 202.557 190.764 202.442 190.993C201.868 191.68 201.639 192.824 202.098 193.625C202.557 194.426 203.705 194.884 204.624 194.541C205.543 194.197 206.002 193.167 206.002 192.023Z" fill="#EB996E"/>
<path d="M204.739 194.769C204.739 194.769 204.165 195.227 203.246 194.884C202.787 194.77 202.213 194.426 201.868 193.74C201.524 193.167 201.409 192.366 201.639 191.565C201.753 191.222 201.983 190.879 202.327 190.65C202.442 190.535 202.557 190.421 202.787 190.307C202.902 190.192 203.361 190.192 203.476 190.307C204.05 190.65 204.509 190.879 204.854 191.222C205.658 191.68 206.117 192.137 206.002 192.137C206.002 192.252 205.428 192.023 204.624 191.565C204.165 191.336 203.705 191.108 203.246 190.879C203.131 190.879 203.131 190.879 203.016 190.879C202.902 190.993 202.787 190.993 202.672 191.108C202.442 191.336 202.327 191.565 202.213 191.909C201.983 192.481 202.098 193.053 202.327 193.625C202.557 194.083 203.016 194.426 203.361 194.655C204.165 194.884 204.739 194.655 204.739 194.769Z" fill="#263238"/>
<path d="M203.935 182.983C203.82 182.983 203.935 182.525 203.706 181.724C203.476 180.923 202.902 179.778 201.753 178.863C200.605 177.947 198.653 177.49 196.816 178.176C194.979 178.748 193.486 180.694 193.486 182.983C193.486 185.271 194.979 187.102 196.816 187.789C198.653 188.475 200.49 188.018 201.753 187.102C202.902 186.187 203.476 185.042 203.706 184.241C203.82 183.44 203.82 182.983 203.935 182.983C203.935 182.983 203.935 183.097 203.935 183.326C203.935 183.555 203.935 183.898 203.82 184.356C203.706 185.157 203.131 186.416 201.868 187.445C200.605 188.475 198.538 189.048 196.586 188.361C194.519 187.674 192.797 185.615 192.797 183.097C192.797 180.579 194.519 178.405 196.586 177.833C198.653 177.146 200.72 177.718 201.868 178.748C203.131 179.778 203.706 181.037 203.82 181.838C203.935 182.296 203.935 182.639 203.935 182.868C203.935 182.754 203.935 182.983 203.935 182.983Z" fill="#263238"/>
<path d="M216.796 182.41C216.681 182.41 216.796 181.952 216.566 181.151C216.337 180.35 215.762 179.206 214.614 178.405C213.466 177.489 211.629 177.032 209.906 177.718C208.184 178.291 206.576 180.236 206.691 182.41C206.691 184.584 208.184 186.415 209.906 187.102C211.629 187.789 213.581 187.331 214.614 186.415C215.762 185.614 216.337 184.47 216.566 183.669C216.681 182.868 216.681 182.41 216.796 182.41C216.796 182.41 216.796 182.525 216.796 182.754C216.796 182.982 216.796 183.326 216.681 183.669C216.566 184.47 215.992 185.729 214.729 186.644C213.581 187.674 211.514 188.246 209.562 187.445C207.61 186.759 205.887 184.699 205.887 182.296C205.887 179.893 207.61 177.718 209.562 177.146C211.514 176.46 213.581 177.032 214.729 177.947C215.992 178.977 216.451 180.122 216.681 180.923C216.796 181.38 216.796 181.724 216.796 181.838C216.796 182.296 216.796 182.41 216.796 182.41Z" fill="#263238"/>
<path d="M206.232 181.266C206.117 181.38 205.657 181.037 204.968 181.037C204.279 181.037 203.82 181.38 203.705 181.266C203.591 181.151 204.05 180.465 204.968 180.465C205.887 180.465 206.461 181.151 206.232 181.266Z" fill="#263238"/>
<path d="M193.371 182.181C193.485 182.296 192.452 183.211 191.074 184.241C189.696 185.271 188.548 185.958 188.433 185.843C188.318 185.729 189.352 184.813 190.73 183.783C192.108 182.754 193.371 182.067 193.371 182.181Z" fill="#263238"/>
<path d="M300.047 182.639C300.047 182.754 286.727 182.982 270.421 182.982C254.001 182.982 240.795 182.868 240.795 182.639C240.795 182.41 254.116 182.296 270.421 182.296C286.727 182.41 300.047 182.525 300.047 182.639Z" fill="#263238"/>
<path d="M272.603 188.818C272.603 188.933 265.598 189.162 256.871 189.162C248.144 189.162 241.14 189.047 241.14 188.818C241.14 188.59 248.144 188.475 256.871 188.475C265.483 188.59 272.603 188.704 272.603 188.818Z" fill="#263238"/>
<path d="M477.801 228.413C477.801 228.413 493.533 236.08 499.159 255.878C504.786 275.675 521.666 327.171 521.666 327.171C521.666 327.171 531.311 338.5 532.345 346.968C533.378 355.436 531.311 375.691 528.211 379.582C525.11 383.358 520.632 382.786 520.632 382.786L479.868 378.895L463.792 271.67L477.801 228.413Z" fill="#F8B814"/>
<path d="M342.878 226.468C342.878 226.468 313.711 235.623 306.477 243.519L330.361 354.292L330.017 389.195H468.27C468.27 387.478 469.533 273.158 469.533 273.158L477.801 228.299L428.655 219.716L419.009 212.164L364.351 214.91L356.083 223.149L342.878 226.468Z" fill="#F8B814"/>
<g opacity="0.3">
<path d="M353.901 322.593C353.442 321.678 352.868 320.648 351.834 320.419C350.112 320.076 349.079 322.021 348.504 323.623C344.026 336.326 338.055 347.998 330.362 358.984L330.017 376.035C338.055 369.283 345.978 362.074 351.146 352.919C356.313 343.65 358.265 332.206 353.901 322.593Z" fill="black"/>
</g>
<path d="M306.362 243.519C306.362 243.519 296.717 256.564 292.812 265.147C288.793 273.615 255.723 345.252 253.771 352.69C251.819 360.128 246.651 383.359 261.809 388.737H292.812L324.046 325.912L325.653 252.902L306.362 243.519Z" fill="#F8B814"/>
<path d="M294.764 343.306C294.764 343.306 294.075 342.734 292.697 341.933C291.319 341.132 289.023 340.216 286.152 339.53C284.774 339.186 283.167 338.958 281.444 338.843C279.722 338.729 277.885 338.729 276.047 339.186C272.258 339.987 268.583 342.391 265.598 345.709C262.612 349.028 260.775 352.919 259.627 356.695C258.479 360.471 258.019 363.904 257.79 366.88C257.445 369.855 257.445 372.144 257.33 373.86C257.33 374.661 257.215 375.233 257.215 375.806C257.215 376.263 257.101 376.492 257.101 376.492C257.101 376.492 257.101 376.263 257.101 375.806C257.101 375.348 257.101 374.661 257.101 373.86C257.101 372.258 257.215 369.855 257.445 366.88C257.675 363.904 258.134 360.357 259.168 356.581C260.201 352.804 262.153 348.799 265.139 345.366C268.124 341.933 272.028 339.53 275.932 338.729C277.885 338.271 279.837 338.271 281.559 338.385C283.281 338.5 284.889 338.843 286.382 339.186C289.253 339.873 291.549 340.903 292.927 341.704C293.616 342.162 294.19 342.505 294.42 342.848C294.649 343.192 294.764 343.306 294.764 343.306Z" fill="#263238"/>
<path d="M280.066 330.833C280.066 330.833 280.411 330.719 281.1 330.719C281.789 330.604 282.822 330.604 283.971 330.719C285.234 330.719 286.612 330.948 288.219 331.291C289.827 331.634 291.434 332.206 293.157 333.007C294.879 333.808 296.372 334.724 297.635 335.754C298.898 336.784 299.932 337.699 300.736 338.615C301.539 339.53 302.113 340.331 302.573 340.903C302.917 341.476 303.147 341.819 303.147 341.819C303.032 341.933 302.228 340.675 300.506 338.958C299.702 338.043 298.554 337.127 297.291 336.212C296.028 335.296 294.535 334.381 292.927 333.58C291.32 332.778 289.597 332.206 288.104 331.863C286.612 331.52 285.119 331.176 283.971 331.176C281.559 330.833 280.066 330.948 280.066 330.833Z" fill="#263238"/>
<path d="M308.2 327.4C308.2 327.4 307.625 327.4 306.707 327.286C305.788 327.171 304.41 327.057 302.803 326.942C299.473 326.713 294.994 326.599 289.942 327.171C284.889 327.743 280.526 328.888 277.426 329.918C275.818 330.375 274.555 330.833 273.751 331.176C272.832 331.52 272.373 331.634 272.373 331.634C272.373 331.634 272.832 331.405 273.636 330.947C274.44 330.604 275.703 330.032 277.311 329.46C280.411 328.315 284.889 327.171 289.942 326.484C294.994 325.912 299.587 326.027 302.917 326.37C304.525 326.599 305.903 326.713 306.822 326.942C307.625 327.171 308.2 327.286 308.2 327.4Z" fill="#263238"/>
<path d="M396.617 266.177C396.617 266.177 396.502 266.063 396.273 265.834C396.043 265.49 395.813 265.147 395.469 264.689C394.665 263.659 393.632 262.172 392.369 260.341C389.728 256.564 385.938 251.3 381.575 245.121L382.034 245.006C380.312 249.927 378.474 255.306 376.522 261.027L376.407 261.371L376.063 261.142C375.833 261.027 375.604 260.913 375.374 260.684C372.848 259.082 370.551 257.137 368.599 254.962C366.647 252.788 365.039 250.614 363.776 248.325C361.135 243.748 359.528 239.285 358.494 235.508C357.461 231.732 356.887 228.528 356.427 226.353C356.198 225.324 356.083 224.523 355.968 223.836C355.968 223.607 355.853 223.378 355.853 223.149C355.853 223.035 355.738 222.92 355.738 222.92C355.853 222.92 356.198 224.065 356.657 226.239C357.116 228.413 357.69 231.503 358.839 235.279C359.987 239.056 361.595 243.404 364.236 247.982C365.499 250.156 367.106 252.445 369.058 254.505C371.01 256.564 373.192 258.51 375.718 260.112C375.948 260.226 376.178 260.341 376.407 260.57L375.948 260.684C377.9 254.962 379.737 249.584 381.46 244.663L381.69 244.205L382.034 244.663C386.398 250.957 390.072 256.221 392.713 259.997C393.976 261.828 395.01 263.316 395.699 264.346C396.043 264.804 396.273 265.261 396.502 265.49C396.617 266.063 396.732 266.177 396.617 266.177Z" fill="#263238"/>
<g opacity="0.3">
<path d="M432.673 319.046C431.41 331.863 434.281 345.023 440.711 356.237C447.142 367.338 456.558 377.293 468.27 382.672C468.615 371.343 468.155 357.954 468.5 346.51L432.673 319.046Z" fill="black"/>
</g>
<path d="M431.411 304.055C431.411 304.055 426.358 305.428 430.148 315.727C433.937 326.026 435.2 325.34 437.726 334.952C440.252 344.565 443.123 353.262 447.601 358.755C451.965 364.133 468.271 375.234 468.271 375.234L482.969 361.501C482.969 361.501 480.557 351.202 481.131 344.222C481.706 337.241 483.198 320.19 482.969 317.215C482.739 314.24 479.639 307.259 479.639 307.259V302.453L472.06 279.337C472.06 279.337 467.926 277.506 466.433 284.143L463.907 277.048C463.907 277.048 459.888 276.362 458.855 284.601C457.821 292.726 459.658 304.055 459.658 304.055L457.592 318.245L454.491 327.857L451.735 328.315C451.735 328.315 447.601 327.171 445.42 319.504C443.123 311.608 437.037 302.453 431.411 304.055Z" fill="#FFBE9D"/>
<path d="M477.916 340.445C477.916 340.445 477.916 340.217 477.801 339.873C477.801 339.53 477.687 338.958 477.687 338.386C477.572 337.012 477.457 335.067 477.342 332.664C477.112 327.629 476.768 320.763 476.423 312.638L476.538 312.752C475.849 311.951 474.701 311.722 473.553 311.951C472.404 312.18 471.486 312.867 470.797 313.896C469.534 315.956 469.419 318.588 469.074 321.22C468.271 327.057 467.467 332.664 466.778 337.699C466.433 340.217 466.089 342.62 465.515 344.908C465.055 347.197 464.366 349.143 463.678 350.974C462.989 352.805 462.414 354.407 462.07 355.894C461.725 357.382 461.611 358.641 461.611 359.785C461.611 361.959 462.3 362.989 462.185 363.104C462.185 363.104 462.07 362.875 461.84 362.303C461.725 361.73 461.381 360.929 461.381 359.785C461.266 358.641 461.381 357.382 461.725 355.894C462.07 354.407 462.644 352.69 463.218 350.859C463.907 349.028 464.481 347.083 464.941 344.794C465.4 342.62 465.744 340.217 466.089 337.699C466.778 332.664 467.467 327.057 468.271 321.22C468.5 319.962 468.615 318.588 468.845 317.33C469.074 316.071 469.419 314.812 470.108 313.668C470.797 312.523 471.945 311.722 473.208 311.493C474.471 311.15 475.849 311.493 476.768 312.409L476.883 312.523V312.638C477.112 320.763 477.457 327.629 477.572 332.664C477.687 335.067 477.687 337.012 477.687 338.386C477.687 338.958 477.687 339.53 477.687 339.873C478.031 340.217 477.916 340.445 477.916 340.445Z" fill="#EB996E"/>
<path d="M469.993 314.125C469.993 314.125 469.763 313.667 469.419 312.866C469.074 311.951 468.615 310.692 468.156 309.09C467.697 307.488 467.352 305.542 467.122 303.368C467.008 302.224 466.893 301.079 467.008 299.935C467.122 298.676 467.467 297.418 468.271 296.388C468.96 295.472 469.878 294.671 470.912 294.328L471.141 294.213L471.256 294.442C473.323 298.219 475.275 301.423 476.538 303.826C477.112 304.97 477.687 305.886 478.031 306.572C478.376 307.259 478.49 307.602 478.49 307.602C478.49 307.602 478.261 307.259 477.801 306.687C477.342 306 476.768 305.085 476.194 303.94C474.816 301.652 472.864 298.333 470.797 294.671L471.141 294.786C470.223 295.014 469.419 295.701 468.73 296.617C468.041 297.646 467.697 298.791 467.582 299.935C467.467 301.079 467.467 302.224 467.582 303.254C467.811 305.428 468.156 307.373 468.5 308.976C468.845 310.578 469.304 311.836 469.534 312.752C469.878 313.553 469.993 314.125 469.993 314.125Z" fill="#EB996E"/>
<path d="M466.433 315.956C466.433 315.956 466.318 315.499 466.318 314.583C466.318 313.553 466.204 312.409 466.204 310.921C466.089 307.831 465.974 303.597 465.974 298.906C465.974 294.214 465.744 289.98 466.204 286.89C466.433 285.402 466.663 284.143 467.007 283.342C467.237 282.541 467.467 282.083 467.582 282.083C467.696 282.083 466.893 283.914 466.663 286.89C466.318 289.865 466.663 294.214 466.663 298.791C466.778 303.483 466.778 307.717 466.778 310.807C466.778 312.294 466.778 313.439 466.778 314.469C466.548 315.499 466.433 315.956 466.433 315.956Z" fill="#EB996E"/>
<path d="M454.032 354.407C453.917 354.292 454.835 353.262 455.984 351.317C456.558 350.401 457.132 349.143 457.706 347.769C458.28 346.396 458.74 344.794 458.969 343.078C459.314 341.361 459.429 339.759 459.429 338.271C459.429 336.784 459.314 335.41 459.084 334.381C458.74 332.206 458.28 330.833 458.28 330.833C458.28 330.833 458.51 331.176 458.74 331.748C458.969 332.321 459.199 333.236 459.543 334.381C459.773 335.525 460.003 336.898 460.003 338.386C460.003 339.873 459.888 341.59 459.658 343.306C459.314 345.023 458.854 346.625 458.28 347.998C457.706 349.372 457.017 350.63 456.443 351.546C455.869 352.461 455.295 353.262 454.835 353.72C454.376 354.178 454.032 354.521 454.032 354.407Z" fill="#EB996E"/>
<path d="M479.753 347.312L492.499 351.66C492.499 351.66 504.671 345.366 513.054 351.66C521.436 357.954 528.67 374.433 526.374 381.07C526.374 381.07 520.632 388.165 516.154 389.195C511.791 390.225 494.681 386.105 487.562 384.617C480.442 383.13 468.156 375.234 468.156 375.234L479.753 347.312Z" fill="#FFBE9D"/>
<path d="M481.361 365.964C481.361 365.964 481.246 365.621 481.246 364.82C481.246 364.019 481.131 362.989 481.016 361.73C480.902 359.098 480.672 355.551 480.672 351.66C480.557 347.655 480.672 344.107 481.016 341.475C481.131 340.217 481.246 339.187 481.361 338.386C481.476 337.699 481.591 337.241 481.591 337.241C481.705 337.241 481.476 338.843 481.361 341.475C481.246 344.107 481.131 347.655 481.246 351.546C481.361 355.436 481.361 358.869 481.476 361.616C481.476 362.875 481.476 363.905 481.476 364.706C481.361 365.507 481.361 365.964 481.361 365.964Z" fill="#EB996E"/>
<path d="M523.273 351.202C523.158 351.317 521.895 349.486 519.024 347.426C516.269 345.366 511.675 343.077 506.393 342.848C500.996 342.505 496.288 344.222 493.303 346.053C490.202 347.769 488.71 349.486 488.71 349.371C488.71 349.371 489.054 348.914 489.743 348.227C490.432 347.54 491.58 346.625 493.073 345.709C496.059 343.878 500.882 342.047 506.393 342.276C511.905 342.62 516.498 344.908 519.254 347.083C520.632 348.227 521.665 349.257 522.354 349.943C522.929 350.744 523.273 351.202 523.273 351.202Z" fill="#263238"/>
<path d="M521.666 340.56C521.551 340.674 519.943 338.958 516.383 337.699C512.939 336.326 507.542 335.754 502.03 337.241C499.274 338.042 496.748 339.072 494.681 340.331C492.499 341.59 490.777 342.849 489.284 344.107C487.906 345.366 486.758 346.396 486.069 347.083C485.265 347.769 484.92 348.227 484.92 348.227C484.92 348.227 485.265 347.769 485.954 346.968C486.643 346.167 487.676 345.023 489.054 343.764C490.432 342.505 492.269 341.132 494.451 339.873C496.633 338.615 499.159 337.47 501.915 336.669C507.542 335.067 513.053 335.754 516.498 337.241C518.221 337.928 519.599 338.843 520.402 339.416C520.862 339.759 521.091 339.988 521.321 340.217C521.551 340.446 521.666 340.56 521.666 340.56Z" fill="#263238"/>
<path d="M521.78 331.405C521.78 331.519 519.484 330.833 515.809 330.375C513.972 330.146 511.79 329.917 509.264 329.917C506.853 329.917 504.097 330.146 501.341 330.604C498.585 331.062 495.944 331.863 493.647 332.664C491.351 333.465 489.284 334.38 487.676 335.296C484.346 337.012 482.509 338.385 482.394 338.271C482.394 338.271 482.854 337.928 483.657 337.241C484.117 336.898 484.576 336.554 485.265 336.211C485.954 335.868 486.643 335.296 487.447 334.952C489.054 334.037 491.121 333.121 493.418 332.206C495.714 331.405 498.355 330.604 501.226 330.146C504.097 329.688 506.853 329.459 509.264 329.459C511.79 329.459 513.972 329.688 515.809 330.032C516.728 330.146 517.532 330.375 518.336 330.489C519.025 330.604 519.714 330.833 520.173 330.947C521.206 331.176 521.78 331.405 521.78 331.405Z" fill="#263238"/>
<path d="M424.291 219.373C424.291 219.373 424.865 220.517 425.21 222.692C425.554 224.98 425.439 228.299 424.75 232.533C424.406 234.593 423.832 236.882 423.143 239.399C422.339 241.802 421.191 244.32 419.813 247.066C417.057 252.33 413.612 258.052 409.593 264.232L409.134 264.918V264.117C409.134 260.112 409.134 255.878 409.134 251.415L409.593 251.644C406.148 254.39 402.588 257.251 398.914 260.226L399.029 260.112C396.502 268.008 394.895 276.705 394.206 285.746C393.172 299.707 393.976 312.981 394.665 325.111C395.239 337.241 395.584 348.113 395.928 357.268C396.273 366.422 396.617 373.861 396.847 378.896C396.962 381.413 397.077 383.359 397.191 384.732C397.191 385.419 397.306 385.876 397.306 386.22C397.306 386.563 397.306 386.792 397.306 386.792C397.306 386.792 397.306 386.563 397.191 386.22C397.191 385.876 397.077 385.304 397.077 384.732C396.962 383.359 396.732 381.413 396.617 378.896C396.273 373.746 395.928 366.422 395.469 357.268C395.01 348.113 394.55 337.241 393.976 325.111C393.287 312.981 392.369 299.707 393.517 285.746C394.206 276.591 395.813 267.779 398.34 259.883V259.769H398.455C402.129 256.793 405.804 253.933 409.248 251.186L409.708 250.843V251.415C409.708 255.878 409.708 260.112 409.708 264.117L409.248 264.003C417.172 251.758 423.602 241.23 424.521 232.648C425.324 228.528 425.439 225.095 425.095 222.921C424.98 221.776 424.75 220.975 424.635 220.403C424.406 219.716 424.291 219.373 424.291 219.373Z" fill="#263238"/>
<path d="M403.737 366.995H403.278C401.67 366.995 400.177 368.597 400.177 370.199C400.177 371.801 401.67 373.403 403.278 373.403C404.885 373.517 406.493 372.03 406.608 370.428C406.722 368.826 405.345 367.223 403.737 366.995Z" fill="white"/>
<path d="M403.737 322.937H403.278C401.67 322.937 400.177 324.539 400.177 326.141C400.177 327.743 401.67 329.345 403.278 329.345C404.885 329.46 406.493 327.972 406.608 326.37C406.722 324.654 405.345 323.051 403.737 322.937Z" fill="white"/>
<path d="M403.278 283.457C404.885 283.571 406.493 282.083 406.608 280.481C406.722 278.879 405.345 277.163 403.737 277.048H403.278C401.67 277.048 400.177 278.65 400.177 280.253C400.177 281.855 401.67 283.342 403.278 283.457Z" fill="white"/>
<path d="M353.672 167.763C349.653 163.3 345.634 158.837 342.648 153.573C339.663 148.309 337.94 142.243 338.974 136.293C339.548 132.86 341.041 129.541 341.27 126.108C341.615 121.302 339.548 116.267 341.27 111.804C343.911 104.709 353.442 103.679 359.183 98.758C363.662 94.9817 365.844 88.8022 370.781 85.598C375.145 82.8515 380.656 82.8515 385.709 83.5382C390.761 84.2248 395.929 85.4835 400.981 84.7969C404.656 84.3392 407.986 82.8515 411.545 81.9361C415.105 81.0206 419.124 80.7917 422.224 82.6227C425.44 84.4536 427.162 88.9166 425.095 91.8919C430.951 89.1455 438.53 93.7229 440.138 100.017C441.745 106.311 438.53 113.062 433.478 117.182C428.425 121.302 421.995 123.247 415.564 124.392C397.536 127.825 377.901 125.879 362.284 116.152" fill="#263238"/>
<path d="M417.287 228.299C416.368 221.433 415.679 215.826 415.679 215.025C415.679 215.025 438.53 209.875 437.267 186.874C436.693 175.773 433.478 152.886 430.492 132.288C427.162 110.087 407.297 94.1809 384.905 95.6686L382.723 95.783C358.724 98.7583 347.93 120.73 351.605 144.532L364.58 224.294C364.58 224.294 370.092 241.917 381.92 245.007L396.847 266.177L399.259 257.022L410.397 247.41C410.397 247.41 412.923 244.663 415.909 239.285C418.091 234.936 417.631 230.473 417.287 228.299Z" fill="#FFBE9D"/>
<path d="M415.679 214.796C415.679 214.796 401.096 216.97 385.02 208.273C385.02 208.273 393.288 224.408 416.139 220.746L415.679 214.796Z" fill="#EB996E"/>
<path d="M423.028 152.085C423.257 153.801 421.879 155.403 420.042 155.632C418.205 155.861 416.597 154.602 416.483 152.886C416.253 151.169 417.631 149.567 419.468 149.338C421.191 149.11 422.798 150.368 423.028 152.085Z" fill="#263238"/>
<path d="M426.243 143.96C425.899 144.418 423.257 142.701 419.698 142.93C416.138 143.159 413.612 145.104 413.267 144.761C413.038 144.532 413.382 143.731 414.53 142.93C415.564 142.015 417.401 141.099 419.698 140.985C421.879 140.87 423.832 141.557 424.98 142.244C426.013 142.93 426.473 143.731 426.243 143.96Z" fill="#263238"/>
<path d="M389.498 154.488C389.728 156.204 388.35 157.806 386.512 158.035C384.675 158.264 383.068 157.005 382.953 155.289C382.723 153.572 384.101 151.97 385.938 151.741C387.661 151.512 389.268 152.771 389.498 154.488Z" fill="#263238"/>
<path d="M391.335 146.935C390.991 147.393 388.35 145.676 384.79 145.905C381.23 146.134 378.704 148.08 378.36 147.736C378.13 147.507 378.474 146.706 379.623 145.905C380.656 144.99 382.493 144.074 384.79 143.96C386.972 143.845 388.924 144.532 390.072 145.219C391.106 145.905 391.565 146.706 391.335 146.935Z" fill="#263238"/>
<path d="M406.033 172.34C406.033 172.111 408.215 171.654 411.775 170.967C412.693 170.852 413.497 170.624 413.612 169.937C413.727 169.25 413.382 168.335 412.808 167.305C411.775 165.131 410.741 162.956 409.708 160.553C405.344 151.055 402.129 143.159 402.474 142.93C402.818 142.701 406.722 150.369 411.086 159.867C412.119 162.27 413.153 164.444 414.071 166.618C414.531 167.648 415.105 168.793 414.76 170.166C414.531 170.852 413.956 171.425 413.382 171.539C412.808 171.768 412.349 171.768 411.889 171.882C408.33 172.34 406.033 172.455 406.033 172.34Z" fill="#263238"/>
<path d="M391.336 132.974C391.106 134.004 387.431 133.775 383.298 134.462C379.164 135.149 375.834 136.636 375.26 135.721C375.03 135.378 375.489 134.348 376.752 133.318C378.015 132.288 380.082 131.258 382.609 130.8C385.135 130.342 387.431 130.571 388.924 131.143C390.647 131.83 391.45 132.517 391.336 132.974Z" fill="#263238"/>
<path d="M424.291 133.775C423.717 134.576 421.191 134.004 418.32 134.119C415.335 134.119 412.923 135.034 412.349 134.233C412.12 133.89 412.464 132.974 413.498 132.173C414.531 131.372 416.253 130.571 418.32 130.571C420.387 130.457 422.11 131.143 423.258 131.83C424.062 132.517 424.521 133.318 424.291 133.775Z" fill="#263238"/>
<path d="M354.591 161.583C354.131 161.468 338.4 157.921 340.007 173.713C341.615 189.391 358.61 184.356 358.61 183.898C358.61 183.326 354.591 161.583 354.591 161.583Z" fill="#FFBE9D"/>
<path d="M351.605 178.634C351.49 178.634 351.376 178.863 350.916 179.092C350.457 179.32 349.768 179.549 348.849 179.32C347.127 178.863 345.404 176.345 345.06 173.599C344.83 172.225 345.06 170.738 345.404 169.593C345.749 168.449 346.438 167.534 347.242 167.305C348.045 167.076 348.734 167.419 348.964 167.877C349.194 168.335 349.194 168.564 349.194 168.678C349.194 168.678 349.538 168.335 349.309 167.762C349.194 167.419 348.964 167.076 348.62 166.847C348.16 166.618 347.586 166.504 347.012 166.618C345.749 166.847 344.83 167.991 344.371 169.365C343.912 170.623 343.682 172.225 343.797 173.828C344.256 177.032 346.093 179.778 348.505 180.236C349.653 180.465 350.572 180.007 351.031 179.549C351.605 178.977 351.605 178.634 351.605 178.634Z" fill="#EB996E"/>
<path d="M429.229 110.774C428.196 117.068 415.45 122.789 404.886 122.446C395.125 122.217 390.302 117.297 383.298 113.978C378.82 111.804 378.82 111.804 372.734 112.834C367.796 113.635 365.27 119.356 362.514 123.476C367.796 134.92 365.614 148.194 363.433 160.553C363.203 161.926 362.858 163.414 361.825 164.329C360.103 165.932 357.232 164.902 355.395 163.414C352.639 160.896 351.376 157.12 350.457 153.458C348.39 145.104 347.586 136.407 348.849 127.939C350.227 119.471 353.672 111.231 359.528 104.823C366.763 96.9271 377.442 92.3497 388.235 91.7775C399.029 91.2053 409.823 94.5239 418.78 100.475C423.029 103.107 426.933 106.425 429.229 110.774Z" fill="#263238"/>
<path d="M408.33 180.236C405.689 178.977 402.933 177.718 400.292 176.46C399.833 176.231 399.374 176.002 398.799 176.116C398.225 176.231 397.766 176.574 397.421 177.032C395.584 179.321 395.125 182.639 396.503 185.271C397.996 187.789 401.326 189.162 404.082 188.018C406.952 186.873 408.33 183.555 408.56 180.465L408.33 180.236Z" fill="#EB996E"/>
<path d="M404.311 188.59C404.311 188.704 403.967 188.933 403.163 189.048C402.359 189.162 401.096 189.276 399.718 188.819C398.34 188.361 396.733 187.217 395.699 185.5C394.666 183.784 394.321 181.38 395.24 179.206C395.699 178.176 396.273 177.146 397.077 176.46C397.536 176.116 397.881 175.773 398.34 175.43C398.57 175.315 398.914 175.201 399.259 175.086C399.603 175.086 399.948 175.201 400.177 175.315C400.752 175.544 401.096 175.773 401.441 176.002C401.785 176.231 402.13 176.46 402.589 176.689C403.278 177.146 403.967 177.49 404.541 177.947C406.952 179.435 408.33 180.465 408.33 180.579C408.215 180.694 406.608 180.007 404.196 178.634C403.507 178.291 402.933 177.947 402.13 177.49C401.785 177.261 401.441 177.032 400.981 176.917C400.637 176.689 400.177 176.46 399.833 176.345C399.488 176.231 399.259 176.231 398.914 176.46C398.57 176.689 398.225 176.917 397.881 177.261C397.192 177.947 396.618 178.748 396.273 179.664C395.584 181.495 395.814 183.555 396.618 185.042C397.422 186.53 398.685 187.56 399.948 188.132C401.211 188.59 402.244 188.704 403.048 188.704C403.852 188.59 404.311 188.475 404.311 188.59Z" fill="#263238"/>
<path d="M401.785 152.543C401.67 152.543 401.785 151.055 401.21 148.538C400.522 146.02 398.914 142.472 395.239 139.612C393.402 138.238 391.106 137.094 388.35 136.636C385.709 136.179 382.723 136.293 379.852 137.323C378.36 137.781 376.982 138.582 375.719 139.497C374.455 140.413 373.307 141.557 372.274 142.93C370.322 145.562 369.173 148.995 369.173 152.428C369.173 155.976 370.322 159.294 372.274 161.926C373.192 163.3 374.455 164.444 375.719 165.36C376.982 166.275 378.36 167.076 379.852 167.534C382.723 168.564 385.709 168.678 388.35 168.22C390.991 167.763 393.402 166.618 395.239 165.245C398.914 162.384 400.636 158.837 401.21 156.319C401.785 153.916 401.785 152.428 401.785 152.543C401.785 152.543 401.785 152.657 401.785 152.772C401.785 153.001 401.785 153.229 401.785 153.573C401.785 153.916 401.785 154.374 401.67 154.832C401.555 155.289 401.555 155.861 401.325 156.548C401.096 157.807 400.522 159.409 399.488 161.011C398.569 162.613 397.191 164.33 395.354 165.703C393.517 167.076 391.106 168.335 388.35 168.907C385.594 169.365 382.493 169.365 379.508 168.22C378.015 167.763 376.637 166.962 375.259 165.932C373.881 165.016 372.733 163.757 371.7 162.384C369.633 159.638 368.484 156.09 368.484 152.543C368.484 148.881 369.633 145.448 371.7 142.701C372.733 141.328 373.881 140.069 375.259 139.154C376.522 138.124 378.015 137.437 379.508 136.865C382.493 135.721 385.594 135.721 388.35 136.179C391.106 136.636 393.517 137.895 395.354 139.383C397.191 140.87 398.569 142.472 399.603 144.075C400.522 145.677 401.096 147.164 401.44 148.538C401.67 149.224 401.67 149.796 401.785 150.254C401.899 150.712 401.899 151.17 401.899 151.513C401.899 151.856 401.899 152.085 401.899 152.314C401.785 152.428 401.785 152.543 401.785 152.543Z" fill="#263238"/>
<path d="M441.171 150.941C441.056 150.941 441.171 149.567 440.597 147.05C440.023 144.647 438.415 141.099 434.74 138.353C432.903 136.979 430.721 135.835 428.08 135.377C425.439 134.92 422.569 135.034 419.813 136.064C418.435 136.522 417.057 137.323 415.794 138.238C414.531 139.154 413.382 140.298 412.464 141.557C410.512 144.074 409.478 147.393 409.363 150.826C409.363 154.259 410.512 157.578 412.464 160.095C413.382 161.354 414.531 162.499 415.794 163.414C417.057 164.329 418.435 165.016 419.813 165.588C422.569 166.618 425.554 166.733 428.08 166.275C430.721 165.817 432.903 164.673 434.74 163.3C438.415 160.553 440.023 157.006 440.597 154.602C441.171 152.428 441.056 150.941 441.171 150.941C441.171 150.941 441.171 151.284 441.171 151.97C441.171 152.314 441.171 152.771 441.056 153.229C440.941 153.687 440.941 154.259 440.711 154.946C440.137 157.349 438.53 161.011 434.855 163.872C433.018 165.245 430.721 166.504 428.08 166.961C425.439 167.419 422.339 167.419 419.468 166.275C417.975 165.817 416.598 165.016 415.334 164.101C414.071 163.185 412.808 162.041 411.89 160.668C409.823 158.036 408.789 154.602 408.674 151.055C408.674 147.507 409.823 144.074 411.89 141.442C412.923 140.069 414.071 138.925 415.334 138.009C416.598 137.094 417.975 136.293 419.468 135.835C422.339 134.805 425.324 134.691 428.08 135.148C430.721 135.606 433.133 136.865 434.855 138.238C438.53 141.099 440.137 144.761 440.711 147.164C440.941 147.736 440.941 148.309 441.056 148.881C441.171 149.338 441.171 149.796 441.171 150.139C441.171 150.597 441.171 150.941 441.171 150.941Z" fill="#263238"/>
<path d="M409.019 147.278C408.904 147.393 408.56 147.05 407.871 146.706C407.182 146.363 406.148 146.02 405 146.02C403.852 146.02 402.818 146.363 402.129 146.706C401.44 147.05 401.096 147.393 400.981 147.278C400.981 147.278 401.211 146.821 401.9 146.248C402.589 145.791 403.737 145.333 405 145.333C406.263 145.333 407.411 145.791 408.1 146.248C408.789 146.821 409.134 147.278 409.019 147.278Z" fill="#263238"/>
<path d="M369.863 150.14C369.978 150.254 366.762 152.886 362.629 155.861C358.61 158.837 355.165 161.24 355.05 161.125C354.935 161.011 358.15 158.379 362.284 155.404C366.418 152.428 369.748 150.025 369.863 150.14Z" fill="#263238"/>
<g opacity="0.3">
<path d="M356.313 224.637C354.705 240.2 360.676 256.564 373.192 265.948C374.226 266.634 375.374 267.436 376.522 266.978C377.326 266.634 377.786 265.948 378.245 265.147C381.805 258.967 382.953 252.216 381.919 245.235C379.967 250.385 378.245 255.534 376.293 260.913C365.384 254.39 358.609 240.429 356.313 224.637Z" fill="black"/>
</g>
<path opacity="0.3" d="M398.569 259.997L407.756 256.679L409.248 272.128C409.248 272.128 419.124 254.161 423.257 245.922C427.391 237.683 425.21 223.264 425.21 223.264C425.21 223.264 426.702 235.852 416.712 251.987L409.248 264.117V251.415L398.569 259.997Z" fill="black"/>
<g opacity="0.3">
<path d="M291.894 338.5C287.76 336.555 283.052 336.326 278.574 336.783C273.866 337.356 269.043 338.729 265.369 341.819C261.694 344.794 259.168 349.486 259.627 354.292L260.086 354.407C263.302 345.824 269.617 339.53 277.885 338.729C286.038 337.928 294.076 341.59 299.702 347.655C299.128 343.077 296.028 340.445 291.894 338.5Z" fill="black"/>
</g>
<g opacity="0.3">
<path d="M523.847 347.312C520.747 343.993 516.498 342.048 512.02 341.247C504.212 339.873 495.829 342.277 489.973 347.655L491.695 346.282C496.174 343.65 501.226 342.162 506.393 342.277C511.561 342.391 516.728 344.336 520.402 347.884C523.847 351.088 525.914 355.551 527.866 359.785C528.67 355.322 526.948 350.63 523.847 347.312Z" fill="black"/>
</g>
<path d="M464.711 275.561C464.711 275.561 464.826 275.103 465.17 274.302C465.514 273.386 465.974 272.242 466.433 270.983C467.581 268.122 469.074 264.346 470.682 259.997C472.289 255.649 473.667 251.758 474.701 248.897C475.16 247.524 475.619 246.494 475.849 245.579C476.194 244.778 476.308 244.32 476.308 244.32C476.308 244.32 476.194 244.778 476.079 245.579C475.849 246.38 475.505 247.524 475.045 249.012C474.127 251.873 472.863 255.878 471.256 260.226C469.648 264.575 468.041 268.351 466.892 271.212C466.318 272.585 465.744 273.73 465.4 274.416C464.94 275.103 464.826 275.561 464.711 275.561Z" fill="#263238"/>
<path d="M319.912 276.705C319.797 276.705 318.534 271.326 317.156 264.575C315.778 257.823 314.745 252.33 314.974 252.33C315.089 252.33 316.352 257.709 317.73 264.46C319.108 271.097 320.142 276.59 319.912 276.705Z" fill="#263238"/>
<path d="M317.845 344.794C318.189 345.023 313.596 309.09 313.596 309.09C313.596 309.09 316.467 281.854 318.074 280.596V270.983C318.074 270.983 322.553 268.237 323.701 272.585C323.701 272.585 327.605 269.152 328.294 277.277C328.983 285.402 329.098 293.756 329.098 293.756L337.94 315.727L339.433 316.414C339.433 316.414 341.27 299.249 342.418 296.731C343.566 294.213 344.255 288.034 348.504 288.949C352.638 289.865 352.982 293.298 352.293 298.905C351.49 304.513 350.571 310.349 350.915 313.896C351.26 317.558 352.868 325.454 352.408 331.863C351.949 338.157 348.389 344.908 344.715 349.6C341.04 354.292 334.036 364.019 330.246 366.88C329.098 368.139 317.845 344.794 317.845 344.794Z" fill="#FFBE9D"/>
<path d="M322.208 315.613C322.208 315.613 322.208 315.04 322.208 314.125C322.323 312.981 322.438 311.607 322.553 310.005C322.783 306.458 323.242 301.652 323.701 296.273C323.931 293.641 324.161 291.009 324.39 288.72C324.505 287.576 324.62 286.432 324.39 285.516C324.275 284.486 323.816 283.685 323.242 282.999C322.094 281.74 320.601 281.396 319.682 281.396C318.764 281.396 318.189 281.625 318.189 281.625C318.189 281.625 318.304 281.511 318.534 281.396C318.764 281.282 319.108 281.168 319.682 281.168C320.716 281.053 322.323 281.396 323.586 282.655C324.275 283.342 324.735 284.257 324.849 285.287C325.079 286.317 324.964 287.462 324.849 288.606C324.62 290.895 324.39 293.527 324.161 296.159C323.701 301.537 323.242 306.343 322.783 309.891C322.553 311.607 322.438 312.981 322.323 314.011C322.323 315.04 322.323 315.613 322.208 315.613Z" fill="#EB996E"/>
<path d="M327.031 300.965C327.146 301.08 326.112 301.881 325.423 303.826C324.734 305.657 324.505 308.518 323.931 311.608C323.471 314.697 323.012 317.444 322.668 319.389C322.323 321.335 322.093 322.593 321.979 322.593C321.864 322.593 321.979 321.335 322.323 319.275C322.553 317.215 323.012 314.469 323.471 311.379C323.931 308.289 324.275 305.543 325.079 303.597C325.423 302.682 325.998 301.881 326.342 301.537C326.687 301.08 326.916 300.851 327.031 300.965Z" fill="#EB996E"/>
<path d="M323.701 272.242C323.701 272.242 323.816 272.585 324.046 273.386C324.161 274.073 324.39 275.217 324.62 276.476C325.079 279.108 325.538 282.77 325.883 286.889C326.227 291.009 326.227 294.671 326.227 297.303C326.227 298.676 326.113 299.706 326.113 300.507C326.113 301.308 325.998 301.652 325.998 301.652C325.883 301.652 325.883 300.049 325.768 297.303C325.653 294.671 325.538 290.895 325.309 286.889C324.964 282.77 324.62 279.108 324.275 276.476C323.931 273.844 323.701 272.242 323.701 272.242Z" fill="#EB996E"/>
<path d="M349.193 305.771C349.308 305.886 347.93 306.572 346.208 306C344.485 305.542 343.681 304.169 343.911 304.169C344.026 304.055 344.944 304.97 346.437 305.428C347.815 306 349.078 305.657 349.193 305.771Z" fill="#EB996E"/>
<path d="M318.304 340.331L294.994 350.058H281.1C281.1 350.058 267.435 354.292 265.253 367.108C263.187 379.925 262.842 386.562 268.928 388.05C275.014 389.652 292.009 389.767 300.391 387.02C308.888 384.274 330.935 366.422 330.935 366.422L333.117 353.605L318.304 340.331Z" fill="#FFBE9D"/>
<path d="M323.701 354.406C323.701 354.406 323.471 354.177 323.012 353.834C322.553 353.376 322.094 352.804 321.519 351.889C320.371 350.172 319.108 347.54 318.304 344.565C317.386 341.589 317.041 338.729 316.926 336.669C316.697 334.609 316.811 333.35 316.811 333.35C316.926 333.35 317.041 334.609 317.271 336.669C317.615 338.729 317.96 341.475 318.878 344.45C319.682 347.426 320.83 349.943 321.864 351.774C323.012 353.376 323.816 354.406 323.701 354.406Z" fill="#EB996E"/>
<path d="M333.921 358.526C333.806 358.526 334.84 356.695 335.299 353.605C335.529 352.003 335.529 350.172 335.069 348.112C334.61 346.053 333.692 343.993 332.199 342.047C330.821 340.102 329.213 338.385 327.835 336.669C326.457 335.067 325.424 333.35 324.735 331.977C324.046 330.489 323.701 329.231 323.587 328.315C323.472 327.4 323.472 326.942 323.587 326.942C323.701 326.942 323.701 329.002 325.194 331.863C325.883 333.236 327.031 334.838 328.409 336.44C329.787 338.042 331.395 339.759 332.773 341.818C334.266 343.878 335.299 346.053 335.644 348.112C336.103 350.287 336.103 352.232 335.758 353.834C335.529 355.436 335.069 356.695 334.725 357.496C334.495 357.954 334.381 358.183 334.266 358.412C333.921 358.412 333.921 358.526 333.921 358.526Z" fill="#EB996E"/>
<path d="M297.98 302.681C297.865 302.796 295.339 298.104 292.353 292.382C289.368 286.66 287.071 281.854 287.186 281.854C287.301 281.74 289.827 286.432 292.812 292.153C295.798 297.875 298.094 302.567 297.98 302.681Z" fill="white"/>
<path d="M335.643 260.913C335.529 260.798 337.021 257.022 339.203 252.33C341.27 247.638 343.107 243.976 343.222 243.976C343.337 244.091 341.844 247.867 339.662 252.559C337.595 257.251 335.758 261.027 335.643 260.913Z" fill="white"/>
<path d="M372.503 288.034C372.388 288.148 369.977 285.516 367.221 282.197C364.465 278.879 362.284 276.018 362.398 275.903C362.513 275.789 364.925 278.421 367.68 281.74C370.436 285.058 372.618 287.919 372.503 288.034Z" fill="white"/>
<path d="M364.006 325.225C363.891 325.111 365.614 322.479 368.025 319.275C370.321 316.07 372.388 313.553 372.503 313.667C372.618 313.782 370.896 316.414 368.484 319.618C366.188 322.822 364.121 325.34 364.006 325.225Z" fill="white"/>
<path d="M352.638 377.98C352.523 377.98 352.064 377.179 351.26 375.691C350.456 374.203 349.537 372.144 348.504 369.855C347.471 367.566 346.667 365.392 346.207 363.904C345.633 362.302 345.404 361.387 345.518 361.387C345.633 361.387 345.978 362.302 346.667 363.79C347.356 365.506 348.274 367.452 349.193 369.741C350.112 371.915 351.03 373.86 351.719 375.577C352.293 376.95 352.638 377.865 352.638 377.98Z" fill="white"/>
<path d="M385.02 355.55C385.02 355.665 381.919 355.207 378.015 354.52C374.226 353.834 371.125 353.033 371.125 352.918C371.125 352.804 374.226 353.262 378.13 353.948C382.034 354.635 385.02 355.436 385.02 355.55Z" fill="white"/>
<path d="M410.167 306.343C410.052 306.229 413.038 302.796 416.827 298.791C420.617 294.671 423.832 291.467 423.947 291.581C424.062 291.696 421.076 295.129 417.287 299.134C413.497 303.253 410.282 306.458 410.167 306.343Z" fill="white"/>
<path d="M435.429 371.915C435.315 372.029 431.64 367.681 427.162 362.302C422.683 356.924 419.239 352.461 419.353 352.346C419.468 352.232 423.143 356.581 427.621 361.959C432.099 367.452 435.659 371.915 435.429 371.915Z" fill="white"/>
<path d="M278.459 343.993C278.574 344.107 275.129 345.824 271.454 348.685C267.78 351.545 265.139 354.292 265.024 354.177C265.024 354.177 265.483 353.376 266.632 352.232C267.665 351.088 269.273 349.6 271.11 348.227C272.947 346.854 274.784 345.709 276.162 345.023C277.54 344.222 278.344 343.878 278.459 343.993Z" fill="white"/>
<path d="M287.875 318.703C287.99 318.817 286.841 320.877 285.234 323.28C283.626 325.683 282.133 327.629 282.019 327.514C281.904 327.4 283.052 325.34 284.66 322.937C286.267 320.534 287.76 318.588 287.875 318.703Z" fill="white"/>
<path d="M309.233 343.535C309.118 343.65 307.855 341.59 307.281 338.843C306.592 336.097 306.821 333.694 307.051 333.808C307.281 333.808 307.281 336.097 307.97 338.729C308.429 341.361 309.348 343.421 309.233 343.535Z" fill="white"/>
<path d="M312.333 264.689C312.333 264.803 310.381 265.261 307.855 265.604C305.443 265.948 303.376 266.062 303.376 265.948C303.376 265.833 305.329 265.375 307.855 265.032C310.266 264.689 312.333 264.46 312.333 264.689Z" fill="white"/>
<path d="M328.409 236.423C328.524 236.538 326.802 237.682 324.505 238.941C322.323 240.2 320.371 241.001 320.371 240.886C320.256 240.772 321.979 239.628 324.275 238.369C326.457 237.11 328.294 236.194 328.409 236.423Z" fill="white"/>
<path d="M373.422 248.325C373.307 248.439 371.355 246.036 368.944 243.061C366.647 240.085 364.81 237.453 365.039 237.339C365.154 237.224 367.106 239.628 369.518 242.603C371.699 245.693 373.537 248.21 373.422 248.325Z" fill="white"/>
<path d="M430.492 276.819C430.377 276.933 428.31 274.759 426.358 271.669C424.406 268.58 423.372 265.719 423.602 265.719C423.717 265.604 424.98 268.351 426.932 271.326C428.769 274.416 430.721 276.705 430.492 276.819Z" fill="white"/>
<path d="M452.309 283.914C452.424 284.028 451.391 286.661 449.898 289.865C448.405 293.069 447.142 295.586 447.027 295.586C446.912 295.472 447.946 292.84 449.439 289.636C450.931 286.432 452.195 283.914 452.309 283.914Z" fill="white"/>
<path d="M455.409 254.276C455.295 254.39 452.654 251.529 449.553 247.753C446.453 244.091 444.041 241.001 444.156 240.887C444.271 240.772 446.912 243.633 450.013 247.409C453.113 251.071 455.524 254.161 455.409 254.276Z" fill="white"/>
<path d="M422.109 230.13C421.994 230.13 421.765 227.612 421.535 224.637C421.42 221.547 421.42 219.029 421.65 219.029C421.765 219.029 421.994 221.547 422.224 224.522C422.339 227.726 422.224 230.13 422.109 230.13Z" fill="white"/>
<path d="M449.209 228.642C449.209 228.756 446.109 229.328 442.09 229.901C438.185 230.473 434.97 230.702 434.97 230.587C434.97 230.473 438.071 229.901 442.09 229.328C445.994 228.756 449.209 228.527 449.209 228.642Z" fill="white"/>
<path d="M492.04 259.997C491.925 260.111 489.973 256.449 487.791 251.872C485.61 247.295 483.887 243.633 484.117 243.518C484.232 243.404 486.184 247.066 488.365 251.643C490.547 256.221 492.155 259.882 492.04 259.997Z" fill="white"/>
<path d="M484.806 287.004C484.691 287.004 485.035 284.029 485.839 280.481C486.528 276.934 487.217 274.073 487.447 274.073C487.562 274.073 487.217 277.048 486.413 280.596C485.724 284.257 485.035 287.118 484.806 287.004Z" fill="white"/>
<path d="M504.671 308.403C504.556 308.403 502.949 304.512 501.226 299.592C499.504 294.671 498.241 290.666 498.355 290.551C498.47 290.551 500.078 294.442 501.8 299.363C503.523 304.284 504.786 308.289 504.671 308.403Z" fill="white"/>
<path d="M501.915 320.877C501.915 320.991 499.159 320.419 496.059 318.817C493.073 317.215 491.006 315.155 491.121 315.155C491.236 315.04 493.303 316.757 496.289 318.359C499.389 319.847 501.915 320.648 501.915 320.877Z" fill="white"/>
<path d="M527.292 349.371C527.177 349.485 526.259 347.655 525.225 345.48C524.192 343.306 523.618 341.475 523.733 341.361C523.847 341.246 524.766 343.077 525.799 345.251C526.833 347.426 527.522 349.257 527.292 349.371Z" fill="white"/>
<path d="M377.211 388.965C377.097 388.965 376.637 386.677 376.293 383.93C375.948 381.069 375.834 378.781 375.948 378.781C376.063 378.781 376.522 381.069 376.867 383.816C377.211 386.677 377.326 388.965 377.211 388.965Z" fill="white"/>
<path d="M455.18 387.02C455.065 387.02 455.409 384.732 455.984 382.1C456.558 379.353 457.132 377.179 457.361 377.293C457.476 377.293 457.132 379.582 456.558 382.214C455.984 384.961 455.295 387.135 455.18 387.02Z" fill="white"/>
<path d="M470.108 160.096L480.213 142.358C475.735 135.149 473.208 126.68 473.208 117.526C473.208 91.3199 494.452 70.1494 520.747 70.1494C547.043 70.1494 568.286 91.3199 568.286 117.526C568.286 143.731 547.043 164.902 520.747 164.902C509.839 164.902 499.734 161.24 491.696 154.946L470.108 160.096Z" fill="#FAFAFA"/>
<path d="M470.108 160.095C471.141 159.866 477.916 158.264 491.696 155.175H491.925L491.81 154.946L491.581 155.175C494.337 157.234 497.552 159.294 501.341 161.011C505.131 162.727 509.494 164.1 514.432 164.673C516.843 165.016 519.369 165.13 522.01 165.016C523.273 164.902 524.651 164.902 525.915 164.787C527.292 164.558 528.556 164.329 529.934 164.215C535.33 163.185 540.842 161.125 546.01 157.921C551.177 154.717 555.885 150.483 559.674 145.219C563.463 139.955 566.334 133.661 567.712 126.909C569.09 120.157 568.975 112.833 567.138 105.853C565.301 98.8724 561.971 92.0063 556.918 86.3989L554.966 84.2247C554.277 83.538 553.588 82.9659 552.899 82.2793C552.21 81.7071 551.521 80.906 550.717 80.4483L548.421 78.7318C547.732 78.1596 546.813 77.7018 546.01 77.1297C545.206 76.6719 544.402 76.0997 543.598 75.642C542.794 75.1843 541.876 74.841 541.072 74.3832C540.268 74.0399 539.464 73.5822 538.546 73.2389C531.656 70.4924 524.307 69.4625 517.188 69.9202C510.183 70.378 503.408 72.4378 497.667 75.642C491.81 78.8462 486.988 83.1947 483.198 88.001C479.409 92.8073 476.768 98.0713 475.046 103.335C473.438 108.599 472.979 113.863 472.979 118.784C473.093 123.705 474.012 128.168 475.275 132.059C476.538 135.949 478.261 139.382 480.098 142.243V142.129C473.782 153.687 470.682 159.294 470.108 160.095C470.567 159.18 473.782 153.687 480.328 142.472V142.358V142.243C478.605 139.382 476.883 136.064 475.62 132.059C474.357 128.168 473.438 123.705 473.323 118.899C473.323 114.092 473.782 108.828 475.39 103.679C476.998 98.4146 479.754 93.265 483.428 88.4588C487.217 83.7669 492.04 79.5328 497.782 76.3286C503.523 73.1244 510.183 71.179 517.188 70.6069C524.192 70.1491 531.426 71.179 538.201 73.811C539.12 74.0399 539.924 74.4977 540.727 74.9554C541.531 75.4131 542.335 75.7564 543.254 76.2142C544.057 76.6719 544.861 77.1297 545.665 77.7018C546.469 78.1596 547.273 78.6173 547.962 79.1895L550.258 80.906C551.062 81.4782 551.636 82.1648 552.44 82.737C553.129 83.4236 553.933 83.9958 554.507 84.6824L556.459 86.7422C561.397 92.3496 564.727 99.1012 566.564 105.967C568.286 112.948 568.401 120.043 567.138 126.795C565.76 133.546 563.004 139.726 559.215 144.875C555.425 150.139 550.718 154.373 545.665 157.463C540.613 160.667 535.101 162.613 529.819 163.757C528.441 163.986 527.178 164.215 525.8 164.329C524.537 164.444 523.159 164.444 521.896 164.558C519.369 164.673 516.843 164.558 514.432 164.215C509.609 163.643 505.245 162.27 501.456 160.553C497.667 158.836 494.452 156.891 491.696 154.717L490.777 154.03L491.466 154.946L491.581 154.717C477.916 158.264 471.141 159.866 470.108 160.095Z" fill="#263238"/>
<path d="M533.608 115.58C533.608 118.098 535.675 120.158 538.201 120.158C540.728 120.158 542.794 118.098 542.794 115.58C542.794 113.063 540.728 111.003 538.201 111.003C535.675 111.003 533.608 113.063 533.608 115.58Z" fill="#263238"/>
<path d="M515.006 115.58C515.006 118.098 517.073 120.158 519.599 120.158C522.125 120.158 524.192 118.098 524.192 115.58C524.192 113.063 522.125 111.003 519.599 111.003C517.073 111.003 515.006 113.063 515.006 115.58Z" fill="#263238"/>
<path d="M496.404 113.291C495.141 115.466 495.83 118.326 498.126 119.585C500.308 120.844 503.179 120.157 504.442 117.869C505.705 115.694 505.016 112.834 502.719 111.575C500.538 110.316 497.667 111.117 496.404 113.291Z" fill="#263238"/>
</g>
<defs>
<clipPath id="clip0_616_73">
<rect width="810" height="459" fill="white"/>
</clipPath>
</defs>
</svg>
