<svg width="167" height="34" viewBox="0 0 167 34" fill="none" xmlns="http://www.w3.org/2000/svg">
<path d="M19.0067 1.5V5.46H5.05668V15.675H18.4217V19.635H5.05668V33H0.871681V1.5H19.0067ZM29.8348 17.25C29.8348 12.69 31.4098 8.835 34.5598 5.685C37.7098 2.505 41.5648 0.914997 46.1248 0.914997C50.6848 0.914997 54.5398 2.505 57.6898 5.685C60.8698 8.835 62.4598 12.69 62.4598 17.25C62.4598 21.78 60.8698 25.635 57.6898 28.815C54.5398 31.995 50.6848 33.585 46.1248 33.585C41.5648 33.585 37.7098 31.995 34.5598 28.815C31.4098 25.605 29.8348 21.75 29.8348 17.25ZM58.2748 17.25C58.2748 13.77 57.1048 10.86 54.7648 8.52C52.4848 6.15 49.6048 4.965 46.1248 4.965C42.6748 4.965 39.7798 6.15 37.4398 8.52C35.1298 10.89 33.9748 13.8 33.9748 17.25C33.9748 20.67 35.1298 23.58 37.4398 25.98C39.7798 28.32 42.6748 29.49 46.1248 29.49C49.6048 29.49 52.4848 28.32 54.7648 25.98C57.1048 23.58 58.2748 20.67 58.2748 17.25ZM98.226 33H93.591L86.526 20.94H79.101V33H74.916V1.5H87.516C90.216 1.5 92.526 2.46 94.446 4.38C96.366 6.27 97.326 8.565 97.326 11.265C97.326 13.305 96.711 15.165 95.481 16.845C94.221 18.555 92.661 19.74 90.801 20.4L98.226 33ZM87.516 5.415H79.101V17.16H87.516C89.076 17.16 90.396 16.59 91.476 15.45C92.586 14.31 93.141 12.915 93.141 11.265C93.141 9.615 92.586 8.235 91.476 7.125C90.396 5.985 89.076 5.415 87.516 5.415ZM128.436 5.1L113.181 29.04H128.796V33H108.231V29.355L123.441 5.46H108.636V1.5H128.436V5.1ZM166.162 33H161.707L159.142 25.935H144.967L142.402 33H137.947L149.692 1.5H154.417L166.162 33ZM152.032 6.495L146.407 22.02H157.702L152.032 6.495Z" fill="#000C06"/>
</svg>
