<svg width="677" height="625" viewBox="0 0 677 625" fill="none" xmlns="http://www.w3.org/2000/svg">
<g clip-path="url(#clip0_605_31455)">
<path d="M20.7169 221.806C22.5917 220.674 24.6013 219.812 26.6649 219.219L27.8923 213.346L37.8327 213.171L39.2624 219.004C41.3395 219.516 43.3761 220.311 45.2913 221.375L50.3222 218.088L57.4706 224.985L54.355 230.118C55.4879 231.99 56.3512 233.997 56.9446 236.059L62.8252 237.284L63.0005 247.213L57.1604 248.641C56.6479 250.715 55.8521 252.749 54.7866 254.662L58.0776 259.687L51.1719 266.827L46.0331 263.715C44.1584 264.847 42.1487 265.709 40.0851 266.301L38.8577 272.175L28.9174 272.35L27.4877 266.517C25.4106 266.005 23.374 265.21 21.4587 264.146L16.4279 267.433L9.27943 260.536L12.3951 255.403C11.2621 253.531 10.3989 251.524 9.80544 249.462L3.92485 248.237L3.74951 238.308L9.58964 236.88C10.1022 234.806 10.8979 232.772 11.9635 230.859L8.67249 225.834L15.5781 218.694L20.7169 221.806ZM26.0175 235.035C21.9308 239.265 22.0387 246.014 26.2873 250.096C30.5224 254.177 37.2797 254.07 41.3664 249.826C45.4532 245.596 45.3453 238.847 41.0967 234.765C36.8616 230.684 30.1043 230.791 26.0175 235.035Z" fill="#F5F5F5"/>
<path d="M365.231 55.3418C366.836 54.3719 368.535 53.6444 370.288 53.146L371.327 48.1482L379.784 48L380.998 52.9574C382.764 53.3885 384.504 54.0621 386.136 54.9781L390.412 52.1761L396.495 58.0495L393.838 62.4142C394.809 64.0173 395.537 65.7147 396.036 67.4659L401.04 68.5032L401.189 76.9497L396.225 78.1621C395.793 79.9268 395.119 81.6646 394.202 83.2946L397.007 87.565L391.127 93.654L386.757 91.0002C385.152 91.9701 383.452 92.6976 381.699 93.196L380.66 98.1938L372.204 98.342L370.99 93.3846C369.223 92.9535 367.483 92.28 365.851 91.3639L361.575 94.1659L355.493 88.2925L358.15 83.9278C357.178 82.3247 356.45 80.6273 355.951 78.8761L350.947 77.8388L350.799 69.3923L355.762 68.1799C356.194 66.4152 356.868 64.6774 357.785 63.0474L354.98 58.777L360.861 52.7015L365.231 55.3553V55.3418ZM369.735 66.6038C366.256 70.2141 366.35 75.9528 369.965 79.4284C373.566 82.904 379.325 82.8097 382.805 79.1994C386.285 75.6026 386.19 69.8503 382.576 66.3748C378.961 62.8992 373.215 62.9935 369.735 66.6038Z" fill="#F5F5F5"/>
<path d="M79.0912 61.0937C81.6943 59.5311 84.4592 58.3321 87.3051 57.5238L89.0046 49.4007L102.748 49.1582L104.731 57.214C107.617 57.928 110.423 59.0191 113.066 60.4875L120.013 55.9342L129.899 65.4719L125.596 72.5712C127.161 75.1712 128.361 77.9328 129.171 80.7887L137.304 82.486L137.546 96.2132L129.481 98.1935C128.766 101.076 127.674 103.878 126.203 106.519L130.762 113.456L121.213 123.331L114.105 119.034C111.502 120.596 108.737 121.795 105.878 122.603L104.178 130.727L90.4342 130.969L88.4516 122.913C85.5652 122.199 82.7598 121.108 80.1162 119.64L73.1701 124.193L63.2837 114.655L67.5862 107.556C66.0217 104.956 64.8213 102.194 64.012 99.3386L55.879 97.6412L55.6362 83.914L63.7018 81.9337C64.4167 79.0509 65.5092 76.2489 66.9793 73.6085L62.4205 66.6708L71.9697 56.7964L79.0777 61.0937H79.0912ZM86.4149 79.3877C80.7501 85.2342 80.9255 94.5697 86.7791 100.214C92.6327 105.859 101.98 105.697 107.631 99.8505C113.282 94.0039 113.12 84.6684 107.267 79.0239C101.413 73.3795 92.0662 73.5411 86.4149 79.3877Z" fill="#F5F5F5"/>
<path d="M300.814 296.194C302.689 295.062 304.699 294.2 306.762 293.607L307.989 287.734L317.93 287.559L319.36 293.392C321.437 293.904 323.473 294.698 325.388 295.763L330.419 292.476L337.568 299.373L334.452 304.505C335.585 306.378 336.448 308.385 337.042 310.446L342.922 311.672L343.098 321.6L337.258 323.028C336.745 325.103 335.949 327.137 334.884 329.05L338.175 334.075L331.269 341.215L326.13 338.103C324.256 339.234 322.246 340.096 320.182 340.689L318.955 346.563L309.015 346.738L307.585 340.905C305.508 340.393 303.471 339.598 301.556 338.534L296.525 341.821L289.377 334.923L292.492 329.791C291.359 327.918 290.496 325.911 289.903 323.85L284.022 322.624L283.847 312.696L289.687 311.268C290.199 309.193 290.995 307.159 292.061 305.246L288.77 300.222L295.675 293.082L300.814 296.194ZM306.115 309.422C302.028 313.652 302.136 320.401 306.384 324.483C310.62 328.565 317.377 328.457 321.464 324.214C325.55 319.984 325.442 313.235 321.194 309.153C316.959 305.071 310.201 305.179 306.115 309.422Z" fill="#F5F5F5"/>
<path d="M328.828 473.934C330.703 472.802 332.712 471.94 334.776 471.347L336.003 465.474L345.944 465.299L347.373 471.132C349.45 471.644 351.487 472.439 353.402 473.503L358.433 470.216L365.581 477.113L362.466 482.246C363.599 484.118 364.462 486.125 365.055 488.186L370.936 489.412L371.111 499.341L365.271 500.769C364.759 502.843 363.963 504.877 362.897 506.79L366.188 511.815L359.283 518.955L354.144 515.843C352.269 516.975 350.26 517.837 348.196 518.429L346.969 524.303L337.028 524.478L335.599 518.645C333.521 518.133 331.485 517.338 329.57 516.274L324.539 519.561L317.39 512.664L320.506 507.531C319.373 505.659 318.51 503.651 317.916 501.59L312.036 500.364L311.86 490.436L317.7 489.008C318.213 486.934 319.009 484.899 320.074 482.987L316.783 477.962L323.689 470.822L328.828 473.934ZM334.128 487.163C330.042 491.393 330.15 498.142 334.398 502.223C338.633 506.305 345.391 506.198 349.477 501.954C353.564 497.724 353.456 490.975 349.208 486.893C344.972 482.811 338.215 482.919 334.128 487.163Z" fill="#F5F5F5"/>
<path d="M90.1106 362.715C91.3784 361.947 92.7272 361.368 94.1164 360.977L94.9391 357.017L101.642 356.896L102.614 360.829C104.016 361.179 105.392 361.705 106.687 362.432L110.072 360.209L114.901 364.857L112.797 368.319C113.566 369.585 114.145 370.933 114.537 372.32L118.502 373.142L118.623 379.837L114.685 380.807C114.334 382.208 113.808 383.582 113.08 384.875L115.305 388.257L110.652 393.079L107.186 390.978C105.918 391.746 104.569 392.325 103.18 392.716L102.357 396.676L95.654 396.797L94.6829 392.864C93.2802 392.513 91.9044 391.988 90.6096 391.261L87.2242 393.483L82.3957 388.836L84.4997 385.374C83.7309 384.107 83.151 382.76 82.7598 381.373L78.7945 380.551L78.6731 373.856L82.6115 372.886C82.9622 371.485 83.4882 370.111 84.2165 368.818L81.991 365.436L86.6443 360.614L90.1106 362.715ZM93.6848 371.633C90.9198 374.489 91.0008 379.042 93.8601 381.79C96.7195 384.552 101.278 384.471 104.03 381.615C106.795 378.759 106.714 374.206 103.854 371.458C100.995 368.696 96.4363 368.777 93.6848 371.633Z" fill="#F5F5F5"/>
<path d="M100.064 414.31C102.371 412.909 104.839 411.858 107.375 411.144L108.885 403.924L121.105 403.708L122.858 410.875C125.421 411.508 127.916 412.478 130.277 413.785L136.454 409.743L145.248 418.23L141.417 424.535C142.82 426.838 143.872 429.303 144.587 431.836L151.816 433.345L152.032 445.55L144.857 447.301C144.223 449.86 143.252 452.353 141.943 454.71L145.99 460.88L137.506 469.663L131.194 465.837C128.887 467.238 126.419 468.289 123.884 469.003L122.373 476.224L110.153 476.439L108.4 469.273C105.837 468.639 103.342 467.669 100.982 466.363L94.8043 470.404L86.0103 461.931L89.8408 455.626C88.4381 453.323 87.3861 450.857 86.6712 448.325L79.4419 446.816L79.2261 434.611L86.4015 432.86C87.0354 430.3 88.0065 427.808 89.3148 425.451L85.2685 419.281L93.7522 410.498L100.064 414.323V414.31ZM106.579 430.57C101.548 435.77 101.696 444.068 106.903 449.093C112.109 454.117 120.417 453.969 125.448 448.769C130.479 443.569 130.331 435.271 125.124 430.246C119.918 425.222 111.61 425.37 106.579 430.57Z" fill="#F5F5F5"/>
<path d="M624.934 67.3174H439.426V379.513H624.934V67.3174Z" fill="#E0E0E0"/>
<path d="M619.31 73.1777H444.43V374.368H619.31V73.1777Z" fill="#F5F5F5"/>
<path d="M601.587 89.2754H531.856V197.342H601.587V89.2754Z" fill="white"/>
<path d="M570.431 98.8265C570.431 100.268 569.271 101.426 567.828 101.426C566.385 101.426 565.225 100.268 565.225 98.8265C565.225 97.3851 566.385 96.2266 567.828 96.2266C569.271 96.2266 570.431 97.3851 570.431 98.8265Z" fill="#E0E0E0"/>
<path d="M531.317 227.423H461.586V335.489H531.317V227.423Z" fill="white"/>
<path d="M500.161 236.974C500.161 238.415 499.001 239.574 497.557 239.574C496.114 239.574 494.954 238.415 494.954 236.974C494.954 235.533 496.114 234.374 497.557 234.374C499.001 234.374 500.161 235.533 500.161 236.974Z" fill="#E0E0E0"/>
<path d="M520.19 89.2754H460.642V173.673H520.19V89.2754Z" fill="white"/>
<path d="M492.58 96.9406C492.58 98.1395 491.609 99.096 490.422 99.096C489.235 99.096 488.264 98.126 488.264 96.9406C488.264 95.7551 489.235 94.7852 490.422 94.7852C491.609 94.7852 492.58 95.7551 492.58 96.9406Z" fill="#E0E0E0"/>
<path d="M603.89 228.871L540.201 236.051L544.184 271.297L607.873 264.117L603.89 228.871Z" fill="white"/>
<path d="M572.791 241.393C574.013 241.393 575.003 240.404 575.003 239.184C575.003 237.964 574.013 236.975 572.791 236.975C571.569 236.975 570.579 237.964 570.579 239.184C570.579 240.404 571.569 241.393 572.791 241.393Z" fill="#E0E0E0"/>
<path d="M522.01 252.075C522.01 252.358 511.058 252.601 497.557 252.601C484.056 252.601 473.104 252.372 473.104 252.075C473.104 251.779 484.056 251.55 497.557 251.55C511.058 251.55 522.01 251.779 522.01 252.075Z" fill="#E0E0E0"/>
<path d="M522.011 259.808C522.011 260.09 511.059 260.333 497.558 260.333C484.056 260.333 473.104 260.104 473.104 259.808C473.104 259.511 484.056 259.282 497.558 259.282C511.059 259.282 522.011 259.511 522.011 259.808Z" fill="#E0E0E0"/>
<path d="M522.011 267.54C522.011 267.823 511.059 268.065 497.558 268.065C484.056 268.065 473.104 267.836 473.104 267.54C473.104 267.244 484.056 267.015 497.558 267.015C511.059 267.015 522.011 267.244 522.011 267.54Z" fill="#E0E0E0"/>
<path d="M522.011 275.272C522.011 275.555 511.059 275.798 497.558 275.798C484.056 275.798 473.104 275.569 473.104 275.272C473.104 274.976 484.056 274.747 497.558 274.747C511.059 274.747 522.011 274.976 522.011 275.272Z" fill="#E0E0E0"/>
<path d="M522.011 283.005C522.011 283.288 511.059 283.53 497.558 283.53C484.056 283.53 473.104 283.301 473.104 283.005C473.104 282.709 484.056 282.479 497.558 282.479C511.059 282.479 522.011 282.709 522.011 283.005Z" fill="#E0E0E0"/>
<path d="M522.011 290.738C522.011 291.021 511.059 291.264 497.558 291.264C484.056 291.264 473.104 291.035 473.104 290.738C473.104 290.442 484.056 290.213 497.558 290.213C511.059 290.213 522.011 290.442 522.011 290.738Z" fill="#E0E0E0"/>
<path d="M522.011 298.471C522.011 298.754 511.059 298.996 497.558 298.996C484.056 298.996 473.104 298.767 473.104 298.471C473.104 298.174 484.056 297.945 497.558 297.945C511.059 297.945 522.011 298.174 522.011 298.471Z" fill="#E0E0E0"/>
<path d="M597.918 243.791C597.959 244.074 587.142 245.838 573.776 247.711C560.396 249.597 549.525 250.89 549.484 250.607C549.444 250.324 560.248 248.56 573.627 246.687C586.993 244.801 597.878 243.508 597.918 243.791Z" fill="#E0E0E0"/>
<path d="M598.89 248.627C598.93 248.909 588.113 250.674 574.747 252.547C561.367 254.433 550.496 255.726 550.456 255.443C550.415 255.16 561.219 253.395 574.598 251.509C587.965 249.623 598.849 248.33 598.89 248.613V248.627Z" fill="#E0E0E0"/>
<path d="M599.78 253.099C599.82 253.382 589.017 255.147 575.637 257.033C562.257 258.919 551.386 260.212 551.346 259.929C551.305 259.646 562.109 257.882 575.489 255.996C588.855 254.11 599.739 252.816 599.78 253.099Z" fill="#E0E0E0"/>
<path d="M595.464 111.88C595.464 112.163 583.096 112.405 567.841 112.405C552.587 112.405 540.219 112.176 540.219 111.88C540.219 111.584 552.587 111.354 567.841 111.354C583.096 111.354 595.464 111.584 595.464 111.88Z" fill="#E0E0E0"/>
<path d="M595.464 116.487C595.464 116.77 583.096 117.013 567.841 117.013C552.587 117.013 540.219 116.784 540.219 116.487C540.219 116.191 552.587 115.962 567.841 115.962C583.096 115.962 595.464 116.191 595.464 116.487Z" fill="#E0E0E0"/>
<path d="M595.464 121.081C595.464 121.364 583.096 121.606 567.841 121.606C552.587 121.606 540.219 121.377 540.219 121.081C540.219 120.785 552.587 120.556 567.841 120.556C583.096 120.556 595.464 120.785 595.464 121.081Z" fill="#E0E0E0"/>
<path d="M595.464 125.675C595.464 125.958 583.096 126.2 567.841 126.2C552.587 126.2 540.219 125.971 540.219 125.675C540.219 125.378 552.587 125.149 567.841 125.149C583.096 125.149 595.464 125.378 595.464 125.675Z" fill="#E0E0E0"/>
<path d="M595.464 130.269C595.464 130.551 583.096 130.794 567.841 130.794C552.587 130.794 540.219 130.565 540.219 130.269C540.219 129.972 552.587 129.743 567.841 129.743C583.096 129.743 595.464 129.972 595.464 130.269Z" fill="#E0E0E0"/>
<path d="M595.464 134.876C595.464 135.159 583.096 135.401 567.841 135.401C552.587 135.401 540.219 135.172 540.219 134.876C540.219 134.58 552.587 134.351 567.841 134.351C583.096 134.351 595.464 134.58 595.464 134.876Z" fill="#E0E0E0"/>
<path d="M595.464 139.47C595.464 139.753 583.096 139.995 567.841 139.995C552.587 139.995 540.219 139.766 540.219 139.47C540.219 139.173 552.587 138.944 567.841 138.944C583.096 138.944 595.464 139.173 595.464 139.47Z" fill="#E0E0E0"/>
<path d="M595.464 153.115C595.464 153.398 583.096 153.641 567.841 153.641C552.587 153.641 540.219 153.412 540.219 153.115C540.219 152.819 552.587 152.59 567.841 152.59C583.096 152.59 595.464 152.819 595.464 153.115Z" fill="#E0E0E0"/>
<path d="M595.855 157.965C595.855 158.248 583.487 158.49 568.232 158.49C552.978 158.49 540.61 158.261 540.61 157.965C540.61 157.668 552.978 157.439 568.232 157.439C583.487 157.439 595.855 157.668 595.855 157.965Z" fill="#E0E0E0"/>
<path d="M596.246 162.828C596.246 163.111 583.878 163.353 568.624 163.353C553.369 163.353 541.001 163.124 541.001 162.828C541.001 162.532 553.369 162.303 568.624 162.303C583.878 162.303 596.246 162.532 596.246 162.828Z" fill="#E0E0E0"/>
<path d="M596.624 167.678C596.624 167.961 584.255 168.203 569.001 168.203C553.747 168.203 541.378 167.974 541.378 167.678C541.378 167.381 553.747 167.152 569.001 167.152C584.255 167.152 596.624 167.381 596.624 167.678Z" fill="#E0E0E0"/>
<path d="M597.015 172.541C597.015 172.824 584.647 173.066 569.392 173.066C554.138 173.066 541.77 172.837 541.77 172.541C541.77 172.245 554.138 172.016 569.392 172.016C584.647 172.016 597.015 172.245 597.015 172.541Z" fill="#E0E0E0"/>
<path d="M597.406 177.391C597.406 177.674 585.038 177.916 569.784 177.916C554.529 177.916 542.161 177.687 542.161 177.391C542.161 177.094 554.529 176.879 569.784 176.879C585.038 176.879 597.406 177.108 597.406 177.391Z" fill="#E0E0E0"/>
<path d="M209.84 128.854H169.863C167.098 128.854 164.859 126.618 164.859 123.856V68.5974C164.859 65.8358 167.098 63.5996 169.863 63.5996H195.219L214.844 83.8065V123.856C214.844 126.618 212.605 128.854 209.84 128.854Z" fill="#F5F5F5"/>
<path d="M164.872 109.065H214.844V122.766C214.844 126.133 212.106 128.868 208.734 128.868H170.969C167.597 128.868 164.859 126.133 164.859 122.766V109.065H164.872Z" fill="#E0E0E0"/>
<path d="M182.582 121.836L183.836 120.327C184.362 121.041 184.955 121.405 185.657 121.405C186.56 121.405 187.046 120.866 187.046 119.788V115.141H183.607V113.322H189.298V119.654C189.298 122.065 188.084 123.251 185.778 123.251C184.47 123.251 183.31 122.752 182.595 121.823L182.582 121.836Z" fill="#FAFAFA"/>
<path d="M190.634 122.388L191.362 120.825C192.037 121.256 193.048 121.553 193.979 121.553C194.99 121.553 195.368 121.283 195.368 120.866C195.368 119.64 190.823 120.893 190.823 117.889C190.823 116.461 192.104 115.464 194.302 115.464C195.341 115.464 196.487 115.706 197.189 116.124L196.46 117.673C195.719 117.256 194.977 117.121 194.289 117.121C193.304 117.121 192.886 117.431 192.886 117.821C192.886 119.101 197.432 117.862 197.432 120.825C197.432 122.226 196.137 123.21 193.884 123.21C192.616 123.21 191.322 122.86 190.634 122.402V122.388Z" fill="#FAFAFA"/>
<path d="M175.46 98.6654L177.025 96.8333C178.05 98.2882 179.371 99.0695 180.963 99.0695C183.094 99.0695 184.2 97.7763 184.2 95.2437V84.6418H177.362V82.2979H186.871V95.1225C186.871 99.3255 184.82 101.414 180.95 101.414C178.711 101.414 176.647 100.444 175.433 98.6923L175.46 98.6654Z" fill="#FAFAFA"/>
<path d="M190.216 99.6621L191.295 97.6145C192.508 98.4766 194.451 99.0963 196.325 99.0963C198.726 99.0963 199.724 98.3688 199.724 97.1564C199.724 93.9503 190.674 96.7254 190.674 91.027C190.674 88.4675 192.967 86.7432 196.649 86.7432C198.51 86.7432 200.615 87.2281 201.869 88.0364L200.763 90.084C199.468 89.2488 198.038 88.9524 196.636 88.9524C194.37 88.9524 193.264 89.7877 193.264 90.9192C193.264 94.2871 202.341 91.5389 202.341 97.1025C202.341 99.689 199.967 101.333 196.15 101.333C193.776 101.333 191.416 100.605 190.229 99.6621H190.216Z" fill="#FAFAFA"/>
<path d="M195.219 63.5996V79.1589C195.219 81.7184 197.297 83.8065 199.873 83.8065H214.844L195.219 63.6131V63.5996Z" fill="#EBEBEB"/>
<path d="M195.422 80.5195C195.422 80.5195 195.219 84.2915 199.522 85.5308C199.684 85.5712 199.846 85.6117 200.007 85.6386C201.963 85.9889 214.83 88.279 214.83 87.9826V83.8065H199.859C199.859 83.8065 196.123 83.6853 195.408 80.5195H195.422Z" fill="#E0E0E0"/>
<path d="M0.714844 605.332L71.9024 557.32L416.848 555.663L432.628 606.046L0.714844 605.332Z" fill="#455A64"/>
<path d="M431.738 625L0 624.69V604.389L431.927 605.736L431.738 625Z" fill="#455A64"/>
<path d="M421.137 605.628C421.137 605.817 327.91 605.938 212.929 605.884C97.9198 605.83 4.70703 605.628 4.70703 605.44C4.70703 605.251 97.9198 605.13 212.929 605.184C327.91 605.238 421.137 605.44 421.137 605.628Z" fill="#263238"/>
<path d="M313.749 160.256H245.973C241.293 160.256 237.49 156.457 237.49 151.783V58.0769C237.49 53.4024 241.293 49.6035 245.973 49.6035H288.958L322.232 83.8609V151.783C322.232 156.457 318.429 160.256 313.749 160.256Z" fill="#F8B814"/>
<g opacity="0.2">
<path d="M239.162 126.686H320.56C321.477 126.686 322.232 127.44 322.232 128.356V151.527C322.232 156.349 318.321 160.256 313.492 160.256H246.23C241.401 160.256 237.49 156.349 237.49 151.527V128.356C237.49 127.44 238.245 126.686 239.162 126.686Z" fill="black"/>
</g>
<g opacity="0.2">
<path d="M288.958 49.6035V75.9802C288.958 80.3314 292.492 83.8609 296.849 83.8609H322.232L288.958 49.6035Z" fill="white"/>
</g>
<g opacity="0.2">
<path d="M289.296 78.2969C289.296 78.2969 288.959 84.6957 296.255 86.7972C296.525 86.8781 296.808 86.9319 297.092 86.9858C300.41 87.5786 322.233 91.4583 322.233 90.9598V83.874H296.849C296.849 83.874 290.51 83.6584 289.309 78.3103L289.296 78.2969Z" fill="black"/>
</g>
<path d="M261.74 141.302C261.74 137.328 264.789 134.499 268.889 134.499C271.168 134.499 273.07 135.321 274.311 136.83L272.355 138.635C271.465 137.624 270.359 137.085 269.037 137.085C266.569 137.085 264.816 138.81 264.816 141.302C264.816 143.794 266.569 145.518 269.037 145.518C270.359 145.518 271.465 144.993 272.355 143.956L274.311 145.761C273.07 147.283 271.168 148.118 268.875 148.118C264.789 148.118 261.74 145.276 261.74 141.315V141.302Z" fill="#FAFAFA"/>
<path d="M275.214 146.596L276.253 144.306C277.359 145.115 279.018 145.68 280.596 145.68C282.403 145.68 283.132 145.074 283.132 144.266C283.132 141.801 275.471 143.498 275.471 138.608C275.471 136.372 277.278 134.513 281.028 134.513C282.687 134.513 284.373 134.903 285.6 135.685L284.656 138.002C283.428 137.301 282.174 136.964 281.001 136.964C279.193 136.964 278.492 137.638 278.492 138.473C278.492 140.898 286.153 139.228 286.153 144.064C286.153 146.26 284.332 148.146 280.556 148.146C278.465 148.146 276.361 147.526 275.188 146.623L275.214 146.596Z" fill="#FAFAFA"/>
<path d="M287.219 146.596L288.257 144.306C289.363 145.115 291.022 145.68 292.614 145.68C294.421 145.68 295.149 145.074 295.149 144.266C295.149 141.801 287.488 143.498 287.488 138.608C287.488 136.372 289.296 134.513 293.045 134.513C294.704 134.513 296.404 134.903 297.618 135.685L296.673 138.002C295.446 137.301 294.192 136.964 293.018 136.964C291.211 136.964 290.51 137.638 290.51 138.473C290.51 140.898 298.171 139.228 298.171 144.064C298.171 146.26 296.35 148.146 292.573 148.146C290.483 148.146 288.378 147.526 287.205 146.623L287.219 146.596Z" fill="#FAFAFA"/>
<path d="M266.043 98.7059C267.432 99.1235 268.066 100.013 268.066 102.087V106.923C268.066 108.338 268.795 109.16 270.278 109.16H270.818V112.851H269.064C265.274 112.851 263.346 110.911 263.346 107.435V101.966C263.346 100.996 262.833 100.538 262.01 100.538H261.012V96.8469H262.01C262.833 96.8469 263.346 96.3889 263.346 95.4189V89.9496C263.346 86.474 265.288 84.5342 269.064 84.5342H270.818V88.2253H270.278C268.795 88.2253 268.066 89.047 268.066 90.4615V95.2977C268.066 97.3857 267.432 98.2614 266.043 98.679V98.7059Z" fill="#FAFAFA"/>
<path d="M298.683 96.86V100.551H297.685C296.862 100.551 296.35 101.009 296.35 101.979V107.448C296.35 110.924 294.407 112.864 290.631 112.864H288.877V109.173H289.417C290.901 109.173 291.629 108.351 291.629 106.936V102.1C291.629 100.012 292.263 99.1366 293.652 98.719C292.263 98.3014 291.629 97.4123 291.629 95.3377V90.5016C291.629 89.0736 290.901 88.2653 289.417 88.2653H288.877V84.5742H290.631C294.421 84.5742 296.35 86.5141 296.35 89.9897V95.459C296.35 96.4289 296.862 96.8869 297.685 96.8869H298.683V96.86Z" fill="#FAFAFA"/>
<path d="M408.661 228.273H339.861C335.1 228.273 331.256 224.42 331.256 219.678V124.558C331.256 119.802 335.113 115.963 339.861 115.963H383.493L417.266 150.732V219.678C417.266 224.433 413.409 228.273 408.661 228.273Z" fill="#F8B814"/>
<g opacity="0.2">
<path d="M331.242 194.204H417.266V218.991C417.266 224.124 413.098 228.286 407.959 228.286H340.535C335.396 228.286 331.229 224.124 331.229 218.991V194.204H331.242Z" fill="black"/>
</g>
<g opacity="0.2">
<path d="M383.493 115.963V142.73C383.493 147.149 387.081 150.732 391.505 150.732H417.279L383.506 115.963H383.493Z" fill="white"/>
</g>
<g opacity="0.2">
<path d="M383.844 145.074C383.844 145.074 383.506 151.567 390.911 153.696C391.194 153.776 391.478 153.83 391.761 153.884C395.119 154.49 417.279 158.424 417.279 157.912V150.718H391.505C391.505 150.718 385.071 150.503 383.844 145.061V145.074Z" fill="black"/>
</g>
<path d="M366.58 166.063L356.248 169.848L366.58 173.593V177.46L351.824 171.856V167.828L366.58 162.224V166.063Z" fill="#FAFAFA"/>
<path d="M377.667 154.599H381.983L371.745 183.777H367.429L377.667 154.599Z" fill="#FAFAFA"/>
<path d="M397.304 167.828V171.856L382.549 177.46V173.593L392.88 169.848L382.549 166.063V162.224L397.304 167.828Z" fill="#FAFAFA"/>
<path d="M363.059 206.88V218.425H360.389V213.696H355.142V218.425H352.472V206.88H355.142V211.433H360.389V206.88H363.059Z" fill="#FAFAFA"/>
<path d="M368.198 209.062H364.503V206.88H374.578V209.062H370.882V218.438H368.212V209.062H368.198Z" fill="#FAFAFA"/>
<path d="M386.528 218.425V211.501L383.115 217.212H381.915L378.53 211.649V218.425H376.021V206.88H378.233L382.562 214.06L386.825 206.88H389.023L389.05 218.425H386.541H386.528Z" fill="#FAFAFA"/>
<path d="M391.775 206.88H394.445V216.256H400.245V218.438H391.775V206.893V206.88Z" fill="#FAFAFA"/>
<path d="M166.383 151.229H41.4607C39.1813 151.229 37.3335 153.075 37.3335 155.352V361.502C37.3335 363.779 39.1813 365.624 41.4607 365.624H166.383C168.662 365.624 170.51 363.779 170.51 361.502V155.352C170.51 153.075 168.662 151.229 166.383 151.229Z" fill="white"/>
<path d="M42.2025 151.23H165.83C168.419 151.23 170.51 153.332 170.51 155.905V175.182H37.3335V156.08C37.3335 153.399 39.5185 151.217 42.2025 151.217V151.23Z" fill="#E0E0E0"/>
<path d="M166.046 365.625C166.046 365.625 166.68 365.678 167.759 365.247C168.298 365.018 168.919 364.614 169.458 363.954C169.984 363.281 170.429 362.338 170.429 361.193C170.416 356.599 170.389 349.863 170.362 341.174C170.335 323.769 170.295 298.619 170.254 267.541C170.227 236.449 170.214 199.43 170.173 158.343V156.416C170.173 155.756 170.173 155.163 170.011 154.584C169.701 153.426 168.824 152.429 167.732 151.944C167.179 151.688 166.585 151.567 165.965 151.58H164.009C162.701 151.58 161.393 151.58 160.071 151.58C154.797 151.58 149.47 151.58 144.088 151.58C133.312 151.58 122.319 151.58 111.124 151.58C88.735 151.58 65.5498 151.58 41.8116 151.58C40.4359 151.58 39.1006 152.294 38.3453 153.439C37.9811 154.018 37.7384 154.665 37.6844 155.352C37.6439 156.039 37.6844 156.807 37.6709 157.534C37.6709 160.485 37.6709 163.421 37.6709 166.345C37.6709 172.205 37.6709 178.024 37.6709 183.79C37.6709 195.348 37.6709 206.718 37.6709 217.913C37.6709 240.275 37.6574 261.856 37.6439 282.413C37.6439 302.97 37.617 322.503 37.617 340.77C37.617 345.337 37.617 349.836 37.617 354.241C37.617 356.451 37.617 358.633 37.617 360.788C37.4416 362.89 38.9522 364.843 40.9349 365.247C41.8925 365.423 43.012 365.315 44.0371 365.342C45.0891 365.342 46.1276 365.342 47.1797 365.342C49.2568 365.342 51.3204 365.342 53.357 365.342C57.4303 365.342 61.4091 365.342 65.307 365.342C96.4229 365.396 121.604 365.423 139.03 365.449C147.73 365.476 154.474 365.503 159.073 365.517C161.352 365.53 163.092 365.544 164.279 365.557C165.452 365.557 166.059 365.598 166.059 365.598C166.059 365.598 165.452 365.625 164.279 365.638C163.092 365.638 161.352 365.652 159.073 365.679C154.474 365.692 147.73 365.719 139.03 365.746C121.618 365.773 96.4364 365.813 65.307 365.854C61.4226 365.854 57.4303 365.854 53.357 365.854C51.3204 365.854 49.2568 365.854 47.1797 365.854C46.1411 365.854 45.0891 365.854 44.0371 365.854C42.9715 365.813 41.96 365.948 40.8135 365.746C39.7075 365.517 38.696 364.87 38.0081 363.954C37.3202 363.065 36.983 361.866 37.0505 360.761C37.0505 358.593 37.0505 356.41 37.0505 354.214C37.0505 349.809 37.0505 345.31 37.0505 340.743C37.0505 322.463 37.0235 302.929 37.0235 282.386C37.0235 261.829 37.0235 240.261 36.9965 217.886C36.9965 206.704 36.9965 195.321 36.9965 183.763C36.9965 177.984 36.9965 172.164 36.9965 166.318C36.9965 163.394 36.9965 160.458 36.9965 157.507C36.9965 156.753 36.983 156.066 37.01 155.271C37.064 154.476 37.3472 153.709 37.7788 153.035C38.642 151.688 40.2201 150.839 41.8251 150.853C65.5633 150.853 88.7485 150.853 111.138 150.853C122.333 150.853 133.325 150.853 144.102 150.853C149.483 150.853 154.811 150.853 160.084 150.853C161.406 150.853 162.714 150.853 164.023 150.853H165.978C166.666 150.853 167.381 150.987 168.015 151.284C169.283 151.863 170.294 153.008 170.645 154.342C170.847 155.015 170.834 155.729 170.821 156.349V158.275C170.794 199.376 170.767 236.395 170.74 267.473C170.699 298.551 170.659 323.702 170.632 341.107C170.605 349.796 170.578 356.532 170.564 361.125C170.564 362.297 170.079 363.267 169.539 363.954C168.973 364.628 168.325 365.032 167.772 365.247C167.219 365.476 166.774 365.517 166.478 365.557C166.181 365.557 166.032 365.557 166.032 365.557L166.046 365.625Z" fill="#263238"/>
<path d="M56.9582 165.078C56.9582 167.247 55.2048 168.998 53.0333 168.998C50.8618 168.998 49.1084 167.247 49.1084 165.078C49.1084 162.909 50.8618 161.158 53.0333 161.158C55.2048 161.158 56.9582 162.909 56.9582 165.078Z" fill="white"/>
<path d="M65.1183 168.998C67.2859 168.998 69.0431 167.243 69.0431 165.078C69.0431 162.913 67.2859 161.158 65.1183 161.158C62.9506 161.158 61.1934 162.913 61.1934 165.078C61.1934 167.243 62.9506 168.998 65.1183 168.998Z" fill="white"/>
<path d="M77.2166 168.998C79.3843 168.998 81.1415 167.243 81.1415 165.078C81.1415 162.913 79.3843 161.158 77.2166 161.158C75.049 161.158 73.2917 162.913 73.2917 165.078C73.2917 167.243 75.049 168.998 77.2166 168.998Z" fill="white"/>
<path d="M95.2898 207.661H70.7694C69.2992 207.661 68.1123 206.476 68.1123 205.007C68.1123 203.539 69.2992 202.354 70.7694 202.354H95.2898C96.76 202.354 97.9469 203.539 97.9469 205.007C97.9469 206.476 96.76 207.661 95.2898 207.661Z" fill="#263238"/>
<path d="M95.2898 221.576H70.7694C69.2992 221.576 68.1123 220.391 68.1123 218.922C68.1123 217.454 69.2992 216.269 70.7694 216.269H95.2898C96.76 216.269 97.9469 217.454 97.9469 218.922C97.9469 220.391 96.76 221.576 95.2898 221.576Z" fill="#E0E0E0"/>
<path d="M95.9912 259.687H71.4708C70.0006 259.687 68.8137 258.501 68.8137 257.033C68.8137 255.564 70.0006 254.379 71.4708 254.379H95.9912C97.4614 254.379 98.6483 255.564 98.6483 257.033C98.6483 258.501 97.4614 259.687 95.9912 259.687Z" fill="#E0E0E0"/>
<path d="M95.2898 235.95H70.7694C69.2992 235.95 68.1123 234.765 68.1123 233.296C68.1123 231.828 69.2992 230.643 70.7694 230.643H95.2898C96.76 230.643 97.9469 231.828 97.9469 233.296C97.9469 234.765 96.76 235.95 95.2898 235.95Z" fill="#F8B814"/>
<path d="M95.2898 316.118H70.7694C69.2992 316.118 68.1123 314.933 68.1123 313.464C68.1123 311.996 69.2992 310.811 70.7694 310.811H95.2898C96.76 310.811 97.9469 311.996 97.9469 313.464C97.9469 314.933 96.76 316.118 95.2898 316.118Z" fill="#F8B814"/>
<path d="M134.579 207.661H110.059C108.589 207.661 107.402 206.476 107.402 205.007C107.402 203.539 108.589 202.354 110.059 202.354H134.579C136.05 202.354 137.236 203.539 137.236 205.007C137.236 206.476 136.05 207.661 134.579 207.661Z" fill="#455A64"/>
<path d="M161.136 221.576H109.83C108.481 221.576 107.402 220.391 107.402 218.922C107.402 217.454 108.494 216.269 109.83 216.269H161.136C162.485 216.269 163.564 217.454 163.564 218.922C163.564 220.391 162.472 221.576 161.136 221.576Z" fill="#263238"/>
<path d="M159.747 235.95H108.089C106.714 235.95 105.594 234.765 105.594 233.296C105.594 231.828 106.714 230.643 108.089 230.643H159.747C161.123 230.643 162.242 231.828 162.242 233.296C162.242 234.765 161.123 235.95 159.747 235.95Z" fill="#E0E0E0"/>
<path d="M122.427 247.576H70.7694C69.3936 247.576 68.2742 246.391 68.2742 244.922C68.2742 243.454 69.3936 242.269 70.7694 242.269H122.427C123.803 242.269 124.922 243.454 124.922 244.922C124.922 246.391 123.803 247.576 122.427 247.576Z" fill="#E0E0E0"/>
<path d="M58.7388 205.007C58.7388 206.502 57.5249 207.701 56.0413 207.701C54.5576 207.701 53.3438 206.489 53.3438 205.007C53.3438 203.525 54.5576 202.312 56.0413 202.312C57.5249 202.312 58.7388 203.525 58.7388 205.007Z" fill="#455A64"/>
<path d="M58.7388 191.697C58.7388 193.192 57.5249 194.391 56.0413 194.391C54.5576 194.391 53.3438 193.179 53.3438 191.697C53.3438 190.215 54.5576 189.003 56.0413 189.003C57.5249 189.003 58.7388 190.215 58.7388 191.697Z" fill="#455A64"/>
<path d="M58.7388 218.883C58.7388 220.378 57.5249 221.577 56.0413 221.577C54.5576 221.577 53.3438 220.365 53.3438 218.883C53.3438 217.401 54.5576 216.188 56.0413 216.188C57.5249 216.188 58.7388 217.401 58.7388 218.883Z" fill="#455A64"/>
<path d="M58.7385 233.297C58.7385 234.792 57.5247 235.991 56.041 235.991C54.5574 235.991 53.3435 234.779 53.3435 233.297C53.3435 231.815 54.5574 230.603 56.041 230.603C57.5247 230.603 58.7385 231.815 58.7385 233.297Z" fill="#455A64"/>
<path d="M95.9912 298.592H71.4708C70.0006 298.592 68.8137 297.406 68.8137 295.938C68.8137 294.47 70.0006 293.284 71.4708 293.284H95.9912C97.4614 293.284 98.6483 294.47 98.6483 295.938C98.6483 297.406 97.4614 298.592 95.9912 298.592Z" fill="#E0E0E0"/>
<path d="M95.2901 274.856H70.7696C69.2995 274.856 68.1125 273.67 68.1125 272.202C68.1125 270.733 69.2995 269.548 70.7696 269.548H95.2901C96.7602 269.548 97.9471 270.733 97.9471 272.202C97.9471 273.67 96.7602 274.856 95.2901 274.856Z" fill="#F8B814"/>
<path d="M159.747 274.856H108.09C106.714 274.856 105.594 273.67 105.594 272.202C105.594 270.733 106.714 269.548 108.09 269.548H159.747C161.123 269.548 162.242 270.733 162.242 272.202C162.242 273.67 161.123 274.856 159.747 274.856Z" fill="#E0E0E0"/>
<path d="M122.427 286.481H70.7696C69.3939 286.481 68.2744 285.296 68.2744 283.828C68.2744 282.359 69.3939 281.174 70.7696 281.174H122.427C123.803 281.174 124.922 282.359 124.922 283.828C124.922 285.296 123.803 286.481 122.427 286.481Z" fill="#E0E0E0"/>
<path d="M58.7388 272.202C58.7388 273.697 57.5249 274.896 56.0413 274.896C54.5576 274.896 53.3438 273.684 53.3438 272.202C53.3438 270.72 54.5576 269.508 56.0413 269.508C57.5249 269.508 58.7388 270.72 58.7388 272.202Z" fill="#455A64"/>
<path d="M84.8908 189.771H69.5419C68.8268 189.771 68.2471 190.35 68.2471 191.065V193.611C68.2471 194.325 68.8268 194.904 69.5419 194.904H84.8908C85.6059 194.904 86.1856 194.325 86.1856 193.611V191.065C86.1856 190.35 85.6059 189.771 84.8908 189.771Z" fill="#455A64"/>
<path d="M95.2901 330.289H70.7696C69.2995 330.289 68.1125 329.104 68.1125 327.635C68.1125 326.167 69.2995 324.981 70.7696 324.981H95.2901C96.7602 324.981 97.9471 326.167 97.9471 327.635C97.9471 329.104 96.7602 330.289 95.2901 330.289Z" fill="#263238"/>
<path d="M134.579 330.289H110.059C108.589 330.289 107.402 329.104 107.402 327.635C107.402 326.167 108.589 324.981 110.059 324.981H134.579C136.049 324.981 137.236 326.167 137.236 327.635C137.236 329.104 136.049 330.289 134.579 330.289Z" fill="#455A64"/>
<path d="M58.7385 327.636C58.7385 329.131 57.5247 330.33 56.041 330.33C54.5574 330.33 53.3435 329.117 53.3435 327.636C53.3435 326.154 54.5574 324.941 56.041 324.941C57.5247 324.941 58.7385 326.154 58.7385 327.636Z" fill="#455A64"/>
<path d="M58.7385 340.434C58.7385 341.929 57.5247 343.128 56.041 343.128C54.5574 343.128 53.3435 341.915 53.3435 340.434C53.3435 338.952 54.5574 337.739 56.041 337.739C57.5247 337.739 58.7385 338.952 58.7385 340.434Z" fill="#455A64"/>
<path d="M84.891 338.521H69.5421C68.827 338.521 68.2473 339.099 68.2473 339.814V342.36C68.2473 343.074 68.827 343.653 69.5421 343.653H84.891C85.6061 343.653 86.1858 343.074 86.1858 342.36V339.814C86.1858 339.099 85.6061 338.521 84.891 338.521Z" fill="#455A64"/>
<path d="M422.647 332.525H179.398V487.067H422.647V332.525Z" fill="white"/>
<path d="M223.206 332.525H179.398V487.067H223.206V332.525Z" fill="#EBEBEB"/>
<path d="M198.659 349.203C198.888 349.068 199.131 348.96 199.387 348.879L199.535 348.152L200.749 348.125L200.925 348.839C201.181 348.906 201.424 349.001 201.666 349.135L202.287 348.731L203.164 349.58L202.786 350.213C202.921 350.442 203.029 350.685 203.096 350.941L203.825 351.089L203.851 352.301L203.137 352.476C203.069 352.732 202.975 352.975 202.84 353.217L203.245 353.837L202.395 354.712L201.761 354.335C201.532 354.47 201.289 354.578 201.033 354.645L200.884 355.373L199.67 355.399L199.495 354.686C199.239 354.618 198.996 354.524 198.753 354.389L198.133 354.793L197.256 353.945L197.634 353.311C197.499 353.082 197.391 352.84 197.31 352.584L196.582 352.436L196.555 351.223L197.27 351.048C197.337 350.792 197.431 350.55 197.566 350.307L197.162 349.688L198.011 348.812L198.645 349.189L198.659 349.203ZM199.306 350.819C198.807 351.345 198.821 352.166 199.333 352.665C199.859 353.163 200.682 353.15 201.181 352.638C201.68 352.112 201.666 351.291 201.154 350.792C200.628 350.294 199.805 350.307 199.306 350.819Z" fill="#E0E0E0"/>
<path d="M208.775 383.352H189.676C188.597 383.352 187.707 382.476 187.707 381.385C187.707 380.307 188.584 379.418 189.676 379.418H208.775C209.854 379.418 210.744 380.294 210.744 381.385C210.744 382.462 209.867 383.352 208.775 383.352Z" fill="#E0E0E0"/>
<path d="M208.774 373.356H189.676C188.597 373.356 187.707 372.481 187.707 371.39C187.707 370.312 188.583 369.423 189.676 369.423H208.774C209.853 369.423 210.744 370.298 210.744 371.39C210.744 372.467 209.867 373.356 208.774 373.356Z" fill="#E0E0E0"/>
<path d="M208.774 364.223H189.676C188.597 364.223 187.707 363.347 187.707 362.256C187.707 361.178 188.583 360.289 189.676 360.289H208.774C209.853 360.289 210.744 361.165 210.744 362.256C210.744 363.334 209.867 364.223 208.774 364.223Z" fill="#E0E0E0"/>
<path d="M260.095 355.358H242.008C240.929 355.358 240.039 354.483 240.039 353.392C240.039 352.314 240.915 351.425 242.008 351.425H260.095C261.174 351.425 262.064 352.3 262.064 353.392C262.064 354.469 261.187 355.358 260.095 355.358Z" fill="#263238"/>
<path d="M260.095 365.624H242.008C240.929 365.624 240.039 364.748 240.039 363.657C240.039 362.58 240.915 361.69 242.008 361.69H260.095C261.174 361.69 262.064 362.566 262.064 363.657C262.064 364.735 261.187 365.624 260.095 365.624Z" fill="#E0E0E0"/>
<path d="M260.095 376.226H242.008C240.929 376.226 240.039 375.35 240.039 374.259C240.039 373.181 240.915 372.292 242.008 372.292H260.095C261.174 372.292 262.064 373.168 262.064 374.259C262.064 375.337 261.187 376.226 260.095 376.226Z" fill="#F8B814"/>
<path d="M252.367 396.729H241.995C240.916 396.729 240.025 395.853 240.025 394.762C240.025 393.684 240.902 392.795 241.995 392.795H252.367C253.446 392.795 254.336 393.671 254.336 394.762C254.336 395.839 253.459 396.729 252.367 396.729Z" fill="#263238"/>
<path d="M252.367 407.357H241.995C240.916 407.357 240.025 406.482 240.025 405.391C240.025 404.313 240.902 403.424 241.995 403.424H252.367C253.446 403.424 254.336 404.299 254.336 405.391C254.336 406.468 253.459 407.357 252.367 407.357Z" fill="#263238"/>
<path d="M283.199 407.357H264.182C263.103 407.357 262.212 406.482 262.212 405.391C262.212 404.313 263.089 403.424 264.182 403.424H283.199C284.278 403.424 285.168 404.299 285.168 405.391C285.168 406.468 284.292 407.357 283.199 407.357Z" fill="#E0E0E0"/>
<path d="M272.436 416.801H253.418C252.339 416.801 251.449 415.925 251.449 414.834C251.449 413.756 252.326 412.867 253.418 412.867H272.436C273.515 412.867 274.405 413.743 274.405 414.834C274.405 415.912 273.528 416.801 272.436 416.801Z" fill="#F8B814"/>
<path d="M263.588 423.658H276.658C277.399 423.658 277.993 424.264 277.993 424.992V426.231C277.993 426.972 277.386 427.565 276.658 427.565H263.588C262.846 427.565 262.253 426.959 262.253 426.231V424.992C262.253 424.251 262.86 423.658 263.588 423.658Z" fill="#F8B814"/>
<path d="M276.037 448.715H264.222C263.143 448.715 262.253 447.839 262.253 446.748C262.253 445.67 263.13 444.781 264.222 444.781H276.037C277.116 444.781 278.006 445.657 278.006 446.748C278.006 447.826 277.13 448.715 276.037 448.715Z" fill="#F8B814"/>
<path d="M276.037 471.022H264.222C263.143 471.022 262.253 470.147 262.253 469.056C262.253 467.978 263.13 467.089 264.222 467.089H276.037C277.116 467.089 278.006 467.964 278.006 469.056C278.006 470.133 277.13 471.022 276.037 471.022Z" fill="#F8B814"/>
<path d="M305.089 471.022H284.372C283.293 471.022 282.417 470.147 282.417 469.056C282.417 467.978 283.293 467.089 284.372 467.089H305.089C306.168 467.089 307.045 467.964 307.045 469.056C307.045 470.133 306.168 471.022 305.089 471.022Z" fill="#455A64"/>
<path d="M319.589 471.022H316.608C315.529 471.022 314.639 470.147 314.639 469.056C314.639 467.978 315.515 467.089 316.608 467.089H319.589C320.668 467.089 321.558 467.964 321.558 469.056C321.558 470.133 320.681 471.022 319.589 471.022Z" fill="#E0E0E0"/>
<path d="M303.849 448.715H286.342C285.263 448.715 284.373 447.839 284.373 446.748C284.373 445.67 285.249 444.781 286.342 444.781H303.849C304.928 444.781 305.818 445.657 305.818 446.748C305.818 447.826 304.941 448.715 303.849 448.715Z" fill="#E0E0E0"/>
<path d="M342.234 458.508H286.328C285.249 458.508 284.359 457.632 284.359 456.541C284.359 455.463 285.236 454.574 286.328 454.574H342.234C343.313 454.574 344.19 455.45 344.19 456.541C344.19 457.619 343.313 458.508 342.234 458.508Z" fill="#E0E0E0"/>
<path d="M348.695 448.715H313.007C311.928 448.715 311.038 447.839 311.038 446.748C311.038 445.67 311.914 444.781 313.007 444.781H348.695C349.774 444.781 350.664 445.657 350.664 446.748C350.664 447.826 349.787 448.715 348.695 448.715Z" fill="#455A64"/>
<path d="M284.48 423.658H300.517C301.259 423.658 301.852 424.264 301.852 424.992V426.231C301.852 426.972 301.245 427.565 300.517 427.565H284.48C283.738 427.565 283.145 426.959 283.145 426.231V424.992C283.145 424.251 283.752 423.658 284.48 423.658Z" fill="#455A64"/>
<path d="M313.303 423.658H308.38C307.643 423.658 307.045 424.255 307.045 424.992V426.245C307.045 426.981 307.643 427.578 308.38 427.578H313.303C314.041 427.578 314.638 426.981 314.638 426.245V424.992C314.638 424.255 314.041 423.658 313.303 423.658Z" fill="#E0E0E0"/>
<path d="M341.506 423.658H321.76C321.023 423.658 320.425 424.255 320.425 424.992V426.245C320.425 426.981 321.023 427.578 321.76 427.578H341.506C342.243 427.578 342.841 426.981 342.841 426.245V424.992C342.841 424.255 342.243 423.658 341.506 423.658Z" fill="#E0E0E0"/>
<path d="M285.33 416.801H281.095C280.016 416.801 279.126 415.925 279.126 414.834C279.126 413.756 280.003 412.867 281.095 412.867H285.33C286.409 412.867 287.299 413.743 287.299 414.834C287.299 415.912 286.423 416.801 285.33 416.801Z" fill="#263238"/>
<path d="M321.234 416.801H294.246C293.167 416.801 292.276 415.925 292.276 414.834C292.276 413.756 293.153 412.867 294.246 412.867H321.234C322.313 412.867 323.203 413.743 323.203 414.834C323.203 415.912 322.327 416.801 321.234 416.801Z" fill="#E0E0E0"/>
<path d="M289.066 355.358H270.979C269.9 355.358 269.01 354.483 269.01 353.392C269.01 352.314 269.887 351.425 270.979 351.425H289.066C290.145 351.425 291.036 352.3 291.036 353.392C291.036 354.469 290.159 355.358 289.066 355.358Z" fill="#455A64"/>
<path d="M312.373 365.624H270.979C269.9 365.624 269.01 364.748 269.01 363.657C269.01 362.58 269.887 361.69 270.979 361.69H312.373C313.452 361.69 314.342 362.566 314.342 363.657C314.342 364.735 313.465 365.624 312.373 365.624Z" fill="#263238"/>
<path d="M356.949 376.226H270.979C269.9 376.226 269.01 375.35 269.01 374.259C269.01 373.181 269.887 372.292 270.979 372.292H356.949C358.028 372.292 358.918 373.168 358.918 374.259C358.918 375.337 358.042 376.226 356.949 376.226Z" fill="#E0E0E0"/>
<path d="M311.51 383.688H270.979C269.9 383.688 269.01 382.813 269.01 381.722C269.01 380.644 269.887 379.755 270.979 379.755H311.51C312.589 379.755 313.479 380.631 313.479 381.722C313.479 382.799 312.602 383.688 311.51 383.688Z" fill="#E0E0E0"/>
<path d="M303.228 396.729H262.698C261.619 396.729 260.729 395.853 260.729 394.762C260.729 393.684 261.605 392.795 262.698 392.795H303.228C304.307 392.795 305.197 393.671 305.197 394.762C305.197 395.839 304.32 396.729 303.228 396.729Z" fill="#455A64"/>
<path d="M325.914 396.729H312.332C311.253 396.729 310.363 395.853 310.363 394.762C310.363 393.684 311.24 392.795 312.332 392.795H325.914C326.993 392.795 327.884 393.671 327.884 394.762C327.884 395.839 327.007 396.729 325.914 396.729Z" fill="#F8B814"/>
<path d="M360.659 396.661H334.992C333.913 396.661 333.022 395.785 333.022 394.694C333.022 393.617 333.899 392.728 334.992 392.728H360.659C361.738 392.728 362.628 393.603 362.628 394.694C362.628 395.772 361.751 396.661 360.659 396.661Z" fill="#263238"/>
<path d="M395.578 396.661H369.911C368.832 396.661 367.941 395.785 367.941 394.694C367.941 393.617 368.818 392.728 369.911 392.728H395.578C396.657 392.728 397.547 393.603 397.547 394.694C397.547 395.772 396.67 396.661 395.578 396.661Z" fill="#E0E0E0"/>
<path d="M200.507 393.913H189.676C188.597 393.913 187.707 393.037 187.707 391.946C187.707 390.869 188.584 389.979 189.676 389.979H200.507C201.586 389.979 202.476 390.855 202.476 391.946C202.476 393.024 201.599 393.913 200.507 393.913Z" fill="#E0E0E0"/>
<path d="M197.269 425.639H189.689C188.61 425.639 187.72 424.763 187.72 423.672C187.72 422.594 188.597 421.705 189.689 421.705H197.269C198.348 421.705 199.239 422.581 199.239 423.672C199.239 424.75 198.362 425.639 197.269 425.639Z" fill="#E0E0E0"/>
<path d="M210.744 404.488H189.689C188.61 404.488 187.72 403.613 187.72 402.522C187.72 401.444 188.597 400.555 189.689 400.555H210.744C211.823 400.555 212.713 401.43 212.713 402.522C212.713 403.599 211.836 404.488 210.744 404.488Z" fill="#E0E0E0"/>
<path d="M207.048 415.064H189.689C188.61 415.064 187.72 414.188 187.72 413.097C187.72 412.019 188.597 411.13 189.689 411.13H207.048C208.127 411.13 209.017 412.006 209.017 413.097C209.017 414.174 208.14 415.064 207.048 415.064Z" fill="#E0E0E0"/>
<path d="M233.133 353.406C233.133 354.511 232.243 355.4 231.137 355.4C230.031 355.4 229.141 354.511 229.141 353.406C229.141 352.301 230.031 351.412 231.137 351.412C232.243 351.412 233.133 352.301 233.133 353.406Z" fill="#455A64"/>
<path d="M231.137 344.932C232.239 344.932 233.133 344.039 233.133 342.938C233.133 341.837 232.239 340.944 231.137 340.944C230.034 340.944 229.141 341.837 229.141 342.938C229.141 344.039 230.034 344.932 231.137 344.932Z" fill="#455A64"/>
<path d="M231.137 365.624C232.239 365.624 233.133 364.732 233.133 363.63C233.133 362.529 232.239 361.637 231.137 361.637C230.034 361.637 229.141 362.529 229.141 363.63C229.141 364.732 230.034 365.624 231.137 365.624Z" fill="#455A64"/>
<path d="M231.137 376.253C232.239 376.253 233.133 375.36 233.133 374.259C233.133 373.158 232.239 372.266 231.137 372.266C230.034 372.266 229.141 373.158 229.141 374.259C229.141 375.36 230.034 376.253 231.137 376.253Z" fill="#455A64"/>
<path d="M231.137 386.895C232.239 386.895 233.133 386.002 233.133 384.901C233.133 383.8 232.239 382.907 231.137 382.907C230.034 382.907 229.141 383.8 229.141 384.901C229.141 386.002 230.034 386.895 231.137 386.895Z" fill="#455A64"/>
<path d="M233.133 395.53C233.133 396.635 232.243 397.524 231.137 397.524C230.031 397.524 229.141 396.635 229.141 395.53C229.141 394.425 230.031 393.536 231.137 393.536C232.243 393.536 233.133 394.425 233.133 395.53Z" fill="#455A64"/>
<path d="M231.137 408.166C232.239 408.166 233.133 407.274 233.133 406.172C233.133 405.071 232.239 404.179 231.137 404.179C230.034 404.179 229.141 405.071 229.141 406.172C229.141 407.274 230.034 408.166 231.137 408.166Z" fill="#455A64"/>
<path d="M231.137 418.795C232.239 418.795 233.133 417.902 233.133 416.801C233.133 415.7 232.239 414.808 231.137 414.808C230.034 414.808 229.141 415.7 229.141 416.801C229.141 417.902 230.034 418.795 231.137 418.795Z" fill="#455A64"/>
<path d="M233.133 427.443C233.133 428.548 232.243 429.437 231.137 429.437C230.031 429.437 229.141 428.548 229.141 427.443C229.141 426.338 230.031 425.449 231.137 425.449C232.243 425.449 233.133 426.338 233.133 427.443Z" fill="#455A64"/>
<path d="M233.133 438.072C233.133 439.177 232.243 440.066 231.137 440.066C230.031 440.066 229.141 439.177 229.141 438.072C229.141 436.967 230.031 436.078 231.137 436.078C232.243 436.078 233.133 436.967 233.133 438.072Z" fill="#455A64"/>
<path d="M231.137 450.708C232.239 450.708 233.133 449.816 233.133 448.714C233.133 447.613 232.239 446.721 231.137 446.721C230.034 446.721 229.141 447.613 229.141 448.714C229.141 449.816 230.034 450.708 231.137 450.708Z" fill="#455A64"/>
<path d="M233.133 459.343C233.133 460.448 232.243 461.337 231.137 461.337C230.031 461.337 229.141 460.448 229.141 459.343C229.141 458.239 230.031 457.35 231.137 457.35C232.243 457.35 233.133 458.239 233.133 459.343Z" fill="#455A64"/>
<path d="M231.137 471.98C232.239 471.98 233.133 471.087 233.133 469.986C233.133 468.885 232.239 467.992 231.137 467.992C230.034 467.992 229.141 468.885 229.141 469.986C229.141 471.087 230.034 471.98 231.137 471.98Z" fill="#455A64"/>
<path d="M186.682 311.456H417.468C420.327 311.456 422.634 313.773 422.634 316.616V332.525H179.398V318.731C179.398 314.716 182.662 311.456 186.682 311.456Z" fill="#E0E0E0"/>
<path d="M191.969 325.52C193.57 325.52 194.869 324.223 194.869 322.624C194.869 321.024 193.57 319.728 191.969 319.728C190.367 319.728 189.069 321.024 189.069 322.624C189.069 324.223 190.367 325.52 191.969 325.52Z" fill="white"/>
<path d="M203.784 322.624C203.784 324.227 202.489 325.52 200.884 325.52C199.279 325.52 197.984 324.227 197.984 322.624C197.984 321.021 199.279 319.728 200.884 319.728C202.489 319.728 203.784 321.021 203.784 322.624Z" fill="white"/>
<path d="M212.699 322.624C212.699 324.227 211.405 325.52 209.8 325.52C208.194 325.52 206.9 324.227 206.9 322.624C206.9 321.021 208.194 319.728 209.8 319.728C211.405 319.728 212.699 321.021 212.699 322.624Z" fill="white"/>
<path d="M231.137 484.656L251.692 506.857L270.359 484.656H231.137Z" fill="white"/>
<path d="M416.052 487.067C416.052 487.067 416.821 487.135 418.183 486.677C418.857 486.448 419.667 486.03 420.449 485.316C421.231 484.616 421.973 483.565 422.337 482.218C422.539 481.544 422.58 480.817 422.566 480.022C422.566 479.241 422.566 478.405 422.566 477.543C422.566 475.805 422.566 473.919 422.553 471.858C422.553 467.75 422.539 463.008 422.526 457.673C422.499 436.321 422.459 405.445 422.418 367.281C422.418 357.743 422.405 347.748 422.391 337.335C422.391 332.121 422.391 326.814 422.391 321.398C422.378 320.064 422.432 318.65 422.351 317.357C422.202 316.063 421.663 314.797 420.759 313.827C419.882 312.83 418.669 312.157 417.374 311.874C416.092 311.645 414.636 311.78 413.247 311.739C390.776 311.739 366.782 311.766 341.519 311.766C316.257 311.766 289.741 311.766 262.266 311.793C248.522 311.793 234.536 311.793 220.347 311.793C213.252 311.793 206.104 311.793 198.902 311.793C195.3 311.793 191.699 311.793 188.071 311.793C187.181 311.807 186.223 311.766 185.387 311.82C184.537 311.901 183.701 312.17 182.946 312.601C181.449 313.45 180.329 314.932 179.938 316.616C179.655 317.761 179.803 319.068 179.776 320.32V324.119C179.776 326.652 179.776 329.171 179.776 331.69C179.776 336.728 179.776 341.74 179.776 346.724C179.776 356.693 179.776 366.581 179.776 376.347C179.776 395.881 179.776 414.969 179.776 433.519C179.776 442.787 179.776 451.934 179.776 460.92C179.776 465.419 179.776 469.865 179.776 474.283C179.776 476.479 179.749 478.715 179.79 480.857C179.884 482.945 181.138 484.898 182.946 485.922C183.836 486.448 184.861 486.704 185.886 486.744C186.965 486.744 188.044 486.744 189.11 486.744C191.254 486.744 193.399 486.744 195.53 486.744C199.792 486.744 204 486.744 208.181 486.744C216.53 486.744 224.69 486.744 232.674 486.744H232.809L232.904 486.838C239.378 493.641 245.65 500.242 251.732 506.641H251.314C257.087 499.798 262.63 493.224 267.958 486.879L268.039 486.784H268.16C313.695 486.838 350.677 486.879 376.29 486.906C389.09 486.933 399.044 486.96 405.801 486.973C409.173 486.986 411.749 487 413.489 487.013C415.229 487.013 416.106 487.054 416.106 487.054C416.106 487.054 415.216 487.081 413.489 487.094C411.749 487.094 409.173 487.121 405.801 487.135C399.031 487.148 389.077 487.175 376.29 487.202C350.677 487.229 313.695 487.269 268.16 487.323L268.363 487.229C263.035 493.574 257.505 500.161 251.732 507.032L251.53 507.274L251.314 507.045C245.218 500.66 238.946 494.059 232.459 487.269L232.674 487.364C224.703 487.364 216.53 487.364 208.181 487.364C204.013 487.364 199.792 487.364 195.53 487.364C193.399 487.364 191.254 487.364 189.11 487.364C188.031 487.364 186.952 487.364 185.873 487.364C184.74 487.323 183.607 487.04 182.622 486.461C180.639 485.343 179.25 483.188 179.142 480.884C179.102 478.661 179.142 476.492 179.115 474.27C179.115 469.851 179.115 465.392 179.115 460.906C179.115 451.921 179.115 442.787 179.115 433.506C179.115 414.956 179.115 395.867 179.115 376.334C179.115 366.567 179.115 356.693 179.115 346.711C179.115 341.726 179.115 336.715 179.115 331.677C179.115 329.158 179.115 326.638 179.115 324.106V318.407C179.115 317.788 179.142 317.087 179.304 316.441C179.736 314.568 180.977 312.911 182.649 311.982C183.485 311.51 184.416 311.214 185.36 311.12C186.331 311.052 187.194 311.106 188.111 311.079C191.726 311.079 195.341 311.079 198.942 311.079C206.144 311.079 213.293 311.079 220.387 311.079C234.576 311.079 248.563 311.079 262.307 311.079C289.794 311.079 316.311 311.093 341.56 311.106C366.822 311.106 390.817 311.133 413.287 311.133C414.69 311.173 416.065 311.025 417.536 311.281C418.952 311.591 420.274 312.332 421.231 313.423C422.202 314.487 422.796 315.861 422.958 317.276C423.038 318.704 422.985 320.011 422.998 321.385C422.998 326.8 422.998 332.108 422.998 337.321C422.998 347.734 422.985 357.73 422.971 367.268C422.931 405.418 422.89 436.308 422.863 457.66C422.863 462.994 422.836 467.736 422.836 471.845C422.836 473.892 422.836 475.792 422.823 477.53C422.823 478.392 422.823 479.227 422.823 480.008C422.823 480.79 422.782 481.558 422.566 482.231C422.175 483.605 421.42 484.656 420.611 485.37C419.815 486.097 418.979 486.502 418.291 486.717C417.603 486.946 417.05 487.013 416.686 487.04C416.322 487.04 416.133 487.04 416.133 487.04L416.052 487.067Z" fill="#263238"/>
<path d="M198.497 178.334H382.266C384.626 178.334 386.541 180.247 386.541 182.604V274.923C386.541 277.738 384.248 280.028 381.43 280.028H198.497C196.137 280.028 194.222 278.115 194.222 275.758V182.604C194.222 180.247 196.137 178.334 198.497 178.334Z" fill="white"/>
<path d="M198.915 178.334H381.861C384.451 178.334 386.541 180.435 386.541 183.009V200.171H194.235V183.009C194.235 180.422 196.339 178.334 198.915 178.334Z" fill="#E0E0E0"/>
<path d="M381.133 280.015C381.133 280.015 381.645 280.028 382.603 279.772C383.52 279.503 384.963 278.789 385.867 277.078C386.325 276.23 386.528 275.165 386.46 273.98C386.46 272.794 386.46 271.488 386.447 270.073C386.447 267.258 386.433 263.998 386.42 260.333C386.393 245.663 386.352 224.473 386.312 198.285C386.312 195.011 386.312 191.657 386.312 188.235C386.312 186.525 386.312 184.787 386.312 183.035C386.46 181.338 385.53 179.668 383.979 178.954C383.21 178.577 382.374 178.563 381.456 178.577C380.553 178.577 379.649 178.577 378.732 178.577C376.911 178.577 375.063 178.577 373.202 178.577C369.479 178.577 365.689 178.577 361.832 178.577C346.416 178.577 329.934 178.603 312.602 178.603C277.926 178.603 239.81 178.617 199.792 178.63C199.145 178.63 198.565 178.617 198.012 178.752C197.445 178.886 196.919 179.129 196.447 179.466C195.503 180.139 194.855 181.19 194.68 182.335C194.586 182.887 194.626 183.52 194.613 184.14V189.704C194.613 194.634 194.613 199.538 194.613 204.414C194.613 214.154 194.613 223.746 194.613 233.162C194.613 242.592 194.613 251.847 194.613 260.913C194.613 265.439 194.613 269.925 194.613 274.37C194.518 276.485 195.84 278.533 197.782 279.274C198.74 279.692 199.778 279.651 200.884 279.651C201.977 279.651 203.056 279.651 204.148 279.651C238.825 279.678 270.049 279.705 296.282 279.732C322.502 279.772 343.718 279.813 358.393 279.84C365.716 279.867 371.408 279.894 375.279 279.907C377.194 279.921 378.665 279.934 379.676 279.948C380.661 279.948 381.173 279.988 381.173 279.988C381.173 279.988 380.661 280.015 379.676 280.028C378.678 280.028 377.208 280.042 375.279 280.069C371.408 280.082 365.716 280.109 358.393 280.136C343.718 280.163 322.489 280.204 296.282 280.244C270.049 280.271 238.825 280.284 204.148 280.325C203.069 280.325 201.977 280.325 200.884 280.325C199.832 280.325 198.619 280.379 197.526 279.907C195.328 279.072 193.83 276.728 193.938 274.397C193.938 269.965 193.938 265.479 193.938 260.94C193.938 251.874 193.938 242.619 193.938 233.189C193.938 223.759 193.938 214.168 193.938 204.441C193.938 199.578 193.938 194.675 193.938 189.731V186.026V184.167C193.938 183.547 193.898 182.928 194.006 182.254C194.208 180.934 194.963 179.708 196.056 178.927C196.595 178.536 197.216 178.253 197.877 178.092C198.538 177.93 199.212 177.957 199.819 177.943C239.837 177.943 277.953 177.957 312.629 177.97C329.961 177.97 346.443 177.997 361.859 177.997C365.716 177.997 369.506 177.997 373.229 177.997C375.09 177.997 376.938 177.997 378.759 177.997C379.676 177.997 380.58 177.997 381.483 177.997C382.36 177.97 383.385 177.997 384.235 178.428C385.988 179.21 387.054 181.19 386.878 182.995C386.878 184.746 386.878 186.484 386.878 188.195C386.878 191.617 386.878 194.971 386.878 198.245C386.838 224.433 386.798 245.623 386.771 260.293C386.771 263.957 386.744 267.204 386.744 270.033C386.744 271.447 386.744 272.74 386.73 273.939C386.73 274.532 386.73 275.111 386.609 275.65C386.487 276.189 386.312 276.674 386.083 277.105C385.125 278.843 383.655 279.543 382.711 279.799C381.74 280.042 381.227 279.975 381.227 279.975L381.133 280.015Z" fill="#263238"/>
<path d="M208.545 194.54C210.527 194.54 212.133 192.935 212.133 190.956C212.133 188.977 210.527 187.373 208.545 187.373C206.564 187.373 204.958 188.977 204.958 190.956C204.958 192.935 206.564 194.54 208.545 194.54Z" fill="white"/>
<path d="M223.139 190.956C223.139 192.937 221.534 194.54 219.551 194.54C217.569 194.54 215.964 192.937 215.964 190.956C215.964 188.976 217.569 187.373 219.551 187.373C221.534 187.373 223.139 188.976 223.139 190.956Z" fill="white"/>
<path d="M230.584 194.54C232.566 194.54 234.172 192.935 234.172 190.956C234.172 188.977 232.566 187.373 230.584 187.373C228.603 187.373 226.997 188.977 226.997 190.956C226.997 192.935 228.603 194.54 230.584 194.54Z" fill="white"/>
<path d="M249.642 230.939H227.28C225.944 230.939 224.852 229.847 224.852 228.514C224.852 227.18 225.944 226.089 227.28 226.089H249.642C250.977 226.089 252.07 227.18 252.07 228.514C252.07 229.847 250.977 230.939 249.642 230.939Z" fill="#263238"/>
<path d="M249.642 243.629H227.28C225.945 243.629 224.852 242.538 224.852 241.204C224.852 239.87 225.945 238.779 227.28 238.779H249.642C250.978 238.779 252.07 239.87 252.07 241.204C252.07 242.538 250.978 243.629 249.642 243.629Z" fill="#E0E0E0"/>
<path d="M367.659 230.939H302.81C301.475 230.939 300.383 229.847 300.383 228.514C300.383 227.18 301.475 226.089 302.81 226.089H367.659C368.994 226.089 370.086 227.18 370.086 228.514C370.086 229.847 368.994 230.939 367.659 230.939Z" fill="#E0E0E0"/>
<path d="M249.642 256.723H227.28C225.945 256.723 224.852 255.632 224.852 254.298C224.852 252.964 225.945 251.873 227.28 251.873H249.642C250.978 251.873 252.07 252.964 252.07 254.298C252.07 255.632 250.978 256.723 249.642 256.723Z" fill="#F8B814"/>
<path d="M352.188 243.629H329.826C328.491 243.629 327.398 242.538 327.398 241.204C327.398 239.87 328.491 238.779 329.826 238.779H352.188C353.524 238.779 354.616 239.87 354.616 241.204C354.616 242.538 353.524 243.629 352.188 243.629Z" fill="#F8B814"/>
<path d="M285.452 230.939H263.089C261.754 230.939 260.661 229.847 260.661 228.514C260.661 227.18 261.754 226.089 263.089 226.089H285.452C286.787 226.089 287.879 227.18 287.879 228.514C287.879 229.847 286.787 230.939 285.452 230.939Z" fill="#455A64"/>
<path d="M314.261 243.629H263.103C261.768 243.629 260.675 242.538 260.675 241.204C260.675 239.87 261.768 238.779 263.103 238.779H314.261C315.597 238.779 316.689 239.87 316.689 241.204C316.689 242.538 315.597 243.629 314.261 243.629Z" fill="#263238"/>
<path d="M364.449 256.723H262.995C261.714 256.723 260.675 255.632 260.675 254.298C260.675 252.964 261.714 251.873 262.995 251.873H364.449C365.73 251.873 366.768 252.964 366.768 254.298C366.768 255.632 365.73 256.723 364.449 256.723Z" fill="#E0E0E0"/>
<path d="M313.196 265.964H263.103C261.768 265.964 260.675 264.873 260.675 263.539C260.675 262.205 261.768 261.114 263.103 261.114H313.196C314.531 261.114 315.624 262.205 315.624 263.539C315.624 264.873 314.531 265.964 313.196 265.964Z" fill="#E0E0E0"/>
<path d="M216.328 228.514C216.328 229.875 215.222 230.979 213.86 230.979C212.497 230.979 211.391 229.875 211.391 228.514C211.391 227.153 212.497 226.049 213.86 226.049C215.222 226.049 216.328 227.153 216.328 228.514Z" fill="#455A64"/>
<path d="M216.328 216.39C216.328 217.751 215.222 218.855 213.86 218.855C212.497 218.855 211.391 217.751 211.391 216.39C211.391 215.029 212.497 213.925 213.86 213.925C215.222 213.925 216.328 215.029 216.328 216.39Z" fill="#455A64"/>
<path d="M213.86 243.629C215.223 243.629 216.328 242.525 216.328 241.163C216.328 239.802 215.223 238.698 213.86 238.698C212.496 238.698 211.391 239.802 211.391 241.163C211.391 242.525 212.496 243.629 213.86 243.629Z" fill="#455A64"/>
<path d="M213.86 256.777C215.223 256.777 216.328 255.673 216.328 254.312C216.328 252.95 215.223 251.847 213.86 251.847C212.496 251.847 211.391 252.95 211.391 254.312C211.391 255.673 212.496 256.777 213.86 256.777Z" fill="#455A64"/>
<path d="M240.417 213.48H226.659C225.944 213.48 225.365 214.059 225.365 214.774V216.862C225.365 217.576 225.944 218.155 226.659 218.155H240.417C241.132 218.155 241.711 217.576 241.711 216.862V214.774C241.711 214.059 241.132 213.48 240.417 213.48Z" fill="#455A64"/>
<path d="M100.051 596.642C88.8026 601.533 77.9585 601.991 67.654 596.642L60.1279 533.691H106.862L100.038 596.642H100.051Z" fill="#6F4439"/>
<path d="M103.787 530.041L102.385 525.542L67.1819 521.245C66.2243 521.123 65.3071 521.703 64.9969 522.605L62.4477 530.028H57.9429V538.178C75.6251 541.29 92.5521 541.478 108.575 538.178V530.028H103.787V530.041Z" fill="#E0E0E0"/>
<path d="M103.787 530.041C103.787 530.041 103.909 530.027 104.111 530.014C104.354 530.014 104.664 530 105.042 529.987C105.905 529.974 107.078 529.947 108.562 529.92H108.697V530.054C108.71 532.156 108.737 534.904 108.778 538.204V538.38L108.616 538.42C103.005 539.592 95.5599 540.724 86.8873 540.899C78.2148 541.101 68.3554 540.387 58.0778 538.595L57.889 538.568L57.5923 538.514V538.218C57.5923 535.456 57.5923 532.722 57.5923 530.068V529.718H57.943C59.4671 529.718 60.9642 529.718 62.4478 529.718L62.1241 529.947C62.9873 527.454 63.8236 525.03 64.6463 522.672C64.8216 522.012 65.3477 521.379 66.0085 521.123C66.3322 520.988 66.6964 520.921 67.0471 520.934C67.3978 520.961 67.6675 521.002 67.9777 521.042C69.1781 521.19 70.365 521.338 71.5385 521.487C76.1917 522.066 80.5347 522.618 84.4731 523.117C92.2554 524.127 98.4462 524.922 102.412 525.447H102.493L102.519 525.541C102.938 526.956 103.248 528.061 103.491 528.882C103.585 529.233 103.666 529.529 103.733 529.758C103.787 529.96 103.814 530.068 103.801 530.081C103.801 530.081 103.76 530 103.693 529.812C103.612 529.583 103.518 529.313 103.396 528.977C103.126 528.168 102.749 527.05 102.277 525.622L102.385 525.717C98.4058 525.259 92.215 524.558 84.4191 523.669C80.4807 523.197 76.1377 522.686 71.471 522.133C70.2976 521.999 69.1107 521.85 67.9103 521.702C67.2764 521.635 66.7369 521.514 66.2648 521.743C65.7793 521.958 65.4286 522.349 65.2667 522.901C64.4575 525.272 63.6212 527.697 62.7715 530.189L62.6906 530.418H62.4478C60.9777 530.418 59.4671 530.418 57.943 530.418L58.2936 530.068C58.2936 532.722 58.2936 535.443 58.2936 538.218L57.9969 537.868L58.1857 537.895C68.4228 539.686 78.2283 540.427 86.8604 540.266C95.4924 540.131 102.924 539.08 108.521 538.002L108.36 538.204C108.387 534.904 108.414 532.156 108.441 530.054L108.575 530.189C107.051 530.162 105.864 530.135 104.988 530.122C104.624 530.122 104.327 530.095 104.084 530.095C103.882 530.095 103.787 530.081 103.787 530.068V530.041Z" fill="#263238"/>
<path d="M103.342 575.775C91.1357 577.742 77.6481 577.459 63.3783 575.775L61.436 556.687C76.4882 558.303 91.2571 558.37 105.702 556.687L103.342 575.775Z" fill="#AE7461"/>
<path d="M80.8718 562.816C79.0509 563.921 78.3091 566.252 79.2263 568.232L80.4941 570.966C81.4113 572.947 83.6772 573.876 85.7003 573.203L80.8718 562.83V562.816Z" fill="#6F4439"/>
<path d="M81.7214 562.425L86.55 572.798C88.3708 571.694 89.1126 569.363 88.1955 567.383L86.9276 564.648C86.0105 562.668 83.7446 561.738 81.7214 562.412V562.425Z" fill="#6F4439"/>
<path d="M104.178 530.162C104.178 530.162 103.625 530.378 102.587 530.647C101.548 530.917 100.038 531.24 98.1629 531.577C94.3999 532.25 89.1262 532.857 83.2861 532.843C77.4325 532.83 72.1723 532.197 68.4093 531.51C66.5345 531.173 65.0104 530.836 63.9853 530.567C62.9468 530.297 62.3803 530.122 62.3938 530.082C62.4073 530.041 62.9872 530.109 64.0393 530.297C65.0913 530.486 66.6019 530.742 68.4902 531.025C72.2532 531.59 77.4864 532.129 83.2861 532.143C89.0858 532.143 94.3189 531.631 98.082 531.092C99.9702 530.823 101.481 530.58 102.533 530.378C103.585 530.203 104.165 530.122 104.178 530.162Z" fill="#263238"/>
<path d="M128.199 436.538C128.199 436.538 120.498 438.195 119.163 443.651C117.827 449.107 129.885 579.71 130.371 582.889C131.126 587.887 135.348 594.232 144.857 593.895C153.138 593.599 266.043 593.855 294.475 593.922C298.251 593.922 300.517 590.716 301.016 586.89L161.231 578.646L128.199 436.524V436.538Z" fill="#E0E0E0"/>
<path d="M124.693 440.903L136.805 581.744C137.034 584.048 138.963 585.813 141.269 585.84L301.016 586.554L270.332 556.136L166.558 555.408L155.458 445.065C155.31 443.597 154.231 442.398 152.801 442.061L129.548 436.646C126.905 436.026 124.436 438.195 124.693 440.903Z" fill="#E0E0E0"/>
<path d="M124.693 440.902C124.693 440.902 124.652 440.673 124.666 440.229C124.679 439.784 124.8 439.084 125.286 438.329C125.758 437.588 126.675 436.767 127.997 436.538C128.658 436.403 129.4 436.524 130.115 436.713C130.856 436.888 131.639 437.063 132.475 437.252C135.833 438.02 139.961 438.963 144.816 440.081C147.244 440.633 149.86 441.239 152.639 441.886C154.096 442.128 155.431 443.422 155.593 445.025C155.755 446.533 155.903 448.083 156.078 449.686C158.681 475.2 162.39 511.653 166.841 555.394L166.545 555.125C197.687 555.327 232.823 555.57 270.318 555.812H270.453L270.547 555.906C280.38 565.646 290.711 575.898 301.245 586.324L301.852 586.931H300.989C298.75 586.917 296.336 586.904 293.908 586.89C252.366 586.688 212.794 586.513 176.795 586.338C167.799 586.297 159.019 586.244 150.494 586.203C148.363 586.203 146.246 586.176 144.142 586.176C143.09 586.176 142.065 586.176 140.986 586.149C139.88 586.082 138.801 585.624 137.991 584.869C137.182 584.129 136.643 583.091 136.494 582.014C136.373 580.963 136.319 579.966 136.224 578.956C136.049 576.935 135.887 574.928 135.712 572.934C134.363 557.011 133.095 542.166 131.949 528.627C129.669 501.55 127.822 479.632 126.54 464.464C125.92 456.893 125.434 451.019 125.111 447.018C124.949 445.038 124.841 443.516 124.76 442.478C124.679 441.455 124.666 440.929 124.666 440.929C124.666 440.929 124.733 441.455 124.827 442.465C124.922 443.502 125.07 445.011 125.246 446.991C125.61 450.992 126.136 456.866 126.81 464.423C128.145 479.578 130.061 501.496 132.434 528.56C133.608 542.098 134.903 556.93 136.292 572.867C136.467 574.86 136.643 576.868 136.818 578.888C136.912 579.899 136.98 580.936 137.088 581.919C137.223 582.862 137.695 583.765 138.409 584.425C139.124 585.085 140.055 585.489 141.026 585.543C142.038 585.57 143.103 585.557 144.142 585.57C146.246 585.57 148.363 585.583 150.494 585.597C159.019 585.624 167.799 585.664 176.795 585.705C212.794 585.853 252.366 586.028 293.908 586.203C296.336 586.203 298.75 586.23 300.989 586.23L300.746 586.823C290.226 576.396 279.894 566.144 270.062 556.405L270.305 556.499C232.796 556.216 197.674 555.96 166.531 555.718H166.261L166.234 555.448C161.891 511.694 158.263 475.241 155.728 449.713C155.566 448.123 155.417 446.574 155.269 445.065C155.121 443.61 153.934 442.425 152.571 442.196C149.793 441.536 147.19 440.929 144.762 440.35C139.92 439.205 135.793 438.235 132.448 437.44C131.612 437.238 130.829 437.05 130.088 436.874C129.346 436.672 128.671 436.565 128.024 436.686C126.743 436.888 125.839 437.669 125.367 438.383C124.881 439.111 124.747 439.798 124.72 440.242C124.679 440.687 124.72 440.916 124.693 440.916V440.902Z" fill="#263238"/>
<path d="M241.63 582.889H256.48L237.705 558.573H228.898L241.63 582.889Z" fill="#263238"/>
<path d="M130.182 447.261L141.525 569.634L162.66 552.849L153.57 449.753C153.502 448.932 152.868 448.258 152.046 448.137L132.246 445.308C131.086 445.146 130.088 446.103 130.209 447.261H130.182Z" fill="#263238"/>
<path d="M152.882 582.889H168.204L183.782 558.573H174.961L152.882 582.889Z" fill="#263238"/>
<path d="M171.684 582.889H186.533L194.68 558.573H185.859L171.684 582.889Z" fill="#263238"/>
<path d="M189.865 582.889H204.715L205.51 558.573H196.703L189.865 582.889Z" fill="#263238"/>
<path d="M206.724 582.889H221.574L216.085 558.573H207.277L206.724 582.889Z" fill="#263238"/>
<path d="M224.285 582.889H239.135L227.036 558.573H218.229L224.285 582.889Z" fill="#263238"/>
<path d="M255.738 578.148C255.738 578.269 233.093 578.363 205.173 578.363C177.254 578.363 154.595 578.269 154.595 578.148C154.595 578.026 177.24 577.932 205.173 577.932C233.106 577.932 255.738 578.026 255.738 578.148Z" fill="#E0E0E0"/>
<path d="M253.041 573.689C253.041 573.81 231.541 573.904 205.011 573.904C178.481 573.904 156.982 573.81 156.982 573.689C156.982 573.567 178.481 573.473 205.011 573.473C231.541 573.473 253.041 573.567 253.041 573.689Z" fill="#E0E0E0"/>
<path d="M253.041 569.647C253.041 569.876 232.809 570.065 207.844 570.065C182.878 570.065 162.647 569.876 162.647 569.647C162.647 569.418 182.878 569.229 207.844 569.229C232.809 569.229 253.041 569.418 253.041 569.647Z" fill="#E0E0E0"/>
<path d="M253.661 565.956C253.661 566.185 233.861 566.373 209.449 566.373C185.036 566.373 165.223 566.185 165.223 565.956C165.223 565.727 185.023 565.538 209.449 565.538C233.875 565.538 253.661 565.727 253.661 565.956Z" fill="#E0E0E0"/>
<path d="M255.738 563.248C255.738 563.477 235.804 563.665 211.229 563.665C186.655 563.665 166.72 563.477 166.72 563.248C166.72 563.019 186.641 562.83 211.229 562.83C235.817 562.83 255.738 563.019 255.738 563.248Z" fill="#E0E0E0"/>
<path d="M257.923 560.432C257.923 560.661 237.624 560.85 212.578 560.85C187.531 560.85 167.232 560.661 167.232 560.432C167.232 560.203 187.531 560.015 212.578 560.015C237.624 560.015 257.923 560.203 257.923 560.432Z" fill="#E0E0E0"/>
<path d="M139.043 581.73C148.268 573.108 157.494 564.487 166.72 555.865L139.043 581.73Z" fill="#E0E0E0"/>
<path d="M166.72 555.866C166.855 556 160.758 561.914 153.124 569.054C145.477 576.194 139.178 581.865 139.043 581.73C138.908 581.596 144.991 575.682 152.639 568.542C160.286 561.402 166.585 555.731 166.72 555.866Z" fill="#263238"/>
<path d="M624.692 459.546C624.692 459.546 623.33 445.253 587.655 436.092C570.431 431.674 529.307 429.545 524.654 456.245C524.506 457.108 504.194 625 504.194 625H580.21L624.692 459.532V459.546Z" fill="#455A64"/>
<path d="M612.648 625H577.58L589.287 460.503C590.15 452.501 598.445 446.722 607.819 447.611L610.962 447.907C620.336 448.796 626.27 457.808 626 468.087L612.648 624.987V625Z" fill="#455A64"/>
<path d="M580.21 619.085C580.021 619.072 582.489 586.674 585.74 546.718C588.99 506.762 591.782 474.391 591.971 474.404C592.16 474.418 589.691 506.816 586.441 546.772C583.19 586.714 580.398 619.099 580.21 619.072V619.085Z" fill="#263238"/>
<path d="M617.962 451.773C617.908 451.908 616.141 451.005 613.038 450.615C609.977 450.211 605.472 450.534 601.345 452.891C597.218 455.262 594.668 458.994 593.468 461.836C592.241 464.706 592.119 466.699 591.984 466.672C591.944 466.672 591.944 466.174 592.052 465.298C592.16 464.423 592.443 463.143 593.009 461.661C594.102 458.697 596.692 454.777 600.994 452.299C605.31 449.833 609.99 449.591 613.106 450.143C614.684 450.413 615.925 450.803 616.734 451.153C617.557 451.504 617.975 451.76 617.962 451.787V451.773Z" fill="#263238"/>
<path d="M507.215 246.121C507.565 236.49 501.037 235.196 496.006 236.301C489.897 231.815 480.617 232.313 475.033 237.446C470.447 234.954 464.567 235.048 460.075 237.688C455.584 240.329 452.644 245.434 452.603 250.634C447.357 249.988 441.867 253.005 439.601 257.774C437.335 262.543 438.482 268.699 442.299 272.35C436.688 274.398 433.195 280.998 434.665 286.778C436.135 292.557 442.366 296.692 448.274 295.817L507.43 256.467C510.978 252.736 507.039 251.254 507.228 246.108L507.215 246.121Z" fill="#263238"/>
<path d="M446.547 297.596C447.761 270.707 469.436 249.261 496.357 248.304L499.028 248.21C527.932 248.87 543.523 273.765 542.067 302.607L541.298 398.711L541.109 416.964L475.006 432.658L474.332 394.615C474.332 394.615 446.44 391.288 445.118 363.605C444.47 350.228 445.401 322.598 446.52 297.582L446.547 297.596Z" fill="#AE7461"/>
<path d="M474.13 394.588C474.13 394.588 491.879 395.019 510.088 382.68C510.088 382.68 502.251 402.913 474.494 401.405L474.13 394.588Z" fill="#6F4439"/>
<path d="M454.613 325.534C454.613 327.622 456.393 329.347 458.578 329.387C460.763 329.428 462.53 327.771 462.53 325.683C462.53 323.595 460.763 321.87 458.578 321.83C456.393 321.789 454.613 323.446 454.613 325.548V325.534Z" fill="#263238"/>
<path d="M452.725 312.347C453.237 312.845 456.15 310.514 460.413 310.38C464.661 310.178 467.871 312.252 468.316 311.727C468.532 311.484 468.006 310.568 466.603 309.639C465.228 308.696 462.908 307.82 460.251 307.928C457.594 308.036 455.395 309.086 454.154 310.137C452.873 311.188 452.468 312.131 452.725 312.36V312.347Z" fill="#263238"/>
<path d="M488.872 324.646C488.872 326.734 490.652 328.458 492.837 328.498C495.022 328.539 496.789 326.882 496.789 324.78C496.789 322.692 495.008 320.968 492.837 320.927C490.652 320.887 488.872 322.544 488.872 324.646Z" fill="#263238"/>
<path d="M493.471 310.312C493.983 310.811 496.91 308.494 501.159 308.345C505.407 308.143 508.617 310.218 509.062 309.679C509.278 309.437 508.752 308.52 507.35 307.591C505.974 306.648 503.654 305.772 500.997 305.88C498.34 305.988 496.141 307.039 494.9 308.089C493.633 309.14 493.215 310.083 493.471 310.312Z" fill="#263238"/>
<path d="M480.563 342.361C480.563 342.118 477.906 341.754 473.604 341.364C472.511 341.296 471.473 341.108 471.27 340.38C470.987 339.599 471.405 338.414 471.877 337.134C472.808 334.466 473.779 331.678 474.804 328.741C478.85 316.806 481.737 306.999 481.265 306.837C480.779 306.675 477.11 316.226 473.064 328.175C472.093 331.112 471.162 333.928 470.272 336.608C469.908 337.861 469.247 339.289 469.854 340.892C470.178 341.701 471 342.253 471.702 342.415C472.403 342.603 473.024 342.59 473.563 342.603C477.893 342.684 480.577 342.603 480.577 342.361H480.563Z" fill="#263238"/>
<path d="M493.215 344.853C492.527 344.839 492.675 349.46 488.831 352.882C485.001 356.317 480.051 355.967 480.037 356.613C479.983 356.91 481.17 357.475 483.247 357.448C485.284 357.448 488.251 356.681 490.598 354.593C492.945 352.491 493.889 349.77 493.97 347.87C494.078 345.931 493.525 344.812 493.201 344.839L493.215 344.853Z" fill="#263238"/>
<path d="M492.985 298.161C493.525 299.252 497.166 298.121 501.631 298.04C506.095 297.851 509.845 298.754 510.263 297.636C510.438 297.11 509.656 296.127 508.064 295.238C506.473 294.349 504.059 293.648 501.388 293.729C498.718 293.81 496.384 294.659 494.914 295.642C493.417 296.625 492.756 297.649 492.999 298.161H492.985Z" fill="#263238"/>
<path d="M453.278 300.64C453.979 301.637 456.96 300.775 460.494 300.896C464.027 300.896 466.981 301.853 467.709 300.869C468.033 300.398 467.615 299.401 466.347 298.431C465.106 297.461 462.989 296.612 460.561 296.572C458.133 296.531 455.989 297.313 454.721 298.242C453.426 299.172 452.967 300.155 453.278 300.64Z" fill="#263238"/>
<path d="M448.759 284.798C448.759 284.798 455.449 267.191 463.69 262.853C473.658 257.599 478.419 268.551 487.981 265.507C497.544 262.462 507.053 257.424 517.195 264.524C528.296 272.31 523.427 278.21 524.533 290.483C529.011 340.205 538.627 353.973 540.381 330.411C540.569 327.825 547.65 325.535 548.311 314.637C549.188 300.505 549.121 283.383 545.614 273.495C542.66 265.17 537.643 259.512 528.795 253.396C514.822 243.751 496.114 244.195 483.45 245.92C470.798 247.644 446.831 263.109 448.759 284.784V284.798Z" fill="#263238"/>
<path d="M538.587 329.724C538.614 325.44 542.175 321.938 546.45 322.194C551.643 322.504 557.496 325.225 557.537 335.921C557.604 354.875 538.533 351.036 538.506 350.497C538.479 350.133 538.546 337.672 538.587 329.738V329.724Z" fill="#AE7461"/>
<path d="M542.606 343.344C542.687 343.277 542.943 343.573 543.496 343.829C544.036 344.072 544.98 344.247 545.964 343.87C547.961 343.129 549.647 339.936 549.728 336.528C549.768 334.803 549.404 333.16 548.783 331.799C548.203 330.412 547.3 329.455 546.288 329.28C545.277 329.051 544.575 329.657 544.346 330.196C544.09 330.722 544.211 331.099 544.117 331.139C544.063 331.193 543.712 330.816 543.86 330.035C543.941 329.657 544.157 329.213 544.602 328.849C545.061 328.472 545.722 328.283 546.423 328.364C547.893 328.458 549.215 329.806 549.889 331.287C550.645 332.783 551.103 334.628 551.049 336.568C550.941 340.394 548.999 343.964 546.261 344.772C544.926 345.122 543.806 344.732 543.24 344.287C542.647 343.816 542.552 343.398 542.62 343.358L542.606 343.344Z" fill="#6F4439"/>
<path d="M536.914 293.056C534.513 294.82 531.978 296.639 529.011 297.043C526.057 297.447 522.604 295.858 521.997 292.948C521.727 291.641 521.997 290.092 521.093 289.109C520.014 287.937 518.113 288.381 516.535 288.597C511.045 289.378 505.259 285.687 503.667 280.379C502.332 282.535 499.055 282.562 496.87 281.268C494.698 279.975 493.241 277.779 491.515 275.934C489.789 274.088 487.388 272.472 484.893 272.916C483.503 273.159 482.222 274.048 480.806 273.967C478.311 273.832 476.989 270.963 476.53 268.511C476.072 266.059 475.667 263.19 473.509 261.924C471.513 260.752 469.004 261.56 466.725 261.978C464.445 262.395 461.465 261.964 460.804 259.741C460.453 258.583 460.912 257.33 461.532 256.279C464.324 251.537 470.677 249.247 475.856 251.12C477.488 244.802 483.166 239.723 489.64 238.807C496.114 237.891 502.979 241.191 506.311 246.809C510.182 243.037 515.955 241.299 521.269 242.323C526.583 243.333 531.303 247.065 533.529 252.009C538.101 250.635 543.415 252.224 546.477 255.889C549.539 259.553 550.146 265.063 547.974 269.306C551.454 271.125 554.489 274.412 554.704 278.318C554.92 282.238 551.225 286.28 547.408 285.377C549.04 288.368 547.947 292.557 545.047 294.376C542.147 296.181 537.899 295.332 535.916 292.557" fill="#263238"/>
<path d="M548.784 285.282C548.784 285.282 549.188 286.858 547.731 288.96C547.003 289.957 545.749 291.021 544.009 291.358C542.309 291.708 540.205 291.358 538.546 289.984L539.342 289.836C538.465 291.492 537.279 293.203 535.728 294.699C534.729 295.642 533.596 296.463 532.356 296.962C531.128 297.501 529.712 297.595 528.552 297.447C526.138 297.272 523.993 296.059 522.968 294.51C521.903 293.001 521.539 291.573 521.296 290.63C521.066 289.674 521.026 289.122 521.093 289.108C521.174 289.081 521.35 289.607 521.7 290.509C522.051 291.398 522.537 292.745 523.575 294.052C525.463 296.706 531.371 297.878 534.972 293.917C536.415 292.53 537.562 290.927 538.425 289.364L538.735 288.798L539.221 289.216C540.57 290.388 542.377 290.752 543.847 290.509C545.344 290.28 546.491 289.431 547.219 288.583C548.676 286.804 548.608 285.255 548.784 285.296V285.282Z" fill="#455A64"/>
<path d="M324.606 533.248C324.606 533.248 288.824 532.184 286.679 531.51C284.534 530.836 279.315 530.702 276.766 531.51C274.216 532.318 264.033 535.929 264.033 535.929L242.413 541.681C242.413 541.681 220.698 555.866 221.143 558.708C221.588 561.551 223.962 563.491 227.846 562.022C231.73 560.554 251.341 550.383 251.341 550.383L272.868 548.106C272.868 548.106 302.311 558.668 308.246 558.143C314.194 557.617 329.421 555.044 329.421 555.044C329.421 555.044 331.566 539.808 330.487 537.397C329.421 534.986 324.593 533.248 324.593 533.248H324.606Z" fill="#AE7461"/>
<path d="M222.707 571.331C222.707 571.331 240.835 551.905 245.866 549.292C250.897 546.678 278.856 542.098 278.856 542.098C278.856 542.098 287.812 538.393 291.09 539.7C294.367 541.007 329.098 546.247 330.635 546.463C332.159 546.678 323.204 577.015 323.204 577.015C323.204 577.015 311.186 579.198 297.213 575.924C283.226 572.651 278.425 568.286 278.425 568.286L264.465 564.622L255.927 567.868C255.927 567.868 254.39 580.491 248.28 579.844L245.434 577.878L247.619 563.908L238.663 567.612C238.663 567.612 231.677 578.08 226.43 576.557C221.183 575.035 222.721 571.317 222.721 571.317L222.707 571.331Z" fill="#AE7461"/>
<path d="M222.707 571.331C222.707 571.331 222.491 571.843 222.572 572.84C222.626 573.338 222.802 573.958 223.247 574.551C223.692 575.143 224.407 575.669 225.297 576.046C226.187 576.423 227.266 576.746 228.44 576.49C229.599 576.221 230.773 575.574 231.906 574.726C234.185 573.015 236.397 570.523 238.488 567.505L238.528 567.451L238.582 567.424C241.266 566.306 244.287 565.04 247.524 563.679L247.889 563.531L247.835 563.922C247.187 568.125 246.459 572.84 245.69 577.891L245.582 577.636C246.445 578.228 247.43 578.902 248.428 579.589L248.307 579.548C249.453 579.656 250.586 579.212 251.463 578.39C252.34 577.582 253.027 576.517 253.553 575.359C254.605 573.055 255.266 570.455 255.644 567.801L255.671 567.626L255.833 567.559C258.49 566.535 261.39 565.431 264.37 564.299L264.465 564.259L264.559 564.286C268.97 565.431 273.677 566.67 278.519 567.936H278.586L278.654 568.004C281.392 570.146 284.845 571.627 288.311 572.921C291.818 574.173 295.513 575.197 299.303 575.979C303.107 576.76 307.045 577.177 311.038 577.299C315.03 577.407 319.117 577.258 323.149 576.625L322.88 576.868C323.5 574.726 324.161 572.422 324.835 570.119C326.751 563.262 328.679 556.499 330.082 549.831C330.244 548.996 330.392 548.16 330.46 547.339C330.473 547.137 330.473 546.935 330.46 546.773C330.46 546.692 330.379 546.638 330.514 546.746C330.541 546.759 330.568 546.773 330.595 546.773H330.554L330.473 546.759L330.311 546.732L329.057 546.544C327.385 546.288 325.712 546.032 324.067 545.776C320.762 545.251 317.498 544.739 314.288 544.24C307.868 543.203 301.65 542.193 295.689 541.048C294.192 540.738 292.735 540.482 291.251 540.037C289.929 539.525 288.459 539.701 287.057 539.916C284.238 540.414 281.527 541.344 278.964 542.341H278.924L278.897 542.354C269.118 543.998 260.176 545.601 252.38 547.473C250.438 547.945 248.55 548.443 246.823 549.103C245.11 549.777 243.748 550.989 242.413 552.081C239.769 554.317 237.476 556.526 235.413 558.52C231.285 562.521 228.156 565.754 225.998 567.95C224.946 569.027 224.123 569.876 223.557 570.455C223.004 571.021 222.707 571.304 222.707 571.304C222.707 571.304 222.964 570.981 223.503 570.401C224.056 569.795 224.852 568.947 225.89 567.828C227.994 565.592 231.097 562.319 235.197 558.277C237.247 556.257 239.526 554.034 242.17 551.771C242.831 551.205 243.519 550.639 244.247 550.1C244.962 549.548 245.785 549.036 246.675 548.699C248.455 548.026 250.33 547.5 252.286 547.029C260.108 545.116 269.037 543.472 278.816 541.802H278.748C281.351 540.792 284.049 539.862 286.962 539.337C288.392 539.121 289.983 538.906 291.467 539.485C292.829 539.903 294.34 540.159 295.81 540.468C301.758 541.586 307.976 542.597 314.396 543.621C317.606 544.119 320.87 544.631 324.161 545.143C325.82 545.399 327.479 545.641 329.151 545.897L330.406 546.086L330.568 546.113H330.649L330.689 546.126C330.743 546.126 330.783 546.153 330.837 546.18C331.148 546.409 331.094 546.598 331.134 546.719C331.161 546.988 331.161 547.204 331.134 547.433C331.067 548.322 330.905 549.157 330.743 550.006C329.34 556.742 327.412 563.477 325.483 570.361C324.808 572.678 324.148 574.982 323.527 577.124L323.46 577.339L323.244 577.366C319.117 578.013 315.03 578.161 310.984 578.04C306.951 577.905 302.972 577.487 299.142 576.693C295.311 575.898 291.602 574.874 288.055 573.594C286.288 572.948 284.561 572.234 282.902 571.412C281.243 570.577 279.652 569.714 278.195 568.529L278.33 568.596C273.488 567.317 268.781 566.077 264.384 564.919H264.573C261.592 566.037 258.692 567.141 256.035 568.152L256.224 567.909C255.833 570.63 255.158 573.244 254.052 575.642C253.513 576.827 252.785 577.959 251.827 578.834C250.883 579.724 249.548 580.249 248.253 580.114H248.185L248.131 580.074C247.133 579.387 246.162 578.7 245.299 578.107L245.164 578.013L245.191 577.851C246 572.799 246.742 568.084 247.417 563.895L247.727 564.137C244.476 565.471 241.455 566.71 238.758 567.815L238.838 567.748C236.694 570.779 234.455 573.271 232.108 574.995C230.935 575.844 229.734 576.504 228.507 576.76C227.266 577.016 226.12 576.652 225.229 576.248C224.312 575.844 223.584 575.292 223.139 574.658C222.68 574.039 222.518 573.379 222.478 572.867C222.424 571.829 222.721 571.344 222.721 571.344L222.707 571.331Z" fill="#6F4439"/>
<path d="M277.615 554.896C277.615 554.896 277.116 554.923 276.24 554.856C275.363 554.789 274.082 554.667 272.517 554.506C270.885 554.331 269.037 554.115 267.014 553.9C266.488 553.832 265.962 553.778 265.422 553.711C264.883 553.63 264.411 553.671 263.844 553.738C262.752 553.886 261.605 554.155 260.446 554.438C255.9 555.759 251.341 556.634 249.588 559.328C248.657 560.554 248.226 561.753 247.97 562.588C247.727 563.424 247.659 563.909 247.605 563.909C247.565 563.909 247.538 563.41 247.7 562.521C247.875 561.645 248.253 560.379 249.183 559.032C249.655 558.372 250.262 557.698 251.031 557.133C251.8 556.58 252.758 556.109 253.742 555.759C255.711 555.045 257.91 554.358 260.257 553.751C261.43 553.455 262.59 553.199 263.737 553.051C264.289 552.97 264.937 552.943 265.476 553.037C266.016 553.105 266.542 553.186 267.068 553.253C269.091 553.536 270.939 553.792 272.557 554.021C274.122 554.25 275.376 554.438 276.253 554.6C277.13 554.762 277.602 554.856 277.602 554.91L277.615 554.896Z" fill="#6F4439"/>
<path d="M228.925 564.878C228.925 564.878 229.424 564.299 230.422 563.369C231.434 562.44 232.917 561.133 234.792 559.57C236.68 558.008 238.946 556.175 241.563 554.276C242.885 553.333 244.287 552.363 245.798 551.447C246.567 551.002 247.363 550.558 248.212 550.181C249.089 549.804 249.979 549.575 250.883 549.319C258.126 547.325 264.91 546.799 269.739 546.085C272.072 545.803 274.001 545.56 275.484 545.371C276.846 545.223 277.602 545.156 277.602 545.21C277.602 545.264 276.86 545.412 275.525 545.641C274.055 545.883 272.126 546.193 269.806 546.57C264.991 547.419 258.234 548.025 251.072 549.992C250.182 550.235 249.278 550.477 248.482 550.814C247.673 551.164 246.891 551.582 246.149 552.026C244.652 552.915 243.249 553.858 241.941 554.788C239.311 556.647 237.018 558.425 235.102 559.934C233.282 561.402 231.757 562.628 230.598 563.558C229.545 564.42 228.952 564.905 228.925 564.864V564.878Z" fill="#6F4439"/>
<path d="M454.883 438.343C454.883 438.343 445.347 451.424 437.78 467.144C431.306 480.616 410.333 526.485 410.333 526.485L324.916 530.958L326.171 563.922C326.171 563.922 408.661 593.276 427.139 587.618C445.603 581.96 465.282 560.689 465.282 560.689L474.116 421.666C474.116 421.666 466.792 420.291 454.869 438.356L454.883 438.343Z" fill="#F8B814"/>
<path d="M472.74 421.975C472.74 421.975 450.836 471.59 447.64 492.605C441.287 534.325 439.156 560.446 439.156 560.446L431.711 625.014H577.579C577.579 625.014 582.408 505.349 579.306 465.218C576.986 435.164 553.936 416.439 544.494 406.147C543.928 405.527 541.325 397.107 541.325 397.107L473.347 414.499L472.727 421.975H472.74Z" fill="#F8B814"/>
<path d="M465.686 429.506C465.686 429.506 465.646 429.667 465.524 429.977C465.389 430.314 465.201 430.759 464.971 431.324C464.459 432.55 463.731 434.288 462.786 436.511C460.912 441.024 458.201 447.557 455.49 455.842C452.752 464.127 450.068 474.176 447.95 485.519C445.779 496.849 444.025 509.431 442.555 522.659C439.871 549.171 437.43 573.163 435.663 590.568C434.759 599.23 434.031 606.248 433.518 611.139C433.249 613.536 433.046 615.409 432.898 616.729C432.817 617.335 432.763 617.82 432.723 618.184C432.682 618.507 432.655 618.682 432.642 618.682C432.642 618.682 432.642 618.507 432.642 618.184C432.669 617.82 432.709 617.335 432.75 616.729C432.871 615.409 433.033 613.523 433.235 611.125C433.694 606.222 434.355 599.19 435.164 590.528C436.85 573.136 439.075 549.117 441.84 522.592C443.31 509.336 445.091 496.754 447.303 485.411C449.461 474.055 452.199 463.979 455.004 455.694C457.796 447.409 460.574 440.889 462.53 436.403C463.501 434.153 464.297 432.443 464.837 431.271C465.093 430.718 465.309 430.274 465.457 429.95C465.605 429.654 465.673 429.506 465.686 429.506Z" fill="#263238"/>
<g opacity="0.3">
<path d="M541.473 507.612C540.124 494.397 534.19 481.128 523.292 473.503L434.354 600.362C450.054 608.822 467.494 617.551 484.933 613.819C494.32 611.812 502.656 606.289 509.426 599.486C523.494 585.355 531.128 566.104 536.483 546.921C540.057 534.123 542.808 520.827 541.473 507.612Z" fill="black"/>
</g>
<path d="M551.548 492.282C540.461 531.443 515.523 579.239 507.875 588.83C492.918 607.582 473.145 611.637 461.343 611.637C451.308 611.637 366.498 595.135 341.358 590.205C337.109 589.369 333.791 586.082 332.901 581.866L332.685 580.829L321.369 577.784L327.398 547.46L328.598 545.776L449.892 549.589L485.176 451.424C485.837 450.306 496.033 417.369 523.669 418.864" fill="#F8B814"/>
<path d="M523.669 418.877C523.669 418.877 523.359 418.877 522.752 418.877C522.145 418.877 521.242 418.823 520.055 418.944C517.681 419.079 514.12 419.564 509.858 421.369C505.637 423.201 500.848 426.502 496.546 431.621C492.203 436.713 488.386 443.435 485.351 451.531V451.504C476.449 476.372 464.351 510.145 450.189 549.696L450.108 549.912H449.879C413.786 548.78 372.541 547.5 328.585 546.14L328.882 545.992C328.504 546.517 328.099 547.096 327.681 547.676L327.735 547.541C325.995 556.311 324.134 565.646 322.273 575.076C322.084 576.033 321.895 576.989 321.72 577.865L321.463 577.46C325.388 578.511 329.192 579.535 332.779 580.505L332.995 580.559L333.022 580.761C333.413 583.28 334.506 585.611 336.354 587.294C337.257 588.13 338.309 588.817 339.456 589.275C340.589 589.76 341.816 589.948 343.084 590.204C348.074 591.174 353.024 592.144 357.934 593.101C367.766 594.987 377.437 596.846 386.932 598.678C405.936 602.275 424.252 605.696 441.705 608.646C446.075 609.374 450.391 610.061 454.653 610.667C456.784 610.937 458.915 611.233 461.006 611.327C463.11 611.354 465.214 611.246 467.291 611.017C475.586 610.128 483.422 607.515 490.22 603.676C497.045 599.836 502.737 594.704 507.322 589.1C509.588 586.284 511.409 583.213 513.203 580.236C514.97 577.231 516.642 574.268 518.22 571.331C530.777 547.851 539.005 527.954 544.225 514.092C546.787 507.141 548.621 501.685 549.781 497.967C550.348 496.121 550.793 494.707 551.09 493.737C551.386 492.78 551.562 492.295 551.562 492.295C551.562 492.295 551.44 492.794 551.157 493.75C550.874 494.72 550.456 496.148 549.916 498.007C548.797 501.739 547.016 507.208 544.481 514.186C539.329 528.088 531.169 548.026 518.652 571.56C517.074 574.497 515.415 577.474 513.648 580.492C511.841 583.482 510.033 586.567 507.741 589.436C503.128 595.094 497.382 600.281 490.503 604.174C483.638 608.067 475.748 610.721 467.359 611.624C465.268 611.866 463.137 611.974 461.006 611.947C458.848 611.853 456.73 611.556 454.586 611.287C450.31 610.694 445.994 609.994 441.611 609.28C424.131 606.343 405.815 602.935 386.811 599.351C377.316 597.533 367.631 595.674 357.812 593.788C352.903 592.831 347.953 591.861 342.963 590.891C341.735 590.649 340.427 590.447 339.213 589.935C337.986 589.436 336.866 588.709 335.909 587.82C333.939 586.055 332.752 583.469 332.361 580.923L332.618 581.192C329.03 580.222 325.226 579.212 321.301 578.148L320.978 578.067L321.045 577.743C321.221 576.868 321.409 575.911 321.598 574.955C323.473 565.525 325.321 556.189 327.074 547.433V547.366L327.128 547.298C327.546 546.719 327.951 546.14 328.329 545.615L328.436 545.466H328.625C372.581 546.867 413.826 548.174 449.919 549.333L449.622 549.535C463.879 510.01 476.045 476.265 485.014 451.41V451.37C488.035 443.368 491.947 436.538 496.33 431.459C500.687 426.327 505.529 423.013 509.791 421.208C514.093 419.429 517.681 418.985 520.055 418.877C521.255 418.783 522.159 418.864 522.766 418.877C523.373 418.891 523.683 418.918 523.683 418.918L523.669 418.877Z" fill="#263238"/>
<path d="M423.16 541.829C422.958 541.937 421.272 537.451 417.306 533.261C413.395 529.018 409.038 527.024 409.16 526.822C409.187 526.754 410.32 527.145 411.979 528.102C413.638 529.058 415.809 530.634 417.819 532.776C419.815 534.932 421.245 537.195 422.081 538.919C422.917 540.643 423.227 541.788 423.16 541.815V541.829Z" fill="#263238"/>
<path d="M464.567 573.351C464.445 573.365 464.216 571.802 463.501 569.351C462.8 566.912 461.532 563.612 459.522 560.298C457.499 556.997 455.139 554.357 453.278 552.619C451.416 550.881 450.135 549.952 450.202 549.858C450.229 549.817 450.58 550.019 451.187 550.41C451.794 550.801 452.63 551.42 453.615 552.256C455.584 553.926 458.052 556.553 460.129 559.934C462.193 563.315 463.407 566.71 463.987 569.229C464.284 570.482 464.459 571.519 464.526 572.233C464.594 572.947 464.621 573.351 464.567 573.351Z" fill="#263238"/>
<g opacity="0.3">
<path d="M432.21 548.834L439.264 549.09C440.397 521.42 446.116 493.831 450.998 466.565C438.549 491.959 435.285 520.72 432.21 548.834Z" fill="black"/>
</g>
<path d="M542.134 406.147C542.134 406.147 541.905 406.255 541.473 406.376C540.947 406.524 540.313 406.699 539.531 406.901C537.737 407.373 535.323 408.019 532.382 408.801C526.34 410.404 518.018 412.707 508.779 415.024C499.527 417.355 491.07 419.16 484.893 420.17C481.804 420.682 479.295 421.032 477.555 421.221C476.746 421.302 476.085 421.369 475.546 421.423C475.087 421.464 474.844 421.464 474.844 421.45C474.844 421.423 475.074 421.369 475.532 421.288C476.072 421.194 476.719 421.086 477.515 420.952C479.241 420.696 481.736 420.265 484.798 419.685C490.935 418.554 499.365 416.681 508.604 414.351C517.843 412.02 526.192 409.797 532.261 408.316C535.296 407.561 537.764 406.995 539.477 406.632C540.273 406.47 540.92 406.335 541.446 406.228C541.905 406.147 542.134 406.106 542.147 406.133L542.134 406.147Z" fill="#263238"/>
</g>
<defs>
<clipPath id="clip0_605_31455">
<rect width="677" height="625" fill="white"/>
</clipPath>
</defs>
</svg>
