<svg width="24" height="24" viewBox="0 0 24 24" fill="none" xmlns="http://www.w3.org/2000/svg">
<path d="M15.556 14.5473L15.012 14.0313L15.556 14.5483V14.5473ZM19.002 20.2543L18.457 19.7373L19.001 20.2543H19.002ZM17.676 20.9643L17.75 21.7093L17.676 20.9633V20.9643ZM3.75202 6.92527C3.74671 6.82691 3.72207 6.73056 3.67951 6.64172C3.63696 6.55289 3.57732 6.4733 3.50401 6.40751C3.4307 6.34172 3.34514 6.29101 3.25224 6.25829C3.15933 6.22556 3.06088 6.21145 2.96252 6.21677C2.86416 6.22209 2.76781 6.24673 2.67898 6.28928C2.59014 6.33184 2.51055 6.39147 2.44476 6.46479C2.37897 6.5381 2.32827 6.62365 2.29554 6.71656C2.26281 6.80947 2.24871 6.90791 2.25402 7.00627L3.75202 6.92527ZM4.71802 3.09227C4.58669 3.23741 4.5173 3.42815 4.52467 3.62375C4.53205 3.81935 4.6156 4.00432 4.75749 4.13916C4.89938 4.274 5.08836 4.34802 5.28408 4.34543C5.47981 4.34283 5.66676 4.26383 5.80502 4.12527L4.71802 3.09227ZM10.664 19.8123C10.7474 19.866 10.8407 19.9027 10.9383 19.9201C11.036 19.9376 11.1361 19.9355 11.233 19.914C11.3299 19.8925 11.4215 19.8519 11.5026 19.7948C11.5836 19.7376 11.6526 19.6649 11.7053 19.5809C11.7581 19.4969 11.7937 19.4032 11.8101 19.3054C11.8264 19.2075 11.8232 19.1074 11.8005 19.0108C11.7779 18.9142 11.7363 18.823 11.6782 18.7426C11.6201 18.6622 11.5466 18.5941 11.462 18.5423L10.664 19.8123ZM15.113 20.0583C14.9182 20.0176 14.7152 20.0559 14.5487 20.1649C14.3822 20.2738 14.2657 20.4445 14.225 20.6393C14.1843 20.8341 14.2227 21.0371 14.3316 21.2036C14.4406 21.3701 14.6112 21.4866 14.806 21.5273L15.113 20.0583ZM15.645 15.5443L16.1 15.0643L15.012 14.0313L14.557 14.5113L15.645 15.5443ZM17.599 14.8623L19.509 15.9623L20.257 14.6623L18.347 13.5623L17.599 14.8623ZM19.878 18.2423L18.457 19.7373L19.545 20.7713L20.965 19.2753L19.878 18.2423ZM8.35902 15.9593C4.48302 11.8783 3.83302 8.43527 3.75202 6.92527L2.25402 7.00627C2.35402 8.85627 3.13802 12.6403 7.27202 16.9923L8.35902 15.9593ZM9.73502 9.32227L10.021 9.02027L8.93402 7.98727L8.64702 8.28927L9.73502 9.32227ZM10.247 5.26027L8.98602 3.47727L7.76102 4.34327L9.02102 6.12627L10.247 5.26027ZM9.19002 8.80527C9.01005 8.63183 8.82837 8.46015 8.64502 8.29027L8.64302 8.29227L8.64002 8.29527C8.62227 8.31364 8.60558 8.33301 8.59002 8.35327C8.492 8.48302 8.41443 8.62703 8.36002 8.78027C8.26202 9.05527 8.21002 9.41927 8.27602 9.87327C8.40602 10.7653 8.99102 11.9643 10.518 13.5733L11.606 12.5393C10.178 11.0363 9.82602 10.1113 9.76002 9.65527C9.72802 9.43527 9.76002 9.32027 9.77302 9.28327L9.78102 9.26427C9.77284 9.27744 9.76347 9.28982 9.75302 9.30127C9.74716 9.30806 9.74116 9.31573 9.73502 9.32227L9.19002 8.80527ZM10.518 13.5723C12.041 15.1763 13.191 15.8063 14.068 15.9493C14.519 16.0223 14.884 15.9633 15.16 15.8543C15.3129 15.7942 15.4551 15.7098 15.581 15.6043L15.617 15.5703L15.631 15.5563C15.6334 15.5543 15.6357 15.5523 15.638 15.5503L15.641 15.5473L15.642 15.5453C15.642 15.5453 15.644 15.5443 15.1 15.0273C14.556 14.5113 14.557 14.5103 14.557 14.5093L14.559 14.5083L14.561 14.5053L14.567 14.5003C14.5821 14.4857 14.5978 14.4717 14.614 14.4583C14.623 14.4523 14.622 14.4543 14.609 14.4593C14.589 14.4673 14.499 14.4993 14.309 14.4683C13.907 14.4023 13.039 14.0483 11.606 12.5393L10.518 13.5723ZM8.98602 3.47727C7.97202 2.04327 5.94402 1.80027 4.71802 3.09227L5.80502 4.12527C6.32802 3.57527 7.24902 3.61827 7.76102 4.34327L8.98602 3.47727ZM18.457 19.7373C18.178 20.0313 17.887 20.1893 17.603 20.2173L17.75 21.7093C18.497 21.6363 19.102 21.2383 19.545 20.7713L18.457 19.7383V19.7373ZM10.021 9.02027C10.989 8.00127 11.057 6.40727 10.247 5.26027L9.02202 6.12627C9.44402 6.72327 9.37902 7.51927 8.93402 7.98727L10.021 9.02027ZM19.509 15.9623C20.33 16.4353 20.491 17.5973 19.878 18.2423L20.965 19.2753C22.27 17.9013 21.889 15.6023 20.257 14.6623L19.509 15.9623ZM16.1 15.0643C16.485 14.6583 17.086 14.5673 17.599 14.8623L18.347 13.5623C17.248 12.9303 15.887 13.1113 15.012 14.0313L16.1 15.0643ZM11.462 18.5423C10.479 17.9243 9.43202 17.0883 8.35902 15.9593L7.27202 16.9923C8.42602 18.2073 9.56902 19.1243 10.664 19.8123L11.462 18.5423ZM17.602 20.2173C16.7691 20.2904 15.9299 20.2368 15.113 20.0583L14.806 21.5273C15.7725 21.7366 16.7651 21.798 17.75 21.7093L17.603 20.2173H17.602Z" fill="white"/>
</svg>
