<svg width="247" height="216" viewBox="0 0 247 216" fill="none" xmlns="http://www.w3.org/2000/svg">
<g clip-path="url(#clip0_724_11929)">
<path d="M192.915 196.189C184.648 190.407 182.771 179.683 183.096 170.038C183.149 168.426 182.973 166.729 183.739 165.319C184.504 163.91 186.291 162.942 187.732 163.622C188.928 164.186 189.449 165.575 190.113 166.724C191.001 168.256 192.325 169.522 193.888 170.331C194.914 170.863 196.18 171.187 197.19 170.628C198.577 169.862 198.742 167.942 198.731 166.341C198.71 163.356 198.694 160.372 198.673 157.388C198.662 155.787 198.657 154.153 199.157 152.632C199.657 151.111 200.752 149.701 202.278 149.275C203.798 148.85 205.68 149.727 206.004 151.291C206.137 151.946 206.004 152.621 206.052 153.286C206.095 153.951 206.409 154.685 207.036 154.872C207.674 155.058 208.317 154.606 208.796 154.137C210.449 152.52 211.566 150.44 212.613 148.366C213.66 146.296 214.676 144.174 216.175 142.413C217.674 140.652 219.748 139.253 222.039 139.12C224.33 138.992 226.771 140.407 227.35 142.658C227.93 144.913 226.617 147.206 225.181 149.031C223.055 151.744 220.545 154.137 217.743 156.122C217.238 156.478 216.691 156.866 216.499 157.462C216.154 158.532 217.164 159.59 218.216 159.941C219.407 160.34 220.705 160.213 221.949 160.362C223.198 160.51 224.548 161.058 225.022 162.239C225.676 163.878 224.309 165.591 222.964 166.713C220.269 168.963 217.19 170.74 213.91 171.942C212.735 172.373 211.496 172.751 210.545 173.581C209.593 174.411 209.024 175.847 209.598 176.975C210.173 178.103 211.645 178.464 212.879 178.236C214.112 178.007 215.213 177.337 216.388 176.895C218.589 176.065 221.428 176.214 222.837 178.119C223.762 179.369 223.841 181.108 223.374 182.598C222.906 184.087 221.954 185.369 220.949 186.556C217.424 190.694 212.911 194.024 207.812 195.796C202.708 197.567 197.982 198.046 192.915 196.189Z" fill="#F5F5F5"/>
<path d="M192.788 203.339C193.138 199.52 193.973 195.009 195.403 190.141C196.823 185.274 198.817 180.071 201.097 174.693C201.671 173.352 202.24 172.028 202.799 170.719C203.357 169.416 203.915 168.123 204.537 166.894C205.771 164.431 207.142 162.154 208.514 160.032C209.886 157.909 211.262 155.946 212.565 154.122C213.873 152.297 215.122 150.621 216.324 149.142C218.722 146.174 220.939 144.009 222.518 142.588C223.304 141.876 223.937 141.344 224.368 140.987C224.575 140.817 224.74 140.684 224.862 140.583C224.974 140.493 225.032 140.45 225.038 140.455C225.043 140.461 224.99 140.508 224.883 140.61C224.766 140.716 224.607 140.854 224.41 141.035C223.99 141.407 223.374 141.95 222.597 142.679C221.045 144.126 218.86 146.302 216.483 149.281C215.292 150.765 214.054 152.446 212.762 154.27C211.47 156.1 210.098 158.069 208.737 160.186C207.376 162.303 206.015 164.575 204.787 167.027C204.17 168.251 203.623 169.533 203.059 170.836C202.501 172.139 201.937 173.464 201.363 174.804C199.088 180.172 197.089 185.364 195.659 190.21C194.223 195.056 193.367 199.541 192.99 203.35" fill="#E0E0E0"/>
<path d="M204.617 166.889C204.596 166.894 204.542 166.649 204.463 166.208C204.378 165.766 204.277 165.123 204.165 164.325C203.936 162.729 203.702 160.516 203.447 158.079C203.197 155.638 202.926 153.435 202.676 151.85C202.554 151.057 202.448 150.414 202.368 149.972C202.294 149.531 202.256 149.281 202.278 149.275C202.299 149.27 202.368 149.509 202.48 149.946C202.591 150.382 202.73 151.02 202.878 151.813C203.181 153.398 203.485 155.606 203.734 158.047C203.979 160.457 204.197 162.633 204.367 164.298C204.447 165.048 204.516 165.681 204.569 166.192C204.622 166.639 204.638 166.889 204.617 166.889Z" fill="#E0E0E0"/>
<path d="M225.192 163.043C225.192 163.064 224.899 163.096 224.373 163.138C223.847 163.186 223.081 163.25 222.14 163.357C220.258 163.559 217.664 163.931 214.819 164.468C211.975 165.011 209.423 165.607 207.594 166.096C206.674 166.336 205.935 166.543 205.425 166.687C204.915 166.83 204.627 166.905 204.622 166.884C204.617 166.862 204.888 166.756 205.393 166.575C205.893 166.399 206.626 166.155 207.541 165.889C209.364 165.346 211.916 164.713 214.771 164.17C217.621 163.633 220.231 163.293 222.124 163.144C223.07 163.059 223.841 163.027 224.373 163.016C224.894 163.016 225.186 163.021 225.192 163.043Z" fill="#E0E0E0"/>
<path d="M195.653 189.763C195.643 189.769 195.595 189.683 195.51 189.513C195.414 189.311 195.297 189.066 195.159 188.768C194.856 188.119 194.441 187.173 193.947 185.992C192.952 183.635 191.687 180.331 190.337 176.671C188.986 173.012 187.748 169.703 186.807 167.325C186.344 166.17 185.967 165.218 185.685 164.516C185.563 164.207 185.467 163.957 185.382 163.75C185.318 163.574 185.286 163.479 185.297 163.473C185.307 163.468 185.355 163.558 185.44 163.723C185.536 163.926 185.653 164.17 185.791 164.468C186.094 165.117 186.509 166.064 187.003 167.245C187.997 169.602 189.263 172.905 190.613 176.565C191.964 180.225 193.202 183.534 194.143 185.912C194.606 187.066 194.983 188.018 195.265 188.721C195.387 189.029 195.483 189.279 195.568 189.487C195.632 189.667 195.664 189.758 195.653 189.763Z" fill="#E0E0E0"/>
<path d="M222.991 180.949C222.991 180.959 222.9 180.996 222.72 181.06C222.507 181.129 222.241 181.22 221.927 181.326C221.194 181.566 220.205 181.885 218.998 182.273C216.526 183.076 213.123 184.22 209.37 185.497C205.611 186.768 202.198 187.885 199.71 188.635C198.466 189.013 197.455 189.306 196.754 189.492C196.429 189.577 196.164 189.646 195.946 189.705C195.759 189.753 195.658 189.769 195.658 189.758C195.658 189.747 195.749 189.71 195.93 189.646C196.142 189.577 196.403 189.487 196.722 189.38C197.455 189.141 198.444 188.822 199.651 188.433C202.123 187.63 205.526 186.486 209.285 185.21C213.043 183.938 216.457 182.821 218.945 182.071C220.189 181.693 221.199 181.401 221.901 181.214C222.225 181.129 222.491 181.06 222.709 181.002C222.89 180.959 222.991 180.938 222.991 180.949Z" fill="#E0E0E0"/>
<path d="M236.42 155.526C236.41 155.52 236.335 155.414 236.207 155.212C236.064 154.978 235.888 154.696 235.676 154.355C235.229 153.621 234.602 152.589 233.868 151.35L234.033 151.392C232.794 152.116 231.348 152.956 229.806 153.855C229.796 153.898 229.902 153.499 229.86 153.669V153.675L229.865 153.685L229.876 153.701L229.897 153.738L229.939 153.813L230.024 153.956L230.189 154.244C230.301 154.435 230.407 154.621 230.513 154.813C230.726 155.185 230.939 155.552 231.141 155.909C231.545 156.622 231.928 157.292 232.284 157.914L232.119 157.872C233.374 157.159 234.432 156.579 235.187 156.169C235.538 155.983 235.83 155.824 236.075 155.691C236.293 155.579 236.41 155.52 236.42 155.526C236.431 155.531 236.34 155.595 236.149 155.712C235.92 155.856 235.644 156.026 235.314 156.228C234.586 156.675 233.528 157.319 232.241 158.074L232.14 158.132L232.082 158.026C231.72 157.409 231.332 156.739 230.918 156.036C230.71 155.68 230.498 155.318 230.285 154.941C230.179 154.754 230.067 154.563 229.955 154.377L229.79 154.089L229.705 153.946L229.663 153.871L229.642 153.834L229.631 153.818L229.626 153.808L229.62 153.802C229.572 153.972 229.679 153.573 229.673 153.611C231.221 152.722 232.672 151.892 233.916 151.18L234.022 151.121L234.081 151.227C234.815 152.525 235.415 153.611 235.819 154.361C236 154.701 236.154 154.988 236.282 155.228C236.383 155.425 236.431 155.526 236.42 155.526Z" fill="#E0E0E0"/>
<path d="M76.1023 12.9821L70.9612 13.0098L71.0977 38.608L76.2388 38.5804L76.1023 12.9821Z" fill="#E0E0E0"/>
<path d="M39.7354 13.0453L26.4175 13.1167L26.4931 27.2511L39.811 27.1797L39.7354 13.0453Z" fill="#EBEBEB"/>
<path d="M52.9897 12.9763L39.6719 13.0476L39.7475 27.182L53.0654 27.1106L52.9897 12.9763Z" fill="#F5F5F5"/>
<path d="M26.4389 17.0228C35.2856 17.0972 44.1589 17.044 53.0056 16.9004C53.1863 16.8951 53.1863 16.6185 53.0056 16.6185C44.1589 16.5706 35.2856 16.6131 26.4389 16.7834C26.2794 16.7834 26.2847 17.0228 26.4389 17.0228Z" fill="#E0E0E0"/>
<path d="M42.3051 26.9436L18.115 27.0732L18.1767 38.5903L42.3668 38.4606L42.3051 26.9436Z" fill="#EBEBEB"/>
<path d="M66.384 26.8159L42.1938 26.9456L42.2555 38.4626L66.4456 38.333L66.384 26.8159Z" fill="#F5F5F5"/>
<path d="M18.1348 30.2795C34.2066 30.4603 50.3316 30.3008 66.4034 30.0401C66.5842 30.0348 66.5842 29.7581 66.4034 29.7581C50.3316 29.673 34.2013 29.6837 18.1348 30.0348C17.9753 30.0401 17.9753 30.2742 18.1348 30.2795Z" fill="#E0E0E0"/>
<path d="M102.811 38.5942H9.08594V42.7223H102.811V38.5942Z" fill="#E0E0E0"/>
<path d="M28.2361 40.5784H24.4294V54.6595H28.2361V40.5784Z" fill="#E0E0E0"/>
<path d="M85.0376 40.5784H81.231V54.6595H85.0376V40.5784Z" fill="#E0E0E0"/>
<path d="M81.122 3.43329L75.981 3.46094L76.1688 38.6719L81.3098 38.6442L81.122 3.43329Z" fill="#EBEBEB"/>
<path d="M89.1572 9.99042L81.1665 10.0334L81.319 38.5682L89.3097 38.5251L89.1572 9.99042Z" fill="#F5F5F5"/>
<path d="M89.1048 15.4855C89.1048 15.56 87.3184 15.6238 85.1121 15.6238C82.9057 15.6238 81.1194 15.56 81.1194 15.4855C81.1194 15.411 82.9057 15.3472 85.1121 15.3472C87.3131 15.3472 89.1048 15.411 89.1048 15.4855Z" fill="#E0E0E0"/>
<path d="M89.1048 14.2885C89.1048 14.3629 87.3184 14.4268 85.1121 14.4268C82.9057 14.4268 81.1194 14.3629 81.1194 14.2885C81.1194 14.214 82.9057 14.1501 85.1121 14.1501C87.3131 14.1501 89.1048 14.2087 89.1048 14.2885Z" fill="#E0E0E0"/>
<path d="M89.1048 34.2267C89.1048 34.3012 87.3184 34.365 85.1121 34.365C82.9057 34.365 81.1194 34.3012 81.1194 34.2267C81.1194 34.1522 82.9057 34.0884 85.1121 34.0884C87.3131 34.0884 89.1048 34.1522 89.1048 34.2267Z" fill="#E0E0E0"/>
<path d="M89.1048 33.0297C89.1048 33.1041 87.3184 33.168 85.1121 33.168C82.9057 33.168 81.1194 33.1041 81.1194 33.0297C81.1194 32.9552 82.9057 32.8914 85.1121 32.8914C87.3131 32.8914 89.1048 32.9552 89.1048 33.0297Z" fill="#E0E0E0"/>
<path d="M85.2344 30.4125C85.16 30.4125 85.0962 27.5346 85.0962 23.981C85.0962 20.4275 85.16 17.5496 85.2344 17.5496C85.3089 17.5496 85.3727 20.4275 85.3727 23.981C85.3727 27.5346 85.3142 30.4125 85.2344 30.4125Z" fill="#E0E0E0"/>
<path d="M97.8878 16.9963H89.1899V38.5357H97.8878V16.9963Z" fill="#EBEBEB"/>
<path d="M93.7835 32.9502C92.6404 32.9502 91.8376 32.1362 91.8376 31.0138C91.8376 30.4074 92.0716 29.8754 92.5394 29.5615L92.7361 29.8328C92.348 30.1095 92.162 30.535 92.162 31.0138C92.162 31.9181 92.8053 32.5778 93.7729 32.5778C94.7405 32.5778 95.3838 31.9181 95.3838 31.0138C95.3838 30.535 95.1977 30.1095 94.8096 29.8328L95.0063 29.5615C95.4688 29.8754 95.7081 30.4074 95.7081 31.0138C95.724 32.1309 94.9212 32.9502 93.7835 32.9502Z" fill="#FAFAFA"/>
<path d="M95.235 29.0241L94.9425 28.8538C95.1924 28.5612 95.4051 28.0399 95.4051 27.476C95.4051 26.6674 95.118 26.3483 94.6874 26.3483C93.5709 26.3483 94.3949 28.8857 92.8904 28.8857C92.3109 28.8857 91.843 28.4017 91.843 27.4335C91.843 26.9494 91.9919 26.4227 92.2152 26.1195L92.5076 26.2897C92.2737 26.6142 92.162 27.0292 92.162 27.4388C92.162 28.1889 92.4704 28.5187 92.8797 28.5187C94.0334 28.5187 93.2147 25.9812 94.6767 25.9812C95.2988 25.9812 95.7241 26.5185 95.7241 27.492C95.7241 28.1197 95.5114 28.7208 95.235 29.0241Z" fill="#FAFAFA"/>
<path d="M95.235 25.5185L94.9425 25.3483C95.1924 25.0557 95.4051 24.5344 95.4051 23.9705C95.4051 23.1619 95.118 22.8427 94.6874 22.8427C93.5709 22.8427 94.3949 25.3802 92.8904 25.3802C92.3109 25.3802 91.843 24.8961 91.843 23.9279C91.843 23.4438 91.9919 22.9172 92.2152 22.6139L92.5076 22.7842C92.2737 23.1087 92.162 23.5236 92.162 23.9385C92.162 24.6886 92.4704 25.0184 92.8797 25.0184C94.0334 25.0184 93.2147 22.481 94.6767 22.481C95.2988 22.481 95.7241 23.0182 95.7241 23.9917C95.7241 24.6141 95.5114 25.2153 95.235 25.5185Z" fill="#FAFAFA"/>
<path d="M78.477 10.9265C79.2933 10.9265 79.955 10.2644 79.955 9.44762C79.955 8.63086 79.2933 7.96875 78.477 7.96875C77.6607 7.96875 76.999 8.63086 76.999 9.44762C76.999 10.2644 77.6607 10.9265 78.477 10.9265Z" fill="#E0E0E0"/>
<path d="M78.9342 13.512H78.0198V34.4555H78.9342V13.512Z" fill="#E0E0E0"/>
<path d="M194.462 136.785C194.409 136.732 196.137 134.912 198.322 132.726C200.507 130.539 202.325 128.811 202.378 128.864C202.432 128.917 200.704 130.736 198.519 132.923C196.334 135.109 194.515 136.838 194.462 136.785Z" fill="#E0E0E0"/>
<path d="M202.378 136.785C202.325 136.838 200.507 135.109 198.322 132.923C196.137 130.736 194.409 128.917 194.462 128.864C194.515 128.811 196.334 130.539 198.519 132.726C200.704 134.912 202.432 136.732 202.378 136.785Z" fill="#E0E0E0"/>
<path d="M122.051 93.8231C121.998 93.7699 123.726 91.9505 125.911 89.7642C128.096 87.5778 129.914 85.8489 129.968 85.9021C130.021 85.9553 128.293 87.7746 126.108 89.961C123.923 92.1474 122.104 93.8763 122.051 93.8231Z" fill="#E0E0E0"/>
<path d="M129.968 93.8231C129.914 93.8763 128.096 92.1474 125.911 89.961C123.726 87.7746 121.998 85.9553 122.051 85.9021C122.104 85.8489 123.923 87.5778 126.108 89.7642C128.293 91.9505 130.021 93.7699 129.968 93.8231Z" fill="#E0E0E0"/>
<path d="M111.2 24.4917C111.126 24.497 110.876 22.3532 110.648 19.704C110.419 17.0494 110.291 14.895 110.366 14.8897C110.44 14.8843 110.69 17.0282 110.919 19.6774C111.147 22.3266 111.275 24.481 111.2 24.4917Z" fill="#E0E0E0"/>
<path d="M115.581 19.2678C115.586 19.3423 113.444 19.5923 110.796 19.8211C108.143 20.0498 105.99 20.1775 105.985 20.103C105.98 20.0286 108.122 19.7785 110.77 19.5498C113.417 19.321 115.576 19.1934 115.581 19.2678Z" fill="#E0E0E0"/>
<path d="M66.8074 77.1033C66.8021 77.1033 66.7649 77.0501 66.7064 76.9543C66.6373 76.8373 66.5469 76.699 66.4459 76.5288C66.2067 76.1351 65.8877 75.5978 65.4889 74.9329C64.6702 73.5391 63.5218 71.5974 62.1555 69.2781L62.3203 69.3206C60.0236 70.6505 57.3281 72.2198 54.4465 73.8902C54.4359 73.9328 54.5422 73.5338 54.4997 73.704V73.7093L54.505 73.72L54.5156 73.7359L54.5369 73.7679L54.5741 73.837L54.6539 73.97L54.8081 74.2413L55.1164 74.7786C55.3184 75.135 55.5258 75.4861 55.7225 75.8319C56.1212 76.5288 56.5147 77.2097 56.8974 77.8747C57.6577 79.1992 58.3754 80.4494 59.0294 81.6037L58.8646 81.5612C61.2091 80.2366 63.1709 79.1301 64.5745 78.3321C65.255 77.9544 65.8026 77.6512 66.2013 77.4278C66.3768 77.332 66.5203 77.2523 66.6426 77.1884C66.749 77.1299 66.8021 77.1033 66.8074 77.1033C66.8181 77.1086 66.6373 77.2257 66.2758 77.4438C65.8877 77.6778 65.3613 77.9917 64.7021 78.3907C63.2932 79.2205 61.3314 80.3802 58.9868 81.7633L58.8858 81.8218L58.8273 81.7155C58.1628 80.5717 57.4344 79.3216 56.6688 78.0023C56.286 77.3427 55.8926 76.6618 55.4886 75.9649C55.2865 75.6191 55.0845 75.268 54.8772 74.9116L54.5688 74.3743L54.4146 74.103L54.3349 73.97L54.2977 73.9009L54.2764 73.8689L54.2658 73.853L54.2605 73.8423V73.837C54.2126 74.0073 54.3189 73.603 54.3136 73.6455C57.2005 71.9858 59.9013 70.4324 62.2033 69.1078L62.3097 69.0493L62.3681 69.1557C63.7079 71.5283 64.8297 73.5125 65.6325 74.9382C66.0046 75.6085 66.3024 76.1458 66.5257 76.5447C66.7171 76.9118 66.8234 77.1086 66.8074 77.1033Z" fill="#E0E0E0"/>
<path d="M240.945 128.326C240.918 128.332 240.87 128.151 240.7 127.864C240.53 127.582 240.206 127.199 239.658 126.986C239.126 126.768 238.361 126.768 237.733 127.215C237.106 127.635 236.707 128.523 236.936 129.374C237.149 130.231 237.935 130.811 238.685 130.869C239.445 130.949 240.121 130.577 240.477 130.124C240.849 129.672 240.945 129.172 240.955 128.848C240.966 128.513 240.918 128.332 240.945 128.326C240.955 128.321 241.04 128.497 241.067 128.848C241.088 129.188 241.019 129.731 240.636 130.247C240.269 130.757 239.53 131.199 238.669 131.125C237.819 131.071 236.92 130.422 236.675 129.444C236.415 128.47 236.883 127.465 237.595 127.002C238.308 126.512 239.169 126.539 239.738 126.805C240.323 127.066 240.652 127.502 240.796 127.816C240.945 128.124 240.955 128.321 240.945 128.326Z" fill="#E0E0E0"/>
<path d="M141.563 1.71286C141.536 1.71818 141.488 1.53731 141.318 1.25005C141.148 0.968108 140.824 0.585092 140.276 0.372305C139.745 0.154198 138.979 0.154198 138.352 0.601051C137.724 1.0213 137.326 1.90969 137.554 2.76084C137.767 3.61731 138.554 4.19715 139.303 4.25567C140.064 4.33546 140.739 3.96308 141.095 3.51091C141.467 3.05874 141.563 2.55869 141.573 2.23419C141.589 1.89905 141.542 1.71818 141.563 1.71286C141.573 1.70754 141.658 1.88309 141.685 2.23419C141.706 2.57465 141.637 3.11726 141.254 3.63326C140.888 4.14395 140.149 4.58549 139.287 4.51101C138.437 4.45781 137.538 3.80881 137.294 2.82999C137.033 1.85649 137.501 0.851075 138.213 0.388264C138.926 -0.101146 139.787 -0.0745479 140.356 0.191436C140.941 0.4521 141.27 0.888313 141.414 1.20217C141.563 1.51071 141.573 1.70754 141.563 1.71286Z" fill="#E0E0E0"/>
<path d="M42.7022 62.5964C42.6756 62.6017 42.6278 62.4209 42.4576 62.1336C42.2875 61.8517 41.9632 61.4686 41.4156 61.2559C40.884 61.0377 40.1184 61.0377 39.491 61.4846C38.8637 61.9049 38.4649 62.7932 38.6935 63.6444C38.9062 64.5009 39.693 65.0807 40.4427 65.1392C41.2029 65.219 41.8781 64.8466 42.2343 64.3945C42.6065 63.9423 42.7022 63.4422 42.7128 63.1177C42.7235 62.7879 42.6756 62.6017 42.7022 62.5964C42.7128 62.5911 42.7979 62.7666 42.8245 63.1177C42.8457 63.4582 42.7766 64.0008 42.3938 64.5168C42.027 65.0275 41.288 65.469 40.4267 65.3946C39.5761 65.3414 38.6776 64.6924 38.433 63.7135C38.1725 62.74 38.6404 61.7346 39.3528 61.2718C40.0652 60.7824 40.9265 60.809 41.4954 61.075C42.0802 61.3356 42.4098 61.7719 42.5533 62.0857C42.7022 62.3943 42.7128 62.5911 42.7022 62.5964Z" fill="#E0E0E0"/>
<path d="M231.805 54.0904C231.773 54.101 231.694 53.7021 231.337 53.0743C230.992 52.4626 230.295 51.6168 229.115 51.1327C228.53 50.8986 227.834 50.7496 227.095 50.8135C226.361 50.8773 225.574 51.1114 224.894 51.5955C224.548 51.8295 224.235 52.1221 223.963 52.4626C223.687 52.7977 223.458 53.1861 223.299 53.6063C222.959 54.4415 222.895 55.4203 223.129 56.3459C223.379 57.2716 223.91 58.0908 224.617 58.6547C224.963 58.9419 225.351 59.1707 225.755 59.3303C226.159 59.4952 226.574 59.6016 226.989 59.6335C227.818 59.7239 228.615 59.5431 229.291 59.2452C229.966 58.9366 230.503 58.4685 230.896 57.9791C231.694 56.979 231.885 55.8991 231.89 55.1969C231.896 54.4841 231.773 54.0957 231.805 54.0904C231.816 54.0904 231.843 54.1862 231.89 54.367C231.944 54.5532 231.991 54.8352 232.002 55.1969C232.034 55.9151 231.869 57.0428 231.056 58.1014C230.652 58.6228 230.099 59.1228 229.392 59.4526C228.69 59.7771 227.845 59.9793 226.967 59.8888C226.531 59.8569 226.085 59.7505 225.659 59.575C225.229 59.4101 224.819 59.1707 224.447 58.8675C223.692 58.2717 223.129 57.3992 222.863 56.4151C222.613 55.431 222.682 54.3883 223.049 53.5052C223.224 53.0584 223.464 52.6488 223.761 52.2924C224.049 51.9359 224.383 51.6221 224.75 51.3827C225.473 50.8773 226.303 50.6379 227.079 50.5794C227.86 50.5209 228.584 50.6911 229.19 50.9465C230.412 51.4784 231.109 52.3775 231.433 53.0211C231.603 53.3456 231.699 53.617 231.742 53.8031C231.795 53.9893 231.816 54.0904 231.805 54.0904Z" fill="#E0E0E0"/>
<path d="M217.488 121.432C217.488 121.448 217.392 121.273 217.212 120.937C217.009 120.56 216.744 120.07 216.425 119.475C215.744 118.214 214.771 116.4 213.665 114.267L213.559 114.059L213.788 114.075C215.01 114.15 216.345 114.235 217.733 114.32C219.173 114.415 220.556 114.506 221.821 114.591L222.044 114.607L221.922 114.793C220.635 116.777 219.508 118.458 218.727 119.623C218.355 120.177 218.052 120.629 217.818 120.975C217.6 121.289 217.488 121.448 217.488 121.432C217.488 121.416 217.6 121.23 217.807 120.895C218.03 120.528 218.323 120.054 218.684 119.475C219.429 118.267 220.465 116.597 221.704 114.66L221.805 114.862C220.54 114.783 219.157 114.697 217.717 114.607C216.329 114.517 215 114.426 213.772 114.346L213.894 114.155C214.952 116.235 215.835 118.033 216.467 119.331C216.77 119.953 217.02 120.464 217.217 120.863C217.387 121.214 217.488 121.422 217.488 121.432Z" fill="#E0E0E0"/>
<path d="M180.411 20.9807C180.411 20.9967 180.315 20.8211 180.134 20.486C179.932 20.1083 179.666 19.6189 179.347 19.0231C178.667 17.7623 177.694 15.9483 176.588 13.8151L176.482 13.6077L176.71 13.6236C177.933 13.6981 179.268 13.7832 180.655 13.8683C182.096 13.9641 183.478 14.0545 184.744 14.1396L184.967 14.1556L184.845 14.3418C183.558 16.326 182.431 18.007 181.649 19.172C181.277 19.7253 180.974 20.1775 180.74 20.5232C180.522 20.8371 180.411 20.9967 180.411 20.9807C180.411 20.9648 180.522 20.7786 180.73 20.4434C180.953 20.0764 181.245 19.6029 181.607 19.0231C182.351 17.8155 183.388 16.1451 184.627 14.2088L184.728 14.4109C183.462 14.3311 182.08 14.246 180.639 14.1556C179.252 14.0652 177.922 13.9747 176.694 13.8949L176.817 13.7034C177.875 15.7834 178.757 17.5815 179.39 18.8795C179.693 19.5019 179.943 20.0126 180.139 20.4115C180.315 20.7626 180.411 20.9648 180.411 20.9807Z" fill="#E0E0E0"/>
<path d="M116.107 139.631C116.097 139.636 116.203 139.471 116.41 139.152C116.644 138.796 116.947 138.333 117.32 137.769C118.106 136.577 119.239 134.854 120.595 132.859L120.701 132.699L120.807 132.859C121.589 134.018 122.445 135.285 123.343 136.609C124.034 137.641 124.699 138.631 125.316 139.556L125.454 139.764H125.204C122.535 139.758 120.228 139.716 118.617 139.689C117.851 139.673 117.224 139.663 116.745 139.652C116.32 139.647 116.097 139.636 116.107 139.631C116.123 139.625 116.373 139.615 116.825 139.609C117.314 139.599 117.958 139.588 118.739 139.572C120.361 139.546 122.604 139.503 125.204 139.498L125.092 139.705C124.47 138.785 123.8 137.795 123.109 136.763C122.221 135.434 121.371 134.162 120.589 133.002H120.802C119.467 134.928 118.308 136.556 117.468 137.732C117.064 138.296 116.735 138.758 116.48 139.115C116.251 139.445 116.123 139.625 116.107 139.631Z" fill="#E0E0E0"/>
<path d="M199.167 208.808H132.594V170.187C132.594 151.791 147.496 136.88 165.88 136.88C184.265 136.88 199.167 151.791 199.167 170.187V208.808Z" fill="#455A64"/>
<path d="M81.5978 190.072L78.2484 192.439L74.5215 201.387C74.5215 201.387 75.5316 202.062 76.3131 201.344C77.0947 200.626 80.0826 195.418 80.0826 195.418L80.1038 198.493C80.1145 199.743 81.0502 200.786 82.2889 200.935L87.8075 202.658L94.5807 200.727L95.1602 192.662L81.5978 190.072Z" fill="#FFBE9D"/>
<path d="M141.77 130.614C140.111 130.135 139.298 128.236 139.149 126.512C139 124.789 139.282 123.023 138.814 121.358C138.479 120.177 137.777 119.091 137.687 117.868C137.591 116.549 138.224 115.277 138.261 113.953C138.309 112.107 137.203 110.394 137.171 108.548C137.134 105.994 137.591 101.776 140.138 101.92C142.684 102.063 146.778 106.537 146.459 109.069" fill="#263238"/>
<path d="M165.88 109.474L165.832 112.022L165.322 150.196C165.264 154.627 161.409 158.106 156.667 158.005C151.877 157.904 147.99 154.196 147.974 149.717C147.958 145.014 147.857 140.067 147.857 140.067C147.857 140.067 141.807 139.062 140.552 131.162C139.93 127.236 140.127 120.794 140.457 115.527C140.754 110.788 144.933 107.25 149.654 107.75L165.88 109.474Z" fill="#FFBE9D"/>
<path d="M142.073 120.017C142.051 120.555 142.493 121.012 143.051 121.039C143.609 121.071 144.077 120.661 144.093 120.124C144.114 119.586 143.673 119.129 143.12 119.102C142.557 119.076 142.089 119.485 142.073 120.017Z" fill="#263238"/>
<path d="M141.85 118.884C141.977 119.017 142.743 118.448 143.833 118.453C144.923 118.443 145.72 119.001 145.837 118.868C145.895 118.81 145.768 118.57 145.417 118.315C145.077 118.065 144.492 117.815 143.811 117.82C143.131 117.825 142.562 118.075 142.232 118.331C141.903 118.586 141.791 118.826 141.85 118.884Z" fill="#263238"/>
<path d="M152.977 120.017C152.956 120.555 153.397 121.012 153.955 121.039C154.514 121.071 154.981 120.661 154.997 120.124C155.019 119.586 154.577 119.129 154.024 119.102C153.461 119.076 152.998 119.485 152.977 120.017Z" fill="#263238"/>
<path d="M152.562 119.086C152.69 119.219 153.456 118.65 154.545 118.655C155.635 118.645 156.433 119.203 156.55 119.07C156.608 119.012 156.481 118.772 156.13 118.517C155.79 118.267 155.205 118.017 154.524 118.022C153.844 118.028 153.275 118.278 152.945 118.533C152.616 118.788 152.499 119.028 152.562 119.086Z" fill="#263238"/>
<path d="M148.607 127.172C148.612 127.108 147.937 126.991 146.837 126.853C146.56 126.826 146.294 126.768 146.247 126.576C146.183 126.374 146.3 126.076 146.433 125.752C146.693 125.076 146.97 124.374 147.257 123.634C148.4 120.618 149.224 118.134 149.107 118.091C148.985 118.049 147.958 120.459 146.815 123.475C146.539 124.22 146.278 124.927 146.029 125.608C145.922 125.922 145.741 126.284 145.885 126.699C145.959 126.906 146.167 127.055 146.342 127.108C146.523 127.161 146.677 127.167 146.815 127.172C147.916 127.231 148.602 127.236 148.607 127.172Z" fill="#263238"/>
<path d="M147.852 140.072C147.852 140.072 153.163 140.413 158.427 137.248C158.427 137.248 155.864 142.674 147.958 141.934L147.852 140.072Z" fill="#EB996E"/>
<path d="M149.069 129.8C149.463 129.284 150.149 128.997 150.829 129.071C151.302 129.124 151.781 129.348 152.068 129.736C152.355 130.119 152.414 130.667 152.153 131.034C151.861 131.449 151.244 131.545 150.723 131.396C150.202 131.247 149.755 130.907 149.33 130.566C149.213 130.47 149.091 130.375 149.016 130.242C148.942 130.114 148.926 129.944 149.016 129.837" fill="#EB996E"/>
<path d="M151.813 127.928C151.637 127.917 151.632 129.103 150.622 129.938C149.612 130.779 148.352 130.646 148.341 130.816C148.325 130.891 148.623 131.045 149.155 131.061C149.676 131.077 150.441 130.912 151.058 130.396C151.675 129.88 151.94 129.194 151.983 128.71C152.026 128.215 151.893 127.922 151.813 127.928Z" fill="#263238"/>
<path d="M152.281 114.815C152.387 115.112 153.477 114.969 154.753 115.123C156.034 115.251 157.066 115.629 157.236 115.363C157.31 115.235 157.129 114.958 156.715 114.671C156.3 114.384 155.641 114.112 154.875 114.027C154.11 113.942 153.403 114.065 152.94 114.256C152.467 114.442 152.233 114.676 152.281 114.815Z" fill="#263238"/>
<path d="M142.254 115.73C142.445 115.98 143.195 115.719 144.099 115.708C145.002 115.666 145.763 115.873 145.943 115.618C146.018 115.49 145.901 115.245 145.566 115.011C145.236 114.777 144.689 114.586 144.067 114.607C143.445 114.628 142.908 114.852 142.594 115.107C142.27 115.352 142.169 115.607 142.254 115.73Z" fill="#263238"/>
<path d="M168.794 107.048C170.437 102.585 177.274 95.8552 182.532 98.8555C188.29 102.138 186.243 104.409 188.332 105.92C188.832 106.282 191.166 105.505 191.49 106.026C192.346 107.404 191.623 109.181 190.889 110.633C191.054 110.612 191.23 110.559 191.41 110.495C192.059 110.256 192.761 110.74 192.724 111.426C192.623 113.171 191.969 115.027 190.943 116.315C191.304 116.4 191.676 116.41 192.043 116.347C192.548 116.262 192.958 116.756 192.793 117.246C192.213 118.927 190.608 120.251 188.827 120.618C186.631 121.076 184.313 120.278 182.521 118.927C180.73 117.575 179.384 115.724 178.167 113.841C177.46 112.745 176.763 111.601 175.711 110.83C174.658 110.064 173.143 109.766 172.064 110.495" fill="#263238"/>
<path d="M172.069 110.319C172.047 110.309 172.069 110.24 172.058 110.117C172.047 109.995 172.005 109.814 171.925 109.596C171.771 109.16 171.457 108.58 171.069 107.979C170.676 107.378 170.272 106.867 169.947 106.526C169.628 106.186 169.389 106.01 169.41 105.973C169.426 105.947 169.714 106.064 170.08 106.383C170.453 106.702 170.894 107.207 171.298 107.83C171.697 108.452 171.989 109.064 172.106 109.543C172.17 109.782 172.186 109.984 172.159 110.128C172.143 110.261 172.074 110.33 172.069 110.319Z" fill="#F8B814"/>
<path d="M185.413 122.565C185.419 122.571 185.355 122.624 185.222 122.709C185.094 122.805 184.892 122.911 184.616 123.033C184.074 123.273 183.196 123.475 182.128 123.363C181.075 123.241 179.788 122.762 178.831 121.672C178.358 121.129 178.007 120.448 177.784 119.709C177.561 118.969 177.449 118.171 177.396 117.363C177.295 115.745 177.359 114.208 177.072 112.857C176.933 112.181 176.716 111.564 176.418 111.032C176.115 110.511 175.727 110.085 175.312 109.777C174.488 109.144 173.616 108.973 173.047 109.011C172.468 109.059 172.175 109.229 172.165 109.202C172.159 109.192 172.234 109.154 172.372 109.085C172.515 109.021 172.739 108.947 173.036 108.904C173.627 108.83 174.552 108.973 175.429 109.622C175.87 109.936 176.285 110.373 176.615 110.92C176.934 111.468 177.167 112.112 177.322 112.804C177.63 114.192 177.577 115.751 177.672 117.347C177.726 118.145 177.832 118.916 178.045 119.634C178.257 120.347 178.587 121.001 179.028 121.512C179.921 122.549 181.144 123.033 182.16 123.177C183.191 123.315 184.042 123.145 184.584 122.943C185.132 122.73 185.397 122.539 185.413 122.565Z" fill="#263238"/>
<path d="M190.719 101.09C190.724 101.084 190.783 101.185 190.873 101.388C190.953 101.595 191.054 101.909 191.075 102.335C191.097 102.755 191.049 103.287 190.82 103.845C190.597 104.404 190.182 105 189.523 105.404C188.869 105.803 187.986 105.968 187.099 105.792C186.221 105.622 185.307 105.058 184.828 104.149C184.307 103.271 184.121 102.212 183.914 101.175C183.707 100.137 183.505 99.015 182.797 98.1692C182.452 97.7543 181.979 97.4564 181.468 97.3287C180.958 97.1851 180.421 97.2117 179.911 97.3021C178.885 97.4989 177.959 97.9777 177.135 98.4884C175.466 99.5098 174.089 100.627 173.015 101.643C171.936 102.659 171.154 103.574 170.628 104.212C170.383 104.521 170.187 104.766 170.033 104.962C169.9 105.133 169.82 105.223 169.815 105.218C169.809 105.212 169.868 105.111 169.985 104.931C170.102 104.744 170.293 104.484 170.538 104.149C171.037 103.484 171.808 102.547 172.877 101.505C173.945 100.462 175.322 99.3183 177.002 98.2756C177.837 97.7543 178.783 97.2542 179.863 97.0414C180.4 96.9404 180.979 96.9138 181.543 97.068C182.106 97.2117 182.627 97.5415 183.01 97.999C183.781 98.9299 183.972 100.095 184.18 101.132C184.387 102.175 184.563 103.202 185.046 104.031C185.493 104.888 186.317 105.404 187.141 105.574C187.97 105.75 188.8 105.606 189.417 105.239C190.044 104.877 190.448 104.319 190.671 103.792C190.905 103.26 190.969 102.755 190.958 102.345C190.948 101.515 190.682 101.1 190.719 101.09Z" fill="#263238"/>
<path d="M170.75 99.2066C170.772 99.1854 171.064 99.4832 171.33 100.09C171.601 100.685 171.814 101.616 171.644 102.627C171.468 103.638 170.958 104.441 170.506 104.915C170.049 105.393 169.676 105.58 169.66 105.553C169.634 105.516 169.958 105.276 170.357 104.787C170.756 104.303 171.208 103.526 171.372 102.585C171.532 101.638 171.367 100.76 171.154 100.169C170.936 99.5684 170.713 99.2332 170.75 99.2066Z" fill="#263238"/>
<path d="M171.537 109.032C170.341 105.989 167.576 103.585 164.371 102.952C162.425 102.569 160.357 102.867 158.576 103.734C157.895 103.351 157.342 102.765 156.779 102.218C154.886 100.366 152.584 98.8927 150.027 98.2012C147.469 97.5096 144.657 97.6426 142.28 98.8023C139.899 99.962 138.011 102.191 137.49 104.787C136.975 107.383 137.942 110.282 140.063 111.862C142.185 113.447 145.391 113.495 147.427 111.809C147.283 112.974 148.304 114.054 149.458 114.272C150.611 114.49 151.797 114.017 152.738 113.314C153.679 112.617 154.434 111.703 155.274 110.883C155.582 110.575 155.907 110.282 156.242 110C157.475 112.671 159.99 114.756 162.882 115.325C161.968 116.32 162.047 117.873 162.425 119.177C162.802 120.475 163.419 121.746 163.387 123.097C163.36 124.23 162.882 125.305 162.669 126.417C162.372 127.965 162.6 129.614 163.307 131.024C163.584 131.571 163.913 132.332 164.216 132.864C164.753 133.811 164.753 133.811 165.535 134.05C167.162 134.551 169.969 128.646 170.697 126.3C171.298 124.342 171.537 120.831 172.239 118.911C173.499 115.458 172.733 112.075 171.537 109.032Z" fill="#263238"/>
<path d="M172.632 116.426C172.638 116.432 172.606 116.49 172.526 116.602C172.441 116.708 172.303 116.857 172.074 116.99C171.851 117.129 171.548 117.246 171.176 117.288C170.809 117.331 170.368 117.288 169.937 117.075C169.724 116.964 169.517 116.815 169.347 116.618C169.177 116.421 169.044 116.182 168.927 115.937C168.693 115.448 168.544 114.884 168.204 114.426C167.869 113.963 167.3 113.697 166.673 113.607C166.045 113.506 165.37 113.538 164.674 113.522C163.972 113.506 163.286 113.41 162.643 113.24C162.005 113.064 161.409 112.814 160.867 112.538C159.793 111.963 158.942 111.245 158.342 110.553C157.741 109.862 157.353 109.218 157.14 108.75C157.018 108.527 156.965 108.33 156.912 108.208C156.864 108.08 156.848 108.016 156.853 108.011C156.917 107.973 157.257 109.091 158.485 110.42C159.091 111.085 159.931 111.761 160.984 112.309C161.516 112.57 162.09 112.804 162.712 112.974C163.334 113.134 163.993 113.224 164.679 113.245C165.365 113.256 166.051 113.229 166.715 113.336C167.374 113.431 168.034 113.74 168.406 114.272C168.783 114.793 168.916 115.368 169.134 115.841C169.241 116.081 169.357 116.299 169.506 116.48C169.655 116.66 169.836 116.799 170.022 116.9C170.809 117.304 171.596 117.118 172.016 116.9C172.462 116.666 172.606 116.4 172.632 116.426Z" fill="#455A64"/>
<path d="M171.404 119.645C171.415 119.655 171.309 119.783 171.075 119.969C170.841 120.15 170.463 120.379 169.948 120.533C169.437 120.687 168.773 120.762 168.071 120.597C167.374 120.443 166.641 120.06 166.077 119.443C165.519 118.82 165.205 118.102 164.876 117.501C164.557 116.889 164.206 116.389 163.823 116.049C163.446 115.703 163.063 115.527 162.786 115.458C162.51 115.389 162.345 115.394 162.345 115.368C162.345 115.357 162.51 115.309 162.808 115.352C163.105 115.389 163.531 115.554 163.951 115.9C164.376 116.235 164.769 116.767 165.099 117.379C165.445 117.985 165.764 118.682 166.279 119.256C166.8 119.826 167.475 120.193 168.124 120.347C168.778 120.512 169.4 120.464 169.889 120.342C170.894 120.086 171.372 119.597 171.404 119.645Z" fill="#455A64"/>
<path d="M192.362 110.367C192.367 110.367 192.351 110.474 192.287 110.671C192.218 110.862 192.075 111.139 191.809 111.431C191.543 111.719 191.139 112.006 190.607 112.192C190.081 112.378 189.417 112.447 188.725 112.266C187.332 111.926 186.019 110.665 185.216 109.011C184.366 107.383 183.903 105.377 182.675 103.696C182.069 102.861 181.25 102.234 180.347 101.877C179.443 101.526 178.491 101.409 177.603 101.478C175.801 101.601 174.334 102.468 173.329 103.372C172.313 104.282 171.697 105.229 171.314 105.888C170.931 106.553 170.761 106.947 170.74 106.936C170.729 106.931 170.766 106.83 170.841 106.644C170.915 106.452 171.037 106.181 171.218 105.835C171.58 105.154 172.175 104.181 173.196 103.228C174.201 102.287 175.711 101.366 177.582 101.223C178.507 101.143 179.501 101.26 180.448 101.627C181.394 101.994 182.266 102.664 182.893 103.532C184.164 105.282 184.616 107.298 185.44 108.894C186.211 110.511 187.46 111.729 188.773 112.075C189.422 112.261 190.049 112.208 190.554 112.043C191.065 111.878 191.463 111.623 191.729 111.357C192.266 110.814 192.325 110.351 192.362 110.367Z" fill="#455A64"/>
<path d="M192.16 114.107C192.165 114.112 192.101 114.192 191.963 114.336C191.825 114.474 191.612 114.676 191.315 114.9C191.012 115.118 190.623 115.373 190.124 115.565C189.629 115.761 189.013 115.9 188.332 115.836C186.976 115.682 185.477 114.82 184.414 113.378C183.877 112.66 183.483 111.798 183.17 110.894C182.851 109.984 182.601 109.027 182.261 108.085C181.92 107.143 181.49 106.255 180.884 105.542C180.293 104.819 179.501 104.335 178.677 104.111C177.008 103.659 175.392 104.085 174.243 104.675C173.074 105.276 172.255 105.984 171.702 106.473C171.447 106.707 171.239 106.899 171.075 107.048C170.931 107.181 170.851 107.25 170.846 107.239C170.841 107.234 170.904 107.154 171.032 107.005C171.165 106.862 171.362 106.649 171.628 106.388C172.165 105.877 172.967 105.133 174.153 104.5C175.317 103.872 176.981 103.398 178.741 103.861C179.608 104.09 180.464 104.606 181.086 105.367C181.724 106.111 182.165 107.032 182.516 107.989C182.861 108.952 183.111 109.91 183.42 110.803C183.728 111.697 184.1 112.532 184.616 113.229C185.626 114.623 187.072 115.474 188.348 115.644C188.991 115.719 189.581 115.596 190.065 115.426C190.554 115.251 190.942 115.017 191.251 114.814C191.857 114.394 192.139 114.086 192.16 114.107Z" fill="#455A64"/>
<path d="M134.779 193.28L135.672 195.53L133.907 216H179.071L177.056 209.882L182.67 210.164C191.331 210.601 198.407 202.86 196.722 194.349C196.668 194.094 196.615 193.838 196.546 193.583C193.744 182.63 189.932 167.905 188.603 163.559C186.407 156.372 181.522 152.957 181.522 152.957C181.495 152.951 181.468 152.951 181.442 152.951C174.685 147.435 165.482 146.945 165.482 146.945L162.095 149.217C158.65 151.526 154.317 151.829 150.649 150.164C149.298 149.552 148.277 148.371 147.857 146.945C143.769 147.44 139.75 148.382 136.337 149.94C132.11 151.866 128.909 155.515 127.405 159.915L115.613 194.509L95.5269 191.79L91.2312 203.525L111.583 208.377C119.106 210.616 127.171 207.281 130.919 200.381L134.779 193.28ZM172.345 196.041C172.345 196.041 174.275 188.641 175.45 184.656L178.3 195.854L172.345 196.041Z" fill="#F8B814"/>
<path d="M187.699 210.281C187.699 210.281 187.62 210.287 187.465 210.292C187.306 210.292 187.077 210.297 186.785 210.303C186.174 210.308 185.286 210.313 184.137 210.324C181.814 210.335 178.443 210.345 174.19 210.361C165.668 210.372 153.642 210.393 139.574 210.409H139.441L139.447 210.276C139.627 206.058 139.814 201.626 140.005 197.046L140.01 196.918L140.138 196.913C144.279 196.785 148.591 196.647 152.999 196.509C161.925 196.232 170.479 195.966 178.294 195.727L178.172 195.892C177.226 192.439 176.455 189.077 175.711 185.869C174.988 182.656 174.302 179.592 173.653 176.698C173.334 175.251 173.026 173.847 172.728 172.485C172.436 171.129 172.106 169.815 172.005 168.511C171.888 167.213 171.909 165.958 172.021 164.772C172.138 163.58 172.319 162.447 172.638 161.404C173.26 159.314 174.36 157.606 175.652 156.489C176.939 155.351 178.38 154.856 179.539 154.68C180.714 154.505 181.633 154.664 182.223 154.829C182.516 154.92 182.734 154.999 182.877 155.069C183.021 155.132 183.09 155.17 183.09 155.17C183.085 155.186 182.798 155.037 182.213 154.872C181.628 154.717 180.714 154.579 179.555 154.765C178.411 154.952 176.997 155.457 175.737 156.585C174.472 157.696 173.398 159.383 172.797 161.452C172.489 162.484 172.313 163.607 172.207 164.793C172.101 165.974 172.085 167.219 172.207 168.501C172.308 169.788 172.643 171.086 172.941 172.448C173.244 173.804 173.557 175.209 173.876 176.656C174.53 179.55 175.227 182.609 175.955 185.822C176.705 189.029 177.481 192.386 178.433 195.828L178.475 195.987L178.31 195.993C170.501 196.238 161.941 196.509 153.014 196.791C148.607 196.929 144.295 197.062 140.154 197.19L140.287 197.057C140.09 201.632 139.899 206.063 139.713 210.287L139.585 210.154C153.652 210.175 165.678 210.191 174.201 210.202C178.449 210.218 181.825 210.228 184.148 210.239C185.296 210.25 186.184 210.255 186.796 210.26C187.088 210.265 187.317 210.271 187.476 210.271C187.62 210.271 187.699 210.281 187.699 210.281Z" fill="#263238"/>
<path d="M137.283 163.181C137.294 163.181 137.299 163.293 137.304 163.511C137.304 163.729 137.331 164.048 137.299 164.463C137.262 165.288 137.086 166.479 136.682 167.905C136.283 169.33 135.645 170.969 134.917 172.772C134.205 174.576 133.391 176.565 132.977 178.757C132.535 180.949 132.658 183.103 132.945 185.013C133.253 186.928 133.726 188.614 134.167 190.013C134.614 191.412 135.013 192.535 135.284 193.312C135.412 193.679 135.513 193.977 135.592 194.205C135.661 194.413 135.693 194.519 135.683 194.524C135.672 194.53 135.624 194.423 135.539 194.227C135.443 193.998 135.326 193.705 135.183 193.349C134.88 192.583 134.449 191.471 133.981 190.072C133.514 188.673 133.019 186.981 132.695 185.05C132.392 183.124 132.259 180.933 132.711 178.704C133.136 176.475 133.96 174.475 134.688 172.671C135.427 170.873 136.087 169.251 136.501 167.841C136.921 166.437 137.129 165.266 137.198 164.447C137.256 163.638 137.256 163.181 137.283 163.181Z" fill="#263238"/>
<path d="M178.3 195.854C178.295 195.823 178.651 195.721 179.241 195.727C179.831 195.732 180.655 195.86 181.484 196.243C182.314 196.62 182.946 197.195 183.265 197.706C183.59 198.211 183.638 198.594 183.611 198.594C183.563 198.61 183.452 198.264 183.106 197.817C182.771 197.365 182.16 196.855 181.368 196.493C180.581 196.131 179.799 195.977 179.23 195.918C178.661 195.87 178.305 195.902 178.3 195.854Z" fill="#263238"/>
<path d="M174.323 148.951C174.328 148.935 174.631 149.046 175.168 149.27C175.434 149.382 175.769 149.515 176.141 149.685C176.519 149.871 176.944 150.073 177.407 150.297C177.874 150.525 178.364 150.818 178.906 151.111C179.438 151.414 179.985 151.775 180.565 152.143C181.702 152.925 182.904 153.855 184.047 154.973C186.328 157.217 187.79 159.798 188.438 161.782C188.603 162.276 188.757 162.723 188.842 163.133C188.938 163.537 189.029 163.883 189.066 164.17C189.156 164.745 189.199 165.064 189.177 165.069C189.156 165.075 189.082 164.761 188.959 164.192C188.906 163.904 188.8 163.569 188.694 163.17C188.593 162.771 188.433 162.33 188.258 161.846C187.566 159.904 186.104 157.382 183.856 155.164C182.728 154.063 181.543 153.137 180.426 152.35C179.852 151.978 179.315 151.616 178.794 151.302C178.263 151.004 177.784 150.701 177.322 150.462C176.87 150.222 176.455 150.009 176.083 149.813C175.721 149.637 175.408 149.488 175.131 149.355C174.599 149.116 174.312 148.967 174.323 148.951Z" fill="#263238"/>
<g opacity="0.3">
<path d="M172.558 171.235C172.558 171.235 168.071 191.061 168.14 192.998C168.209 194.939 168.597 196.009 168.597 196.009L172.34 196.04L172.372 195.673L175.514 184.454L172.558 171.235Z" fill="black"/>
</g>
<path d="M147.905 170.24C147.921 170.267 147.427 170.458 146.672 171.017C145.944 171.581 144.933 172.576 144.375 174.15C144.099 174.932 143.934 175.842 144.008 176.815C144.072 177.784 144.333 178.821 144.902 179.757C145.449 180.699 146.263 181.555 147.294 182.151C147.804 182.454 148.363 182.694 148.958 182.837C149.548 183.002 150.176 183.061 150.803 183.05C151.436 183.045 152.047 182.917 152.637 182.752C153.217 182.555 153.769 182.305 154.269 181.976C155.258 181.321 156.045 180.438 156.545 179.465C157.044 178.491 157.284 177.454 157.294 176.48C157.305 175.507 157.108 174.597 156.789 173.836C156.146 172.288 155.099 171.341 154.338 170.82C153.562 170.299 153.057 170.134 153.073 170.107C153.078 170.097 153.201 170.139 153.435 170.23C153.663 170.32 153.998 170.48 154.402 170.73C155.189 171.235 156.29 172.182 156.975 173.762C157.316 174.544 157.528 175.48 157.528 176.486C157.523 177.491 157.289 178.571 156.773 179.587C156.263 180.598 155.449 181.523 154.423 182.21C153.908 182.55 153.334 182.816 152.727 183.018C152.116 183.194 151.473 183.327 150.819 183.332C150.165 183.343 149.511 183.279 148.9 183.109C148.278 182.954 147.698 182.704 147.166 182.385C146.098 181.763 145.252 180.869 144.689 179.885C144.109 178.906 143.844 177.826 143.79 176.826C143.727 175.821 143.907 174.879 144.205 174.081C144.806 172.464 145.864 171.469 146.624 170.927C147.018 170.661 147.342 170.48 147.565 170.379C147.778 170.283 147.9 170.235 147.905 170.24Z" fill="white"/>
<path d="M150.638 169.027C150.712 169.027 150.776 171.214 150.776 173.911C150.776 176.608 150.712 178.794 150.638 178.794C150.564 178.794 150.5 176.608 150.5 173.911C150.5 171.214 150.564 169.027 150.638 169.027Z" fill="white"/>
<path d="M133.498 196.759L130.573 195.567C130.573 195.567 127.176 189.801 126.48 190.077C125.783 190.354 125.682 192.115 127.065 194.769L123.221 193.897C123.221 193.897 115.23 198.147 115.623 198.637C116.017 199.126 116.756 200.302 118.489 199.286C120.222 198.27 122.503 197.067 122.503 197.067L126.995 198.083L121.339 199.126L116.251 204.307C116.251 204.307 118.085 205.526 119.526 204.041L133.615 206.26L139.58 206.265L139.899 198.376L133.498 196.759Z" fill="#FFBE9D"/>
<path d="M119.52 204.052C119.584 204.089 119.818 203.664 120.291 203.084C120.531 202.802 120.855 202.504 121.259 202.243C121.652 201.993 122.173 201.866 122.742 201.765C125.044 201.36 126.9 200.935 126.879 200.818C126.857 200.701 124.97 200.929 122.663 201.334C122.083 201.435 121.498 201.584 121.036 201.903C120.6 202.206 120.265 202.563 120.041 202.892C119.611 203.563 119.478 204.025 119.52 204.052Z" fill="#EB996E"/>
<path d="M121.732 204.488C121.785 204.488 121.812 204.196 122.2 204.089C122.593 203.994 123.226 203.882 123.88 203.781C125.209 203.573 126.31 203.52 126.315 203.398C126.32 203.281 125.193 203.137 123.816 203.35C123.125 203.462 122.535 203.611 122.083 203.807C121.849 203.919 121.705 204.121 121.684 204.27C121.652 204.419 121.705 204.494 121.732 204.488Z" fill="#EB996E"/>
<path d="M133.109 196.605C133.093 196.642 132.562 196.466 131.701 196.206C130.839 195.945 129.643 195.61 128.309 195.269C127.022 194.945 125.858 194.652 124.89 194.408C124.018 194.179 123.481 194.014 123.492 193.977C123.502 193.939 124.05 194.035 124.938 194.216C125.82 194.397 127.043 194.658 128.378 194.998C129.717 195.339 130.914 195.706 131.764 196.014C132.615 196.328 133.12 196.567 133.109 196.605Z" fill="#EB996E"/>
<path d="M182.144 48.2176C182.133 48.2069 182.128 48.0048 182.117 47.6377C182.112 47.2388 182.101 46.7121 182.085 46.0631C182.069 44.6906 182.048 42.7915 182.027 40.5253L182.149 40.6477C179.906 40.653 177.274 40.6583 174.461 40.669C174.43 40.7009 174.722 40.4083 174.6 40.5307V40.536V40.5466V40.5626V40.5945V40.6583V40.7913V41.052V41.5733C174.6 41.9191 174.6 42.2649 174.6 42.6C174.6 43.2809 174.6 43.9406 174.594 44.5896C174.589 45.8769 174.584 47.0951 174.578 48.2176L174.456 48.0952C176.721 48.1218 178.619 48.1431 179.991 48.1537C180.645 48.1644 181.166 48.175 181.564 48.1857C181.931 48.2016 182.133 48.2123 182.144 48.2176C182.154 48.2282 181.968 48.2335 181.617 48.2442C181.224 48.2495 180.708 48.2601 180.07 48.2761C178.677 48.2921 176.753 48.3133 174.456 48.3346H174.339V48.2123C174.334 47.0898 174.329 45.8716 174.323 44.5842C174.323 43.9406 174.323 43.2756 174.318 42.5947C174.318 42.2542 174.318 41.9138 174.318 41.568V41.0467V40.786V40.653V40.5892V40.5573V40.5413V40.536V40.5307C174.196 40.653 174.488 40.3604 174.456 40.3923C177.269 40.3977 179.9 40.403 182.144 40.4136H182.266V40.5307C182.239 42.8288 182.218 44.7545 182.208 46.1482C182.197 46.7866 182.186 47.3079 182.176 47.6963C182.16 48.0474 182.154 48.2282 182.144 48.2176Z" fill="#263238"/>
<path d="M182.144 40.6052C182.197 40.6584 180.522 42.4139 178.406 44.5312C176.29 46.6431 174.525 48.3134 174.472 48.2603C174.419 48.2071 176.094 46.4516 178.21 44.3343C180.331 42.2171 182.091 40.552 182.144 40.6052Z" fill="#263238"/>
<path d="M182.021 48.1698C181.968 48.223 180.246 46.5739 178.172 44.4832C176.099 42.3926 174.467 40.6531 174.52 40.5999C174.573 40.5467 176.296 42.1958 178.369 44.2864C180.442 46.3824 182.075 48.1166 182.021 48.1698Z" fill="#263238"/>
<path d="M227.664 92.9825C227.653 92.9665 227.797 92.8016 228.073 92.5143C228.397 92.1898 228.796 91.7909 229.264 91.3174C230.28 90.3173 231.694 88.9501 233.273 87.45L233.31 87.4181V87.6202C231.72 86.152 230.295 84.8114 229.275 83.8273C228.802 83.3645 228.397 82.9762 228.073 82.657C227.797 82.375 227.648 82.2154 227.658 82.1995C227.669 82.1835 227.845 82.3218 228.148 82.5772C228.488 82.8751 228.908 83.2475 229.408 83.6837C230.466 84.6253 231.912 85.9445 233.496 87.4128L233.602 87.5138L233.496 87.6149L233.459 87.6468C231.885 89.147 230.444 90.4875 229.397 91.4557C228.903 91.9026 228.483 92.2803 228.142 92.5888C227.85 92.8548 227.674 92.9931 227.664 92.9825Z" fill="#263238"/>
<path d="M215.409 82.2049C215.42 82.2209 215.276 82.3858 215 82.6731C214.676 82.9976 214.277 83.3965 213.809 83.87C212.794 84.8701 211.379 86.2372 209.8 87.7374L209.763 87.7693V87.5671C211.353 89.0354 212.778 90.3759 213.798 91.3601C214.272 91.8229 214.676 92.2112 215 92.5304C215.276 92.8123 215.425 92.9719 215.415 92.9879C215.404 93.0039 215.228 92.8655 214.925 92.6102C214.585 92.3123 214.165 91.9399 213.665 91.5037C212.607 90.5621 211.161 89.2428 209.577 87.7746L209.471 87.6735L209.577 87.5725L209.614 87.5405C211.188 86.0404 212.629 84.6998 213.676 83.7317C214.171 83.2848 214.591 82.9071 214.931 82.5986C215.223 82.3326 215.393 82.1943 215.409 82.2049Z" fill="#263238"/>
<path d="M218.551 95.52C218.482 95.4934 219.769 91.8867 221.422 87.4714C223.081 83.0507 224.484 79.4919 224.554 79.5185C224.623 79.5451 223.341 83.1465 221.683 87.5671C220.029 91.9878 218.626 95.5466 218.551 95.52Z" fill="#263238"/>
<path d="M241.593 103.234C241.593 103.234 241.583 103.026 241.583 102.632C241.577 102.233 241.577 101.654 241.572 100.898C241.567 99.3768 241.556 97.1585 241.54 94.3338C241.524 88.6789 241.503 80.6037 241.481 70.8634L241.598 70.9804C230.195 70.9857 216.478 70.9963 201.735 71.0017H201.73L201.868 70.8634C201.863 82.5666 201.858 93.6209 201.852 103.239L201.73 103.117C213.564 103.143 223.517 103.164 230.519 103.18C234.022 103.196 236.782 103.207 238.68 103.212C239.621 103.218 240.344 103.223 240.844 103.228C241.083 103.234 241.269 103.234 241.402 103.234C241.524 103.228 241.593 103.234 241.593 103.234C241.593 103.234 241.535 103.239 241.412 103.239C241.279 103.239 241.099 103.244 240.865 103.244C240.37 103.25 239.653 103.255 238.722 103.26C236.83 103.265 234.081 103.281 230.588 103.292C223.57 103.308 213.591 103.329 201.719 103.356H201.597V103.234C201.592 93.6156 201.586 82.5613 201.581 70.858V70.7197H201.719H201.725C216.473 70.7304 230.184 70.7357 241.588 70.741H241.705V70.858C241.678 80.6303 241.657 88.7321 241.646 94.4029C241.636 97.217 241.625 99.4247 241.614 100.941C241.609 101.686 241.604 102.255 241.604 102.654C241.598 103.037 241.593 103.234 241.593 103.234Z" fill="#263238"/>
<path d="M241.907 75.6617C241.907 75.7362 232.906 75.8001 221.81 75.8001C210.71 75.8001 201.709 75.7362 201.709 75.6617C201.709 75.5873 210.704 75.5234 221.81 75.5234C232.906 75.5234 241.907 75.582 241.907 75.6617Z" fill="#263238"/>
<path d="M204.978 73.2944C204.978 73.5923 204.739 73.8316 204.441 73.8316C204.144 73.8316 203.904 73.5923 203.904 73.2944C203.904 72.9965 204.144 72.7571 204.441 72.7571C204.739 72.7571 204.978 73.0018 204.978 73.2944Z" fill="#263238"/>
<path d="M206.935 73.2944C206.935 73.5923 206.696 73.8316 206.398 73.8316C206.1 73.8316 205.861 73.5923 205.861 73.2944C205.861 72.9965 206.1 72.7571 206.398 72.7571C206.696 72.7571 206.935 73.0018 206.935 73.2944Z" fill="#263238"/>
<path d="M208.891 73.2944C208.891 73.5923 208.652 73.8316 208.354 73.8316C208.057 73.8316 207.817 73.5923 207.817 73.2944C207.817 72.9965 208.057 72.7571 208.354 72.7571C208.652 72.7571 208.891 73.0018 208.891 73.2944Z" fill="#263238"/>
<path d="M160.5 21.9224H129V44.3927H160.5V21.9224Z" fill="#455A64"/>
<path d="M160.745 25.2577C160.745 25.3322 153.631 25.396 144.864 25.396C136.092 25.396 128.984 25.3322 128.984 25.2577C128.984 25.1832 136.092 25.1194 144.864 25.1194C153.637 25.1194 160.745 25.1779 160.745 25.2577Z" fill="white"/>
<path d="M131.568 23.6141C131.568 23.8215 131.376 23.9865 131.142 23.9865C130.908 23.9865 130.717 23.8215 130.717 23.6141C130.717 23.4066 130.908 23.2417 131.142 23.2417C131.376 23.2417 131.568 23.4119 131.568 23.6141Z" fill="white"/>
<path d="M133.115 23.6141C133.115 23.8215 132.923 23.9865 132.689 23.9865C132.456 23.9865 132.264 23.8215 132.264 23.6141C132.264 23.4066 132.456 23.2417 132.689 23.2417C132.923 23.2417 133.115 23.4119 133.115 23.6141Z" fill="white"/>
<path d="M134.237 23.9865C134.472 23.9865 134.662 23.8197 134.662 23.6141C134.662 23.4084 134.472 23.2417 134.237 23.2417C134.002 23.2417 133.811 23.4084 133.811 23.6141C133.811 23.8197 134.002 23.9865 134.237 23.9865Z" fill="white"/>
<path d="M140.648 34.2161C140.648 35.5673 139.67 36.3812 138.059 36.3812H136.358V38.3814H135.688V32.0457H138.059C139.67 32.0457 140.648 32.8596 140.648 34.2161ZM139.978 34.2161C139.978 33.2 139.309 32.6255 138.043 32.6255H136.358V35.796H138.043C139.309 35.7907 139.978 35.2109 139.978 34.2161Z" fill="white"/>
<path d="M147.384 32.0457V38.3814H146.725V35.4556H142.764V38.3814H142.094V32.0457H142.764V34.8704H146.725V32.0457H147.384Z" fill="white"/>
<path d="M154.402 34.2161C154.402 35.5673 153.424 36.3812 151.813 36.3812H150.112V38.3814H149.442V32.0457H151.813C153.424 32.0457 154.402 32.8596 154.402 34.2161ZM153.732 34.2161C153.732 33.2 153.062 32.6255 151.797 32.6255H150.112V35.796H151.797C153.062 35.7907 153.732 35.2109 153.732 34.2161Z" fill="white"/>
<path d="M96.936 70.1504L97.3507 69.6929C97.8611 70.459 98.5842 70.8739 99.4295 70.8739C100.679 70.8739 101.296 70.1611 101.296 68.6556V62.6391H97.8292V62.022H101.976V68.6609C101.976 70.5547 101.104 71.4963 99.4242 71.4963C98.414 71.4963 97.473 70.9963 96.936 70.1504Z" fill="#F8B814"/>
<path d="M103.933 70.5812L104.241 70.044C104.778 70.5015 105.73 70.8898 106.766 70.8898C108.244 70.8898 108.834 70.3685 108.834 69.5758C108.834 67.5331 104.188 69.0385 104.188 66.283C104.188 65.219 105.076 64.3625 106.846 64.3625C107.734 64.3625 108.696 64.6285 109.249 65.0488L108.941 65.5861C108.351 65.1552 107.585 64.953 106.835 64.953C105.464 64.953 104.863 65.5169 104.863 66.267C104.863 68.3736 109.51 66.8841 109.51 69.5599C109.51 70.7036 108.531 71.4803 106.745 71.4803C105.586 71.4803 104.486 71.0919 103.933 70.5812Z" fill="#F8B814"/>
<path d="M115.634 76.4224C115.634 76.4224 115.624 76.2735 115.624 75.9968C115.618 75.7096 115.618 75.3 115.608 74.7786C115.602 73.7041 115.592 72.1454 115.576 70.1718C115.56 66.2086 115.539 60.5645 115.517 53.7872L115.634 53.9042C108.59 53.9096 100.211 53.9149 91.2474 53.9255C91.2155 53.9574 91.5079 53.6649 91.3856 53.7925V53.7978V53.8085V53.8351V53.883V53.9787V54.1702V54.5586V55.3299C91.3856 55.8406 91.3856 56.3513 91.3856 56.8567C91.3856 57.8727 91.3856 58.8781 91.3856 59.8729C91.3856 61.8625 91.3856 63.8148 91.3803 65.7139C91.375 69.5122 91.3697 73.1083 91.3697 76.4224L91.2474 76.3001C98.5151 76.3267 104.597 76.3479 108.872 76.3639C111.004 76.3799 112.684 76.3905 113.848 76.3958C114.417 76.4011 114.858 76.4065 115.166 76.4118C115.31 76.4171 115.422 76.4171 115.507 76.4171C115.586 76.4171 115.629 76.4171 115.634 76.4224C115.634 76.4224 115.602 76.4277 115.528 76.4277C115.443 76.4277 115.337 76.433 115.198 76.433C114.89 76.4384 114.459 76.4437 113.901 76.449C112.742 76.4543 111.073 76.465 108.951 76.4809C104.656 76.4969 98.547 76.5182 91.2474 76.5448H91.1251V76.4224C91.1198 73.1083 91.1145 69.5122 91.1145 65.7139C91.1145 63.8148 91.1145 61.8625 91.1092 59.8729C91.1092 58.8781 91.1092 57.8727 91.1092 56.8567C91.1092 56.3513 91.1092 55.8406 91.1092 55.3299V54.5586V54.1702V53.9787V53.883V53.8351V53.8085V53.7978V53.7925C90.9869 53.9149 91.2793 53.617 91.2474 53.6489C100.211 53.6542 108.585 53.6649 115.634 53.6702H115.751V53.7872C115.725 60.5964 115.703 66.2672 115.693 70.2463C115.682 72.2092 115.671 73.7573 115.661 74.8265C115.656 75.3425 115.65 75.7415 115.645 76.0234C115.64 76.2894 115.634 76.4224 115.634 76.4224Z" fill="#F8B814"/>
<path d="M115.581 57.1386C115.581 57.213 110.132 57.2769 103.406 57.2769C96.6809 57.2769 91.2314 57.213 91.2314 57.1386C91.2314 57.0641 96.6809 57.0002 103.406 57.0002C110.126 57.0002 115.581 57.0641 115.581 57.1386Z" fill="#F8B814"/>
<path d="M93.4058 55.8672C93.6407 55.8672 93.8311 55.6981 93.8311 55.4895C93.8311 55.2809 93.6407 55.1118 93.4058 55.1118C93.1709 55.1118 92.9805 55.2809 92.9805 55.4895C92.9805 55.6981 93.1709 55.8672 93.4058 55.8672Z" fill="#F8B814"/>
<path d="M95.3941 55.4895C95.3941 55.697 95.2027 55.8672 94.9688 55.8672C94.7349 55.8672 94.5435 55.697 94.5435 55.4895C94.5435 55.282 94.7349 55.1118 94.9688 55.1118C95.2027 55.1118 95.3941 55.282 95.3941 55.4895Z" fill="#F8B814"/>
<path d="M96.952 55.4895C96.952 55.697 96.7606 55.8672 96.5266 55.8672C96.2927 55.8672 96.1013 55.697 96.1013 55.4895C96.1013 55.282 96.2927 55.1118 96.5266 55.1118C96.7606 55.1118 96.952 55.282 96.952 55.4895Z" fill="#F8B814"/>
<path d="M204.558 32.7C204.558 30.4072 206.302 28.7102 208.636 28.7102C209.747 28.7102 210.747 29.0719 211.432 29.8007L211.071 30.1731C210.396 29.5082 209.577 29.2422 208.657 29.2422C206.647 29.2422 205.127 30.7264 205.127 32.7053C205.127 34.6842 206.642 36.1684 208.657 36.1684C209.577 36.1684 210.401 35.8864 211.071 35.2268L211.432 35.5992C210.747 36.328 209.747 36.7004 208.636 36.7004C206.302 36.695 204.558 34.9981 204.558 32.7Z" fill="#F8B814"/>
<path d="M212.517 35.6258L212.777 35.2002C213.314 35.7641 214.319 36.1897 215.372 36.1897C216.946 36.1897 217.642 35.5034 217.642 34.647C217.642 32.285 212.73 33.7054 212.73 30.8008C212.73 29.689 213.585 28.7102 215.515 28.7102C216.382 28.7102 217.28 28.9815 217.887 29.4177L217.674 29.8805C217.02 29.4284 216.222 29.2156 215.515 29.2156C213.99 29.2156 213.304 29.9231 213.304 30.7902C213.304 33.1521 218.211 31.7584 218.211 34.615C218.211 35.7269 217.323 36.695 215.377 36.695C214.213 36.695 213.086 36.2535 212.517 35.6258Z" fill="#F8B814"/>
<path d="M219.359 35.6258L219.62 35.2002C220.157 35.7641 221.162 36.1897 222.214 36.1897C223.788 36.1897 224.484 35.5034 224.484 34.647C224.484 32.285 219.572 33.7054 219.572 30.8008C219.572 29.689 220.428 28.7102 222.358 28.7102C223.224 28.7102 224.123 28.9815 224.729 29.4177L224.516 29.8805C223.862 29.4284 223.065 29.2156 222.358 29.2156C220.832 29.2156 220.146 29.9231 220.146 30.7902C220.146 33.1521 225.053 31.7584 225.053 34.615C225.053 35.7269 224.166 36.695 222.22 36.695C221.055 36.695 219.928 36.2535 219.359 35.6258Z" fill="#F8B814"/>
<path d="M231.747 42.935C231.747 42.935 231.742 42.7914 231.736 42.5201C231.731 42.2382 231.731 41.8392 231.726 41.3232C231.72 40.2646 231.71 38.7325 231.699 36.7695C231.683 32.8383 231.667 27.1888 231.641 20.2998L231.752 20.4115C222.161 20.4169 209.965 20.4275 196.722 20.4381H196.716L196.855 20.2998C196.849 28.3379 196.849 35.9929 196.844 42.9404L196.716 42.8127C206.993 42.8393 215.734 42.8606 221.917 42.8765C225.006 42.8925 227.456 42.9031 229.142 42.9084C229.976 42.9138 230.62 42.9191 231.072 42.9244C231.284 42.9297 231.449 42.9297 231.571 42.9297C231.688 42.9297 231.747 42.9297 231.747 42.935C231.747 42.935 231.694 42.9404 231.587 42.9404C231.47 42.9404 231.311 42.9457 231.104 42.9457C230.662 42.951 230.024 42.9563 229.2 42.9616C227.52 42.9723 225.08 42.9829 222.002 42.9936C215.797 43.0095 207.03 43.0308 196.716 43.0574H196.589V42.9297C196.583 35.9875 196.583 28.3325 196.578 20.2892V20.1509H196.716H196.722C209.96 20.1615 222.161 20.1722 231.752 20.1775H231.864V20.2892C231.837 27.2101 231.821 32.8755 231.805 36.8281C231.795 38.7804 231.784 40.3071 231.779 41.3551C231.773 41.8658 231.768 42.2541 231.768 42.5307C231.758 42.802 231.747 42.935 231.747 42.935Z" fill="#F8B814"/>
<path d="M231.747 23.6566C231.747 23.7311 223.9 23.7949 214.224 23.7949C204.542 23.7949 196.7 23.7311 196.7 23.6566C196.7 23.5821 204.542 23.5183 214.224 23.5183C223.905 23.5183 231.747 23.5768 231.747 23.6566Z" fill="#F8B814"/>
<path d="M199.305 22.0022C199.305 22.2097 199.114 22.3799 198.88 22.3799C198.646 22.3799 198.455 22.2097 198.455 22.0022C198.455 21.7947 198.646 21.6245 198.88 21.6245C199.114 21.6245 199.305 21.7947 199.305 22.0022Z" fill="#F8B814"/>
<path d="M200.863 22.0022C200.863 22.2097 200.672 22.3799 200.438 22.3799C200.204 22.3799 200.012 22.2097 200.012 22.0022C200.012 21.7947 200.204 21.6245 200.438 21.6245C200.672 21.6245 200.863 21.7947 200.863 22.0022Z" fill="#F8B814"/>
<path d="M202.421 22.0022C202.421 22.2097 202.23 22.3799 201.996 22.3799C201.762 22.3799 201.57 22.2097 201.57 22.0022C201.57 21.7947 201.762 21.6245 201.996 21.6245C202.23 21.6245 202.421 21.7947 202.421 22.0022Z" fill="#F8B814"/>
<path d="M186.577 54.665H142.589V86.0405H186.577V54.665Z" fill="#F8B814"/>
<path d="M157.422 69.2302V75.4596H155.981V72.9061H153.153V75.4596H151.712V69.2302H153.153V71.6879H155.981V69.2302H157.422Z" fill="white"/>
<path d="M160.186 70.4059H158.193V69.2302H163.615V70.4059H161.622V75.4596H160.181V70.4059H160.186Z" fill="white"/>
<path d="M164.392 69.2302H165.833V74.2839H168.953V75.4596H164.392V69.2302Z" fill="white"/>
<path d="M175.429 75.4596L175.418 71.7252L173.584 74.8052H172.935L171.112 71.8049V75.4596H169.761V69.2302H170.952L173.281 73.0976L175.572 69.2302H176.753L176.769 75.4596H175.429Z" fill="white"/>
<path d="M186.923 59.3197C186.923 59.3942 176.992 59.458 164.748 59.458C152.499 59.458 142.568 59.3942 142.568 59.3197C142.568 59.2452 152.494 59.1814 164.748 59.1814C176.992 59.1814 186.923 59.2399 186.923 59.3197Z" fill="white"/>
<path d="M146.178 57.0269C146.178 57.3142 145.912 57.5483 145.587 57.5483C145.258 57.5483 144.997 57.3142 144.997 57.0269C144.997 56.7397 145.263 56.5056 145.587 56.5056C145.912 56.5056 146.178 56.7397 146.178 57.0269Z" fill="white"/>
<path d="M148.336 57.0269C148.336 57.3142 148.07 57.5483 147.746 57.5483C147.416 57.5483 147.156 57.3142 147.156 57.0269C147.156 56.7397 147.422 56.5056 147.746 56.5056C148.07 56.5056 148.336 56.7397 148.336 57.0269Z" fill="white"/>
<path d="M150.494 57.0269C150.494 57.3142 150.229 57.5483 149.904 57.5483C149.58 57.5483 149.314 57.3142 149.314 57.0269C149.314 56.7397 149.58 56.5056 149.904 56.5056C150.229 56.5056 150.494 56.7397 150.494 57.0269Z" fill="white"/>
<path d="M51.9209 116.442C51.9209 116.442 51.9156 116.405 51.9156 116.336C51.9156 116.256 51.9103 116.16 51.9103 116.038C51.905 115.767 51.905 115.389 51.8944 114.9C51.889 113.894 51.8784 112.447 51.8625 110.612C51.8465 106.926 51.8252 101.68 51.804 95.3978L51.9263 95.5201C45.8123 95.5255 38.5977 95.5308 30.8994 95.5414C30.8675 95.5733 31.1599 95.2808 31.0377 95.4084V95.4138V95.4244V95.4457V95.4882V95.5787V95.7595V96.1213V96.8394C31.0377 97.3182 31.0377 97.7917 31.0377 98.2651C31.0377 99.212 31.0377 100.148 31.0377 101.079C31.0377 102.936 31.0377 104.75 31.0323 106.516C31.027 110.048 31.0217 113.384 31.0164 116.442L30.8941 116.32C37.1729 116.347 42.415 116.368 46.0994 116.379C47.9336 116.395 49.3796 116.4 50.3845 116.411C50.8736 116.416 51.2511 116.421 51.5222 116.426C51.6445 116.432 51.7402 116.432 51.8199 116.432C51.8837 116.437 51.9209 116.442 51.9209 116.442C51.9209 116.442 51.8944 116.448 51.8306 116.448C51.7561 116.448 51.6657 116.453 51.5488 116.453C51.283 116.458 50.9108 116.458 50.4323 116.469C49.4328 116.474 47.9974 116.485 46.1738 116.501C42.4682 116.517 37.2048 116.538 30.8941 116.559H30.7772V116.437C30.7718 113.378 30.7665 110.043 30.7612 106.511C30.7612 104.744 30.7612 102.93 30.7559 101.074C30.7559 100.148 30.7559 99.2067 30.7559 98.2598C30.7559 97.7863 30.7559 97.3129 30.7559 96.8341V96.1159V95.7542V95.5733V95.4829V95.4404V95.4191V95.4084V95.4031C30.6336 95.5255 30.926 95.2276 30.8941 95.2595C38.5924 95.2648 45.8069 95.2701 51.9209 95.2808H52.0432V95.4031C52.0166 101.718 51.9954 106.989 51.9847 110.692C51.9688 112.517 51.9582 113.953 51.9528 114.953C51.9475 115.432 51.9422 115.804 51.9369 116.07C51.9316 116.187 51.9316 116.278 51.9316 116.352C51.9263 116.416 51.9263 116.442 51.9209 116.442Z" fill="#263238"/>
<path d="M51.9209 95.6159C51.974 95.6691 47.3221 100.398 41.5324 106.175C35.7374 111.958 31.0004 116.597 30.9472 116.544C30.8941 116.49 35.546 111.761 41.3357 105.984C47.1307 100.201 51.8677 95.5627 51.9209 95.6159Z" fill="#263238"/>
<path d="M51.5914 116.315C51.5382 116.368 46.9022 111.777 41.2348 106.064C35.5674 100.345 31.0218 95.6691 31.0749 95.6159C31.1281 95.5627 35.7641 100.148 41.4315 105.867C47.0936 111.58 51.6445 116.256 51.5914 116.315Z" fill="#263238"/>
<path d="M95.7556 101.047C95.7556 101.122 87.4034 101.186 77.1 101.186C66.7966 101.186 58.4443 101.122 58.4443 101.047C58.4443 100.973 66.7966 100.909 77.1 100.909C87.4034 100.909 95.7556 100.973 95.7556 101.047Z" fill="#263238"/>
<path d="M95.7556 104.404C95.7556 104.478 87.4034 104.542 77.1 104.542C66.7966 104.542 58.4443 104.478 58.4443 104.404C58.4443 104.329 66.7966 104.266 77.1 104.266C87.4034 104.266 95.7556 104.324 95.7556 104.404Z" fill="#263238"/>
<path d="M95.7556 107.755C95.7556 107.83 87.4034 107.894 77.1 107.894C66.7966 107.894 58.4443 107.83 58.4443 107.755C58.4443 107.681 66.7966 107.617 77.1 107.617C87.4034 107.617 95.7556 107.681 95.7556 107.755Z" fill="#263238"/>
<path d="M95.7556 111.112C95.7556 111.187 87.4034 111.251 77.1 111.251C66.7966 111.251 58.4443 111.187 58.4443 111.112C58.4443 111.038 66.7966 110.974 77.1 110.974C87.4034 110.974 95.7556 111.032 95.7556 111.112Z" fill="#263238"/>
<path d="M75.319 97.6906C75.319 97.765 71.4805 97.8289 66.7435 97.8289C62.0065 97.8289 58.168 97.765 58.168 97.6906C58.168 97.6161 62.0065 97.5522 66.7435 97.5522C71.4805 97.5522 75.319 97.6161 75.319 97.6906Z" fill="#263238"/>
<path d="M24.2751 89.0567C24.2751 89.0567 24.4081 89.0514 24.6739 89.0514C24.9503 89.0514 25.3491 89.0461 25.8701 89.0461C26.9334 89.0461 28.5018 89.0461 30.5274 89.0408C34.6104 89.0461 40.5543 89.0461 48.0346 89.0514C63.0325 89.078 84.1763 89.1152 108.802 89.1578H108.935V89.2908C108.935 99.6642 108.941 110.91 108.941 122.576V122.714H108.802C107.223 122.714 105.522 122.714 103.816 122.714C102.944 122.714 102.077 122.714 101.21 122.714L101.349 122.576C101.349 124.895 101.349 127.193 101.349 129.476V129.811L101.115 129.577C98.7808 127.241 96.4787 124.938 94.2192 122.677L94.3149 122.72C66.7541 122.704 42.3194 122.688 24.2751 122.677H24.1794V122.581C24.2007 112.133 24.2167 103.744 24.2326 97.9619C24.2432 95.0839 24.2486 92.855 24.2539 91.3442C24.2592 90.5941 24.2592 90.0249 24.2645 89.6366C24.2645 89.2482 24.2751 89.0567 24.2751 89.0567C24.2751 89.0567 24.2805 89.2589 24.2858 89.6525C24.2858 90.0462 24.2911 90.6207 24.2964 91.3814C24.3017 92.9029 24.307 95.1371 24.3177 98.0204C24.3283 103.792 24.3496 112.16 24.3708 122.581L24.2751 122.486C42.3194 122.475 66.7541 122.459 94.3149 122.443H94.3734L94.4159 122.486C96.6755 124.746 98.9775 127.05 101.311 129.385L101.078 129.481C101.078 127.199 101.078 124.901 101.078 122.581V122.443H101.216C102.082 122.443 102.949 122.443 103.821 122.443C105.527 122.443 107.229 122.443 108.808 122.443L108.67 122.581C108.67 110.915 108.675 99.6642 108.675 89.2961L108.808 89.4291C84.2189 89.3334 63.1017 89.2536 48.1303 89.195C40.6394 89.1578 34.6849 89.1312 30.5965 89.1099C28.5549 89.0993 26.9812 89.0886 25.9073 89.078C25.3757 89.0727 24.9716 89.0674 24.6951 89.0674C24.4134 89.062 24.2751 89.0567 24.2751 89.0567Z" fill="#263238"/>
<path d="M239.7 197.221H193.553V208.808H239.7V197.221Z" fill="#455A64"/>
<path d="M233.081 201.004H204.957V205.026H233.081V201.004Z" fill="#263238"/>
<path d="M201.411 203.249C201.411 204.488 200.406 205.494 199.167 205.494C197.928 205.494 196.924 204.488 196.924 203.249C196.924 202.009 197.928 201.004 199.167 201.004C200.406 201.004 201.411 202.009 201.411 203.249Z" fill="#263238"/>
<path d="M235.277 190.907H198.417V197.174H235.277V190.907Z" fill="#263238"/>
<path d="M244.565 179.326H198.417V190.912H244.565V179.326Z" fill="#F8B814"/>
<path d="M212.469 184.827C212.469 183.194 213.724 182.023 215.414 182.023C216.35 182.023 217.137 182.364 217.647 182.986L216.839 183.731C216.478 183.311 216.02 183.098 215.478 183.098C214.463 183.098 213.745 183.811 213.745 184.832C213.745 185.853 214.468 186.566 215.478 186.566C216.02 186.566 216.478 186.348 216.839 185.923L217.647 186.667C217.137 187.295 216.355 187.635 215.409 187.635C213.724 187.635 212.469 186.465 212.469 184.827Z" fill="white"/>
<path d="M224.208 185.3H222.858V186.619H221.858V185.3H220.518V184.353H221.858V183.034H222.858V184.353H224.208V185.3Z" fill="white"/>
<path d="M228.897 185.3H227.547V186.619H226.547V185.3H225.207V184.353H226.547V183.034H227.547V184.353H228.897V185.3Z" fill="white"/>
<path d="M205.276 190.588C205.201 190.588 205.137 188.066 205.137 184.954C205.137 181.842 205.201 179.321 205.276 179.321C205.35 179.321 205.414 181.842 205.414 184.954C205.414 188.066 205.355 190.588 205.276 190.588Z" fill="#FAFAFA"/>
<path d="M203.272 190.588C203.197 190.588 203.133 188.066 203.133 184.954C203.133 181.842 203.197 179.321 203.272 179.321C203.346 179.321 203.41 181.842 203.41 184.954C203.41 188.066 203.346 190.588 203.272 190.588Z" fill="#FAFAFA"/>
<path d="M237.217 190.588C237.143 190.588 237.079 188.066 237.079 184.954C237.079 181.842 237.143 179.321 237.217 179.321C237.292 179.321 237.356 181.842 237.356 184.954C237.356 188.066 237.292 190.588 237.217 190.588Z" fill="#FAFAFA"/>
<path d="M235.208 190.588C235.133 190.588 235.07 188.066 235.07 184.954C235.07 181.842 235.133 179.321 235.208 179.321C235.282 179.321 235.346 181.842 235.346 184.954C235.346 188.066 235.288 190.588 235.208 190.588Z" fill="#FAFAFA"/>
<path d="M213.665 193.966C213.665 193.232 214.197 192.716 214.931 192.716C215.345 192.716 215.696 192.881 215.893 193.2L215.643 193.37C215.473 193.12 215.212 193.003 214.931 193.003C214.394 193.003 214 193.386 214 193.961C214 194.54 214.394 194.918 214.931 194.918C215.218 194.918 215.478 194.806 215.643 194.556L215.893 194.727C215.696 195.046 215.345 195.211 214.931 195.211C214.202 195.221 213.665 194.7 213.665 193.966Z" fill="#EBEBEB"/>
<path d="M216.207 194.918L216.355 194.658C216.552 194.812 216.882 194.934 217.227 194.934C217.695 194.934 217.887 194.775 217.887 194.53C217.887 193.892 216.292 194.397 216.292 193.423C216.292 193.019 216.637 192.721 217.265 192.721C217.584 192.721 217.929 192.812 218.131 192.95L217.988 193.216C217.775 193.067 217.514 193.003 217.265 193.003C216.823 193.003 216.627 193.179 216.627 193.407C216.627 194.072 218.221 193.572 218.221 194.514C218.221 194.939 217.849 195.216 217.206 195.216C216.797 195.221 216.409 195.088 216.207 194.918Z" fill="#EBEBEB"/>
<path d="M218.493 194.918L218.642 194.658C218.838 194.812 219.168 194.934 219.513 194.934C219.981 194.934 220.173 194.775 220.173 194.53C220.173 193.892 218.578 194.397 218.578 193.423C218.578 193.019 218.923 192.721 219.551 192.721C219.87 192.721 220.215 192.812 220.417 192.95L220.274 193.216C220.061 193.067 219.801 193.003 219.551 193.003C219.104 193.003 218.913 193.179 218.913 193.407C218.913 194.072 220.508 193.572 220.508 194.514C220.508 194.939 220.135 195.216 219.492 195.216C219.083 195.221 218.695 195.088 218.493 194.918Z" fill="#EBEBEB"/>
<path d="M203.84 195.158C204.457 195.158 204.957 194.657 204.957 194.04C204.957 193.423 204.457 192.923 203.84 192.923C203.224 192.923 202.724 193.423 202.724 194.04C202.724 194.657 203.224 195.158 203.84 195.158Z" fill="#EBEBEB"/>
<path d="M231.821 195.158C232.438 195.158 232.938 194.657 232.938 194.04C232.938 193.423 232.438 192.923 231.821 192.923C231.205 192.923 230.705 193.423 230.705 194.04C230.705 194.657 231.205 195.158 231.821 195.158Z" fill="#EBEBEB"/>
<path d="M91.3217 196.62H13.791C10.2661 196.62 7.41113 193.764 7.41113 190.237V141.45C7.41113 137.923 10.2661 135.066 13.791 135.066H91.3217C94.8466 135.066 97.7015 137.923 97.7015 141.45V190.242C97.7015 193.764 94.8466 196.62 91.3217 196.62Z" fill="#263238"/>
<path d="M37.4654 181.991L32.4731 210.308H55.9296L60.1722 181.411L37.4654 181.991Z" fill="#455A64"/>
<path d="M87.7385 196.62H10.2077C6.68285 196.62 3.82788 193.764 3.82788 190.237V141.45C3.82788 137.923 6.68285 135.066 10.2077 135.066H87.7385C91.2633 135.066 94.1183 137.923 94.1183 141.45V190.242C94.1183 193.764 91.258 196.62 87.7385 196.62Z" fill="#455A64"/>
<path d="M57.9395 196.62L60.1724 181.411L60.7997 196.62H57.9395Z" fill="#263238"/>
<path d="M37.593 180.417C37.6674 180.427 37.0985 184.199 36.3276 188.832C35.5514 193.471 34.8603 197.216 34.7858 197.205C34.7114 197.195 35.2803 193.423 36.0565 188.79C36.8274 184.151 37.5185 180.406 37.593 180.417Z" fill="#263238"/>
<path d="M51.9319 163.713C51.9319 165.346 50.6081 166.676 48.9706 166.676C47.3384 166.676 46.0093 165.352 46.0093 163.713C46.0093 162.08 47.3331 160.75 48.9706 160.75C50.6081 160.75 51.9319 162.08 51.9319 163.713Z" fill="#FAFAFA"/>
<path d="M48.9758 166.687C47.3384 166.687 46.0039 165.351 46.0039 163.713C46.0039 162.074 47.3384 160.739 48.9758 160.739C50.6133 160.739 51.9478 162.074 51.9478 163.713C51.9478 165.351 50.6133 166.687 48.9758 166.687ZM48.9758 160.766C47.3543 160.766 46.0305 162.09 46.0305 163.713C46.0305 165.335 47.3543 166.66 48.9758 166.66C50.5974 166.66 51.9212 165.341 51.9212 163.713C51.9212 162.085 50.5974 160.766 48.9758 160.766Z" fill="#263238"/>
<path d="M26.423 153.387C26.423 153.387 27.8159 151.419 27.3427 149.238C27.3481 149.238 27.3534 149.243 27.3587 149.243C27.3587 149.243 27.3534 148.536 26.2954 147.147C25.9445 146.685 25.5192 146.275 25.1151 145.935C24.7483 145.615 24.3442 145.317 23.9083 145.057C23.7647 144.966 23.6743 144.919 23.6743 144.919C23.6743 144.919 23.6743 144.919 23.6743 144.924C22.2442 144.131 20.4951 143.727 18.528 144.152C17.1988 144.44 15.9707 145.105 15.0456 146.099C14.7426 146.424 14.4555 146.796 14.2428 147.201C13.6102 148.419 12.5788 150.632 13.4666 153.371C13.5092 153.51 13.557 153.648 13.6102 153.781C13.6155 153.797 13.6261 153.813 13.6314 153.834C13.6527 153.882 13.6687 153.925 13.6899 153.973C13.7059 154.01 13.7218 154.036 13.7378 154.068C13.7856 154.175 13.8282 154.281 13.8813 154.393C14.0195 154.68 14.1684 154.93 14.3173 155.164C14.6788 155.755 14.9074 155.967 14.9074 155.967V155.962C16.1993 157.414 17.6667 157.484 18.5439 157.393C18.8523 157.851 19.2776 158.335 19.7826 158.452C20.8034 158.68 22.4781 158.17 23.685 157.515C24.8971 156.861 26.6356 155.632 26.6091 154.568C26.6037 154.164 26.524 153.754 26.423 153.387Z" fill="#263238"/>
<path d="M17.4062 144.142C16.077 144.429 14.8489 145.094 13.9239 146.089C13.6208 146.413 13.3337 146.786 13.1211 147.19C12.414 148.552 11.1912 151.174 12.7542 154.377C14.312 157.579 16.614 157.494 17.6614 157.351C18.7034 157.207 25.3065 153.382 25.3065 153.382C25.3065 153.382 27.3268 150.536 25.684 147.892C24.2698 145.626 21.2553 143.317 17.4062 144.142Z" fill="#F8B814"/>
<path d="M16.9224 156.467C16.9224 156.467 17.6348 158.212 18.6609 158.441C19.6816 158.67 21.3563 158.159 22.5632 157.505C23.7754 156.85 25.5139 155.622 25.4873 154.558C25.4607 153.499 24.9556 152.323 24.7802 152.228C24.5994 152.132 22.3452 151.52 19.8996 152.999C17.454 154.478 16.9224 156.467 16.9224 156.467Z" fill="#F5F5F5"/>
<g opacity="0.4">
<path d="M20.4951 146.371C21.4148 148.078 20.7768 150.212 19.0702 151.132C17.3636 152.052 15.2317 151.414 14.312 149.706C13.3922 147.999 14.0302 145.865 15.7368 144.945C17.4487 144.019 19.5753 144.658 20.4951 146.371Z" fill="white"/>
</g>
<g opacity="0.4">
<path d="M13.7803 155.957C14.2057 154.994 14.3439 153.824 14.0143 152.823C13.6846 151.823 12.9775 150.946 12.0631 150.419C12.0631 150.419 11.9036 152.51 12.5629 153.962C13.2646 155.505 13.7803 155.957 13.7803 155.957Z" fill="white"/>
</g>
<g opacity="0.4">
<path d="M26.237 149.238C25.1949 149.062 24.1476 148.536 23.4936 147.711C22.8344 146.887 22.4941 145.966 22.5526 144.913C22.5526 144.913 24.1741 145.817 25.1736 147.142C26.2316 148.53 26.237 149.238 26.237 149.238Z" fill="white"/>
</g>
<path d="M16.9382 156.446C16.9648 156.59 16.9861 156.733 17.0658 156.851C17.1456 156.968 17.2891 157.058 17.4274 157.026C17.5762 156.989 17.6613 156.84 17.7357 156.702C18.4641 155.318 19.6018 154.153 20.9628 153.387C21.5158 153.079 22.1218 152.829 22.7545 152.808C23.3287 152.786 23.8922 152.951 24.4611 152.983C24.6046 152.988 24.7588 152.988 24.8917 152.919C25.0247 152.855 25.014 152.706 24.9821 152.563C24.9449 152.393 24.8386 152.254 24.7801 152.228C23.2702 151.605 21.3988 152.063 19.9899 152.877C18.5757 153.701 17.656 154.983 16.9382 156.446Z" fill="#E0E0E0"/>
<path d="M128.218 205.185H76.8555V208.808H128.218V205.185Z" fill="#455A64"/>
<path d="M71.2466 208.807H60.4541V207.919C60.4541 205.642 62.2989 203.791 64.5797 203.791H67.1263C69.4018 203.791 71.2519 205.637 71.2519 207.919V208.807H71.2466Z" fill="#455A64"/>
<path d="M71.0872 207.68C71.0872 207.755 68.7586 207.818 65.8824 207.818C63.0061 207.818 60.6775 207.755 60.6775 207.68C60.6775 207.606 63.0061 207.542 65.8824 207.542C68.7533 207.542 71.0872 207.6 71.0872 207.68Z" fill="#263238"/>
<path d="M65.9672 203.749C66.0417 203.749 66.0842 204.6 66.0523 205.659C66.0257 206.712 65.9407 207.563 65.8609 207.558C65.7865 207.552 65.744 206.696 65.7759 205.648C65.8024 204.605 65.8875 203.754 65.9672 203.749Z" fill="#263238"/>
<path d="M247 208.808H0V216H247V208.808Z" fill="#263238"/>
</g>
<defs>
<clipPath id="clip0_724_11929">
<rect width="247" height="216" fill="white"/>
</clipPath>
</defs>
</svg>
