<svg width="36" height="36" viewBox="0 0 36 36" fill="none" xmlns="http://www.w3.org/2000/svg">
<rect width="36" height="36" rx="10" fill="#FCCA49"/>
<path d="M17.3 26C17.4 26.3333 17.5377 26.6793 17.713 27.038C17.8883 27.3967 18.0673 27.7173 18.25 28H11C10.45 28 9.979 27.804 9.587 27.412C9.195 27.02 8.99934 26.5493 9 26V10C9 9.45 9.196 8.979 9.588 8.587C9.98 8.195 10.4507 7.99934 11 8H23C23.55 8 24.021 8.196 24.413 8.588C24.805 8.98 25.0007 9.45067 25 10V17.1C24.7 17.0667 24.3667 17.05 24 17.05C23.6333 17.05 23.3 17.0667 23 17.1V10H18V17L15.5 15.5L13 17V10H11V26H17.3ZM24 29C22.6167 29 21.4373 28.5123 20.462 27.537C19.4867 26.5617 18.9993 25.3827 19 24C19 22.6167 19.4877 21.4373 20.463 20.462C21.4383 19.4867 22.6173 18.9993 24 19C25.3833 19 26.5627 19.4877 27.538 20.463C28.5133 21.4383 29.0007 22.6173 29 24C29 25.3833 28.5123 26.5627 27.537 27.538C26.5617 28.5133 25.3827 29.0007 24 29ZM22.75 26.5L26.75 24L22.75 21.5V26.5ZM17.3 10H11H23H17H17.3Z" fill="#121212"/>
</svg>
