<svg width="36" height="36" viewBox="0 0 36 36" fill="none" xmlns="http://www.w3.org/2000/svg">
<rect width="36" height="36" rx="10" fill="#FCCA49"/>
<path d="M10.7279 22.137C9.18287 20.591 8.40987 19.819 8.12287 18.816C7.83487 17.813 8.08087 16.748 8.57287 14.619L8.85587 13.391C9.26887 11.599 9.47587 10.703 10.0889 10.089C10.7029 9.476 11.5989 9.269 13.3909 8.856L14.6189 8.572C16.7489 8.081 17.8129 7.835 18.8159 8.122C19.8189 8.41 20.5909 9.183 22.1359 10.728L23.9659 12.558C26.6569 15.248 27.9999 16.592 27.9999 18.262C27.9999 19.933 26.6549 21.277 23.9659 23.966C21.2769 26.657 19.9329 28 18.2619 28C16.5919 28 15.2469 26.655 12.5579 23.966L10.7279 22.137Z" stroke="#121212" stroke-width="2"/>
<path d="M21.3899 21.39C21.9749 20.803 22.0539 19.933 21.5659 19.444C21.0779 18.956 20.2069 19.035 19.6209 19.621C19.0359 20.207 18.1649 20.286 17.6769 19.798C17.1889 19.31 17.2679 18.439 17.8539 17.854M17.8539 17.854L17.4999 17.5M17.8539 17.854C18.1849 17.522 18.6069 17.354 18.9999 17.357M21.7429 21.743L21.3889 21.389C20.9889 21.79 20.4539 21.954 19.9999 21.86" stroke="#121212" stroke-width="2" stroke-linecap="round"/>
<path d="M15.021 15.2932C15.802 14.5122 15.802 13.2459 15.021 12.4648C14.2399 11.6838 12.9736 11.6838 12.1925 12.4648C11.4115 13.2459 11.4115 14.5122 12.1925 15.2932C12.9736 16.0743 14.2399 16.0743 15.021 15.2932Z" stroke="#121212" stroke-width="2"/>
</svg>
