<svg width="790" height="416" viewBox="0 0 790 416" fill="none" xmlns="http://www.w3.org/2000/svg">
<g clip-path="url(#clip0_649_943)">
<path d="M785.087 68.4981C785.087 68.4981 775.535 62.6631 764.978 85.4081C754.41 108.153 750.571 121.185 750.571 121.185C750.571 121.185 747.737 125.978 744.412 123.027C741.087 120.086 736.38 111.563 730.987 113.324C725.389 115.144 723.755 121.539 725.16 130.795C726.577 140.051 728.931 160.439 729.136 162.281C729.342 164.089 728.394 166.8 725.811 165.164C723.229 163.517 708.148 147.877 701.167 155.485C694.186 163.093 702.355 188.23 703.189 190.987C704.034 193.756 703.532 194.968 702.229 195.701C700.927 196.444 696.356 190.701 691.889 186.433C687.422 182.154 681.48 177.99 677.824 182.715C674.157 187.44 673.62 206.547 692.849 236.843L702.675 250.298L719.322 248.765C754.752 243.319 768.76 230.345 769.903 224.464C771.045 218.594 764.007 216.867 757.849 216.306C751.69 215.746 744.366 216.077 744.069 214.613C743.772 213.148 744.355 211.97 746.983 210.78C749.611 209.59 773.89 199.213 775.01 188.939C776.129 178.665 754.444 177.589 751.507 176.72C748.571 175.85 749.988 173.356 751.485 172.315C753.004 171.251 769.891 159.615 777.775 154.593C785.658 149.57 789.394 144.124 787.075 138.701C784.847 133.472 775.341 135.532 770.942 134.96C766.543 134.388 768.28 129.102 768.28 129.102C768.28 129.102 775.547 117.626 785.704 94.6869C795.85 71.7474 784.893 68.3608 784.893 68.3608" fill="#F5F5F5"/>
<path d="M775.592 88.8521C775.592 88.8521 775.535 89.0237 775.41 89.344C775.261 89.6872 775.067 90.1563 774.816 90.7627C774.267 92.0327 773.479 93.8633 772.462 96.2087C770.417 100.934 767.389 107.753 763.63 116.151C756.112 132.969 745.532 156.103 733.764 181.617C721.995 207.142 711.358 230.253 703.749 247.026C699.955 255.401 696.893 262.185 694.757 266.899C693.706 269.222 692.883 271.041 692.312 272.299C692.038 272.894 691.821 273.363 691.661 273.695C691.512 274.004 691.421 274.164 691.421 274.164C691.421 274.164 691.478 273.993 691.603 273.672C691.752 273.329 691.946 272.86 692.198 272.254C692.746 270.984 693.534 269.153 694.551 266.808C696.596 262.082 699.613 255.263 703.383 246.866C710.901 230.047 721.481 206.913 733.249 181.388C745.018 155.874 755.655 132.763 763.264 115.99C767.058 107.616 770.12 100.831 772.256 96.1172C773.307 93.7946 774.141 91.9755 774.713 90.717C774.987 90.122 775.204 89.6529 775.364 89.3211C775.501 89.0008 775.592 88.8521 775.592 88.8521Z" fill="#E0E0E0"/>
<path d="M737.088 125.51C737.123 125.498 737.294 125.899 737.557 126.619C737.831 127.34 738.185 128.404 738.619 129.72C739.476 132.351 740.55 136.024 741.67 140.097C742.755 144.101 743.738 147.728 744.492 150.531C744.835 151.767 745.12 152.82 745.36 153.689C745.566 154.433 745.669 154.856 745.623 154.867C745.589 154.879 745.418 154.49 745.143 153.758C744.881 153.025 744.515 151.973 744.104 150.646C743.281 148.003 742.241 144.319 741.122 140.246C740.013 136.241 739.008 132.626 738.231 129.834C737.888 128.599 737.591 127.546 737.351 126.677C737.145 125.944 737.054 125.521 737.088 125.51Z" fill="#E0E0E0"/>
<path d="M747.166 155.107C747.12 154.959 754.569 152.384 763.813 149.364C773.056 146.332 780.597 144.009 780.643 144.158C780.688 144.307 773.239 146.881 763.996 149.902C754.752 152.922 747.211 155.256 747.166 155.107Z" fill="#E0E0E0"/>
<path d="M727.32 193.493C727.32 193.458 727.754 193.412 728.542 193.378C729.456 193.344 730.564 193.309 731.878 193.264C734.7 193.161 738.585 193.012 742.87 192.692C747.154 192.383 751.028 191.959 753.827 191.639C755.129 191.49 756.238 191.364 757.14 191.262C757.929 191.181 758.363 191.147 758.363 191.193C758.374 191.227 757.94 191.33 757.163 191.479C756.386 191.628 755.266 191.822 753.861 192.028C751.073 192.451 747.189 192.932 742.893 193.241C738.597 193.561 734.689 193.653 731.867 193.653C730.45 193.641 729.308 193.63 728.519 193.584C727.765 193.561 727.32 193.527 727.32 193.493Z" fill="#E0E0E0"/>
<path d="M712.329 168.722C712.364 168.699 712.603 169.02 713.026 169.626C713.438 170.233 714.02 171.102 714.74 172.2C716.168 174.386 718.099 177.429 720.201 180.804C722.304 184.179 724.189 187.257 725.526 189.499C726.2 190.621 726.725 191.536 727.08 192.165C727.434 192.806 727.617 193.161 727.582 193.184C727.548 193.206 727.308 192.886 726.885 192.28C726.474 191.673 725.891 190.804 725.172 189.705C723.743 187.52 721.812 184.477 719.71 181.09C717.608 177.715 715.723 174.637 714.386 172.395C713.723 171.274 713.186 170.358 712.832 169.729C712.478 169.1 712.295 168.745 712.329 168.722Z" fill="#E0E0E0"/>
<path d="M690.507 200.369C690.541 200.346 690.849 200.769 691.375 201.536C691.958 202.405 692.7 203.515 693.58 204.831C695.419 207.622 697.922 211.501 700.664 215.814C703.406 220.116 705.862 224.04 707.611 226.889C708.433 228.251 709.119 229.383 709.667 230.276C710.136 231.088 710.387 231.534 710.353 231.557C710.318 231.58 710.01 231.157 709.484 230.39C708.902 229.521 708.159 228.411 707.279 227.095C705.44 224.303 702.938 220.425 700.195 216.112C697.453 211.81 694.997 207.897 693.249 205.048C692.426 203.686 691.741 202.554 691.192 201.661C690.724 200.849 690.472 200.391 690.507 200.369Z" fill="#E0E0E0"/>
<path d="M710.101 230.676C710.101 230.642 710.65 230.573 711.655 230.505C712.763 230.425 714.18 230.322 715.883 230.207C719.447 229.956 724.383 229.589 729.81 229.029C735.237 228.48 740.139 227.862 743.692 227.381C745.383 227.153 746.8 226.969 747.897 226.832C748.891 226.706 749.439 226.649 749.451 226.695C749.462 226.729 748.914 226.855 747.931 227.05C746.949 227.244 745.52 227.496 743.75 227.782C740.219 228.354 735.306 229.04 729.867 229.589C724.429 230.15 719.482 230.448 715.906 230.596C714.112 230.665 712.672 230.711 711.667 230.711C710.65 230.722 710.101 230.711 710.101 230.676Z" fill="#E0E0E0"/>
<path d="M104.709 181.182C131.364 163.368 137.865 129.662 137.294 99.2746C137.203 94.1947 137.843 88.8631 135.478 84.3782C133.101 79.8933 127.457 76.7698 122.829 78.8407C118.99 80.5569 117.265 84.9159 115.072 88.5084C112.158 93.2908 107.873 97.2152 102.858 99.6864C99.5671 101.311 95.511 102.272 92.3119 100.464C87.9245 97.9817 87.4903 91.9408 87.6046 86.8952C87.8102 77.5021 88.0159 68.0975 88.2215 58.7043C88.3358 53.6587 88.4272 48.5102 86.919 43.7049C85.4109 38.8997 81.9718 34.3918 77.1388 32.9846C72.3058 31.5659 66.2617 34.2431 65.1534 39.1628C64.6964 41.2108 65.0849 43.3503 64.9135 45.444C64.7421 47.5377 63.7138 49.8374 61.6915 50.3866C59.6463 50.9472 57.624 49.4827 56.1272 47.9839C50.9401 42.8125 47.4667 36.1995 44.2333 29.6209C40.9884 23.0422 37.8578 16.3263 33.1619 10.6972C28.466 5.06819 21.9306 0.571819 14.6297 0.0569676C7.3174 -0.480766 -0.531939 3.86687 -2.49713 10.9261C-4.46232 18.0081 -0.371982 25.2847 4.10682 31.1082C10.7451 39.7463 18.6515 47.4233 27.472 53.8075C29.0602 54.963 30.7854 56.2101 31.3796 58.0865C32.4307 61.4616 29.163 64.7566 25.781 65.8092C21.9535 66.9991 17.8403 66.5529 13.8528 66.9533C9.86529 67.3538 5.52359 69.0242 3.96972 72.7197C1.79887 77.8453 6.08344 83.3142 10.3109 86.9181C18.8001 94.1375 28.5232 99.8809 38.9318 103.828C42.668 105.247 46.5984 106.494 49.5804 109.148C52.5625 111.803 54.322 116.356 52.4368 119.88C50.5516 123.415 45.8443 124.479 41.9139 123.701C37.9949 122.923 34.5102 120.761 30.7854 119.308C23.8159 116.585 14.744 116.928 10.1624 122.855C7.14602 126.745 6.80325 132.225 8.22001 136.939C9.63678 141.653 12.6074 145.737 15.7609 149.513C26.7979 162.716 41.0227 173.425 57.2012 179.237C73.4026 185.049 88.4501 186.788 104.709 181.182Z" fill="#EBEBEB"/>
<path d="M102.618 181.777C98.3334 166.388 86.5879 130.166 79.5955 113.13C77.836 108.885 76.0879 104.675 74.3626 100.533C72.6374 96.4029 70.9349 92.307 69.004 88.4056C65.1993 80.5798 60.9262 73.349 56.6645 66.6102C52.4027 59.8599 48.1067 53.613 44.0393 47.8009C39.9604 41.9888 36.0642 36.6458 32.3052 31.9321C24.8101 22.4702 17.8634 15.5484 12.8933 10.9833C10.4139 8.69511 8.43733 6.97894 7.07769 5.83482C6.41501 5.28565 5.90086 4.85089 5.53524 4.54197C5.18105 4.25595 4.98682 4.11865 4.98682 4.11865C4.98682 4.11865 5.14677 4.29027 5.47811 4.59918C5.84373 4.93097 6.33503 5.37718 6.97486 5.94924C8.30022 7.13911 10.2426 8.87817 12.6876 11.2007C17.5892 15.8229 24.4559 22.7792 31.8825 32.2639C35.6072 36.9891 39.4805 42.3435 43.5251 48.1671C47.5698 54.002 51.8429 60.2489 56.0818 66.9992C60.3206 73.738 64.5595 80.9574 68.3528 88.7488C70.2608 92.6388 71.9518 96.7004 73.6771 100.842C75.3909 104.984 77.139 109.183 78.8985 113.427C85.891 130.452 97.6364 166.629 101.955 181.971" fill="#E0E0E0"/>
<path d="M68.8209 88.3367C68.8781 88.3481 69.0494 87.5816 69.3237 86.1858C69.5979 84.7899 69.9406 82.7649 70.3291 80.2592C71.1175 75.248 71.9629 68.2918 72.8884 60.6148C73.8139 52.9378 74.7851 46.0159 75.6762 41.0276C76.1104 38.5334 76.4875 36.5197 76.7731 35.1354C77.0473 33.751 77.173 32.973 77.1273 32.9616C77.0816 32.9501 76.8531 33.7052 76.4875 35.0782C76.1104 36.4511 75.6534 38.4533 75.1507 40.936C74.1224 45.9129 73.0598 52.8463 72.1343 60.5347C71.2317 68.1431 70.4091 75.0306 69.7921 80.1906C69.4836 82.5932 69.2208 84.5954 69.0152 86.14C68.8438 87.5473 68.7752 88.3252 68.8209 88.3367Z" fill="#E0E0E0"/>
<path d="M3.39844 75.2366C3.39844 75.2595 3.62695 75.3053 4.07254 75.351C4.60954 75.4082 5.24937 75.4654 6.01488 75.5455C7.69443 75.7057 10.1281 75.9345 13.133 76.3121C19.1314 77.0214 27.392 78.3143 36.4296 80.1334C45.4672 81.9755 53.5793 83.9891 59.4064 85.6366C62.3199 86.4375 64.6621 87.1468 66.2845 87.6274C67.0272 87.8448 67.6442 88.0278 68.1583 88.1766C68.5925 88.291 68.821 88.3482 68.8324 88.3138C68.8438 88.291 68.6268 88.188 68.2154 88.0278C67.7127 87.8448 67.1072 87.6159 66.3874 87.3413C64.7992 86.7693 62.4684 85.9799 59.5663 85.1103C53.7736 83.3369 45.6615 81.2318 36.5896 79.3783C27.5291 77.5477 19.2342 76.3464 13.2015 75.7629C10.1852 75.454 7.74014 75.3053 6.04916 75.2252C5.27222 75.2023 4.63239 75.1909 4.09539 75.168C3.63837 75.2023 3.40986 75.2137 3.39844 75.2366Z" fill="#E0E0E0"/>
<path d="M96.2878 160.816C96.3106 160.828 96.4592 160.553 96.7334 160.027C97.0304 159.421 97.4075 158.643 97.8759 157.693C98.8585 155.668 100.218 152.693 101.852 148.998C105.12 141.607 109.313 131.275 113.803 119.8C118.293 108.324 122.407 97.9702 125.537 90.5335C127.091 86.8952 128.359 83.9091 129.285 81.7467C129.696 80.7742 130.039 79.9733 130.302 79.3555C130.53 78.8063 130.633 78.5089 130.61 78.4974C130.587 78.486 130.439 78.7606 130.164 79.2869C129.867 79.8932 129.49 80.6712 129.022 81.6208C128.039 83.6459 126.68 86.6206 125.046 90.3161C121.778 97.7071 117.585 108.038 113.095 119.514C108.604 130.978 104.491 141.344 101.361 148.769C99.8068 152.407 98.5386 155.393 97.6131 157.556C97.2018 158.54 96.8591 159.329 96.5963 159.947C96.3678 160.508 96.2649 160.805 96.2878 160.816Z" fill="#E0E0E0"/>
<path d="M9.53401 131.745C9.52258 131.767 9.81965 131.893 10.4023 132.099C11.0536 132.317 11.8877 132.603 12.9274 132.957C15.2125 133.724 18.3659 134.776 22.2278 136.058C30.0771 138.689 40.8742 142.453 52.791 146.641C64.7079 150.828 75.5393 154.524 83.4457 157.018C87.399 158.265 90.5981 159.249 92.8261 159.89C93.8772 160.187 94.7342 160.427 95.3968 160.611C95.991 160.771 96.2994 160.839 96.3109 160.816C96.3223 160.794 96.0252 160.668 95.4425 160.462C94.7913 160.244 93.9572 159.958 92.9175 159.604C90.6324 158.837 87.4789 157.785 83.6171 156.503C75.7678 153.872 64.9707 150.108 53.0538 145.92C41.137 141.733 30.3056 138.049 22.4106 135.543C18.4573 134.296 15.2582 133.312 13.0302 132.671C11.9791 132.374 11.1222 132.134 10.4595 131.95C9.85392 131.79 9.54543 131.722 9.53401 131.745Z" fill="#E0E0E0"/>
<path d="M543.414 4.91992H650.929H687.467L659.281 24.9877V41.7375C659.281 58.842 645.227 72.7087 627.895 72.7087H537.507C520.175 72.7087 506.121 58.842 506.121 41.7375C506.099 21.3952 522.803 4.91992 543.414 4.91992Z" fill="#F5F5F5"/>
<path d="M634.978 27.3102C634.978 27.4703 610.928 27.6076 581.267 27.6076C551.595 27.6076 527.556 27.4703 527.556 27.3102C527.556 27.15 551.595 27.0127 581.267 27.0127C610.928 27.0127 634.978 27.15 634.978 27.3102Z" fill="#E0E0E0"/>
<path d="M634.978 38.4537C634.978 38.6139 610.928 38.7512 581.267 38.7512C551.595 38.7512 527.556 38.6139 527.556 38.4537C527.556 38.2935 551.595 38.1562 581.267 38.1562C610.928 38.1562 634.978 38.2935 634.978 38.4537Z" fill="#E0E0E0"/>
<path d="M324.878 348.211H190.434H154.432L182.196 368.279V407.751C182.196 412.305 185.887 415.989 190.423 415.989H324.878C329.425 415.989 333.105 412.293 333.105 407.751V356.46C333.116 351.907 329.425 348.211 324.878 348.211Z" fill="#F5F5F5"/>
<path d="M317.771 376.116C317.771 376.276 292.064 376.414 260.358 376.414C228.641 376.414 202.945 376.276 202.945 376.116C202.945 375.956 228.652 375.819 260.358 375.819C292.064 375.819 317.771 375.945 317.771 376.116Z" fill="#E0E0E0"/>
<path d="M317.771 391.264C317.771 391.424 292.064 391.562 260.358 391.562C228.641 391.562 202.945 391.424 202.945 391.264C202.945 391.104 228.652 390.967 260.358 390.967C292.064 390.967 317.771 391.104 317.771 391.264Z" fill="#E0E0E0"/>
<path d="M672.888 405.028H473.399C448.925 405.028 429.079 385.155 429.079 360.648V198.069C429.079 173.562 448.925 153.689 473.399 153.689H672.888C697.362 153.689 717.208 173.562 717.208 198.069V360.659C717.208 385.155 697.362 405.028 672.888 405.028Z" fill="#E8505B"/>
<g opacity="0.4">
<path d="M672.888 405.028H473.399C448.925 405.028 429.079 385.155 429.079 360.648V198.069C429.079 173.562 448.925 153.689 473.399 153.689H672.888C697.362 153.689 717.208 173.562 717.208 198.069V360.659C717.208 385.155 697.362 405.028 672.888 405.028Z" fill="#FCCA49"/>
</g>
<path d="M717.128 241.317H760.282L716.157 285.503L717.128 241.317Z" fill="#E8505B"/>
<g opacity="0.4">
<path d="M717.128 241.317H760.282L716.157 285.503L717.128 241.317Z" fill="#FCCA49"/>
</g>
<path d="M422.189 268.478L404.103 247.93C399.213 243.033 397.533 240.665 398.516 239.807C399.818 238.662 399.258 239.04 409.416 246.683C409.416 246.683 395.02 235.653 400.012 235.585C400.892 235.573 403.337 237.003 405.954 238.72C402.389 235.688 401.406 233.64 402.08 232.667C403.246 230.985 412.055 237.095 416.1 240.047C412.786 237.576 406.468 232.77 405.348 231.271C403.829 229.212 406.913 229.384 409.427 230.242C412.249 231.203 427.845 239.177 432.461 241.237C435.637 242.655 436.757 239.772 436.757 239.772C438.459 232.622 443.601 227.954 445.577 227.347C447.565 226.741 449.062 229.269 447.657 231.088C446.526 232.564 445.383 235.585 444.618 237.884C443.989 239.784 443.658 241.763 443.692 243.754C443.727 246.065 443.852 248.021 444.001 249.68L460.522 272.391L432.872 288.443L422.189 268.478Z" fill="#B78876"/>
<path d="M415.688 249.841C415.505 250.104 412.283 247.884 408.513 244.898C404.731 241.912 401.84 239.292 402.057 239.052C402.263 238.811 405.485 241.019 409.233 243.994C412.98 246.957 415.882 249.577 415.688 249.841Z" fill="#AA6550"/>
<path d="M419.219 246.225C419.036 246.488 415.483 244.326 411.278 241.386C407.073 238.457 403.817 235.86 404 235.596C404.183 235.333 407.736 237.496 411.941 240.436C416.134 243.376 419.402 245.962 419.219 246.225Z" fill="#AA6550"/>
<path d="M421.778 242.381C421.595 242.644 418.202 240.653 414.18 237.93C410.17 235.207 407.05 232.782 407.233 232.518C407.416 232.255 410.809 234.246 414.831 236.969C418.842 239.692 421.949 242.118 421.778 242.381Z" fill="#AA6550"/>
<path d="M445.555 252.804L511.457 336.484L496.364 371.666C496.364 371.666 478.289 367.661 472.805 360.03C467.32 352.399 422.189 268.467 422.189 268.467L445.555 252.804Z" fill="#B78876"/>
<path d="M612.847 135.703C617.589 139.822 617.577 147.076 617.029 153.334C616.481 159.592 616.069 166.72 620.388 171.274C623.953 175.026 630.431 176.662 631.265 181.777C631.654 184.156 630.408 186.731 628.283 187.886C626.169 189.053 623.336 188.721 621.531 187.12C622.925 191.158 621.965 196.204 618.469 198.652C614.972 201.101 609.123 199.59 608.037 195.46C608.7 198.195 606.7 201.272 603.935 201.776C601.17 202.279 598.211 200.105 597.868 197.314" fill="#263238"/>
<path d="M544.945 177.944C543.768 181.068 539.792 182.772 536.719 181.491C533.645 180.21 532.069 176.171 533.463 173.139C534.548 170.759 537.119 169.043 537.37 166.434C537.667 163.277 534.457 161.034 531.6 159.661C528.744 158.288 525.419 156.504 525.111 153.346C524.813 150.302 527.533 147.934 529.806 145.898C532.08 143.861 534.331 140.715 532.926 137.992C532.206 136.607 530.709 135.807 529.749 134.571C527.613 131.848 528.732 127.512 531.452 125.372C534.171 123.233 537.953 122.935 541.358 123.553C544.762 124.171 547.962 125.578 551.286 126.562C562.221 129.823 574.514 128.21 584.238 122.237" fill="#263238"/>
<path d="M565.18 251.728C577.462 254.211 589.47 246.374 592.133 234.109L608.345 159.673C612.607 141.561 601.102 123.507 582.912 119.743L581.21 119.491C564.083 116.974 547.904 128.061 544.031 144.948C540.421 160.657 536.639 178.07 535.496 186.617C533.131 204.305 550.372 209.648 550.372 209.648L547.276 224.556C544.682 237.003 552.715 249.2 565.18 251.728Z" fill="#B78876"/>
<path d="M547.196 156.618C546.956 157.945 547.87 159.238 549.253 159.524C550.624 159.798 551.938 158.952 552.177 157.636C552.417 156.309 551.503 155.016 550.121 154.73C548.75 154.444 547.436 155.29 547.196 156.618Z" fill="#263238"/>
<path d="M546.545 154.146C546.808 154.524 548.921 153.391 551.629 153.792C554.337 154.158 556.131 155.84 556.474 155.554C556.645 155.428 556.405 154.787 555.639 154.032C554.874 153.277 553.514 152.453 551.823 152.213C550.132 151.973 548.624 152.384 547.71 152.911C546.785 153.426 546.419 153.975 546.545 154.146Z" fill="#263238"/>
<path d="M573.692 161.022C573.452 162.35 574.366 163.642 575.748 163.929C577.119 164.203 578.433 163.356 578.673 162.041C578.913 160.714 577.999 159.421 576.617 159.135C575.246 158.849 573.932 159.695 573.692 161.022Z" fill="#263238"/>
<path d="M573.12 158.563C573.383 158.94 575.497 157.808 578.205 158.208C580.913 158.574 582.706 160.256 583.049 159.97C583.209 159.844 582.992 159.204 582.204 158.448C581.438 157.693 580.079 156.87 578.388 156.629C576.697 156.389 575.188 156.801 574.274 157.327C573.349 157.842 572.983 158.391 573.12 158.563Z" fill="#263238"/>
<path d="M560.335 177.246C560.37 177.097 558.724 176.56 556.051 175.804C555.365 175.633 554.737 175.393 554.691 174.912C554.6 174.386 555 173.688 555.457 172.921C556.348 171.342 557.296 169.683 558.279 167.944C562.22 160.851 565.18 154.97 564.894 154.81C564.608 154.65 561.181 160.279 557.239 167.372C556.279 169.123 555.377 170.793 554.497 172.395C554.12 173.139 553.537 173.974 553.743 175.061C553.857 175.61 554.303 176.056 554.737 176.239C555.159 176.445 555.548 176.502 555.891 176.571C558.599 177.132 560.301 177.395 560.335 177.246Z" fill="#263238"/>
<path d="M573.966 147.819C574.126 148.597 576.879 148.643 580.01 149.49C583.152 150.279 585.574 151.584 586.1 150.989C586.34 150.703 585.986 149.936 585.06 149.078C584.135 148.208 582.592 147.293 580.718 146.801C578.845 146.309 577.051 146.355 575.817 146.664C574.583 146.961 573.909 147.453 573.966 147.819Z" fill="#263238"/>
<path d="M548.693 146.435C549.081 147.122 551.035 146.756 553.286 147.053C555.548 147.27 557.376 148.071 557.902 147.499C558.142 147.213 557.925 146.55 557.182 145.852C556.451 145.154 555.148 144.479 553.594 144.296C552.04 144.124 550.624 144.479 549.755 144.994C548.876 145.508 548.521 146.103 548.693 146.435Z" fill="#263238"/>
<path d="M592.03 137.499C592.064 137.534 592.087 137.557 592.11 137.591C594.589 140.222 595.983 143.712 595.949 147.327C595.949 147.453 595.949 147.579 595.949 147.694C595.903 152.831 595.023 157.933 595.035 163.082C595.035 168.219 596.029 173.596 599.239 177.601C600.553 179.248 603.113 180.633 604.621 179.145C605.203 178.573 605.409 177.727 605.592 176.926C608.311 164.901 613.201 154.593 615.041 141.87C615.544 138.403 614.39 134.925 611.876 132.488C609.499 130.189 606.54 127.74 603.375 128.701C600.21 129.674 595.572 134.651 592.944 136.664" fill="#263238"/>
<path d="M601.227 166.789C601.547 166.697 613.875 164.981 611.716 176.994C609.568 189.007 597.96 184.374 598.005 184.019C598.04 183.676 601.227 166.789 601.227 166.789Z" fill="#B78876"/>
<path d="M602.484 180.129C602.541 180.095 602.667 180.312 602.987 180.541C603.307 180.759 603.878 180.976 604.541 180.85C605.889 180.61 607.317 178.791 607.763 176.628C607.991 175.541 607.945 174.454 607.717 173.528C607.511 172.578 607.054 171.869 606.437 171.64C605.832 171.377 605.306 171.686 605.1 171.995C604.883 172.304 604.918 172.555 604.849 172.567C604.815 172.59 604.632 172.315 604.815 171.846C604.906 171.617 605.101 171.354 605.42 171.182C605.752 170.999 606.197 170.953 606.632 171.079C607.546 171.308 608.231 172.315 608.482 173.333C608.791 174.374 608.859 175.587 608.608 176.811C608.094 179.214 606.449 181.262 604.632 181.456C603.752 181.525 603.09 181.148 602.781 180.793C602.45 180.427 602.438 180.141 602.484 180.129Z" fill="#AA6550"/>
<path d="M603.501 130.635C607.18 126.242 600.062 118.107 594.383 115.361C588.705 112.615 580.444 114.366 574.229 115.464C570.31 116.162 566.334 117.34 562.426 116.608C559.81 116.116 557.433 114.777 555.068 113.542C552.703 112.295 550.235 111.093 547.573 110.888C544.911 110.682 541.997 111.688 540.638 113.988C539.278 116.288 540.226 119.846 542.786 120.601C539.712 118.278 534.536 119.983 533.44 123.679C532.343 127.374 535.759 131.63 539.598 131.356C538.078 129.8 535.131 131.562 535.028 133.747C534.925 135.921 536.639 137.763 538.478 138.918C543.186 141.87 549.15 142.019 554.611 141.035C560.073 140.04 565.294 138.014 570.733 136.893C576.171 135.772 585.3 133.655 590.213 136.241C593.835 138.152 595.812 143.14 598.108 142.431C600.336 141.756 601.97 139.765 602.724 137.557C603.478 135.337 603.49 132.957 603.501 130.635Z" fill="#263238"/>
<path d="M627.003 186.433C627.003 186.433 627.243 186.399 627.632 186.159C628.02 185.93 628.546 185.461 628.934 184.671C629.3 183.893 629.54 182.795 629.323 181.571C629.128 180.324 628.317 179.065 627.163 178.036C625.998 177.006 624.49 176.205 622.844 175.507C621.211 174.798 619.405 174.168 617.783 173.059C616.161 171.972 614.881 170.278 614.115 168.288C613.327 166.308 613.007 164.066 613.053 161.789C613.178 157.201 614.447 152.922 614.755 148.884C615.132 144.868 614.538 141.058 612.836 138.438C611.145 135.818 608.791 134.525 607.134 134.147C606.3 133.93 605.626 133.941 605.181 133.953C604.735 133.999 604.495 134.033 604.506 134.056C604.506 134.136 605.466 133.919 607.077 134.376C608.665 134.811 610.893 136.115 612.47 138.667C614.058 141.207 614.607 144.891 614.195 148.838C613.864 152.796 612.573 157.075 612.447 161.778C612.401 164.123 612.733 166.446 613.567 168.517C614.378 170.587 615.749 172.395 617.474 173.528C619.188 174.672 621.028 175.301 622.65 175.976C624.284 176.64 625.758 177.395 626.889 178.356C628.009 179.317 628.774 180.484 628.991 181.628C629.22 182.772 629.037 183.813 628.717 184.568C628.02 186.113 626.935 186.365 627.003 186.433Z" fill="#455A64"/>
<path d="M542.397 120.326C542.409 120.315 542.226 120.223 541.872 120.052C541.7 119.96 541.472 119.869 541.198 119.789C540.923 119.686 540.603 119.594 540.226 119.537C538.775 119.239 536.33 119.48 534.171 121.39L534.159 121.402C532.697 123.061 531.749 125.681 532 128.564C532.194 131.459 533.771 134.525 536.41 136.721C539.027 138.953 542.592 140.348 546.396 140.749C550.212 141.172 554.223 140.783 558.256 140.017C564.826 138.758 570.801 136.241 575.737 133.255C578.228 131.813 580.581 130.429 582.946 129.502C585.3 128.553 587.654 128.141 589.802 128.095C594.132 128.015 597.525 129.308 599.651 130.429C601.787 131.573 602.793 132.511 602.838 132.442C602.838 132.442 601.901 131.436 599.765 130.223C597.651 129.033 594.223 127.649 589.802 127.672C587.608 127.683 585.174 128.083 582.764 129.033C580.341 129.96 577.942 131.344 575.451 132.774C570.527 135.715 564.631 138.175 558.13 139.422C554.143 140.177 550.178 140.554 546.453 140.165C542.729 139.788 539.29 138.449 536.753 136.321C534.194 134.216 532.663 131.31 532.457 128.541C532.183 125.772 533.063 123.255 534.422 121.642L534.411 121.653C536.41 119.811 538.775 119.503 540.192 119.743C541.666 119.949 542.374 120.395 542.397 120.326Z" fill="#455A64"/>
<path d="M549.081 110.316C549.081 110.316 548.956 111.322 549.504 113.016C550.064 114.686 551.526 116.997 554.234 118.713C555.571 119.583 557.182 120.315 559.021 120.704C560.85 121.105 562.872 121.185 564.951 121.013C569.144 120.693 573.543 119.263 578.148 118.061C582.741 116.86 587.357 116.242 591.333 117.306C595.309 118.324 598.348 120.75 600.29 123.13C602.267 125.532 603.25 127.912 603.718 129.582C604.175 131.264 604.232 132.248 604.301 132.237C604.324 132.237 604.312 131.996 604.267 131.527C604.244 131.058 604.118 130.383 603.935 129.525C603.535 127.809 602.587 125.361 600.61 122.855C598.657 120.384 595.572 117.844 591.458 116.757C587.345 115.624 582.604 116.253 577.988 117.466C573.349 118.668 569.007 120.109 564.894 120.441C562.849 120.624 560.884 120.555 559.113 120.189C557.33 119.835 555.754 119.148 554.451 118.336C551.801 116.711 550.327 114.526 549.71 112.924C549.127 111.311 549.161 110.304 549.081 110.316Z" fill="#455A64"/>
<path d="M554.92 186.25C555.125 187.417 555.331 188.607 555.845 189.671C556.371 190.735 557.262 191.685 558.404 191.982C559.627 192.303 560.975 191.822 561.878 190.93C562.78 190.049 563.283 188.813 563.489 187.566C563.672 186.434 563.443 184.992 562.358 184.626C561.912 184.477 561.421 184.557 560.952 184.637C558.839 185.015 556.736 185.404 554.623 185.781" fill="#AA6550"/>
<path d="M556.028 191.044C556.119 190.873 557.193 191.777 559.17 191.639C560.13 191.571 561.272 191.193 562.129 190.289C562.975 189.397 563.535 188.012 563.398 186.594C563.375 186.239 563.272 185.896 563.169 185.587C563.021 185.278 563.055 185.301 562.803 185.255C562.552 185.244 562.118 185.301 561.775 185.324C561.421 185.347 561.067 185.381 560.724 185.404C559.353 185.507 558.119 185.587 557.079 185.633C555 185.736 553.709 185.724 553.686 185.575C553.674 185.427 554.943 185.175 556.999 184.889C558.028 184.74 559.262 184.592 560.633 184.431C560.975 184.397 561.33 184.351 561.684 184.317C562.061 184.283 562.358 184.214 562.861 184.225C563.1 184.237 563.432 184.294 563.695 184.523C563.957 184.74 564.072 185.003 564.163 185.221C564.312 185.644 564.426 186.056 564.46 186.502C564.632 188.276 563.923 189.935 562.838 190.999C561.729 192.074 560.313 192.429 559.216 192.406C558.096 192.394 557.239 192.04 556.725 191.708C556.199 191.376 555.994 191.102 556.028 191.044Z" fill="#263238"/>
<path d="M550.361 209.636C550.361 209.636 561.878 214.007 573.086 210.826C573.086 210.826 564.631 217.92 549.207 215.197L550.361 209.636Z" fill="#AA6550"/>
<path d="M567.934 373.668C567.911 373.702 567.339 373.268 566.357 372.467C565.866 372.055 565.26 371.563 564.517 371.048C563.786 370.522 562.975 369.881 562.015 369.275C561.067 368.645 560.027 367.959 558.862 367.307C557.719 366.597 556.439 365.968 555.103 365.282C552.395 363.977 549.333 362.73 546.008 361.712C542.683 360.728 539.427 360.099 536.445 359.698C534.948 359.538 533.531 359.367 532.194 359.321C530.858 359.218 529.612 359.229 528.481 359.229C527.339 359.206 526.31 359.298 525.408 359.332C524.505 359.367 523.728 359.435 523.088 359.515C521.82 359.641 521.112 359.687 521.112 359.653C521.1 359.607 521.797 359.481 523.065 359.286C523.694 359.183 524.471 359.069 525.385 359.012C526.287 358.943 527.327 358.817 528.47 358.817C529.612 358.783 530.869 358.749 532.217 358.829C533.566 358.84 535.005 359.012 536.513 359.149C539.518 359.527 542.809 360.156 546.179 361.14C549.527 362.158 552.623 363.451 555.343 364.79C556.679 365.499 557.97 366.151 559.113 366.883C560.278 367.558 561.318 368.268 562.255 368.931C563.215 369.561 564.003 370.236 564.723 370.796C565.454 371.345 566.037 371.86 566.505 372.306C567.454 373.153 567.956 373.634 567.934 373.668Z" fill="#FAFAFA"/>
<path d="M500.786 314.906L510.166 274.256C513.754 258.97 518.004 244.28 525.145 242.541V247.266L522.094 363.405C522.094 363.405 502.991 385.189 478.631 373.073C471.022 369.286 457.14 342.685 457.14 342.685C457.14 342.685 424.886 284.965 426.223 282.345C427.559 279.725 447.303 254.257 449.314 252.987L500.786 314.906Z" fill="#F8B814"/>
<path d="M597.194 231.077C615.817 234.647 636.783 245.527 646.438 273.386C649.957 283.569 675.607 358.623 675.607 358.623L631.87 357.707L624.752 342.228L628.226 367.329L631.185 403.152L520.769 405.005L521.545 351.06L522.608 243.742C522.608 243.742 523.853 242.118 542.888 231.592C554.714 225.082 597.194 231.077 597.194 231.077Z" fill="#F8B814"/>
<g opacity="0.2">
<path d="M608.208 302.813C610.025 325.466 612.104 332.468 613.921 355.122C614.092 357.261 614.275 359.447 615.109 361.415C615.955 363.394 617.577 365.156 619.679 365.579C622.89 366.231 627.072 368.565 627.986 365.407L624.935 343.589C624.935 343.589 624.215 339.482 621.919 334.379C615.144 319.323 612.641 318.442 608.208 302.813Z" fill="#121212"/>
</g>
<path d="M542.889 243.227L543.254 240.871L546.785 218.263C547.002 216.901 548.224 215.929 549.595 216.043L593.07 219.682C595.8 219.91 597.834 222.302 597.64 225.036L596.669 238.17L583.095 255.904L563.546 258.959" fill="#F8B814"/>
<path d="M521.054 285.731C521.214 285.731 521.351 303.442 521.351 325.283C521.351 347.136 521.214 364.836 521.054 364.836C520.894 364.836 520.757 347.125 520.757 325.283C520.757 303.442 520.894 285.731 521.054 285.731Z" fill="#263238"/>
<path d="M632.796 361.346C632.785 361.346 632.739 361.266 632.659 361.094C632.568 360.888 632.442 360.636 632.305 360.316C631.985 359.584 631.539 358.577 630.979 357.307C629.837 354.641 628.203 350.854 626.204 346.198C622.216 336.759 616.732 323.785 610.676 309.46C607.671 302.275 604.804 295.433 602.187 289.198C600.805 286.12 599.879 282.963 599.376 279.999C598.851 277.025 598.645 274.222 598.622 271.659C598.565 266.533 599.331 262.38 600.359 259.703C600.485 259.371 600.599 259.051 600.713 258.753C600.85 258.467 600.987 258.204 601.113 257.952C601.353 257.449 601.57 257.037 601.799 256.739C601.993 256.453 602.153 256.225 602.29 256.03C602.404 255.87 602.461 255.801 602.473 255.801C602.553 255.847 601.513 257.083 600.588 259.783C599.639 262.46 598.942 266.567 599.045 271.659C599.182 276.716 599.868 282.871 602.69 288.992C605.318 295.216 608.197 302.058 611.213 309.231C617.212 323.59 622.639 336.576 626.581 346.038C628.512 350.728 630.077 354.538 631.174 357.216C631.688 358.508 632.099 359.527 632.396 360.27C632.522 360.591 632.625 360.854 632.705 361.071C632.773 361.243 632.808 361.334 632.796 361.346Z" fill="#263238"/>
<path d="M610.745 235.024C610.745 235.024 610.345 235.448 609.477 236.123C608.608 236.809 607.237 237.702 605.306 238.56C603.375 239.395 600.896 240.139 597.96 240.619C595.023 241.111 591.653 241.42 587.905 241.614C584.169 241.786 580.067 241.706 575.68 241.798C571.304 241.901 566.597 242.175 561.855 243.479C557.159 244.749 552.303 247.095 548.853 251.156C547.162 253.181 545.893 255.641 545.242 258.296C544.568 260.939 544.557 263.81 545.368 266.476C545.802 267.803 546.465 269.039 547.287 270.137C548.121 271.224 549.184 272.117 550.372 272.746C551.549 273.375 552.897 273.695 554.188 273.547C555.48 273.421 556.691 272.78 557.536 271.819C559.25 269.863 559.57 267.048 559.227 264.577C559.044 263.33 558.679 262.106 558.142 261.007C557.593 259.909 556.873 258.891 556.108 257.941C552.977 254.165 548.601 251.98 544.397 250.996C540.158 249.989 535.988 250.195 532.4 251.134C528.801 252.037 525.739 253.525 523.214 255.069C520.689 256.602 518.701 258.216 517.135 259.6C515.57 260.973 514.462 262.163 513.685 262.941C513.331 263.33 513.045 263.627 512.828 263.856C512.634 264.062 512.531 264.165 512.52 264.154C512.52 264.154 513.902 262.277 516.975 259.428C518.518 258.021 520.506 256.362 523.031 254.795C525.556 253.216 528.63 251.683 532.286 250.745C535.908 249.761 540.158 249.532 544.488 250.539C548.784 251.534 553.274 253.731 556.508 257.621C557.296 258.605 558.027 259.634 558.621 260.79C559.193 261.957 559.581 263.227 559.764 264.531C559.958 265.835 559.958 267.197 559.695 268.536C559.433 269.863 558.896 271.19 557.947 272.242C557.011 273.295 555.662 274.016 554.234 274.153C552.806 274.313 551.343 273.959 550.075 273.284C548.807 272.609 547.676 271.67 546.796 270.515C545.928 269.359 545.242 268.066 544.785 266.671C543.928 263.868 543.951 260.893 544.648 258.158C545.334 255.413 546.625 252.884 548.384 250.779C551.96 246.591 556.919 244.223 561.684 242.942C566.494 241.637 571.247 241.374 575.646 241.294C580.044 241.225 584.135 241.328 587.859 241.191C591.584 241.031 594.955 240.745 597.88 240.287C600.805 239.841 603.272 239.132 605.192 238.342C607.111 237.53 608.494 236.683 609.374 236.031C609.831 235.722 610.139 235.436 610.368 235.276C610.619 235.104 610.745 235.013 610.745 235.024Z" fill="#FAFAFA"/>
<path d="M648.529 282.642C648.529 282.665 648.358 282.688 648.038 282.722C647.718 282.745 647.249 282.814 646.632 282.825C645.41 282.883 643.639 282.871 641.457 282.7C639.274 282.539 636.692 282.208 633.836 281.819C630.979 281.43 627.849 280.995 624.535 280.812C621.233 280.652 618.08 280.903 615.281 281.51C612.493 282.128 610.071 283.066 608.231 284.198C604.495 286.441 603.147 288.958 603.021 288.821C603.01 288.809 603.09 288.66 603.261 288.397C603.455 288.134 603.672 287.711 604.095 287.253C604.849 286.281 606.152 285.022 608.014 283.844C609.865 282.642 612.333 281.647 615.166 280.983C618.011 280.343 621.222 280.068 624.57 280.228C627.917 280.411 631.059 280.869 633.916 281.281C636.772 281.704 639.331 282.082 641.502 282.288C643.662 282.505 645.421 282.585 646.644 282.597C647.855 282.608 648.529 282.597 648.529 282.642Z" fill="#FAFAFA"/>
<path d="M621.073 333.933C621.062 334.082 618.777 333.121 614.515 333.372C612.39 333.475 609.819 333.922 606.906 334.734C603.981 335.523 600.736 336.679 597.08 337.812C593.446 338.933 589.299 339.997 584.763 339.963C580.25 339.963 575.394 339.07 570.733 337.045C566.048 335.077 561.558 331.931 557.936 327.732C556.119 325.65 554.531 323.258 553.4 320.616C552.292 317.973 551.675 314.998 552.097 312.023C552.532 309.083 553.914 306.268 556.154 304.369C557.273 303.431 558.576 302.699 560.004 302.401C561.421 302.092 562.895 302.15 564.254 302.539C565.614 302.928 566.905 303.58 567.922 304.552C568.939 305.513 569.704 306.749 569.978 308.11C570.275 309.46 570.138 310.879 569.67 312.126C569.201 313.385 568.425 314.472 567.533 315.41C565.74 317.275 563.512 318.522 561.261 319.403C560.13 319.826 558.964 320.158 557.822 320.352C557.25 320.455 556.679 320.581 556.108 320.673C555.537 320.741 554.977 320.81 554.405 320.867C549.904 321.359 545.665 320.867 541.94 319.998C538.204 319.105 534.982 317.755 532.308 316.291C529.635 314.838 527.51 313.27 525.899 311.852C525.499 311.497 525.122 311.165 524.756 310.856C524.425 310.524 524.116 310.204 523.819 309.907C523.225 309.335 522.757 308.82 522.403 308.374C522.06 307.962 521.786 307.63 521.58 307.39C521.397 307.161 521.306 307.046 521.317 307.046C521.329 307.035 521.431 307.149 521.626 307.355C521.843 307.584 522.128 307.904 522.483 308.305C522.848 308.728 523.328 309.232 523.934 309.792C524.231 310.078 524.551 310.387 524.882 310.708C525.247 311.016 525.625 311.337 526.036 311.68C527.658 313.064 529.783 314.586 532.457 316.005C535.119 317.424 538.318 318.739 542.02 319.597C545.711 320.433 549.904 320.902 554.337 320.387C554.885 320.318 555.445 320.249 556.005 320.181C556.565 320.089 557.125 319.963 557.685 319.86C558.827 319.666 559.935 319.334 561.044 318.922C563.226 318.064 565.397 316.84 567.111 315.044C567.956 314.151 568.687 313.11 569.122 311.943C569.556 310.776 569.681 309.483 569.396 308.236C568.87 305.731 566.631 303.774 564.071 303.111C562.792 302.744 561.409 302.699 560.107 302.996C558.793 303.271 557.559 303.957 556.519 304.85C554.417 306.646 553.08 309.323 552.669 312.138C552.269 314.964 552.852 317.847 553.937 320.41C555.034 322.984 556.576 325.329 558.37 327.377C561.923 331.508 566.334 334.608 570.938 336.565C575.531 338.567 580.307 339.471 584.752 339.493C589.219 339.551 593.309 338.532 596.943 337.434C600.587 336.336 603.867 335.203 606.803 334.448C609.739 333.67 612.344 333.247 614.492 333.178C615.566 333.098 616.515 333.201 617.337 333.224C618.148 333.338 618.857 333.395 619.405 333.533C619.931 333.658 620.342 333.761 620.651 333.842C620.936 333.876 621.073 333.922 621.073 333.933Z" fill="#FAFAFA"/>
<path d="M520.677 321.736C520.586 321.782 520.06 320.524 518.952 318.659C517.844 316.794 516.073 314.357 513.662 312.092C511.24 309.838 508.692 308.236 506.75 307.263C504.819 306.291 503.528 305.845 503.562 305.753C503.573 305.719 503.905 305.788 504.499 305.959C505.093 306.119 505.927 306.44 506.932 306.886C508.943 307.778 511.594 309.357 514.062 311.657C516.53 313.968 518.289 316.496 519.306 318.453C519.821 319.425 520.186 320.238 520.392 320.821C520.609 321.393 520.712 321.714 520.677 321.736Z" fill="#FAFAFA"/>
<path d="M476.335 370.704C476.324 370.704 476.266 370.613 476.152 370.418C476.026 370.19 475.878 369.915 475.684 369.56C475.272 368.794 474.678 367.673 473.947 366.197C472.507 363.256 470.382 358.966 468.714 353.314C467.914 350.488 467.24 347.296 467.08 343.829C466.977 342.09 467.069 340.282 467.297 338.452C467.56 336.621 468.017 334.756 468.646 332.903C469.982 329.242 472.096 325.546 475.352 322.743C478.54 319.952 482.939 317.995 487.543 318.464C489.806 318.704 492.068 319.631 493.553 321.393C495.016 323.109 495.724 325.466 495.244 327.651C495.004 328.738 494.422 329.745 493.622 330.477C492.833 331.233 491.839 331.724 490.834 331.999C488.789 332.571 486.618 332.205 484.87 331.278C483.099 330.363 481.659 329.013 480.505 327.56C479.351 326.095 478.449 324.517 477.763 322.915C476.426 319.688 475.992 316.37 476.232 313.419C476.472 310.455 477.386 307.87 478.494 305.81C479.603 303.739 480.905 302.161 482.071 301.005C483.247 299.849 484.287 299.083 485.018 298.625C485.373 298.385 485.67 298.236 485.864 298.122C486.058 298.019 486.161 297.962 486.161 297.973C486.172 297.996 485.784 298.236 485.087 298.728C484.379 299.22 483.385 300.01 482.242 301.177C481.111 302.344 479.854 303.923 478.791 305.982C477.729 308.03 476.861 310.57 476.655 313.464C476.449 316.359 476.883 319.585 478.22 322.732C478.894 324.299 479.785 325.832 480.917 327.251C482.048 328.658 483.442 329.951 485.121 330.809C486.789 331.679 488.8 332.011 490.685 331.473C492.571 330.992 494.262 329.528 494.673 327.537C495.107 325.581 494.456 323.372 493.096 321.794C491.748 320.192 489.623 319.299 487.475 319.071C483.087 318.624 478.814 320.501 475.729 323.201C472.565 325.924 470.485 329.528 469.16 333.109C468.531 334.928 468.086 336.747 467.812 338.543C467.583 340.351 467.48 342.113 467.572 343.829C467.709 347.25 468.36 350.408 469.125 353.222C470.725 358.851 472.782 363.153 474.164 366.117C474.861 367.57 475.398 368.702 475.798 369.526C475.969 369.892 476.106 370.19 476.221 370.418C476.312 370.59 476.346 370.693 476.335 370.704Z" fill="#FAFAFA"/>
<path d="M462.236 269.691C462.259 269.691 462.293 269.851 462.339 270.171C462.385 270.492 462.465 270.949 462.51 271.556C462.624 272.769 462.682 274.531 462.499 276.693C462.179 281.006 460.648 287.036 456.855 292.55C453.061 298.065 447.988 301.657 444.081 303.499C442.127 304.438 440.459 305.021 439.294 305.342C438.711 305.525 438.254 305.605 437.945 305.685C437.637 305.753 437.465 305.776 437.465 305.753C437.454 305.708 438.094 305.513 439.225 305.124C440.368 304.735 441.99 304.094 443.898 303.122C447.703 301.2 452.65 297.619 456.375 292.207C460.088 286.795 461.653 280.892 462.087 276.647C462.316 274.508 462.327 272.769 462.282 271.567C462.236 270.366 462.19 269.691 462.236 269.691Z" fill="#FAFAFA"/>
<path d="M658.526 319.299C658.606 319.402 656.367 320.329 654.116 323.338C652.985 324.814 651.842 326.713 650.54 328.83C649.237 330.947 647.615 333.178 645.661 335.294C641.742 339.539 637.32 342.445 633.95 344.104C632.27 344.962 630.842 345.5 629.86 345.854C628.866 346.186 628.306 346.346 628.294 346.301C628.283 346.255 628.809 346.026 629.78 345.637C630.739 345.214 632.122 344.619 633.767 343.726C637.046 341.987 641.377 339.07 645.227 334.882C647.158 332.789 648.757 330.615 650.083 328.532C651.408 326.45 652.596 324.539 653.796 323.075C654.996 321.611 656.173 320.592 657.075 320.032C657.521 319.746 657.886 319.551 658.138 319.448C658.389 319.334 658.515 319.277 658.526 319.299Z" fill="#FAFAFA"/>
<path d="M596.783 232.416C596.783 232.439 596.6 232.484 596.257 232.553C595.846 232.622 595.343 232.713 594.738 232.828C593.412 233.045 591.493 233.342 589.128 233.663C584.375 234.303 577.794 235.047 570.504 235.585C566.859 235.848 563.375 236.088 560.187 235.951C556.999 235.837 554.143 235.31 551.858 234.521C549.561 233.754 547.859 232.736 546.773 231.947C546.225 231.546 545.825 231.214 545.574 230.963C545.311 230.722 545.185 230.585 545.197 230.574C545.231 230.528 545.791 231.031 546.899 231.752C548.007 232.473 549.71 233.411 551.983 234.12C554.246 234.841 557.056 235.31 560.198 235.402C563.34 235.505 566.814 235.253 570.458 234.99C577.736 234.452 584.318 233.777 589.082 233.239C591.39 232.976 593.287 232.759 594.715 232.599C596.04 232.439 596.771 232.37 596.783 232.416Z" fill="#263238"/>
<path d="M675.036 366.723C678.658 385.555 664.354 403.071 645.193 403.266L558.656 402.305L560.93 374.24L635.127 363.153" fill="#B78876"/>
<path d="M566.288 375.521C565.888 375.659 560.895 373.405 556.417 371.334C551.663 369.137 546.453 368.119 541.221 368.382L520.586 369.435C520.586 369.435 521.854 372.844 524.048 374.057C526.23 375.27 539.061 375.533 539.061 375.533L538.41 376.208C535.702 378.999 532.023 380.613 528.138 380.704L526.173 380.75C524.711 380.635 523.271 380.349 521.866 379.903L516.781 377.844C515.239 377.146 513.617 377.26 512.942 378.816C512.337 380.224 512.782 382.157 516.987 384.274C519.341 385.464 528.047 388.473 528.047 388.473C528.047 388.473 528.173 390.887 528.55 392.157C528.927 393.427 532.354 394.697 532.354 394.697C532.354 394.697 534.514 399.136 535.394 400.154C535.793 400.612 538.89 401.573 542.18 402.499C547.505 403.998 553.137 403.964 558.439 402.374L566.3 400.028V376.047" fill="#B78876"/>
<path d="M538.067 391.184C538.056 391.321 535.611 391.196 532.709 390.418C529.795 389.651 527.601 388.564 527.659 388.438C527.716 388.301 529.967 389.17 532.834 389.914C535.702 390.681 538.079 391.035 538.067 391.184Z" fill="#AA6550"/>
<path d="M537.336 396.024C537.336 396.161 535.999 396.241 534.434 395.818C532.857 395.394 531.76 394.651 531.829 394.525C531.897 394.387 533.063 394.914 534.571 395.314C536.079 395.726 537.347 395.875 537.336 396.024Z" fill="#AA6550"/>
<path d="M541.106 373.668C541.152 373.714 540.558 374.389 539.518 375.373C538.467 376.357 536.936 377.661 535.028 378.782C533.108 379.903 531.177 380.533 529.761 380.819C528.344 381.105 527.441 381.128 527.441 381.07C527.396 380.887 531.018 380.544 534.777 378.336C536.65 377.249 538.181 376.002 539.29 375.098C540.375 374.183 541.061 373.611 541.106 373.668Z" fill="#AA6550"/>
<path d="M568.39 371.734L566.288 403.472L647.809 403.506C653.339 403.506 658.778 402.008 663.519 399.147C674.533 392.523 680.212 379.709 677.733 367.089C676.899 361.929 674.933 355.9 672.477 349.493L631.494 356.243L632.807 361.357L568.39 371.734Z" fill="#F8B814"/>
<path d="M651.683 358.692C651.683 358.714 651.397 358.772 650.86 358.886C650.254 358.989 649.466 359.138 648.483 359.309C646.347 359.664 643.365 360.167 639.709 360.774C632.236 361.964 622.022 363.588 610.734 365.396C599.434 367.124 589.208 368.691 581.724 369.847C578.057 370.384 575.063 370.819 572.926 371.128C571.932 371.265 571.133 371.368 570.527 371.448C569.979 371.517 569.693 371.54 569.682 371.517C569.682 371.494 569.967 371.437 570.504 371.323C571.11 371.22 571.898 371.071 572.881 370.899C575.017 370.545 577.999 370.041 581.656 369.435C589.128 368.245 599.342 366.62 610.631 364.813C621.931 363.085 632.145 361.517 639.629 360.373C643.296 359.836 646.29 359.401 648.426 359.092C649.42 358.955 650.22 358.852 650.826 358.772C651.386 358.691 651.671 358.669 651.683 358.692Z" fill="#263238"/>
<path d="M609.968 403.529C609.831 403.506 610.459 401.241 610.539 397.5C610.539 396.562 610.562 395.543 610.425 394.456C610.368 393.358 610.139 392.214 609.922 391.001C609.397 388.598 608.54 386.013 607.272 383.473C605.992 380.933 604.392 378.725 602.816 376.837C602.404 376.379 602.004 375.933 601.616 375.498C601.216 375.064 600.793 374.698 600.405 374.309C599.639 373.519 598.828 372.89 598.12 372.283C595.206 369.938 593.138 368.851 593.207 368.748C593.23 368.714 593.744 368.977 594.669 369.492C595.126 369.744 595.697 370.052 596.314 370.487C596.92 370.922 597.674 371.345 598.394 371.963C599.125 372.558 599.959 373.176 600.748 373.954C601.147 374.343 601.582 374.709 601.993 375.144C602.393 375.578 602.804 376.036 603.227 376.494C604.861 378.393 606.495 380.624 607.797 383.221C609.088 385.818 609.945 388.461 610.459 390.91C610.665 392.145 610.882 393.324 610.916 394.433C611.031 395.543 610.985 396.584 610.962 397.534C610.973 398.484 610.802 399.33 610.733 400.074C610.665 400.818 610.516 401.458 610.402 401.973C610.151 402.969 610.002 403.529 609.968 403.529Z" fill="#FAFAFA"/>
<path d="M659.589 401.138C659.589 401.138 658.218 401.195 655.807 400.681C654.619 400.395 653.145 399.983 651.58 399.193C650.014 398.404 648.323 397.271 646.815 395.635C645.319 394.01 643.993 391.871 643.308 389.342C642.988 388.072 642.725 386.734 642.702 385.349C642.611 383.965 642.736 382.512 643.045 381.07C643.365 379.629 643.89 378.187 644.736 376.872C645.558 375.556 646.735 374.389 648.164 373.611C649.58 372.821 651.248 372.375 652.939 372.512C654.63 372.627 656.31 373.474 657.418 374.835C658.526 376.174 659.155 377.936 658.915 379.663C658.686 381.414 657.498 382.844 656.104 383.679C653.248 385.384 649.946 385.361 647.09 384.915C641.251 383.942 636.704 380.453 634.339 376.734C631.894 373.004 631.277 369.32 631.208 366.883C631.14 364.412 631.528 363.085 631.528 363.085C631.608 363.096 631.288 364.435 631.437 366.872C631.585 369.275 632.248 372.879 634.693 376.505C637.058 380.098 641.514 383.462 647.181 384.377C649.957 384.8 653.156 384.777 655.796 383.187C657.075 382.409 658.127 381.116 658.321 379.583C658.526 378.061 657.967 376.448 656.95 375.224C655.933 373.977 654.436 373.233 652.882 373.119C651.328 372.982 649.763 373.405 648.438 374.137C645.718 375.613 644.176 378.462 643.582 381.208C643.273 382.592 643.148 383.999 643.228 385.349C643.239 386.699 643.479 388.004 643.788 389.228C644.427 391.688 645.696 393.77 647.124 395.372C648.575 396.985 650.209 398.106 651.728 398.907C653.259 399.708 654.687 400.143 655.864 400.475C658.229 401.024 659.6 401.058 659.589 401.138Z" fill="#FAFAFA"/>
<path d="M336.213 55.3755H132.05C107.199 55.3755 87.0561 75.5462 87.0561 100.431V173.288H43.0107L87.0676 217.405V266.922C87.0676 291.807 107.211 311.977 132.061 311.977H336.224C361.075 311.977 381.218 291.807 381.218 266.922V100.431C381.206 75.5462 361.063 55.3755 336.213 55.3755Z" fill="#FCCA49"/>
<path d="M252.807 63.0866C251.516 66.4274 253.732 70.0886 256.223 72.6628C258.714 75.2485 261.719 77.6969 262.507 81.1979C263.158 84.1383 262.073 87.1931 262.335 90.1907C262.61 93.2569 264.255 96.0142 265.192 98.9431C266.894 104.252 266.209 110.052 264.689 115.418C263.444 119.823 261.604 124.148 258.565 127.557C255.526 130.967 251.15 133.381 246.591 133.301C245.3 133.278 243.895 132.992 243.049 132.019C242.318 131.173 242.158 129.983 242.021 128.873C239.404 105.865 239.404 82.5594 242.009 59.5513" fill="#263238"/>
<path d="M250.396 137.328C260.336 136.893 269.522 146.424 268.734 156.355C278.8 158.803 285.906 169.901 283.941 180.084C283.29 183.447 281.805 186.651 281.599 190.06C281.37 193.79 282.696 197.406 283.416 201.078C284.718 207.703 284.01 214.705 281.428 220.94C279.862 224.727 276.937 228.64 272.847 228.754C270.071 228.834 267.5 227.027 265.946 224.716C264.404 222.405 263.718 219.624 263.17 216.901C261.399 207.966 260.862 198.779 258.417 190.003C255.972 181.228 251.207 172.578 243.278 168.105C238.902 165.634 233.646 164.467 230.161 160.828C226.517 157.018 225.682 150.989 227.591 146.069C229.499 141.15 233.84 137.397 238.788 135.601" fill="#263238"/>
<path d="M181.592 71.2785C181.466 67.0224 185.396 63.7388 189.349 62.1828C193.303 60.6268 197.702 60.0318 201.221 57.6635C204.34 55.5584 206.442 52.2747 209.081 49.5975C215.56 43.0189 225.683 40.2959 234.583 42.7214C243.484 45.1584 250.819 52.6523 253.07 61.6107C254.589 67.6631 253.55 74.8252 248.785 78.8525C243.255 83.5205 235.052 82.4908 227.956 81.0378C220.861 79.5848 212.84 78.1546 206.922 82.3192C203.357 84.8362 201.301 88.9207 199.118 92.7077C196.936 96.4948 194.194 100.362 190.069 101.781C185.945 103.199 180.335 100.751 180.175 96.3804" fill="#263238"/>
<path d="M198.341 72.1482C194.674 72.5486 191.92 75.6835 192 79.379L196.239 175.485C196.422 186.834 212.989 193.218 225.123 192.932C237.382 192.646 237.771 186.628 237.931 175.828C238.182 157.785 238.171 151.012 238.171 151.115C238.171 151.115 253.652 148.506 256.817 128.267C258.394 118.199 257.846 101.701 256.966 88.223C256.177 76.0839 248.111 61.2104 236.034 62.5147L198.341 72.1482Z" fill="#FFBE9D"/>
<path d="M253.481 100.934C253.538 102.307 252.419 103.474 250.99 103.554C249.562 103.634 248.362 102.593 248.317 101.22C248.271 99.8471 249.379 98.6801 250.808 98.6C252.236 98.5199 253.435 99.5611 253.481 100.934Z" fill="#263238"/>
<path d="M253.413 96.8153C253.093 97.1585 251.127 95.7055 248.34 95.7169C245.552 95.6941 243.507 97.1356 243.21 96.7924C243.061 96.6437 243.392 96.0258 244.272 95.3737C245.152 94.7216 246.637 94.0923 248.385 94.0923C250.122 94.0923 251.584 94.733 252.43 95.3851C253.275 96.0602 253.572 96.6665 253.413 96.8153Z" fill="#263238"/>
<path d="M226.688 100.934C226.745 102.307 225.626 103.474 224.197 103.554C222.769 103.634 221.57 102.593 221.524 101.22C221.478 99.8471 222.586 98.6801 224.015 98.6C225.443 98.5199 226.631 99.5611 226.688 100.934Z" fill="#263238"/>
<path d="M226.003 97.3988C225.683 97.742 223.717 96.289 220.93 96.3004C218.142 96.2775 216.097 97.7191 215.8 97.3759C215.651 97.2272 215.971 96.6093 216.862 95.9572C217.742 95.305 219.227 94.6758 220.964 94.6758C222.701 94.6872 224.163 95.3165 225.009 95.9686C225.865 96.6437 226.163 97.25 226.003 97.3988Z" fill="#263238"/>
<path d="M236.171 118.084C236.16 117.924 237.885 117.627 240.696 117.26C241.404 117.18 242.078 117.043 242.204 116.551C242.375 116.036 242.067 115.27 241.724 114.434C241.05 112.707 240.342 110.899 239.61 109.011C236.674 101.289 234.538 94.9387 234.846 94.8243C235.155 94.7099 237.794 100.877 240.742 108.599C241.45 110.499 242.124 112.318 242.775 114.057C243.05 114.869 243.507 115.784 243.152 116.86C242.958 117.398 242.444 117.775 241.987 117.901C241.53 118.038 241.13 118.05 240.776 118.073C237.931 118.233 236.183 118.244 236.171 118.084Z" fill="#263238"/>
<path d="M238.171 151.126C238.171 151.126 224.574 152.03 211.092 143.953C211.092 143.953 217.685 157.842 237.908 155.897L238.171 151.126Z" fill="#EB996E"/>
<path d="M235.006 124.823C234.001 123.496 232.241 122.775 230.493 122.97C229.282 123.107 228.059 123.691 227.328 124.675C226.597 125.659 226.448 127.066 227.111 128.004C227.865 129.057 229.442 129.308 230.767 128.919C232.093 128.542 233.235 127.661 234.332 126.78C234.629 126.539 234.938 126.288 235.132 125.956C235.315 125.624 235.36 125.189 235.12 124.915" fill="#EB996E"/>
<path d="M227.968 120.041C228.425 120.018 228.436 123.05 231.03 125.19C233.623 127.34 236.845 126.997 236.868 127.421C236.914 127.615 236.148 128.016 234.789 128.05C233.452 128.096 231.498 127.672 229.91 126.357C228.322 125.041 227.648 123.279 227.533 122.043C227.419 120.773 227.762 120.018 227.968 120.041Z" fill="#263238"/>
<path d="M227.248 92.5135C226.974 93.2686 224.186 92.9139 220.918 93.3258C217.639 93.6576 215 94.6301 214.566 93.9436C214.371 93.6233 214.828 92.9025 215.891 92.1702C216.942 91.438 218.633 90.7287 220.598 90.5113C222.563 90.2939 224.357 90.6028 225.557 91.0833C226.757 91.5524 227.362 92.1474 227.248 92.5135Z" fill="#263238"/>
<path d="M252.373 88.7379C251.882 89.3786 249.962 88.715 247.654 88.6921C245.346 88.5891 243.392 89.1269 242.935 88.4633C242.741 88.1429 243.05 87.5022 243.895 86.9073C244.741 86.3124 246.146 85.8204 247.734 85.8547C249.322 85.9005 250.693 86.4725 251.505 87.1247C252.316 87.7768 252.579 88.429 252.373 88.7379Z" fill="#263238"/>
<path d="M184.231 138.724C189.784 139.845 195.839 138.141 199.987 134.273C204.134 130.406 206.282 124.491 205.574 118.862C204.945 113.897 202.272 108.84 203.985 104.137C206.259 97.9135 214.965 96.0028 217.273 89.8017C218.622 86.1977 217.41 81.9759 218.93 78.4406C220.358 75.1113 223.854 73.2006 227.248 71.9764C230.641 70.7407 234.286 69.8941 237.142 67.6745C239.999 65.4549 241.781 61.256 239.93 58.144C224.86 59.9517 209.995 63.5671 195.782 68.8873C192.48 70.1229 189.018 71.5988 187.076 74.5392C185.008 77.6398 185.11 81.6556 185.282 85.3854C186.15 103.531 183.385 120.555 184.231 138.724Z" fill="#263238"/>
<path d="M179.421 133.015C179.421 133.026 179.306 132.992 179.089 132.912C178.872 132.843 178.564 132.695 178.164 132.466C177.398 132.008 176.37 131.059 175.639 129.48C174.919 127.924 174.496 125.75 174.976 123.336C175.456 120.922 176.85 118.439 178.644 115.991C180.415 113.519 182.654 111.014 184.185 107.822C184.939 106.231 185.499 104.469 185.522 102.604C185.556 100.739 184.962 98.8746 184.334 96.9753C183.694 95.0876 183.065 93.0282 183.145 90.8543C183.237 88.7034 183.854 86.5296 184.985 84.6075C186.105 82.6854 187.716 80.9692 189.704 79.8022C191.692 78.5665 194.068 78.1432 196.365 77.903C198.673 77.6398 200.969 77.514 203.026 76.736C205.105 75.9923 206.716 74.402 207.71 72.5142C208.727 70.6264 209.31 68.5555 209.927 66.5419C210.532 64.5283 211.252 62.5604 212.2 60.7641C214.063 57.1602 216.691 54.1511 219.776 52.2405C222.86 50.3298 226.3 49.5518 229.373 49.7463C232.458 49.9408 235.131 51.1764 236.925 52.8469C238.73 54.5058 239.793 56.405 240.307 58.0411C240.833 59.6772 240.856 61.0387 240.776 61.9311C240.696 62.8235 240.536 63.2812 240.536 63.2812C240.501 63.2697 240.616 62.8121 240.65 61.9311C240.696 61.0502 240.627 59.7115 240.079 58.1212C239.542 56.5309 238.479 54.7003 236.697 53.11C234.937 51.5082 232.344 50.3527 229.35 50.1811C226.368 50.0094 223.032 50.7989 220.05 52.6752C217.068 54.5516 214.508 57.5034 212.703 61.0387C211.778 62.8006 211.081 64.7228 210.487 66.7364C209.87 68.7386 209.298 70.8438 208.236 72.8116C207.71 73.7956 207.036 74.7338 206.191 75.5118C205.357 76.3012 204.328 76.8961 203.243 77.308C201.061 78.1203 198.718 78.2462 196.433 78.5093C194.148 78.7496 191.897 79.1615 190.012 80.3285C188.115 81.4383 186.573 83.0744 185.488 84.9164C184.402 86.7584 183.797 88.8293 183.705 90.8887C183.637 92.9481 184.208 94.9159 184.848 96.8152C185.476 98.7144 186.082 100.648 186.036 102.627C186.002 104.584 185.408 106.426 184.619 108.05C183.031 111.323 180.746 113.817 178.964 116.254C177.158 118.668 175.776 121.082 175.273 123.427C174.77 125.761 175.147 127.889 175.822 129.411C176.496 130.956 177.467 131.905 178.198 132.386C178.964 132.855 179.432 132.969 179.421 133.015Z" fill="#455A64"/>
<path d="M238.137 44.7921C238.148 44.7578 238.434 44.8264 238.925 45.0324C239.416 45.2383 240.09 45.6044 240.833 46.1879C242.318 47.3321 244.066 49.5516 244.512 52.4806C244.946 55.4209 243.918 58.0524 242.833 59.5741C242.284 60.3521 241.747 60.9012 241.347 61.2445C240.936 61.5763 240.685 61.725 240.662 61.7021C240.582 61.622 241.519 60.9127 242.478 59.3453C243.438 57.8236 244.329 55.318 243.918 52.5607C243.507 49.8148 241.918 47.6753 240.559 46.4968C239.199 45.307 238.091 44.8951 238.137 44.7921Z" fill="#455A64"/>
<path d="M282.902 183.653C282.833 183.63 283.256 182.921 283.484 181.514C283.724 180.118 283.61 177.978 282.49 175.69C281.405 173.39 279.131 171.205 276.115 169.741C274.607 168.997 272.927 168.414 271.156 167.967C269.374 167.51 267.489 167.121 265.592 166.514C263.707 165.908 261.867 165.084 260.485 163.723C259.057 162.407 258.371 160.542 258.074 158.86C257.766 157.156 257.663 155.542 257.286 154.101C256.92 152.659 256.246 151.435 255.446 150.462C253.835 148.495 251.893 147.568 250.556 147.133C249.185 146.721 248.385 146.721 248.385 146.664C248.385 146.641 248.591 146.641 248.968 146.653C249.345 146.664 249.905 146.744 250.613 146.916C251.996 147.293 254.041 148.186 255.755 150.199C256.6 151.195 257.343 152.488 257.743 153.986C258.154 155.485 258.28 157.11 258.6 158.769C258.908 160.405 259.537 162.087 260.873 163.311C262.153 164.569 263.913 165.37 265.752 165.954C267.603 166.549 269.477 166.938 271.282 167.407C273.087 167.876 274.801 168.482 276.344 169.249C279.44 170.77 281.782 173.093 282.856 175.507C283.964 177.91 284.01 180.141 283.69 181.559C283.542 182.28 283.336 182.807 283.176 183.15C283.016 183.482 282.925 183.665 282.902 183.653Z" fill="#455A64"/>
<path d="M195.016 147.82C184.779 145.074 175.936 135.04 172.348 125.052C168.76 115.075 168.76 104.16 169.674 93.5889C170.337 85.9233 171.685 77.8344 176.758 72.0681C184.413 63.3728 192.697 58.9336 204.271 59.2998" fill="#263238"/>
<path d="M254.772 170.13L245.232 167.727C247.471 165.942 248.099 163.666 247.128 161.068C245.986 158.025 243.061 156.023 239.839 155.657L196.33 150.737C194.776 150.565 193.257 151.424 192.686 152.888C190.755 157.796 190.686 161.835 192.491 165.016H192.286L183.899 166.686L169.72 292.241L262.815 287.882L254.772 170.13Z" fill="#F5F5F5"/>
<path d="M241.084 168.207C241.084 168.253 240.467 168.368 239.336 168.539C238.205 168.722 236.559 168.928 234.526 169.123C230.447 169.523 224.78 169.775 218.541 169.466C212.291 169.146 206.682 168.333 202.66 167.532C200.649 167.132 199.038 166.766 197.93 166.468C196.821 166.182 196.216 165.999 196.227 165.965C196.239 165.931 196.867 166.022 197.987 166.251C199.106 166.48 200.729 166.777 202.74 167.121C206.762 167.807 212.349 168.562 218.576 168.871C224.791 169.18 230.435 168.985 234.503 168.699C236.536 168.562 238.182 168.413 239.324 168.299C240.444 168.207 241.072 168.173 241.084 168.207Z" fill="#263238"/>
<path d="M199.004 188.161C198.866 188.069 200.329 185.644 202.26 182.738C204.202 179.831 205.882 177.555 206.019 177.646C206.156 177.738 204.693 180.163 202.763 183.069C200.82 185.975 199.141 188.252 199.004 188.161Z" fill="#E0E0E0"/>
<path d="M229.007 190.289C228.882 190.392 227.031 188.298 224.871 185.61C222.712 182.921 221.078 180.667 221.204 180.564C221.329 180.461 223.18 182.555 225.34 185.244C227.499 187.932 229.133 190.186 229.007 190.289Z" fill="#E0E0E0"/>
<path d="M215.068 206.249C214.908 206.284 214.279 203.481 213.662 200.002C213.045 196.524 212.68 193.687 212.84 193.653C213 193.618 213.628 196.421 214.245 199.9C214.862 203.378 215.228 206.215 215.068 206.249Z" fill="#E0E0E0"/>
<path d="M237.976 207.233C238.091 207.347 235.725 209.876 232.686 212.862C229.647 215.86 227.099 218.182 226.985 218.068C226.871 217.953 229.236 215.425 232.275 212.439C235.314 209.453 237.862 207.119 237.976 207.233Z" fill="#E0E0E0"/>
<path d="M207.253 228.628C207.184 228.754 204.339 227.026 201.563 224.063C198.763 221.111 197.21 218.182 197.347 218.114C197.495 218.011 199.255 220.757 201.997 223.651C204.728 226.569 207.367 228.479 207.253 228.628Z" fill="#E0E0E0"/>
<path d="M217.124 245.149C217.17 245.321 214.519 246.167 211.503 247.769C208.475 249.359 206.281 251.076 206.167 250.938C206.064 250.835 208.132 248.868 211.229 247.243C214.302 245.607 217.09 245 217.124 245.149Z" fill="#E0E0E0"/>
<path d="M233.177 246.225C233.12 246.271 232.412 245.538 231.361 244.268C230.31 242.998 228.904 241.202 227.442 239.154C225.979 237.106 224.745 235.196 223.888 233.788C223.032 232.381 222.563 231.477 222.632 231.432C222.7 231.386 223.306 232.209 224.243 233.56C225.317 235.093 226.562 236.855 227.933 238.811C229.338 240.745 230.607 242.495 231.703 244.005C232.663 245.332 233.246 246.168 233.177 246.225Z" fill="#E0E0E0"/>
<path d="M234.788 260.309C234.823 260.469 231.761 261.281 227.91 261.911C224.06 262.551 220.906 262.769 220.883 262.609C220.861 262.437 223.98 261.968 227.807 261.327C231.646 260.698 234.754 260.149 234.788 260.309Z" fill="#E0E0E0"/>
<path d="M208.795 166.434C208.715 166.366 209.264 165.748 209.732 164.535C210.212 163.334 210.509 161.526 210.223 159.569C209.938 157.602 209.252 155.908 208.75 154.696C208.235 153.483 207.904 152.728 207.984 152.682C208.053 152.648 208.521 153.334 209.138 154.512C209.744 155.702 210.521 157.419 210.818 159.489C211.115 161.56 210.726 163.482 210.121 164.707C209.526 165.942 208.841 166.491 208.795 166.434Z" fill="#E0E0E0"/>
<path d="M226.185 157.041C226.311 156.961 227.385 158.528 227.899 160.794C228.436 163.048 228.173 164.935 228.024 164.913C227.853 164.913 227.83 163.082 227.316 160.931C226.825 158.757 226.025 157.121 226.185 157.041Z" fill="#E0E0E0"/>
<path d="M304.621 246.488L347.935 170.324L353.157 157.11C353.157 157.11 366.65 128.038 367.599 125.086C368.684 121.665 370.592 121.368 371.826 121.86C373.746 122.615 374.363 125.486 373.517 128.438C373.22 129.457 367.976 145.428 367.976 145.428C367.976 145.428 369.13 144.341 372.455 142.099C375.779 139.857 381.881 139.925 387.514 141.939C393.146 143.952 394.552 145.016 393.878 147.236C393.603 148.128 392.872 148.689 392.072 149.032C390.758 149.593 389.25 149.582 387.902 149.124C378.83 146.023 374.808 150.119 374.808 150.119L374.123 151.847C374.123 151.847 380.944 149.662 384.817 152.751C385.445 153.254 385.903 153.815 386.234 154.41C388.645 155.211 390.61 157.304 391.204 159.787C391.821 162.373 390.953 165.256 389.01 167.064C388.085 167.922 386.679 168.551 385.571 167.933C384.988 167.601 384.623 167.006 384.269 166.434C384.086 166.137 383.88 165.828 383.652 165.576L381.058 170.153C381.058 170.153 374.694 180.118 372.409 184.763L342.6 264.302C338.464 275.331 326.113 280.823 315.167 276.487C303.262 271.796 298.292 257.62 304.621 246.488Z" fill="#FFBE9D"/>
<path d="M350.906 170.072C352.437 171.068 354.551 170.393 355.922 169.191C357.305 168.001 358.23 166.365 359.521 165.073C363.383 161.217 369.838 160.851 373.506 156.812C374.02 156.251 374.477 155.393 374.032 154.775C373.62 154.203 372.763 154.272 372.078 154.409C366.171 155.576 360.264 156.755 354.357 157.922" fill="#FFBE9D"/>
<path d="M354.357 157.933C354.345 157.865 355.008 157.659 356.231 157.361C357.453 157.052 359.224 156.652 361.429 156.16C363.714 155.668 366.319 155.119 369.153 154.512C369.884 154.364 370.627 154.204 371.392 154.055C372.112 153.963 373.015 153.517 374.1 154.146C374.626 154.478 374.831 155.233 374.683 155.76C374.557 156.297 374.294 156.698 373.986 157.064C373.38 157.727 372.729 158.322 371.986 158.826C369.039 160.874 365.805 161.709 363.223 163.059C361.921 163.711 360.767 164.466 359.864 165.359C358.95 166.24 358.23 167.246 357.476 168.105C356.036 169.912 354.106 170.805 352.78 170.747C351.421 170.725 350.861 170.084 350.906 170.072C350.952 169.981 351.546 170.45 352.757 170.347C353.968 170.255 355.591 169.42 356.916 167.635C357.613 166.777 358.299 165.736 359.258 164.752C360.218 163.757 361.441 162.922 362.789 162.224C365.451 160.782 368.673 159.89 371.392 157.991C372.066 157.533 372.672 156.961 373.198 156.4C373.689 155.84 373.872 155.153 373.506 154.97C373.152 154.707 372.329 154.867 371.575 155.027C370.81 155.176 370.067 155.313 369.336 155.451C366.479 155.977 363.863 156.457 361.566 156.881C359.35 157.27 357.556 157.567 356.311 157.762C355.065 157.933 354.368 158.002 354.357 157.933Z" fill="#EB996E"/>
<path d="M373.872 151.881C373.986 151.95 374.226 150.462 375.905 149.135C376.728 148.483 377.939 148.037 379.333 148.014C380.727 147.968 382.258 148.3 383.846 148.78C385.434 149.25 387 149.719 388.485 149.833C389.97 149.947 391.341 149.753 392.381 149.227C393.444 148.712 393.946 147.774 394.038 147.144C394.14 146.515 394.038 146.172 394.015 146.172C393.946 146.172 393.958 146.515 393.786 147.087C393.615 147.648 393.135 148.391 392.175 148.803C391.227 149.215 389.936 149.353 388.542 149.215C387.137 149.078 385.64 148.609 384.029 148.128C382.429 147.648 380.807 147.316 379.299 147.396C377.802 147.453 376.454 148.014 375.608 148.769C374.74 149.513 374.283 150.348 374.066 150.931C373.849 151.526 373.826 151.881 373.872 151.881Z" fill="#EB996E"/>
<path d="M373.814 127.305C373.723 127.283 373.346 128.507 372.752 130.475C372.077 132.66 371.278 135.28 370.386 138.163C369.45 141.035 368.615 143.632 367.907 145.817C367.267 147.774 366.867 148.986 366.959 149.021C367.039 149.055 367.587 147.9 368.353 145.977C369.118 144.055 370.078 141.367 371.026 138.369C371.975 135.372 372.729 132.614 373.209 130.612C373.677 128.587 373.894 127.328 373.814 127.305Z" fill="#EB996E"/>
<path d="M376.316 156.652C376.328 156.698 376.705 156.652 377.356 156.595C377.985 156.549 379.047 156.492 379.847 157.27C380.235 157.636 380.384 158.22 380.247 158.861C380.133 159.501 379.778 160.153 379.436 160.886C379.093 161.595 378.739 162.522 379.013 163.517C379.298 164.467 380.087 165.233 381.047 165.565C382.029 165.908 383.08 165.714 383.892 165.279C384.714 164.833 385.377 164.204 385.788 163.437C386.519 161.95 386.828 160.531 387.034 159.318C387.216 158.105 387.205 157.099 387.068 156.424C386.919 155.737 386.691 155.417 386.668 155.44C386.611 155.463 386.748 155.806 386.816 156.458C386.874 157.11 386.816 158.071 386.577 159.238C386.325 160.382 385.948 161.789 385.251 163.14C384.566 164.375 382.852 165.462 381.264 164.936C380.487 164.673 379.858 164.043 379.641 163.334C379.424 162.613 379.676 161.847 379.995 161.149C380.304 160.439 380.681 159.73 380.795 158.963C380.944 158.22 380.704 157.373 380.178 156.938C379.127 156.046 377.95 156.241 377.322 156.355C376.659 156.469 376.316 156.607 376.316 156.652Z" fill="#EB996E"/>
<path d="M383.789 164.695C383.755 164.684 383.561 164.993 383.583 165.622C383.606 166.228 383.926 167.201 384.909 167.865C385.869 168.505 387.411 168.62 388.759 167.91C390.107 167.201 391.147 165.817 391.673 164.203C392.198 162.579 392.141 160.885 391.673 159.49C391.216 158.082 390.37 157.007 389.559 156.286C388.736 155.554 387.925 155.165 387.354 154.959C386.783 154.753 386.44 154.719 386.428 154.764C386.371 154.879 387.731 155.176 389.228 156.641C389.959 157.362 390.702 158.391 391.079 159.684C391.478 160.966 391.501 162.522 391.033 164.009C390.564 165.485 389.616 166.743 388.462 167.384C387.32 168.025 385.994 167.979 385.149 167.476C384.292 166.984 383.926 166.148 383.835 165.611C383.755 165.039 383.846 164.707 383.789 164.695Z" fill="#EB996E"/>
<path d="M369.37 171.858C369.393 171.8 368.856 171.503 367.839 171.388C366.834 171.274 365.314 171.423 363.863 172.338L364.354 172.67C364.503 171.972 364.617 171.217 364.686 170.427C365.074 166.011 363.669 162.602 363.532 162.693C363.337 162.739 364.411 166.126 364.023 170.37C363.954 171.137 363.851 171.869 363.737 172.544L363.6 173.288L364.229 172.876C365.508 172.018 366.891 171.8 367.828 171.789C368.776 171.789 369.347 171.949 369.37 171.858Z" fill="#EB996E"/>
<path d="M378.385 144.719C378.213 144.742 378.465 146.092 379.676 147.144C380.876 148.208 382.247 148.277 382.247 148.105C382.281 147.911 381.15 147.579 380.11 146.652C379.047 145.737 378.568 144.65 378.385 144.719Z" fill="#EB996E"/>
<path d="M243.163 309.689L288.454 310.135L280.833 277.219L283.381 283.432C288.191 295.159 299.594 302.825 312.265 302.825C326.592 302.825 336.487 292.15 342.554 279.153C356.721 248.765 370.375 199.831 370.375 199.831L342.748 175.53C322.765 213.389 303.97 246.282 303.97 246.282C303.97 246.282 298.543 229.773 294.361 215.037C290.168 200.312 290.202 192.566 283.758 185.21C273.863 173.917 259.753 171.103 246.648 167.728L246.157 228.869L243.163 309.689Z" fill="#E8505B"/>
<path d="M191.36 264.153L273.852 280.24L277.874 311.977H151.394C136.723 312.172 125.058 299.712 126.212 285.068C128.028 261.934 130.005 233.445 131.513 221.398C132.678 212.005 136.426 202.291 140.859 193.928C147.246 181.892 168.52 166.423 187.178 165.668L190.709 244.349" fill="#E8505B"/>
<g opacity="0.4">
<path d="M243.163 309.689L288.454 310.135L280.833 277.219L283.381 283.431C288.191 295.159 299.594 302.824 312.265 302.824C326.592 302.824 336.487 292.149 342.554 279.152C356.721 248.765 370.375 199.831 370.375 199.831L342.748 175.53C322.765 213.389 303.97 246.282 303.97 246.282C303.97 246.282 298.543 229.772 294.361 215.036C290.168 200.311 290.202 192.566 283.758 185.209C273.863 173.917 259.753 171.102 246.648 167.727L246.157 228.869L243.163 309.689Z" fill="#F8B814"/>
<path d="M191.36 264.153L265.763 277.825C268.859 278.397 271.316 280.789 271.967 283.878L277.874 311.989H151.394C136.723 312.183 125.058 299.724 126.212 285.079C128.028 261.945 130.005 233.457 131.513 221.409C132.678 212.016 136.426 202.302 140.859 193.939C147.246 181.903 168.52 166.434 187.178 165.679L190.709 244.36" fill="#F8B814"/>
</g>
<path d="M175.65 261.853C175.627 261.853 175.615 261.59 175.615 261.098C175.615 260.538 175.615 259.828 175.627 258.936C175.638 256.98 175.65 254.279 175.673 250.973C175.684 244.257 175.558 234.978 175.033 224.738C174.781 219.624 174.439 214.75 174.084 210.323C173.753 205.895 173.365 201.913 172.428 198.698C171.525 195.483 170.074 193.127 168.794 191.799C167.515 190.449 166.566 189.957 166.624 189.889C166.624 189.889 167.606 190.312 168.966 191.639C170.325 192.955 171.879 195.335 172.839 198.584C173.844 201.833 174.279 205.86 174.644 210.277C175.033 214.705 175.375 219.59 175.638 224.716C176.164 234.967 176.221 244.257 176.107 250.984C176.05 254.348 175.958 257.071 175.867 258.947C175.821 259.84 175.775 260.549 175.753 261.11C175.707 261.602 175.673 261.853 175.65 261.853Z" fill="#263238"/>
<path d="M272.253 282.482C272.184 282.551 271.43 281.304 269.248 280.045C268.162 279.427 266.746 278.844 265.032 278.363C263.318 277.871 261.33 277.494 259.125 277.047C250.316 275.251 238.136 272.746 224.654 270.217C211.16 267.689 198.901 265.652 190.023 264.233C185.624 263.524 182.048 262.952 179.5 262.54C178.301 262.334 177.352 262.174 176.644 262.06C175.993 261.945 175.65 261.877 175.65 261.854C175.65 261.831 176.004 261.865 176.655 261.945C177.364 262.037 178.323 262.163 179.523 262.311C182.014 262.643 185.624 263.146 190.069 263.81C198.969 265.126 211.24 267.094 224.745 269.634C238.239 272.162 250.407 274.725 259.193 276.636C261.387 277.116 263.387 277.528 265.112 278.043C266.837 278.558 268.265 279.187 269.351 279.851C270.436 280.503 271.167 281.189 271.613 281.681C271.853 281.921 271.99 282.139 272.093 282.265C272.207 282.402 272.264 282.482 272.253 282.482Z" fill="#263238"/>
<path d="M175.901 261.854C175.924 261.957 174.381 262.323 172.028 263.272C170.851 263.741 169.491 264.405 168.04 265.24C166.601 266.098 165.081 267.139 163.596 268.375C162.122 269.634 160.842 270.949 159.745 272.231C158.671 273.524 157.78 274.748 157.117 275.823C155.769 277.974 155.152 279.439 155.049 279.393C155.015 279.381 155.141 279.004 155.404 278.329C155.655 277.654 156.112 276.716 156.752 275.594C157.38 274.473 158.249 273.192 159.311 271.865C160.397 270.549 161.699 269.187 163.196 267.906C164.715 266.647 166.281 265.595 167.755 264.748C169.251 263.924 170.645 263.284 171.868 262.86C173.079 262.426 174.084 262.14 174.793 262.002C175.501 261.876 175.89 261.819 175.901 261.854Z" fill="#263238"/>
<path d="M282.421 281.624C282.398 281.624 282.341 281.361 282.25 280.834C282.158 280.251 282.033 279.496 281.873 278.558C281.553 276.578 281.142 273.718 280.662 270.171C279.702 263.089 278.537 253.273 277.554 242.404C276.583 231.535 275.977 221.661 275.669 214.522C275.509 210.952 275.406 208.057 275.372 206.055C275.36 205.106 275.349 204.339 275.337 203.755C275.337 203.229 275.349 202.955 275.36 202.955C275.383 202.955 275.417 203.229 275.452 203.755C275.486 204.339 275.543 205.106 275.6 206.055C275.714 208.115 275.886 210.986 276.091 214.51C276.514 221.649 277.177 231.5 278.148 242.358C279.131 253.216 280.228 263.032 281.084 270.126C281.507 273.627 281.861 276.475 282.113 278.523C282.227 279.473 282.307 280.228 282.376 280.812C282.433 281.349 282.444 281.624 282.421 281.624Z" fill="#263238"/>
<path d="M309.774 269.325C309.74 269.348 309.512 269.084 309.112 268.57C308.712 268.066 308.186 267.288 307.592 266.304C306.404 264.325 305.067 261.385 304.256 257.941C303.456 254.486 303.353 251.259 303.536 248.959C303.627 247.804 303.753 246.877 303.89 246.248C304.016 245.619 304.107 245.275 304.153 245.275C304.256 245.287 304.027 246.694 303.959 248.971C303.879 251.248 304.05 254.405 304.827 257.792C305.627 261.179 306.872 264.085 307.958 266.087C309.032 268.1 309.866 269.267 309.774 269.325Z" fill="#263238"/>
<path d="M175.318 219.35C175.318 219.373 175.17 219.396 174.896 219.441C174.61 219.464 174.199 219.556 173.65 219.556C172.565 219.624 170.988 219.556 169.069 219.201C167.149 218.846 164.933 218.148 162.567 217.164C160.202 216.181 157.689 214.922 155.049 213.606C152.422 212.302 149.851 211.192 147.44 210.414C145.029 209.648 142.778 209.201 140.87 209.133C137.031 208.938 134.769 209.979 134.746 209.831C134.735 209.808 134.872 209.751 135.135 209.648C135.409 209.556 135.786 209.373 136.323 209.247C137.363 208.938 138.939 208.687 140.893 208.721C142.847 208.744 145.155 209.156 147.611 209.899C150.068 210.654 152.673 211.764 155.312 213.08C157.952 214.396 160.442 215.666 162.773 216.661C165.104 217.656 167.275 218.4 169.137 218.789C172.908 219.613 175.318 219.201 175.318 219.35Z" fill="#FAFAFA"/>
<path d="M189.441 216.558C189.464 216.718 186.459 217.371 182.723 218.011C178.986 218.652 175.924 219.03 175.901 218.869C175.879 218.709 178.884 218.057 182.62 217.416C186.356 216.776 189.418 216.398 189.441 216.558Z" fill="#FAFAFA"/>
<path d="M174.804 241.122C174.816 241.156 174.222 241.42 173.148 241.843C172.062 242.266 170.474 242.838 168.497 243.479C164.544 244.772 158.968 246.282 152.707 247.392C149.577 247.941 146.572 248.342 143.83 248.616C141.099 248.902 138.585 249.051 136.494 248.811C134.404 248.605 132.758 248.021 131.73 247.449C131.216 247.163 130.839 246.911 130.599 246.717C130.359 246.522 130.245 246.419 130.256 246.397C130.29 246.351 130.805 246.751 131.844 247.243C132.884 247.735 134.484 248.25 136.54 248.387C138.597 248.559 141.053 248.376 143.773 248.055C146.503 247.758 149.485 247.335 152.604 246.797C158.843 245.699 164.396 244.257 168.372 243.067C170.36 242.484 171.959 241.969 173.068 241.614C174.176 241.259 174.793 241.076 174.804 241.122Z" fill="#FAFAFA"/>
<path d="M189.121 247.14C189.121 247.301 186.333 247.484 182.894 247.541C179.455 247.598 176.667 247.506 176.667 247.346C176.667 247.186 179.455 247.003 182.894 246.946C186.333 246.889 189.121 246.98 189.121 247.14Z" fill="#FAFAFA"/>
<path d="M130.325 299.266C130.302 299.266 130.347 299.049 130.45 298.66C130.576 298.202 130.725 297.63 130.907 296.943C131.01 296.566 131.124 296.154 131.25 295.708C131.399 295.262 131.581 294.793 131.776 294.278C132.176 293.259 132.553 292.058 133.192 290.834C133.489 290.205 133.798 289.553 134.118 288.877C134.449 288.202 134.872 287.539 135.272 286.829C136.037 285.388 137.054 283.981 138.083 282.459C140.253 279.519 142.927 276.487 146.092 273.695C149.302 270.938 152.673 268.718 155.872 266.968C157.517 266.155 159.048 265.343 160.579 264.782C161.333 264.485 162.053 264.165 162.773 263.924C163.493 263.696 164.178 263.478 164.841 263.272C166.144 262.815 167.378 262.597 168.452 262.345C168.989 262.231 169.48 262.105 169.948 262.025C170.405 261.968 170.828 261.911 171.217 261.853C171.925 261.762 172.508 261.693 172.976 261.636C173.376 261.59 173.593 261.579 173.593 261.602C173.593 261.625 173.387 261.67 172.988 261.751C172.519 261.842 171.948 261.945 171.251 262.082C170.862 262.151 170.451 262.22 169.994 262.3C169.537 262.391 169.046 262.54 168.52 262.666C167.469 262.952 166.246 263.192 164.967 263.673C164.316 263.89 163.641 264.119 162.933 264.359C162.225 264.599 161.528 264.943 160.774 265.24C159.265 265.812 157.757 266.636 156.135 267.448C152.97 269.21 149.657 271.418 146.48 274.141C143.35 276.91 140.699 279.896 138.517 282.791C137.488 284.278 136.472 285.663 135.695 287.081C135.295 287.779 134.861 288.431 134.529 289.095C134.198 289.758 133.878 290.411 133.569 291.017C132.918 292.23 132.507 293.397 132.084 294.404C131.878 294.907 131.673 295.376 131.513 295.811C131.376 296.246 131.239 296.657 131.124 297.024C130.896 297.699 130.713 298.259 130.565 298.705C130.427 299.072 130.347 299.266 130.325 299.266Z" fill="#FAFAFA"/>
<path d="M187.624 264.119C187.749 264.222 185.122 265.835 182.928 270.023C181.842 272.094 180.894 274.748 180.3 277.791C179.694 280.835 179.455 284.256 179.215 287.848C178.975 291.441 178.712 294.896 178.049 297.973C177.398 301.051 176.37 303.728 175.181 305.811C173.993 307.881 172.691 309.346 171.697 310.227C171.194 310.662 170.794 310.982 170.497 311.177C170.211 311.371 170.051 311.474 170.04 311.451C169.914 311.348 172.576 309.781 174.816 305.616C175.924 303.557 176.895 300.914 177.512 297.87C178.141 294.827 178.392 291.406 178.621 287.814C178.86 284.221 179.112 280.766 179.763 277.688C180.403 274.611 181.397 271.922 182.551 269.828C183.716 267.746 184.996 266.259 185.979 265.366C186.47 264.92 186.87 264.6 187.167 264.405C187.464 264.199 187.612 264.108 187.624 264.119Z" fill="#FAFAFA"/>
<path d="M207.127 312.172C206.967 312.172 207.15 302.31 207.55 290.159C207.95 277.997 208.407 268.158 208.567 268.158C208.727 268.158 208.544 278.02 208.144 290.182C207.744 302.321 207.287 312.172 207.127 312.172Z" fill="#FAFAFA"/>
<path d="M238.136 310.467C238.102 310.479 237.919 309.975 237.633 309.037C237.485 308.568 237.314 307.996 237.165 307.321C237.016 306.646 236.811 305.879 236.685 305.01C236.365 303.294 236.148 301.211 236.08 298.9C236.045 296.589 236.171 294.038 236.559 291.395C236.982 288.752 237.622 286.281 238.353 284.084C239.119 281.899 239.941 279.977 240.764 278.432C241.141 277.643 241.564 276.979 241.918 276.373C242.261 275.766 242.592 275.274 242.878 274.874C243.438 274.073 243.758 273.638 243.792 273.661C243.895 273.73 242.661 275.503 241.153 278.615C240.387 280.171 239.61 282.082 238.89 284.244C238.205 286.418 237.576 288.866 237.165 291.463C236.777 294.072 236.639 296.589 236.651 298.866C236.697 301.154 236.857 303.202 237.131 304.918C237.611 308.373 238.25 310.444 238.136 310.467Z" fill="#FAFAFA"/>
<path d="M185.476 184.02C185.43 184.123 183.67 183.322 180.7 182.361C177.741 181.4 173.547 180.37 168.817 179.947C164.087 179.535 159.78 179.809 156.695 180.244C153.61 180.667 151.736 181.136 151.702 181.034C151.69 180.999 152.147 180.85 152.993 180.61C153.838 180.37 155.072 180.095 156.626 179.821C159.711 179.283 164.076 178.928 168.863 179.352C173.65 179.786 177.878 180.896 180.826 181.96C182.299 182.498 183.476 182.979 184.265 183.368C185.064 183.757 185.499 183.985 185.476 184.02Z" fill="#FAFAFA"/>
<path d="M275.738 232.118C275.726 232.198 274.115 232.152 271.499 232.049C268.882 231.946 265.272 231.809 261.284 231.706C257.297 231.603 253.686 231.569 251.07 231.535C248.453 231.5 246.831 231.477 246.831 231.386C246.831 231.34 247.231 231.294 247.962 231.249C248.693 231.203 249.756 231.146 251.058 231.111C253.675 231.031 257.297 231.008 261.296 231.1C265.295 231.203 268.905 231.409 271.51 231.615C272.813 231.718 273.875 231.821 274.595 231.912C275.338 232.015 275.738 232.084 275.738 232.118Z" fill="#FAFAFA"/>
<path d="M298.291 227.85C298.326 227.953 296.863 228.445 294.635 229.544C292.407 230.642 289.46 232.427 286.637 234.944C283.815 237.472 281.702 240.195 280.365 242.289C279.017 244.383 278.365 245.779 278.263 245.733C278.228 245.721 278.365 245.355 278.64 244.703C278.902 244.051 279.371 243.147 280.011 242.06C281.279 239.886 283.381 237.06 286.249 234.498C289.128 231.935 292.167 230.173 294.464 229.166C295.618 228.663 296.566 228.297 297.24 228.114C297.903 227.896 298.28 227.805 298.291 227.85Z" fill="#FAFAFA"/>
<path d="M287.163 191.17C287.175 191.319 284.832 190.804 281.359 191.982C279.622 192.532 277.657 193.481 275.498 194.591C273.338 195.689 270.962 196.982 268.254 197.852C262.838 199.625 257.548 199.476 253.938 198.79C252.121 198.447 250.681 198 249.71 197.646C248.751 197.28 248.225 197.028 248.248 196.994C248.282 196.879 250.396 197.795 254.006 198.367C257.594 198.939 262.77 199.019 268.071 197.28C270.722 196.433 273.075 195.175 275.246 194.099C277.417 193.012 279.439 192.097 281.222 191.582C283.004 191.044 284.524 190.907 285.564 190.964C286.078 190.964 286.478 191.044 286.752 191.079C287.026 191.113 287.175 191.147 287.163 191.17Z" fill="#FAFAFA"/>
<path d="M281.462 267.86C281.473 267.895 281.005 268.112 280.136 268.478C279.702 268.661 279.165 268.879 278.525 269.085C277.886 269.29 277.166 269.565 276.355 269.771C274.732 270.252 272.756 270.663 270.539 270.984C268.322 271.27 265.855 271.43 263.272 271.373C260.69 271.281 258.234 270.972 256.04 270.549C253.846 270.103 251.893 269.565 250.304 268.993C249.493 268.741 248.796 268.421 248.168 268.181C247.539 267.94 247.014 267.689 246.591 267.483C245.746 267.071 245.289 266.819 245.3 266.785C245.346 266.682 247.231 267.586 250.43 268.604C252.03 269.119 253.961 269.611 256.131 270.023C258.314 270.4 260.724 270.698 263.284 270.789C265.832 270.858 268.265 270.709 270.47 270.457C272.664 270.171 274.629 269.805 276.252 269.382C279.497 268.547 281.428 267.746 281.462 267.86Z" fill="#FAFAFA"/>
<path d="M307.718 301.714C307.706 301.726 307.546 301.6 307.272 301.348C307.009 301.085 306.575 300.73 306.095 300.193C305.101 299.163 303.799 297.538 302.485 295.342C299.811 290.971 297.537 284.026 297.389 276.178C297.252 268.341 298.783 261.362 299.983 256.43C300.6 253.959 301.148 251.968 301.548 250.595C301.742 249.966 301.891 249.451 302.028 249.028C302.142 248.673 302.211 248.49 302.233 248.49C302.256 248.49 302.222 248.696 302.142 249.062C302.039 249.497 301.925 250.023 301.776 250.664C301.434 252.14 300.965 254.119 300.394 256.533C299.297 261.487 297.846 268.421 297.983 276.178C298.132 283.923 300.302 290.777 302.839 295.136C304.096 297.332 305.33 298.98 306.267 300.044C307.192 301.108 307.752 301.669 307.718 301.714Z" fill="#FAFAFA"/>
<path d="M349.295 262.86C349.203 262.998 347.33 260.927 343.251 259.462C341.228 258.719 338.738 258.101 335.938 257.563C333.139 256.991 330.02 256.476 326.832 255.458C320.457 253.421 315.452 249.772 312.356 246.74C310.791 245.218 309.671 243.857 308.94 242.884C308.563 242.404 308.311 242.003 308.129 241.74C307.957 241.477 307.866 241.328 307.889 241.317C307.923 241.294 308.346 241.809 309.123 242.735C309.9 243.651 311.076 244.955 312.653 246.431C315.784 249.36 320.754 252.884 327.026 254.886C330.146 255.881 333.253 256.419 336.053 257.014C338.863 257.586 341.377 258.261 343.411 259.062C345.444 259.863 346.964 260.812 347.912 261.579C348.415 261.934 348.735 262.288 348.975 262.506C349.203 262.723 349.318 262.849 349.295 262.86Z" fill="#FAFAFA"/>
<path d="M362.366 224.682C362.332 224.704 361.897 224.327 361.143 223.618C360.766 223.263 360.309 222.828 359.738 222.348C359.178 221.867 358.561 221.295 357.819 220.734C356.379 219.556 354.585 218.275 352.517 216.97C350.426 215.7 348.05 214.419 345.468 213.298C342.863 212.199 340.303 211.364 337.938 210.723C335.562 210.128 333.402 209.705 331.563 209.476C330.649 209.328 329.815 209.282 329.072 209.202C328.341 209.122 327.701 209.087 327.187 209.064C326.147 209.007 325.576 208.95 325.576 208.916C325.576 208.87 326.147 208.847 327.198 208.836C327.724 208.824 328.364 208.824 329.095 208.881C329.837 208.927 330.683 208.95 331.608 209.076C333.471 209.259 335.664 209.636 338.075 210.208C340.475 210.826 343.068 211.65 345.696 212.771C348.312 213.904 350.712 215.22 352.803 216.524C354.882 217.863 356.676 219.201 358.081 220.425C358.813 221.009 359.407 221.604 359.955 222.119C360.504 222.622 360.949 223.08 361.303 223.469C362.012 224.224 362.4 224.659 362.366 224.682Z" fill="#FAFAFA"/>
<path d="M262.392 172.166C262.427 172.235 261.604 172.67 260.222 173.207C258.839 173.757 256.885 174.409 254.68 174.924C252.464 175.439 250.43 175.725 248.945 175.839C247.459 175.953 246.545 175.942 246.534 175.862C246.522 175.679 250.167 175.37 254.543 174.34C258.919 173.333 262.324 171.995 262.392 172.166Z" fill="#FAFAFA"/>
<path d="M302.919 333.315C303.559 335.535 301.708 337.663 299.423 337.354C298.189 337.182 297.172 336.313 296.806 335.111L295.847 331.507L295.984 331.553C296.589 333.716 294.51 335.695 292.282 335.478C290.774 335.443 289.483 333.292 289.06 332.137C286.569 332.434 284.215 330.97 283.256 329.345L276.549 318.865L264.129 309.769L271.636 282.894L298.372 300.216C299.423 301.028 299.583 301.383 301.251 302.927L318.503 318.808C316.55 319.986 314.882 319.895 312.174 318.808C309.466 317.721 297.538 309.666 297.538 309.666L302.919 333.315Z" fill="#FFBE9D"/>
<path d="M280.057 311.2C280.08 311.165 280.365 311.337 280.857 311.669C281.131 311.863 281.428 312.069 281.736 312.287C282.079 312.515 282.49 312.836 282.845 313.248C283.199 313.659 283.53 314.186 283.747 314.804C283.953 315.399 284.17 316.028 284.398 316.68C284.855 318.019 285.347 319.472 285.861 320.982C286.878 324.037 287.769 326.817 288.386 328.842C289.003 330.867 289.346 332.125 289.266 332.148C289.186 332.171 288.706 330.958 287.986 328.968C287.266 326.977 286.318 324.231 285.29 321.176C284.787 319.655 284.318 318.213 283.873 316.863C283.667 316.211 283.462 315.582 283.267 314.975C283.084 314.415 282.81 313.923 282.502 313.522C282.193 313.11 281.851 312.824 281.519 312.561C281.222 312.309 280.959 312.081 280.697 311.863C280.262 311.463 280.034 311.234 280.057 311.2Z" fill="#EB996E"/>
<path d="M296.132 332.079C296.087 332.091 295.961 331.69 295.755 330.97C295.515 330.123 295.23 329.093 294.898 327.903C294.178 325.318 293.196 321.737 291.95 317.835C290.694 313.945 289.403 310.444 287.837 308.305C287.072 307.229 286.272 306.508 285.644 306.119C285.015 305.73 284.615 305.616 284.638 305.559C284.65 305.536 284.752 305.559 284.947 305.605C285.141 305.639 285.415 305.753 285.769 305.925C286.455 306.268 287.346 306.977 288.18 308.064C289.882 310.238 291.254 313.762 292.522 317.664C293.767 321.576 294.693 325.18 295.31 327.8C295.618 329.116 295.847 330.18 295.984 330.912C296.121 331.656 296.178 332.068 296.132 332.079Z" fill="#EB996E"/>
<path d="M303.033 333.704C302.999 333.715 302.827 333.292 302.565 332.503C302.279 331.587 301.925 330.478 301.502 329.162C300.634 326.336 299.468 322.423 298.223 318.098C297.012 313.831 295.926 309.975 295.092 307C294.647 305.616 293.927 304.666 293.264 304.209C292.613 303.728 292.145 303.671 292.156 303.614C292.156 303.602 292.282 303.591 292.499 303.637C292.716 303.682 293.036 303.785 293.401 304.014C294.144 304.438 294.99 305.433 295.492 306.863C296.429 309.689 297.537 313.602 298.806 317.938C300.051 322.274 301.148 326.199 301.913 329.059C302.256 330.386 302.553 331.519 302.793 332.445C302.976 333.246 303.067 333.693 303.033 333.704Z" fill="#EB996E"/>
<path d="M465.389 85.603C465.389 87.8112 467.183 89.6074 469.388 89.6074C471.593 89.6074 473.387 87.8112 473.387 85.603C473.387 83.3949 471.593 81.5986 469.388 81.5986C467.183 81.5986 465.389 83.3949 465.389 85.603Z" fill="#455A64"/>
<path d="M453.381 89.6074C455.59 89.6074 457.38 87.8146 457.38 85.603C457.38 83.3915 455.59 81.5986 453.381 81.5986C451.173 81.5986 449.382 83.3915 449.382 85.603C449.382 87.8146 451.173 89.6074 453.381 89.6074Z" fill="#455A64"/>
<path d="M433.421 83.6009C432.313 85.5115 432.975 87.9714 434.883 89.0697C436.791 90.1795 439.248 89.5159 440.345 87.6053C441.453 85.6946 440.79 83.2347 438.882 82.1364C436.974 81.0266 434.518 81.6902 433.421 83.6009Z" fill="#455A64"/>
<path d="M453.13 38.8315C453.13 38.8086 452.856 38.8086 452.319 38.82C451.736 38.8315 450.948 38.8543 449.942 38.8887C449.417 38.9115 448.834 38.9115 448.194 38.9688C447.554 39.0603 446.857 39.1518 446.103 39.2662C445.338 39.3806 444.526 39.495 443.658 39.6209C442.801 39.8383 441.887 40.0557 440.927 40.2959C437.088 41.2799 432.438 42.9731 427.674 46.0851C422.921 49.1399 417.985 53.5104 413.975 59.4484C410.044 65.3978 407.005 72.8689 406.205 81.2781C406.125 83.3833 405.874 85.5228 406.08 87.6966C406.16 88.7835 406.137 89.8818 406.297 90.9802C406.457 92.0785 406.628 93.1769 406.788 94.2867C407.679 98.6686 408.982 103.165 411.244 107.341C413.449 111.528 416.294 115.521 419.756 119.068C423.298 122.546 427.422 125.567 432.027 127.889C436.609 130.235 441.693 131.859 446.983 132.489C448.297 132.752 449.634 132.752 450.97 132.832C452.307 132.923 453.655 132.969 455.004 132.901C457.7 132.786 460.408 132.454 463.081 131.882C468.886 130.647 474.358 128.278 479.157 125.109L478.666 125.155C484.242 127.397 489.703 129.594 495.039 131.734L496.01 132.123L495.736 131.116C494.079 125.098 492.479 119.251 490.925 113.588L490.846 114.023C495.439 107.902 498.375 100.923 499.586 93.9892C500.192 90.5225 500.454 87.0673 500.226 83.7265C500.157 82.0561 500.077 80.3971 499.757 78.7954C499.632 77.9945 499.506 77.1936 499.38 76.3927C499.232 75.6033 498.992 74.8367 498.809 74.0702C495.644 61.7252 488.058 52.618 480.54 47.4009C476.781 44.7465 473.067 42.8473 469.663 41.6574C468.817 41.3485 467.994 41.0625 467.218 40.7765C466.406 40.5705 465.641 40.376 464.887 40.1815C464.144 39.9985 463.436 39.8268 462.762 39.6552C462.076 39.5294 461.425 39.4493 460.808 39.3578C459.574 39.1976 458.477 38.9916 457.529 38.9344C456.592 38.9001 455.792 38.8772 455.118 38.8543C454.512 38.8429 454.021 38.8315 453.644 38.82C453.301 38.8086 453.13 38.8086 453.13 38.8315C453.13 38.8429 453.301 38.8658 453.621 38.9001C453.998 38.9344 454.478 38.9687 455.084 39.0145C455.746 39.0603 456.546 39.1175 457.472 39.1747C458.42 39.2433 459.494 39.4836 460.716 39.6667C465.538 40.5476 472.759 42.4812 480.14 47.8814C487.509 53.0986 494.913 62.1256 497.952 74.2532C498.135 75.0084 498.363 75.7635 498.501 76.53C498.615 77.308 498.741 78.0975 498.855 78.8869C499.152 80.4658 499.22 82.079 499.289 83.7265C499.506 87.0101 499.232 90.3967 498.626 93.7833C497.415 100.579 494.525 107.398 490.011 113.382L489.863 113.576L489.931 113.817C491.474 119.48 493.073 125.338 494.707 131.356L495.404 130.738C490.069 128.587 484.607 126.379 479.032 124.137L478.78 124.034L478.552 124.182C473.856 127.271 468.509 129.594 462.83 130.795C460.214 131.356 457.574 131.688 454.935 131.791C453.621 131.848 452.307 131.802 450.993 131.722C449.691 131.642 448.377 131.642 447.097 131.39C441.921 130.784 436.963 129.205 432.473 126.917C427.971 124.651 423.926 121.7 420.453 118.302C417.048 114.835 414.26 110.934 412.089 106.838C409.873 102.753 408.582 98.3597 407.691 94.0693C407.519 92.9824 407.359 91.9069 407.188 90.8315C407.028 89.756 407.051 88.6805 406.971 87.6165C406.765 85.4884 407.005 83.3833 407.074 81.3239C407.828 73.0748 410.764 65.7181 414.592 59.8374C418.499 53.9681 423.332 49.6205 427.994 46.5542C432.655 43.4422 437.237 41.7146 441.03 40.6735C441.979 40.4218 442.881 40.1815 443.727 39.9527C444.584 39.8154 445.395 39.6781 446.149 39.5522C446.891 39.4264 447.588 39.312 448.228 39.209C448.868 39.1404 449.451 39.1175 449.965 39.0832C450.959 39.0145 451.747 38.9573 452.33 38.9115C452.856 38.8772 453.13 38.8429 453.13 38.8315Z" fill="#455A64"/>
</g>
<defs>
<clipPath id="clip0_649_943">
<rect width="793" height="416" fill="white" transform="translate(-3)"/>
</clipPath>
</defs>
</svg>
